<svg width="30" height="30" viewBox="0 0 30 30" fill="none" xmlns="http://www.w3.org/2000/svg">
<path d="M30 15C30 6.71705 23.283 0 15 0C6.71705 0 0 6.71705 0 15C0 23.283 6.71705 30 15 30C23.283 30 30 23.283 30 15Z" fill="#DFFF00"/>
<path d="M23.2588 9.97527C22.9082 9.06234 22.1887 9.20744 21.4088 9.36463C20.9432 9.46137 18.8695 10.066 15.5986 13.5242C14.2383 14.9571 13.3435 16.0998 12.751 16.9704C12.3882 16.5291 11.9771 16.0515 11.5418 15.6222C10.2056 14.286 8.71229 13.3671 8.65183 13.3308C8.0291 12.9499 7.2129 13.1434 6.82596 13.7721C6.44506 14.3949 6.63853 15.2111 7.26127 15.598C7.27336 15.6041 8.5551 16.3961 9.65546 17.5025C10.78 18.627 11.8018 20.1506 11.8139 20.1687C12.0617 20.5436 12.4789 20.7612 12.9203 20.7612C12.9928 20.7612 13.0714 20.7552 13.15 20.7431C13.67 20.6524 14.0811 20.2655 14.2081 19.7576C14.2141 19.7455 14.7401 18.2885 17.5152 15.3622C19.7522 12.9982 21.2455 12.2486 21.7655 12.043C21.7715 12.043 21.7715 12.043 21.7836 12.043C21.7836 12.043 21.8018 12.0369 21.832 12.0188C21.9227 11.9825 21.9711 11.9704 21.9711 11.9704C21.9469 11.9765 21.9348 11.9765 21.9348 11.9765V11.9704C22.1766 11.8677 22.624 11.6742 22.6301 11.6681C23.3012 11.3779 23.5249 10.6524 23.2588 9.97527Z" fill="black"/>
</svg>
