<svg width="29" height="29" viewBox="0 0 29 29" fill="none" xmlns="http://www.w3.org/2000/svg">
<path d="M28.5496 14.2748C28.5496 6.39231 22.1573 0 14.2748 0C6.39231 0 0 6.39231 0 14.2748C0 22.1573 6.39231 28.5496 14.2748 28.5496C22.1573 28.5496 28.5496 22.1573 28.5496 14.2748Z" fill="#8DA616"/>
<path d="M22.1343 9.49285C21.8006 8.62405 21.1159 8.76214 20.3736 8.91173C19.9306 9.00379 17.9571 9.57916 14.8444 12.8702C13.5498 14.2339 12.6983 15.3213 12.1344 16.1498C11.7892 15.7298 11.398 15.2753 10.9837 14.8668C9.71214 13.5952 8.29098 12.7206 8.23345 12.6861C7.64082 12.3236 6.86408 12.5078 6.49585 13.1061C6.13337 13.6988 6.31748 14.4755 6.91011 14.8437C6.92162 14.8495 8.14139 15.6032 9.18855 16.6561C10.2587 17.7263 11.2311 19.1762 11.2426 19.1935C11.4785 19.5502 11.8755 19.7574 12.2955 19.7574C12.3646 19.7574 12.4394 19.7516 12.5142 19.7401C13.009 19.6538 13.4002 19.2856 13.5211 18.8023C13.5268 18.7907 14.0274 17.4041 16.6683 14.6194C18.7972 12.3697 20.2183 11.6562 20.7131 11.4606C20.7189 11.4606 20.7189 11.4606 20.7304 11.4606C20.7304 11.4606 20.7476 11.4548 20.7764 11.4376C20.8627 11.4031 20.9087 11.3916 20.9087 11.3916C20.8857 11.3973 20.8742 11.3973 20.8742 11.3973V11.3916C21.1044 11.2937 21.5301 11.1096 21.5359 11.1039C22.1745 10.8277 22.3874 10.1373 22.1343 9.49285Z" fill="white"/>
</svg>
