<svg width="15" height="15" viewBox="0 0 15 15" fill="none" xmlns="http://www.w3.org/2000/svg">
<path d="M15 7.5C15 3.35852 11.6415 0 7.5 0C3.35852 0 0 3.35852 0 7.5C0 11.6415 3.35852 15 7.5 15C11.6415 15 15 11.6415 15 7.5Z" fill="#8DA616"/>
<path d="M11.6294 4.98764C11.4541 4.53117 11.0944 4.60372 10.7044 4.68232C10.4716 4.73068 9.43474 5.03298 7.79931 6.76212C7.11915 7.47857 6.67175 8.04991 6.37549 8.48522C6.19412 8.26454 5.98855 8.02573 5.7709 7.8111C5.10282 7.14302 4.35615 6.68353 4.32592 6.66539C4.01455 6.47494 3.60645 6.57168 3.41298 6.88607C3.22253 7.19743 3.31927 7.60553 3.63063 7.799C3.63668 7.80203 4.27755 8.19804 4.82773 8.75124C5.39 9.31351 5.90089 10.0753 5.90693 10.0844C6.03087 10.2718 6.23946 10.3806 6.46014 10.3806C6.49641 10.3806 6.53571 10.3776 6.57501 10.3716C6.83499 10.3262 7.04055 10.1327 7.10403 9.87881C7.10705 9.87276 7.37005 9.14423 8.7576 7.68111C9.8761 6.49912 10.6228 6.12428 10.8827 6.02149C10.8858 6.02149 10.8858 6.02149 10.8918 6.02149C10.8918 6.02149 10.9009 6.01847 10.916 6.0094C10.9613 5.99126 10.9855 5.98522 10.9855 5.98522C10.9734 5.98824 10.9674 5.98824 10.9674 5.98824V5.98522C11.0883 5.93383 11.312 5.83709 11.315 5.83407C11.6506 5.68897 11.7624 5.32621 11.6294 4.98764Z" fill="white"/>
</svg>
