<svg width="20" height="20" viewBox="0 0 20 20" fill="none" xmlns="http://www.w3.org/2000/svg">
<path d="M20 10C20 4.4775 15.5225 4.76837e-07 10 4.76837e-07C4.4775 4.76837e-07 4.76837e-07 4.4775 4.76837e-07 10C4.76837e-07 15.5225 4.4775 20 10 20C15.5225 20 20 15.5225 20 10ZM9.41083 13.9225L4.41083 8.9225C4.24833 8.76 4.16667 8.54667 4.16667 8.33333C4.16667 8.12 4.24833 7.90667 4.41083 7.74417C4.73667 7.41833 5.26333 7.41833 5.58917 7.74417L10 12.155L14.4108 7.74417C14.7367 7.41833 15.2633 7.41833 15.5892 7.74417C15.915 8.07 15.915 8.59667 15.5892 8.9225L10.5892 13.9225C10.2633 14.2483 9.73667 14.2483 9.41083 13.9225Z" fill="white"/>
</svg>
