<svg width="195" height="336" viewBox="0 0 195 336" fill="none" xmlns="http://www.w3.org/2000/svg">
<rect x="1" y="1" width="193" height="334" fill="#8DA616" fill-opacity="0.7" stroke="white" stroke-width="2"/>
<rect x="44" y="186.751" width="114.477" height="25.735" rx="12.8675" fill="white"/>
<path d="M59.6419 193.668C60.8896 193.668 61.9799 193.91 62.9129 194.393C63.8571 194.865 64.5821 195.551 65.0879 196.45C65.605 197.338 65.8635 198.378 65.8635 199.57C65.8635 200.761 65.605 201.795 65.0879 202.672C64.5821 203.549 63.8571 204.223 62.9129 204.695C61.9799 205.156 60.8896 205.387 59.6419 205.387H55.8145V193.668H59.6419ZM59.6419 203.819C61.0132 203.819 62.0642 203.448 62.7949 202.706C63.5255 201.964 63.8908 200.919 63.8908 199.57C63.8908 198.21 63.5255 197.147 62.7949 196.383C62.0642 195.619 61.0132 195.236 59.6419 195.236H57.7366V203.819H59.6419Z" fill="black"/>
<path d="M69.6907 193.668V205.387H67.7686V193.668H69.6907Z" fill="black"/>
<path d="M76.0754 205.505C75.2886 205.505 74.5804 205.37 73.951 205.1C73.3215 204.819 72.8269 204.426 72.4672 203.92C72.1075 203.414 71.9277 202.824 71.9277 202.149H73.9847C74.0297 202.655 74.2264 203.071 74.5748 203.397C74.9345 203.723 75.4347 203.886 76.0754 203.886C76.7386 203.886 77.2557 203.729 77.6266 203.414C77.9976 203.088 78.183 202.672 78.183 202.166C78.183 201.773 78.065 201.452 77.829 201.205C77.6042 200.958 77.3175 200.767 76.9691 200.632C76.6318 200.497 76.1597 200.351 75.5527 200.194C74.7884 199.991 74.1645 199.789 73.6812 199.587C73.2091 199.373 72.8044 199.047 72.4672 198.609C72.13 198.17 71.9614 197.586 71.9614 196.855C71.9614 196.181 72.13 195.59 72.4672 195.085C72.8044 194.579 73.2765 194.191 73.8835 193.921C74.4905 193.651 75.193 193.517 75.9911 193.517C77.1264 193.517 78.0538 193.803 78.7732 194.377C79.5038 194.939 79.9085 195.714 79.9872 196.703H77.8627C77.829 196.276 77.6266 195.911 77.2557 195.607C76.8848 195.304 76.3958 195.152 75.7888 195.152C75.238 195.152 74.7884 195.293 74.4399 195.574C74.0915 195.855 73.9172 196.259 73.9172 196.788C73.9172 197.147 74.024 197.445 74.2376 197.681C74.4624 197.906 74.7434 198.086 75.0806 198.221C75.4179 198.356 75.8787 198.502 76.4632 198.659C77.2388 198.873 77.8683 199.086 78.3517 199.3C78.8462 199.513 79.2621 199.845 79.5994 200.295C79.9478 200.733 80.122 201.323 80.122 202.065C80.122 202.661 79.9591 203.223 79.6331 203.751C79.3183 204.279 78.8519 204.707 78.2336 205.033C77.6266 205.347 76.9072 205.505 76.0754 205.505Z" fill="black"/>
<path d="M90.5845 197.159C90.5845 197.754 90.444 198.316 90.163 198.845C89.882 199.373 89.4323 199.806 88.8141 200.143C88.1959 200.469 87.4034 200.632 86.4367 200.632H84.3122V205.387H82.3901V193.668H86.4367C87.336 193.668 88.0947 193.826 88.7129 194.14C89.3424 194.444 89.8089 194.86 90.1124 195.388C90.4271 195.916 90.5845 196.507 90.5845 197.159ZM86.4367 199.064C87.1673 199.064 87.7125 198.901 88.0722 198.575C88.4319 198.238 88.6118 197.766 88.6118 197.159C88.6118 195.877 87.8867 195.236 86.4367 195.236H84.3122V199.064H86.4367Z" fill="black"/>
<path d="M97.7626 205.505C96.6723 205.505 95.6662 205.252 94.7445 204.746C93.834 204.229 93.109 203.515 92.5695 202.605C92.0412 201.683 91.777 200.649 91.777 199.502C91.777 198.356 92.0412 197.327 92.5695 196.417C93.109 195.506 93.834 194.798 94.7445 194.292C95.6662 193.775 96.6723 193.517 97.7626 193.517C98.8642 193.517 99.8702 193.775 100.781 194.292C101.702 194.798 102.427 195.506 102.956 196.417C103.484 197.327 103.748 198.356 103.748 199.502C103.748 200.649 103.484 201.683 102.956 202.605C102.427 203.515 101.702 204.229 100.781 204.746C99.8702 205.252 98.8642 205.505 97.7626 205.505ZM97.7626 203.835C98.5382 203.835 99.2295 203.661 99.8365 203.313C100.443 202.953 100.916 202.447 101.253 201.795C101.601 201.132 101.776 200.368 101.776 199.502C101.776 198.637 101.601 197.878 101.253 197.226C100.916 196.574 100.443 196.074 99.8365 195.725C99.2295 195.377 98.5382 195.203 97.7626 195.203C96.987 195.203 96.2957 195.377 95.6887 195.725C95.0817 196.074 94.604 196.574 94.2556 197.226C93.9183 197.878 93.7497 198.637 93.7497 199.502C93.7497 200.368 93.9183 201.132 94.2556 201.795C94.604 202.447 95.0817 202.953 95.6887 203.313C96.2957 203.661 96.987 203.835 97.7626 203.835Z" fill="black"/>
<path d="M115.267 205.387H113.345L107.562 196.636V205.387H105.64V193.651H107.562L113.345 202.385V193.651H115.267V205.387Z" fill="black"/>
<path d="M119.714 193.668V205.387H117.791V193.668H119.714Z" fill="black"/>
<path d="M128.509 199.367C129.139 199.48 129.673 199.811 130.111 200.362C130.55 200.913 130.769 201.537 130.769 202.234C130.769 202.829 130.611 203.369 130.297 203.852C129.993 204.324 129.549 204.701 128.965 204.982C128.38 205.252 127.7 205.387 126.924 205.387H122.237V193.668H126.705C127.503 193.668 128.189 193.803 128.762 194.073C129.336 194.343 129.768 194.708 130.061 195.169C130.353 195.619 130.499 196.124 130.499 196.686C130.499 197.361 130.319 197.923 129.959 198.373C129.6 198.822 129.116 199.154 128.509 199.367ZM124.159 198.592H126.537C127.166 198.592 127.655 198.451 128.004 198.17C128.363 197.878 128.543 197.462 128.543 196.922C128.543 196.394 128.363 195.984 128.004 195.692C127.655 195.388 127.166 195.236 126.537 195.236H124.159V198.592ZM126.756 203.819C127.408 203.819 127.919 203.661 128.29 203.346C128.661 203.032 128.847 202.593 128.847 202.031C128.847 201.458 128.65 201.003 128.256 200.666C127.863 200.328 127.34 200.16 126.688 200.16H124.159V203.819H126.756Z" fill="black"/>
<path d="M134.78 203.835H138.742V205.387H132.857V193.668H134.78V203.835Z" fill="black"/>
<path d="M142.272 195.22V198.659H146.318V200.227H142.272V203.819H146.824V205.387H140.349V193.651H146.824V195.22H142.272Z" fill="black"/>
<path d="M89.2832 139.435V137.05H93.4382V148H90.7682V139.435H89.2832Z" fill="black"/>
<path d="M95.1929 142.375C95.1929 140.655 95.5229 139.3 96.1829 138.31C96.8529 137.32 97.9279 136.825 99.4079 136.825C100.888 136.825 101.958 137.32 102.618 138.31C103.288 139.3 103.623 140.655 103.623 142.375C103.623 144.115 103.288 145.48 102.618 146.47C101.958 147.46 100.888 147.955 99.4079 147.955C97.9279 147.955 96.8529 147.46 96.1829 146.47C95.5229 145.48 95.1929 144.115 95.1929 142.375ZM101.103 142.375C101.103 141.365 100.993 140.59 100.773 140.05C100.553 139.5 100.098 139.225 99.4079 139.225C98.7179 139.225 98.2629 139.5 98.0429 140.05C97.8229 140.59 97.7129 141.365 97.7129 142.375C97.7129 143.055 97.7529 143.62 97.8329 144.07C97.9129 144.51 98.0729 144.87 98.3129 145.15C98.5629 145.42 98.9279 145.555 99.4079 145.555C99.8879 145.555 100.248 145.42 100.488 145.15C100.738 144.87 100.903 144.51 100.983 144.07C101.063 143.62 101.103 143.055 101.103 142.375Z" fill="black"/>
<path d="M104.708 139.435V137.05H108.863V148H106.193V139.435H104.708Z" fill="black"/>
<path d="M45.6149 153.696V162H44.5229V155.808L41.7629 162H40.9949L38.2229 155.796V162H37.1309V153.696H38.3069L41.3789 160.56L44.4509 153.696H45.6149Z" fill="black"/>
<path d="M50.3348 162.108C49.7188 162.108 49.1588 161.968 48.6548 161.688C48.1588 161.408 47.7668 161.012 47.4788 160.5C47.1988 159.98 47.0588 159.38 47.0588 158.7C47.0588 158.028 47.2028 157.436 47.4908 156.924C47.7868 156.404 48.1868 156.008 48.6908 155.736C49.1948 155.456 49.7588 155.316 50.3828 155.316C51.0068 155.316 51.5708 155.456 52.0748 155.736C52.5788 156.008 52.9748 156.4 53.2628 156.912C53.5588 157.424 53.7068 158.02 53.7068 158.7C53.7068 159.38 53.5548 159.98 53.2508 160.5C52.9548 161.012 52.5508 161.408 52.0388 161.688C51.5268 161.968 50.9588 162.108 50.3348 162.108ZM50.3348 161.148C50.7268 161.148 51.0948 161.056 51.4388 160.872C51.7828 160.688 52.0588 160.412 52.2668 160.044C52.4828 159.676 52.5908 159.228 52.5908 158.7C52.5908 158.172 52.4868 157.724 52.2788 157.356C52.0708 156.988 51.7988 156.716 51.4628 156.54C51.1268 156.356 50.7628 156.264 50.3708 156.264C49.9708 156.264 49.6028 156.356 49.2668 156.54C48.9388 156.716 48.6748 156.988 48.4748 157.356C48.2748 157.724 48.1748 158.172 48.1748 158.7C48.1748 159.236 48.2708 159.688 48.4628 160.056C48.6628 160.424 48.9268 160.7 49.2548 160.884C49.5828 161.06 49.9428 161.148 50.3348 161.148Z" fill="black"/>
<path d="M54.7346 158.688C54.7346 158.016 54.8706 157.428 55.1426 156.924C55.4146 156.412 55.7866 156.016 56.2586 155.736C56.7386 155.456 57.2746 155.316 57.8666 155.316C58.3786 155.316 58.8546 155.436 59.2946 155.676C59.7346 155.908 60.0706 156.216 60.3026 156.6V153.12H61.4066V162H60.3026V160.764C60.0866 161.156 59.7666 161.48 59.3426 161.736C58.9186 161.984 58.4226 162.108 57.8546 162.108C57.2706 162.108 56.7386 161.964 56.2586 161.676C55.7866 161.388 55.4146 160.984 55.1426 160.464C54.8706 159.944 54.7346 159.352 54.7346 158.688ZM60.3026 158.7C60.3026 158.204 60.2026 157.772 60.0026 157.404C59.8026 157.036 59.5306 156.756 59.1866 156.564C58.8506 156.364 58.4786 156.264 58.0706 156.264C57.6626 156.264 57.2906 156.36 56.9546 156.552C56.6186 156.744 56.3506 157.024 56.1506 157.392C55.9506 157.76 55.8506 158.192 55.8506 158.688C55.8506 159.192 55.9506 159.632 56.1506 160.008C56.3506 160.376 56.6186 160.66 56.9546 160.86C57.2906 161.052 57.6626 161.148 58.0706 161.148C58.4786 161.148 58.8506 161.052 59.1866 160.86C59.5306 160.66 59.8026 160.376 60.0026 160.008C60.2026 159.632 60.3026 159.196 60.3026 158.7Z" fill="black"/>
<path d="M69.252 158.46C69.252 158.668 69.24 158.888 69.216 159.12H63.96C64 159.768 64.22 160.276 64.62 160.644C65.028 161.004 65.52 161.184 66.096 161.184C66.568 161.184 66.96 161.076 67.272 160.86C67.592 160.636 67.816 160.34 67.944 159.972H69.12C68.944 160.604 68.592 161.12 68.064 161.52C67.536 161.912 66.88 162.108 66.096 162.108C65.472 162.108 64.912 161.968 64.416 161.688C63.928 161.408 63.544 161.012 63.264 160.5C62.984 159.98 62.844 159.38 62.844 158.7C62.844 158.02 62.98 157.424 63.252 156.912C63.524 156.4 63.904 156.008 64.392 155.736C64.888 155.456 65.456 155.316 66.096 155.316C66.72 155.316 67.272 155.452 67.752 155.724C68.232 155.996 68.6 156.372 68.856 156.852C69.12 157.324 69.252 157.86 69.252 158.46ZM68.124 158.232C68.124 157.816 68.032 157.46 67.848 157.164C67.664 156.86 67.412 156.632 67.092 156.48C66.78 156.32 66.432 156.24 66.048 156.24C65.496 156.24 65.024 156.416 64.632 156.768C64.248 157.12 64.028 157.608 63.972 158.232H68.124Z" fill="black"/>
<path d="M71.7854 153.12V162H70.6934V153.12H71.7854Z" fill="black"/>
<path d="M76.5145 162.108C75.8985 162.108 75.3385 161.968 74.8345 161.688C74.3385 161.408 73.9465 161.012 73.6585 160.5C73.3785 159.98 73.2385 159.38 73.2385 158.7C73.2385 158.028 73.3825 157.436 73.6705 156.924C73.9665 156.404 74.3665 156.008 74.8705 155.736C75.3745 155.456 75.9385 155.316 76.5625 155.316C77.1865 155.316 77.7505 155.456 78.2545 155.736C78.7585 156.008 79.1545 156.4 79.4425 156.912C79.7385 157.424 79.8865 158.02 79.8865 158.7C79.8865 159.38 79.7345 159.98 79.4305 160.5C79.1345 161.012 78.7305 161.408 78.2185 161.688C77.7065 161.968 77.1385 162.108 76.5145 162.108ZM76.5145 161.148C76.9065 161.148 77.2745 161.056 77.6185 160.872C77.9625 160.688 78.2385 160.412 78.4465 160.044C78.6625 159.676 78.7705 159.228 78.7705 158.7C78.7705 158.172 78.6665 157.724 78.4585 157.356C78.2505 156.988 77.9785 156.716 77.6425 156.54C77.3065 156.356 76.9425 156.264 76.5505 156.264C76.1505 156.264 75.7825 156.356 75.4465 156.54C75.1185 156.716 74.8545 156.988 74.6545 157.356C74.4545 157.724 74.3545 158.172 74.3545 158.7C74.3545 159.236 74.4505 159.688 74.6425 160.056C74.8425 160.424 75.1065 160.7 75.4345 160.884C75.7625 161.06 76.1225 161.148 76.5145 161.148Z" fill="black"/>
<path d="M89.4655 160.14H85.8175L85.1455 162H83.9935L87.0175 153.684H88.2775L91.2895 162H90.1375L89.4655 160.14ZM89.1535 159.252L87.6415 155.028L86.1295 159.252H89.1535Z" fill="black"/>
<path d="M98.4394 155.424V162H97.3474V161.028C97.1394 161.364 96.8474 161.628 96.4714 161.82C96.1034 162.004 95.6954 162.096 95.2474 162.096C94.7354 162.096 94.2754 161.992 93.8674 161.784C93.4594 161.568 93.1354 161.248 92.8954 160.824C92.6634 160.4 92.5474 159.884 92.5474 159.276V155.424H93.6274V159.132C93.6274 159.78 93.7914 160.28 94.1194 160.632C94.4474 160.976 94.8954 161.148 95.4634 161.148C96.0474 161.148 96.5074 160.968 96.8434 160.608C97.1794 160.248 97.3474 159.724 97.3474 159.036V155.424H98.4394Z" fill="black"/>
<path d="M101.375 156.492C101.567 156.116 101.839 155.824 102.191 155.616C102.551 155.408 102.987 155.304 103.499 155.304V156.432H103.211C101.987 156.432 101.375 157.096 101.375 158.424V162H100.283V155.424H101.375V156.492Z" fill="black"/>
<path d="M104.352 158.688C104.352 158.016 104.488 157.428 104.76 156.924C105.032 156.412 105.404 156.016 105.876 155.736C106.356 155.456 106.888 155.316 107.472 155.316C108.048 155.316 108.548 155.44 108.972 155.688C109.396 155.936 109.712 156.248 109.92 156.624V155.424H111.024V162H109.92V160.776C109.704 161.16 109.38 161.48 108.948 161.736C108.524 161.984 108.028 162.108 107.46 162.108C106.876 162.108 106.348 161.964 105.876 161.676C105.404 161.388 105.032 160.984 104.76 160.464C104.488 159.944 104.352 159.352 104.352 158.688ZM109.92 158.7C109.92 158.204 109.82 157.772 109.62 157.404C109.42 157.036 109.148 156.756 108.804 156.564C108.468 156.364 108.096 156.264 107.688 156.264C107.28 156.264 106.908 156.36 106.572 156.552C106.236 156.744 105.968 157.024 105.768 157.392C105.568 157.76 105.468 158.192 105.468 158.688C105.468 159.192 105.568 159.632 105.768 160.008C105.968 160.376 106.236 160.66 106.572 160.86C106.908 161.052 107.28 161.148 107.688 161.148C108.096 161.148 108.468 161.052 108.804 160.86C109.148 160.66 109.42 160.376 109.62 160.008C109.82 159.632 109.92 159.196 109.92 158.7Z" fill="black"/>
<path d="M118.876 164.232C118.108 163.48 117.508 162.524 117.076 161.364C116.652 160.204 116.44 158.952 116.44 157.608C116.44 156.232 116.664 154.948 117.112 153.756C117.568 152.556 118.216 151.568 119.056 150.792H120.196V150.9C119.3 151.74 118.624 152.752 118.168 153.936C117.72 155.112 117.496 156.336 117.496 157.608C117.496 158.848 117.708 160.032 118.132 161.16C118.564 162.288 119.192 163.276 120.016 164.124V164.232H118.876Z" fill="black"/>
<path d="M126.678 154.176L123.342 162H122.238L125.622 154.284H120.99V153.348H126.678V154.176Z" fill="black"/>
<path d="M133.42 154.272H129.208V157.008C129.392 156.752 129.664 156.544 130.024 156.384C130.384 156.216 130.772 156.132 131.188 156.132C131.852 156.132 132.392 156.272 132.808 156.552C133.224 156.824 133.52 157.18 133.696 157.62C133.88 158.052 133.972 158.512 133.972 159C133.972 159.576 133.864 160.092 133.648 160.548C133.432 161.004 133.1 161.364 132.652 161.628C132.212 161.892 131.664 162.024 131.008 162.024C130.168 162.024 129.488 161.808 128.968 161.376C128.448 160.944 128.132 160.368 128.02 159.648H129.088C129.192 160.104 129.412 160.46 129.748 160.716C130.084 160.972 130.508 161.1 131.02 161.1C131.652 161.1 132.128 160.912 132.448 160.536C132.768 160.152 132.928 159.648 132.928 159.024C132.928 158.4 132.768 157.92 132.448 157.584C132.128 157.24 131.656 157.068 131.032 157.068C130.608 157.068 130.236 157.172 129.916 157.38C129.604 157.58 129.376 157.856 129.232 158.208H128.2V153.312H133.42V154.272Z" fill="black"/>
<path d="M146.711 155.304C147.223 155.304 147.679 155.412 148.079 155.628C148.479 155.836 148.795 156.152 149.027 156.576C149.259 157 149.375 157.516 149.375 158.124V162H148.295V158.28C148.295 157.624 148.131 157.124 147.803 156.78C147.483 156.428 147.047 156.252 146.495 156.252C145.927 156.252 145.475 156.436 145.139 156.804C144.803 157.164 144.635 157.688 144.635 158.376V162H143.555V158.28C143.555 157.624 143.391 157.124 143.063 156.78C142.743 156.428 142.307 156.252 141.755 156.252C141.187 156.252 140.735 156.436 140.399 156.804C140.063 157.164 139.895 157.688 139.895 158.376V162H138.803V155.424H139.895V156.372C140.111 156.028 140.399 155.764 140.759 155.58C141.127 155.396 141.531 155.304 141.971 155.304C142.523 155.304 143.011 155.428 143.435 155.676C143.859 155.924 144.175 156.288 144.383 156.768C144.567 156.304 144.871 155.944 145.295 155.688C145.719 155.432 146.191 155.304 146.711 155.304Z" fill="black"/>
<path d="M150.854 161.124C151.87 160.308 152.666 159.64 153.242 159.12C153.818 158.592 154.302 158.044 154.694 157.476C155.094 156.9 155.294 156.336 155.294 155.784C155.294 155.264 155.166 154.856 154.91 154.56C154.662 154.256 154.258 154.104 153.698 154.104C153.154 154.104 152.73 154.276 152.426 154.62C152.13 154.956 151.97 155.408 151.946 155.976H150.89C150.922 155.08 151.194 154.388 151.706 153.9C152.218 153.412 152.878 153.168 153.686 153.168C154.51 153.168 155.162 153.396 155.642 153.852C156.13 154.308 156.374 154.936 156.374 155.736C156.374 156.4 156.174 157.048 155.774 157.68C155.382 158.304 154.934 158.856 154.43 159.336C153.926 159.808 153.282 160.36 152.498 160.992H156.626V161.904H150.854V161.124Z" fill="black"/>
<path d="M157.72 164.232V164.124C158.544 163.276 159.168 162.288 159.592 161.16C160.024 160.032 160.24 158.848 160.24 157.608C160.24 156.336 160.012 155.112 159.556 153.936C159.108 152.752 158.436 151.74 157.54 150.9V150.792H158.68C159.52 151.568 160.164 152.556 160.612 153.756C161.068 154.948 161.296 156.232 161.296 157.608C161.296 158.952 161.08 160.204 160.648 161.364C160.224 162.524 159.628 163.48 158.86 164.232H157.72Z" fill="black"/>
<path d="M66.3347 168.32V167.324H68.5907V176H67.4867V168.32H66.3347Z" fill="black"/>
<path d="M78.2497 176L76.2577 172.58H74.9377V176H73.8457V167.636H76.5457C77.1777 167.636 77.7097 167.744 78.1417 167.96C78.5817 168.176 78.9097 168.468 79.1257 168.836C79.3417 169.204 79.4497 169.624 79.4497 170.096C79.4497 170.672 79.2817 171.18 78.9457 171.62C78.6177 172.06 78.1217 172.352 77.4577 172.496L79.5577 176H78.2497ZM74.9377 171.704H76.5457C77.1377 171.704 77.5817 171.56 77.8777 171.272C78.1737 170.976 78.3217 170.584 78.3217 170.096C78.3217 169.6 78.1737 169.216 77.8777 168.944C77.5897 168.672 77.1457 168.536 76.5457 168.536H74.9377V171.704Z" fill="black"/>
<path d="M87.1465 172.46C87.1465 172.668 87.1345 172.888 87.1105 173.12H81.8545C81.8945 173.768 82.1145 174.276 82.5145 174.644C82.9225 175.004 83.4145 175.184 83.9905 175.184C84.4625 175.184 84.8545 175.076 85.1665 174.86C85.4865 174.636 85.7105 174.34 85.8385 173.972H87.0145C86.8385 174.604 86.4865 175.12 85.9585 175.52C85.4305 175.912 84.7745 176.108 83.9905 176.108C83.3665 176.108 82.8065 175.968 82.3105 175.688C81.8225 175.408 81.4385 175.012 81.1585 174.5C80.8785 173.98 80.7385 173.38 80.7385 172.7C80.7385 172.02 80.8745 171.424 81.1465 170.912C81.4185 170.4 81.7985 170.008 82.2865 169.736C82.7825 169.456 83.3505 169.316 83.9905 169.316C84.6145 169.316 85.1665 169.452 85.6465 169.724C86.1265 169.996 86.4945 170.372 86.7505 170.852C87.0145 171.324 87.1465 171.86 87.1465 172.46ZM86.0185 172.232C86.0185 171.816 85.9265 171.46 85.7425 171.164C85.5585 170.86 85.3065 170.632 84.9865 170.48C84.6745 170.32 84.3265 170.24 83.9425 170.24C83.3905 170.24 82.9185 170.416 82.5265 170.768C82.1425 171.12 81.9225 171.608 81.8665 172.232H86.0185Z" fill="black"/>
<path d="M88.1799 172.7C88.1799 172.02 88.3159 171.428 88.5879 170.924C88.8599 170.412 89.2359 170.016 89.7159 169.736C90.2039 169.456 90.7599 169.316 91.3839 169.316C92.1919 169.316 92.8559 169.512 93.3759 169.904C93.9039 170.296 94.2519 170.84 94.4199 171.536H93.2439C93.1319 171.136 92.9119 170.82 92.5839 170.588C92.2639 170.356 91.8639 170.24 91.3839 170.24C90.7599 170.24 90.2559 170.456 89.8719 170.888C89.4879 171.312 89.2959 171.916 89.2959 172.7C89.2959 173.492 89.4879 174.104 89.8719 174.536C90.2559 174.968 90.7599 175.184 91.3839 175.184C91.8639 175.184 92.2639 175.072 92.5839 174.848C92.9039 174.624 93.1239 174.304 93.2439 173.888H94.4199C94.2439 174.56 93.8919 175.1 93.3639 175.508C92.8359 175.908 92.1759 176.108 91.3839 176.108C90.7599 176.108 90.2039 175.968 89.7159 175.688C89.2359 175.408 88.8599 175.012 88.5879 174.5C88.3159 173.988 88.1799 173.388 88.1799 172.7Z" fill="black"/>
<path d="M95.469 172.688C95.469 172.016 95.605 171.428 95.877 170.924C96.149 170.412 96.521 170.016 96.993 169.736C97.473 169.456 98.005 169.316 98.589 169.316C99.165 169.316 99.665 169.44 100.089 169.688C100.513 169.936 100.829 170.248 101.037 170.624V169.424H102.141V176H101.037V174.776C100.821 175.16 100.497 175.48 100.065 175.736C99.641 175.984 99.145 176.108 98.577 176.108C97.993 176.108 97.465 175.964 96.993 175.676C96.521 175.388 96.149 174.984 95.877 174.464C95.605 173.944 95.469 173.352 95.469 172.688ZM101.037 172.7C101.037 172.204 100.937 171.772 100.737 171.404C100.537 171.036 100.265 170.756 99.921 170.564C99.585 170.364 99.213 170.264 98.805 170.264C98.397 170.264 98.025 170.36 97.689 170.552C97.353 170.744 97.085 171.024 96.885 171.392C96.685 171.76 96.585 172.192 96.585 172.688C96.585 173.192 96.685 173.632 96.885 174.008C97.085 174.376 97.353 174.66 97.689 174.86C98.025 175.052 98.397 175.148 98.805 175.148C99.213 175.148 99.585 175.052 99.921 174.86C100.265 174.66 100.537 174.376 100.737 174.008C100.937 173.632 101.037 173.196 101.037 172.7ZM100.185 167.564L97.629 168.932V168.116L100.185 166.616V167.564Z" fill="black"/>
<path d="M111.894 169.304C112.406 169.304 112.862 169.412 113.262 169.628C113.662 169.836 113.978 170.152 114.21 170.576C114.442 171 114.558 171.516 114.558 172.124V176H113.478V172.28C113.478 171.624 113.314 171.124 112.986 170.78C112.666 170.428 112.23 170.252 111.678 170.252C111.11 170.252 110.658 170.436 110.322 170.804C109.986 171.164 109.818 171.688 109.818 172.376V176H108.738V172.28C108.738 171.624 108.574 171.124 108.246 170.78C107.926 170.428 107.49 170.252 106.938 170.252C106.37 170.252 105.918 170.436 105.582 170.804C105.246 171.164 105.078 171.688 105.078 172.376V176H103.986V169.424H105.078V170.372C105.294 170.028 105.582 169.764 105.942 169.58C106.31 169.396 106.714 169.304 107.154 169.304C107.706 169.304 108.194 169.428 108.618 169.676C109.042 169.924 109.358 170.288 109.566 170.768C109.75 170.304 110.054 169.944 110.478 169.688C110.902 169.432 111.374 169.304 111.894 169.304Z" fill="black"/>
<path d="M115.942 172.688C115.942 172.016 116.078 171.428 116.35 170.924C116.622 170.412 116.994 170.016 117.466 169.736C117.946 169.456 118.478 169.316 119.062 169.316C119.638 169.316 120.138 169.44 120.562 169.688C120.986 169.936 121.302 170.248 121.51 170.624V169.424H122.614V176H121.51V174.776C121.294 175.16 120.97 175.48 120.538 175.736C120.114 175.984 119.618 176.108 119.05 176.108C118.466 176.108 117.938 175.964 117.466 175.676C116.994 175.388 116.622 174.984 116.35 174.464C116.078 173.944 115.942 173.352 115.942 172.688ZM121.51 172.7C121.51 172.204 121.41 171.772 121.21 171.404C121.01 171.036 120.738 170.756 120.394 170.564C120.058 170.364 119.686 170.264 119.278 170.264C118.87 170.264 118.498 170.36 118.162 170.552C117.826 170.744 117.558 171.024 117.358 171.392C117.158 171.76 117.058 172.192 117.058 172.688C117.058 173.192 117.158 173.632 117.358 174.008C117.558 174.376 117.826 174.66 118.162 174.86C118.498 175.052 118.87 175.148 119.278 175.148C119.686 175.148 120.058 175.052 120.394 174.86C120.738 174.66 121.01 174.376 121.21 174.008C121.41 173.632 121.51 173.196 121.51 172.7Z" fill="black"/>
<path d="M125.551 170.492C125.743 170.116 126.015 169.824 126.367 169.616C126.727 169.408 127.163 169.304 127.675 169.304V170.432H127.387C126.163 170.432 125.551 171.096 125.551 172.424V176H124.459V169.424H125.551V170.492Z" fill="black"/>
<path d="M128.528 172.688C128.528 172.016 128.664 171.428 128.936 170.924C129.208 170.412 129.58 170.016 130.052 169.736C130.532 169.456 131.064 169.316 131.648 169.316C132.224 169.316 132.724 169.44 133.148 169.688C133.572 169.936 133.888 170.248 134.096 170.624V169.424H135.2V176H134.096V174.776C133.88 175.16 133.556 175.48 133.124 175.736C132.7 175.984 132.204 176.108 131.636 176.108C131.052 176.108 130.524 175.964 130.052 175.676C129.58 175.388 129.208 174.984 128.936 174.464C128.664 173.944 128.528 173.352 128.528 172.688ZM134.096 172.7C134.096 172.204 133.996 171.772 133.796 171.404C133.596 171.036 133.324 170.756 132.98 170.564C132.644 170.364 132.272 170.264 131.864 170.264C131.456 170.264 131.084 170.36 130.748 170.552C130.412 170.744 130.144 171.024 129.944 171.392C129.744 171.76 129.644 172.192 129.644 172.688C129.644 173.192 129.744 173.632 129.944 174.008C130.144 174.376 130.412 174.66 130.748 174.86C131.084 175.052 131.456 175.148 131.864 175.148C132.272 175.148 132.644 175.052 132.98 174.86C133.324 174.66 133.596 174.376 133.796 174.008C133.996 173.632 134.096 173.196 134.096 172.7Z" fill="black"/>
</svg>
