<svg width="359" height="288" viewBox="0 0 359 288" fill="none" xmlns="http://www.w3.org/2000/svg">
<path d="M0 287.5V3.5V0H326.5V113.5H358.5V117L334.5 127V279L358.5 287.5H0Z" fill="#8DA616" fill-opacity="0.5"/>
<rect x="115" y="156.936" width="129" height="29" rx="14.5" fill="white"/>
<path d="M132.626 164.731C134.032 164.731 135.261 165.003 136.312 165.548C137.376 166.08 138.193 166.852 138.763 167.866C139.346 168.866 139.637 170.038 139.637 171.381C139.637 172.723 139.346 173.889 138.763 174.877C138.193 175.865 137.376 176.625 136.312 177.157C135.261 177.676 134.032 177.936 132.626 177.936H128.313V164.731H132.626ZM132.626 176.169C134.172 176.169 135.356 175.751 136.179 174.915C137.003 174.079 137.414 172.901 137.414 171.381C137.414 169.848 137.003 168.651 136.179 167.79C135.356 166.928 134.172 166.498 132.626 166.498H130.479V176.169H132.626Z" fill="black"/>
<path d="M143.95 164.731V177.936H141.784V164.731H143.95Z" fill="black"/>
<path d="M151.145 178.069C150.258 178.069 149.46 177.917 148.751 177.613C148.041 177.296 147.484 176.853 147.079 176.283C146.673 175.713 146.471 175.048 146.471 174.288H148.789C148.839 174.858 149.061 175.326 149.454 175.694C149.859 176.061 150.423 176.245 151.145 176.245C151.892 176.245 152.475 176.067 152.893 175.713C153.311 175.345 153.52 174.877 153.52 174.307C153.52 173.863 153.387 173.502 153.121 173.224C152.867 172.945 152.544 172.73 152.152 172.578C151.772 172.426 151.24 172.261 150.556 172.084C149.694 171.856 148.991 171.628 148.447 171.4C147.915 171.159 147.459 170.792 147.079 170.298C146.699 169.804 146.509 169.145 146.509 168.322C146.509 167.562 146.699 166.897 147.079 166.327C147.459 165.757 147.991 165.32 148.675 165.016C149.359 164.712 150.15 164.56 151.05 164.56C152.329 164.56 153.374 164.883 154.185 165.529C155.008 166.162 155.464 167.036 155.553 168.151H153.159C153.121 167.669 152.893 167.258 152.475 166.916C152.057 166.574 151.506 166.403 150.822 166.403C150.201 166.403 149.694 166.561 149.302 166.878C148.909 167.194 148.713 167.65 148.713 168.246C148.713 168.651 148.833 168.987 149.074 169.253C149.327 169.506 149.644 169.709 150.024 169.861C150.404 170.013 150.923 170.177 151.582 170.355C152.456 170.595 153.165 170.836 153.71 171.077C154.267 171.317 154.736 171.691 155.116 172.198C155.508 172.692 155.705 173.357 155.705 174.193C155.705 174.864 155.521 175.497 155.154 176.093C154.799 176.688 154.273 177.169 153.577 177.537C152.893 177.891 152.082 178.069 151.145 178.069Z" fill="black"/>
<path d="M167.494 168.664C167.494 169.335 167.336 169.968 167.02 170.564C166.703 171.159 166.196 171.647 165.5 172.027C164.803 172.394 163.91 172.578 162.82 172.578H160.426V177.936H158.26V164.731H162.82C163.834 164.731 164.689 164.908 165.385 165.263C166.095 165.605 166.621 166.073 166.963 166.669C167.317 167.264 167.494 167.929 167.494 168.664ZM162.82 170.811C163.644 170.811 164.258 170.627 164.663 170.26C165.069 169.88 165.271 169.348 165.271 168.664C165.271 167.22 164.454 166.498 162.82 166.498H160.426V170.811H162.82Z" fill="black"/>
<path d="M175.583 178.069C174.355 178.069 173.221 177.784 172.182 177.214C171.156 176.631 170.339 175.827 169.731 174.801C169.136 173.762 168.838 172.597 168.838 171.305C168.838 170.013 169.136 168.854 169.731 167.828C170.339 166.802 171.156 166.004 172.182 165.434C173.221 164.851 174.355 164.56 175.583 164.56C176.825 164.56 177.958 164.851 178.984 165.434C180.023 166.004 180.84 166.802 181.435 167.828C182.031 168.854 182.328 170.013 182.328 171.305C182.328 172.597 182.031 173.762 181.435 174.801C180.84 175.827 180.023 176.631 178.984 177.214C177.958 177.784 176.825 178.069 175.583 178.069ZM175.583 176.188C176.457 176.188 177.236 175.991 177.92 175.599C178.604 175.193 179.136 174.623 179.516 173.889C179.909 173.141 180.105 172.28 180.105 171.305C180.105 170.329 179.909 169.474 179.516 168.74C179.136 168.005 178.604 167.441 177.92 167.049C177.236 166.656 176.457 166.46 175.583 166.46C174.709 166.46 173.93 166.656 173.246 167.049C172.562 167.441 172.024 168.005 171.631 168.74C171.251 169.474 171.061 170.329 171.061 171.305C171.061 172.28 171.251 173.141 171.631 173.889C172.024 174.623 172.562 175.193 173.246 175.599C173.93 175.991 174.709 176.188 175.583 176.188Z" fill="black"/>
<path d="M195.309 177.936H193.143L186.626 168.075V177.936H184.46V164.712H186.626L193.143 174.554V164.712H195.309V177.936Z" fill="black"/>
<path d="M200.319 164.731V177.936H198.153V164.731H200.319Z" fill="black"/>
<path d="M210.231 171.153C210.94 171.279 211.542 171.653 212.036 172.274C212.53 172.894 212.777 173.597 212.777 174.383C212.777 175.054 212.6 175.662 212.245 176.207C211.903 176.739 211.403 177.163 210.744 177.48C210.085 177.784 209.319 177.936 208.445 177.936H203.163V164.731H208.198C209.097 164.731 209.87 164.883 210.516 165.187C211.162 165.491 211.65 165.902 211.979 166.422C212.308 166.928 212.473 167.498 212.473 168.132C212.473 168.892 212.27 169.525 211.865 170.032C211.46 170.538 210.915 170.912 210.231 171.153ZM205.329 170.279H208.008C208.717 170.279 209.268 170.12 209.661 169.804C210.066 169.474 210.269 169.006 210.269 168.398C210.269 167.802 210.066 167.34 209.661 167.011C209.268 166.669 208.717 166.498 208.008 166.498H205.329V170.279ZM208.255 176.169C208.99 176.169 209.566 175.991 209.984 175.637C210.402 175.282 210.611 174.788 210.611 174.155C210.611 173.509 210.389 172.996 209.946 172.616C209.503 172.236 208.914 172.046 208.179 172.046H205.329V176.169H208.255Z" fill="black"/>
<path d="M217.297 176.188H221.762V177.936H215.131V164.731H217.297V176.188Z" fill="black"/>
<path d="M225.739 166.479V170.355H230.299V172.122H225.739V176.169H230.869V177.936H223.573V164.712H230.869V166.479H225.739Z" fill="black"/>
<path d="M93.908 103.739V116.944H91.742V107.9L87.714 116.944H86.213L82.166 107.9V116.944H80V103.739H82.337L86.973 114.094L91.59 103.739H93.908Z" fill="black"/>
<path d="M101.296 117.115C100.308 117.115 99.4149 116.893 98.6169 116.45C97.8189 115.994 97.1919 115.361 96.7359 114.55C96.2799 113.727 96.0519 112.777 96.0519 111.7C96.0519 110.636 96.2862 109.692 96.7549 108.869C97.2235 108.046 97.8632 107.412 98.6739 106.969C99.4846 106.526 100.39 106.304 101.391 106.304C102.392 106.304 103.297 106.526 104.108 106.969C104.919 107.412 105.558 108.046 106.027 108.869C106.496 109.692 106.73 110.636 106.73 111.7C106.73 112.764 106.489 113.708 106.008 114.531C105.527 115.354 104.868 115.994 104.032 116.45C103.209 116.893 102.297 117.115 101.296 117.115ZM101.296 115.234C101.853 115.234 102.373 115.101 102.854 114.835C103.348 114.569 103.747 114.17 104.051 113.638C104.355 113.106 104.507 112.46 104.507 111.7C104.507 110.94 104.361 110.3 104.07 109.781C103.779 109.249 103.392 108.85 102.911 108.584C102.43 108.318 101.91 108.185 101.353 108.185C100.796 108.185 100.276 108.318 99.7949 108.584C99.3262 108.85 98.9526 109.249 98.6739 109.781C98.3952 110.3 98.2559 110.94 98.2559 111.7C98.2559 112.827 98.5409 113.701 99.1109 114.322C99.6936 114.93 100.422 115.234 101.296 115.234Z" fill="black"/>
<path d="M108.149 111.662C108.149 110.611 108.364 109.68 108.795 108.869C109.238 108.058 109.834 107.431 110.581 106.988C111.341 106.532 112.183 106.304 113.108 106.304C113.792 106.304 114.463 106.456 115.122 106.76C115.793 107.051 116.325 107.444 116.718 107.938V102.884H118.903V116.944H116.718V115.367C116.363 115.874 115.869 116.292 115.236 116.621C114.615 116.95 113.9 117.115 113.089 117.115C112.177 117.115 111.341 116.887 110.581 116.431C109.834 115.962 109.238 115.316 108.795 114.493C108.364 113.657 108.149 112.713 108.149 111.662ZM116.718 111.7C116.718 110.978 116.566 110.351 116.262 109.819C115.971 109.287 115.584 108.882 115.103 108.603C114.622 108.324 114.102 108.185 113.545 108.185C112.988 108.185 112.468 108.324 111.987 108.603C111.506 108.869 111.113 109.268 110.809 109.8C110.518 110.319 110.372 110.94 110.372 111.662C110.372 112.384 110.518 113.017 110.809 113.562C111.113 114.107 111.506 114.525 111.987 114.816C112.481 115.095 113 115.234 113.545 115.234C114.102 115.234 114.622 115.095 115.103 114.816C115.584 114.537 115.971 114.132 116.262 113.6C116.566 113.055 116.718 112.422 116.718 111.7Z" fill="black"/>
<path d="M131.343 111.453C131.343 111.846 131.318 112.2 131.267 112.517H123.268C123.331 113.353 123.642 114.024 124.199 114.531C124.756 115.038 125.44 115.291 126.251 115.291C127.416 115.291 128.24 114.803 128.721 113.828H131.058C130.741 114.791 130.165 115.582 129.329 116.203C128.506 116.811 127.48 117.115 126.251 117.115C125.25 117.115 124.351 116.893 123.553 116.45C122.768 115.994 122.147 115.361 121.691 114.55C121.248 113.727 121.026 112.777 121.026 111.7C121.026 110.623 121.241 109.68 121.672 108.869C122.115 108.046 122.73 107.412 123.515 106.969C124.313 106.526 125.225 106.304 126.251 106.304C127.239 106.304 128.119 106.519 128.892 106.95C129.665 107.381 130.266 107.989 130.697 108.774C131.128 109.547 131.343 110.44 131.343 111.453ZM129.082 110.769C129.069 109.971 128.784 109.331 128.227 108.85C127.67 108.369 126.979 108.128 126.156 108.128C125.409 108.128 124.769 108.369 124.237 108.85C123.705 109.319 123.388 109.958 123.287 110.769H129.082Z" fill="black"/>
<path d="M135.641 102.884V116.944H133.475V102.884H135.641Z" fill="black"/>
<path d="M143.025 117.115C142.037 117.115 141.144 116.893 140.346 116.45C139.548 115.994 138.921 115.361 138.465 114.55C138.009 113.727 137.781 112.777 137.781 111.7C137.781 110.636 138.016 109.692 138.484 108.869C138.953 108.046 139.593 107.412 140.403 106.969C141.214 106.526 142.12 106.304 143.12 106.304C144.121 106.304 145.027 106.526 145.837 106.969C146.648 107.412 147.288 108.046 147.756 108.869C148.225 109.692 148.459 110.636 148.459 111.7C148.459 112.764 148.219 113.708 147.737 114.531C147.256 115.354 146.597 115.994 145.761 116.45C144.938 116.893 144.026 117.115 143.025 117.115ZM143.025 115.234C143.583 115.234 144.102 115.101 144.583 114.835C145.077 114.569 145.476 114.17 145.78 113.638C146.084 113.106 146.236 112.46 146.236 111.7C146.236 110.94 146.091 110.3 145.799 109.781C145.508 109.249 145.122 108.85 144.64 108.584C144.159 108.318 143.64 108.185 143.082 108.185C142.525 108.185 142.006 108.318 141.524 108.584C141.056 108.85 140.682 109.249 140.403 109.781C140.125 110.3 139.985 110.94 139.985 111.7C139.985 112.827 140.27 113.701 140.84 114.322C141.423 114.93 142.151 115.234 143.025 115.234Z" fill="black"/>
<path d="M157.702 115.196H162.167V116.944H155.536V103.739H157.702V115.196Z" fill="black"/>
<path d="M168.52 117.115C167.532 117.115 166.639 116.893 165.841 116.45C165.043 115.994 164.416 115.361 163.96 114.55C163.504 113.727 163.276 112.777 163.276 111.7C163.276 110.636 163.51 109.692 163.979 108.869C164.447 108.046 165.087 107.412 165.898 106.969C166.708 106.526 167.614 106.304 168.615 106.304C169.615 106.304 170.521 106.526 171.332 106.969C172.142 107.412 172.782 108.046 173.251 108.869C173.719 109.692 173.954 110.636 173.954 111.7C173.954 112.764 173.713 113.708 173.232 114.531C172.75 115.354 172.092 115.994 171.256 116.45C170.432 116.893 169.52 117.115 168.52 117.115ZM168.52 115.234C169.077 115.234 169.596 115.101 170.078 114.835C170.572 114.569 170.971 114.17 171.275 113.638C171.579 113.106 171.731 112.46 171.731 111.7C171.731 110.94 171.585 110.3 171.294 109.781C171.002 109.249 170.616 108.85 170.135 108.584C169.653 108.318 169.134 108.185 168.577 108.185C168.019 108.185 167.5 108.318 167.019 108.584C166.55 108.85 166.176 109.249 165.898 109.781C165.619 110.3 165.48 110.94 165.48 111.7C165.48 112.827 165.765 113.701 166.335 114.322C166.917 114.93 167.646 115.234 168.52 115.234Z" fill="black"/>
<path d="M178.622 108.242V114.037C178.622 114.43 178.71 114.715 178.888 114.892C179.078 115.057 179.394 115.139 179.838 115.139H181.168V116.944H179.458C178.482 116.944 177.735 116.716 177.216 116.26C176.696 115.804 176.437 115.063 176.437 114.037V108.242H175.202V106.475H176.437V103.872H178.622V106.475H181.168V108.242H178.622Z" fill="black"/>
<path d="M192.645 106.475V116.944H190.479V115.709C190.137 116.14 189.687 116.482 189.13 116.735C188.585 116.976 188.003 117.096 187.382 117.096C186.559 117.096 185.818 116.925 185.159 116.583C184.513 116.241 184 115.734 183.62 115.063C183.253 114.392 183.069 113.581 183.069 112.631V106.475H185.216V112.308C185.216 113.245 185.45 113.967 185.919 114.474C186.388 114.968 187.027 115.215 187.838 115.215C188.649 115.215 189.288 114.968 189.757 114.474C190.238 113.967 190.479 113.245 190.479 112.308V106.475H192.645Z" fill="black"/>
<path d="M199.303 117.115C198.48 117.115 197.739 116.969 197.08 116.678C196.434 116.374 195.921 115.969 195.541 115.462C195.161 114.943 194.958 114.366 194.933 113.733H197.175C197.213 114.176 197.422 114.55 197.802 114.854C198.195 115.145 198.682 115.291 199.265 115.291C199.873 115.291 200.342 115.177 200.671 114.949C201.013 114.708 201.184 114.404 201.184 114.037C201.184 113.644 200.994 113.353 200.614 113.163C200.247 112.973 199.658 112.764 198.847 112.536C198.062 112.321 197.422 112.112 196.928 111.909C196.434 111.706 196.003 111.396 195.636 110.978C195.281 110.56 195.104 110.009 195.104 109.325C195.104 108.768 195.269 108.261 195.598 107.805C195.927 107.336 196.396 106.969 197.004 106.703C197.625 106.437 198.334 106.304 199.132 106.304C200.323 106.304 201.279 106.608 202.001 107.216C202.736 107.811 203.128 108.628 203.179 109.667H201.013C200.975 109.198 200.785 108.825 200.443 108.546C200.101 108.267 199.639 108.128 199.056 108.128C198.486 108.128 198.049 108.236 197.745 108.451C197.441 108.666 197.289 108.951 197.289 109.306C197.289 109.585 197.39 109.819 197.593 110.009C197.796 110.199 198.043 110.351 198.334 110.465C198.625 110.566 199.056 110.699 199.626 110.864C200.386 111.067 201.007 111.276 201.488 111.491C201.982 111.694 202.406 111.998 202.761 112.403C203.116 112.808 203.299 113.347 203.312 114.018C203.312 114.613 203.147 115.145 202.818 115.614C202.489 116.083 202.02 116.45 201.412 116.716C200.817 116.982 200.114 117.115 199.303 117.115Z" fill="black"/>
<path d="M214.395 119.92C213.35 118.917 212.544 117.643 211.979 116.096C211.424 114.549 211.147 112.891 211.147 111.12C211.147 109.307 211.446 107.595 212.043 105.984C212.651 104.373 213.542 103.045 214.715 102H216.603V102.176C215.376 103.307 214.454 104.661 213.835 106.24C213.216 107.819 212.907 109.445 212.907 111.12C212.907 112.731 213.195 114.288 213.771 115.792C214.347 117.296 215.184 118.613 216.283 119.744V119.92H214.395Z" fill="black"/>
<path d="M217.758 106.944V105.28H221.086V116.944H219.246V106.944H217.758Z" fill="black"/>
<path d="M224.6 114.464C225.624 113.579 226.429 112.853 227.016 112.288C227.613 111.712 228.109 111.115 228.504 110.496C228.898 109.877 229.096 109.259 229.096 108.64C229.096 108 228.941 107.499 228.632 107.136C228.333 106.773 227.858 106.592 227.208 106.592C226.578 106.592 226.088 106.795 225.736 107.2C225.394 107.595 225.213 108.128 225.192 108.8H223.432C223.464 107.584 223.826 106.656 224.52 106.016C225.224 105.365 226.114 105.04 227.192 105.04C228.354 105.04 229.261 105.36 229.912 106C230.573 106.64 230.904 107.493 230.904 108.56C230.904 109.328 230.706 110.069 230.312 110.784C229.928 111.488 229.464 112.123 228.92 112.688C228.386 113.243 227.704 113.888 226.872 114.624L226.152 115.264H231.224V116.784H223.448V115.456L224.6 114.464Z" fill="black"/>
<path d="M232.826 110.96C232.826 109.115 233.135 107.675 233.754 106.64C234.383 105.595 235.461 105.072 236.986 105.072C238.511 105.072 239.583 105.595 240.202 106.64C240.831 107.675 241.146 109.115 241.146 110.96C241.146 112.827 240.831 114.288 240.202 115.344C239.583 116.389 238.511 116.912 236.986 116.912C235.461 116.912 234.383 116.389 233.754 115.344C233.135 114.288 232.826 112.827 232.826 110.96ZM239.354 110.96C239.354 110.096 239.295 109.365 239.178 108.768C239.071 108.171 238.847 107.685 238.506 107.312C238.165 106.928 237.658 106.736 236.986 106.736C236.314 106.736 235.807 106.928 235.466 107.312C235.125 107.685 234.895 108.171 234.778 108.768C234.671 109.365 234.618 110.096 234.618 110.96C234.618 111.856 234.671 112.608 234.778 113.216C234.885 113.824 235.109 114.315 235.45 114.688C235.802 115.061 236.314 115.248 236.986 115.248C237.658 115.248 238.165 115.061 238.506 114.688C238.858 114.315 239.087 113.824 239.194 113.216C239.301 112.608 239.354 111.856 239.354 110.96Z" fill="black"/>
<path d="M258.144 107.984C258.838 107.984 259.456 108.128 260 108.416C260.555 108.704 260.987 109.131 261.296 109.696C261.616 110.261 261.776 110.944 261.776 111.744V116.944H259.968V112.016C259.968 111.227 259.771 110.624 259.376 110.208C258.982 109.781 258.443 109.568 257.76 109.568C257.078 109.568 256.534 109.781 256.128 110.208C255.734 110.624 255.536 111.227 255.536 112.016V116.944H253.728V112.016C253.728 111.227 253.531 110.624 253.136 110.208C252.742 109.781 252.203 109.568 251.52 109.568C250.838 109.568 250.294 109.781 249.888 110.208C249.494 110.624 249.296 111.227 249.296 112.016V116.944H247.472V108.128H249.296V109.136C249.595 108.773 249.974 108.491 250.432 108.288C250.891 108.085 251.382 107.984 251.904 107.984C252.608 107.984 253.238 108.133 253.792 108.432C254.347 108.731 254.774 109.163 255.072 109.728C255.339 109.195 255.755 108.773 256.32 108.464C256.886 108.144 257.494 107.984 258.144 107.984Z" fill="black"/>
<path d="M264.865 114.464C265.889 113.579 266.695 112.853 267.281 112.288C267.879 111.712 268.375 111.115 268.769 110.496C269.164 109.877 269.361 109.259 269.361 108.64C269.361 108 269.207 107.499 268.897 107.136C268.599 106.773 268.124 106.592 267.473 106.592C266.844 106.592 266.353 106.795 266.001 107.2C265.66 107.595 265.479 108.128 265.457 108.8H263.697C263.729 107.584 264.092 106.656 264.785 106.016C265.489 105.365 266.38 105.04 267.457 105.04C268.62 105.04 269.527 105.36 270.177 106C270.839 106.64 271.169 107.493 271.169 108.56C271.169 109.328 270.972 110.069 270.577 110.784C270.193 111.488 269.729 112.123 269.185 112.688C268.652 113.243 267.969 113.888 267.137 114.624L266.417 115.264H271.489V116.784H263.713V115.456L264.865 114.464Z" fill="black"/>
<path d="M272.884 119.92V119.744C273.982 118.613 274.82 117.296 275.396 115.792C275.972 114.288 276.26 112.731 276.26 111.12C276.26 109.445 275.95 107.819 275.332 106.24C274.713 104.661 273.79 103.307 272.564 102.176V102H274.452C275.625 103.045 276.51 104.373 277.108 105.984C277.716 107.595 278.02 109.307 278.02 111.12C278.02 112.891 277.737 114.549 277.172 116.096C276.617 117.643 275.817 118.917 274.772 119.92H272.884Z" fill="black"/>
<path d="M118.208 142.999C119.424 141.948 120.38 141.086 121.077 140.415C121.786 139.731 122.375 139.022 122.844 138.287C123.313 137.552 123.547 136.818 123.547 136.083C123.547 135.323 123.363 134.728 122.996 134.297C122.641 133.866 122.078 133.651 121.305 133.651C120.558 133.651 119.975 133.892 119.557 134.373C119.152 134.842 118.936 135.475 118.911 136.273H116.821C116.859 134.829 117.29 133.727 118.113 132.967C118.949 132.194 120.007 131.808 121.286 131.808C122.667 131.808 123.743 132.188 124.516 132.948C125.301 133.708 125.694 134.721 125.694 135.988C125.694 136.9 125.46 137.78 124.991 138.629C124.535 139.465 123.984 140.219 123.338 140.89C122.705 141.549 121.894 142.315 120.906 143.189L120.051 143.949H126.074V145.754H116.84V144.177L118.208 142.999Z" fill="black"/>
<path d="M140.056 145.944L137.016 140.662H135.363V145.944H133.197V132.739H137.757C138.771 132.739 139.626 132.916 140.322 133.271C141.032 133.626 141.557 134.101 141.899 134.696C142.254 135.291 142.431 135.956 142.431 136.691C142.431 137.552 142.178 138.338 141.671 139.047C141.177 139.744 140.411 140.219 139.372 140.472L142.64 145.944H140.056ZM135.363 138.933H137.757C138.568 138.933 139.176 138.73 139.581 138.325C139.999 137.92 140.208 137.375 140.208 136.691C140.208 136.007 140.006 135.475 139.6 135.095C139.195 134.702 138.581 134.506 137.757 134.506H135.363V138.933Z" fill="black"/>
<path d="M154.797 140.453C154.797 140.846 154.772 141.2 154.721 141.517H146.722C146.785 142.353 147.096 143.024 147.653 143.531C148.21 144.038 148.894 144.291 149.705 144.291C150.87 144.291 151.694 143.803 152.175 142.828H154.512C154.195 143.791 153.619 144.582 152.783 145.203C151.96 145.811 150.934 146.115 149.705 146.115C148.704 146.115 147.805 145.893 147.007 145.45C146.222 144.994 145.601 144.361 145.145 143.55C144.702 142.727 144.48 141.777 144.48 140.7C144.48 139.623 144.695 138.68 145.126 137.869C145.569 137.046 146.184 136.412 146.969 135.969C147.767 135.526 148.679 135.304 149.705 135.304C150.693 135.304 151.573 135.519 152.346 135.95C153.119 136.381 153.72 136.989 154.151 137.774C154.582 138.547 154.797 139.44 154.797 140.453ZM152.536 139.769C152.523 138.971 152.238 138.331 151.681 137.85C151.124 137.369 150.433 137.128 149.61 137.128C148.863 137.128 148.223 137.369 147.691 137.85C147.159 138.319 146.842 138.958 146.741 139.769H152.536Z" fill="black"/>
<path d="M156.207 140.7C156.207 139.623 156.422 138.68 156.853 137.869C157.296 137.046 157.904 136.412 158.677 135.969C159.449 135.526 160.336 135.304 161.337 135.304C162.603 135.304 163.648 135.608 164.472 136.216C165.308 136.811 165.871 137.666 166.163 138.781H163.826C163.636 138.262 163.332 137.856 162.914 137.565C162.496 137.274 161.97 137.128 161.337 137.128C160.45 137.128 159.741 137.445 159.209 138.078C158.689 138.699 158.43 139.573 158.43 140.7C158.43 141.827 158.689 142.708 159.209 143.341C159.741 143.974 160.45 144.291 161.337 144.291C162.591 144.291 163.42 143.74 163.826 142.638H166.163C165.859 143.702 165.289 144.551 164.453 145.184C163.617 145.805 162.578 146.115 161.337 146.115C160.336 146.115 159.449 145.893 158.677 145.45C157.904 144.994 157.296 144.361 156.853 143.55C156.422 142.727 156.207 141.777 156.207 140.7Z" fill="black"/>
<path d="M167.599 140.662C167.599 139.611 167.815 138.68 168.245 137.869C168.689 137.058 169.284 136.431 170.031 135.988C170.791 135.532 171.627 135.304 172.539 135.304C173.363 135.304 174.078 135.469 174.686 135.798C175.307 136.115 175.801 136.514 176.168 136.995V135.475H178.353V145.944H176.168V144.386C175.801 144.88 175.301 145.292 174.667 145.621C174.034 145.95 173.312 146.115 172.501 146.115C171.602 146.115 170.779 145.887 170.031 145.431C169.284 144.962 168.689 144.316 168.245 143.493C167.815 142.657 167.599 141.713 167.599 140.662ZM176.168 140.7C176.168 139.978 176.016 139.351 175.712 138.819C175.421 138.287 175.035 137.882 174.553 137.603C174.072 137.324 173.553 137.185 172.995 137.185C172.438 137.185 171.919 137.324 171.437 137.603C170.956 137.869 170.563 138.268 170.259 138.8C169.968 139.319 169.822 139.94 169.822 140.662C169.822 141.384 169.968 142.017 170.259 142.562C170.563 143.107 170.956 143.525 171.437 143.816C171.931 144.095 172.451 144.234 172.995 144.234C173.553 144.234 174.072 144.095 174.553 143.816C175.035 143.537 175.421 143.132 175.712 142.6C176.016 142.055 176.168 141.422 176.168 140.7Z" fill="black"/>
<path d="M193.871 135.304C194.695 135.304 195.429 135.475 196.075 135.817C196.734 136.159 197.247 136.666 197.614 137.337C197.994 138.008 198.184 138.819 198.184 139.769V145.944H196.037V140.092C196.037 139.155 195.803 138.439 195.334 137.945C194.866 137.438 194.226 137.185 193.415 137.185C192.605 137.185 191.959 137.438 191.477 137.945C191.009 138.439 190.774 139.155 190.774 140.092V145.944H188.627V140.092C188.627 139.155 188.393 138.439 187.924 137.945C187.456 137.438 186.816 137.185 186.005 137.185C185.195 137.185 184.549 137.438 184.067 137.945C183.599 138.439 183.364 139.155 183.364 140.092V145.944H181.198V135.475H183.364V136.672C183.719 136.241 184.169 135.906 184.713 135.665C185.258 135.424 185.841 135.304 186.461 135.304C187.297 135.304 188.045 135.481 188.703 135.836C189.362 136.191 189.869 136.704 190.223 137.375C190.54 136.742 191.034 136.241 191.705 135.874C192.377 135.494 193.099 135.304 193.871 135.304Z" fill="black"/>
<path d="M200.218 140.662C200.218 139.611 200.434 138.68 200.864 137.869C201.308 137.058 201.903 136.431 202.65 135.988C203.41 135.532 204.246 135.304 205.158 135.304C205.982 135.304 206.697 135.469 207.305 135.798C207.926 136.115 208.42 136.514 208.787 136.995V135.475H210.972V145.944H208.787V144.386C208.42 144.88 207.92 145.292 207.286 145.621C206.653 145.95 205.931 146.115 205.12 146.115C204.221 146.115 203.398 145.887 202.65 145.431C201.903 144.962 201.308 144.316 200.864 143.493C200.434 142.657 200.218 141.713 200.218 140.662ZM208.787 140.7C208.787 139.978 208.635 139.351 208.331 138.819C208.04 138.287 207.654 137.882 207.172 137.603C206.691 137.324 206.172 137.185 205.614 137.185C205.057 137.185 204.538 137.324 204.056 137.603C203.575 137.869 203.182 138.268 202.878 138.8C202.587 139.319 202.441 139.94 202.441 140.662C202.441 141.384 202.587 142.017 202.878 142.562C203.182 143.107 203.575 143.525 204.056 143.816C204.55 144.095 205.07 144.234 205.614 144.234C206.172 144.234 206.691 144.095 207.172 143.816C207.654 143.537 208.04 143.132 208.331 142.6C208.635 142.055 208.787 141.422 208.787 140.7Z" fill="black"/>
<path d="M215.983 136.995C216.3 136.463 216.718 136.051 217.237 135.76C217.769 135.456 218.396 135.304 219.118 135.304V137.546H218.567C217.719 137.546 217.073 137.761 216.629 138.192C216.199 138.623 215.983 139.37 215.983 140.434V145.944H213.817V135.475H215.983V136.995Z" fill="black"/>
<path d="M220.387 140.662C220.387 139.611 220.603 138.68 221.033 137.869C221.477 137.058 222.072 136.431 222.819 135.988C223.579 135.532 224.415 135.304 225.327 135.304C226.151 135.304 226.866 135.469 227.474 135.798C228.095 136.115 228.589 136.514 228.956 136.995V135.475H231.141V145.944H228.956V144.386C228.589 144.88 228.089 145.292 227.455 145.621C226.822 145.95 226.1 146.115 225.289 146.115C224.39 146.115 223.567 145.887 222.819 145.431C222.072 144.962 221.477 144.316 221.033 143.493C220.603 142.657 220.387 141.713 220.387 140.662ZM228.956 140.7C228.956 139.978 228.804 139.351 228.5 138.819C228.209 138.287 227.823 137.882 227.341 137.603C226.86 137.324 226.341 137.185 225.783 137.185C225.226 137.185 224.707 137.324 224.225 137.603C223.744 137.869 223.351 138.268 223.047 138.8C222.756 139.319 222.61 139.94 222.61 140.662C222.61 141.384 222.756 142.017 223.047 142.562C223.351 143.107 223.744 143.525 224.225 143.816C224.719 144.095 225.239 144.234 225.783 144.234C226.341 144.234 226.86 144.095 227.341 143.816C227.823 143.537 228.209 143.132 228.5 142.6C228.804 142.055 228.956 141.422 228.956 140.7Z" fill="black"/>
<path d="M237.786 146.115C236.963 146.115 236.222 145.969 235.563 145.678C234.917 145.374 234.404 144.969 234.024 144.462C233.644 143.943 233.442 143.366 233.416 142.733H235.658C235.696 143.176 235.905 143.55 236.285 143.854C236.678 144.145 237.166 144.291 237.748 144.291C238.356 144.291 238.825 144.177 239.154 143.949C239.496 143.708 239.667 143.404 239.667 143.037C239.667 142.644 239.477 142.353 239.097 142.163C238.73 141.973 238.141 141.764 237.33 141.536C236.545 141.321 235.905 141.112 235.411 140.909C234.917 140.706 234.487 140.396 234.119 139.978C233.765 139.56 233.587 139.009 233.587 138.325C233.587 137.768 233.752 137.261 234.081 136.805C234.411 136.336 234.879 135.969 235.487 135.703C236.108 135.437 236.817 135.304 237.615 135.304C238.806 135.304 239.762 135.608 240.484 136.216C241.219 136.811 241.612 137.628 241.662 138.667H239.496C239.458 138.198 239.268 137.825 238.926 137.546C238.584 137.267 238.122 137.128 237.539 137.128C236.969 137.128 236.532 137.236 236.228 137.451C235.924 137.666 235.772 137.951 235.772 138.306C235.772 138.585 235.874 138.819 236.076 139.009C236.279 139.199 236.526 139.351 236.817 139.465C237.109 139.566 237.539 139.699 238.109 139.864C238.869 140.067 239.49 140.276 239.971 140.491C240.465 140.694 240.89 140.998 241.244 141.403C241.599 141.808 241.783 142.347 241.795 143.018C241.795 143.613 241.631 144.145 241.301 144.614C240.972 145.083 240.503 145.45 239.895 145.716C239.3 145.982 238.597 146.115 237.786 146.115Z" fill="black"/>
</svg>
