<svg width="288" height="359" viewBox="0 0 288 359" fill="none" xmlns="http://www.w3.org/2000/svg">
<path d="M287.5 358.5L3.5 358.5L0 358.5L-1.42718e-05 32L113.5 32L113.5 -4.96124e-06L117 -5.11423e-06L127 24L279 24L287.5 -1.2567e-05L287.5 358.5Z" fill="#8DA616" fill-opacity="0.7"/>
<rect x="92.0596" y="214.75" width="114.477" height="25.735" rx="12.8675" fill="white"/>
<path d="M107.701 221.667C108.949 221.667 110.039 221.909 110.972 222.392C111.916 222.864 112.641 223.55 113.147 224.449C113.664 225.337 113.923 226.377 113.923 227.569C113.923 228.76 113.664 229.794 113.147 230.671C112.641 231.548 111.916 232.222 110.972 232.694C110.039 233.155 108.949 233.386 107.701 233.386H103.874V221.667H107.701ZM107.701 231.818C109.073 231.818 110.124 231.447 110.854 230.705C111.585 229.963 111.95 228.918 111.95 227.569C111.95 226.209 111.585 225.146 110.854 224.382C110.124 223.618 109.073 223.235 107.701 223.235H105.796V231.818H107.701Z" fill="black"/>
<path d="M117.75 221.667V233.386H115.828V221.667H117.75Z" fill="black"/>
<path d="M124.135 233.504C123.348 233.504 122.64 233.369 122.01 233.099C121.381 232.818 120.886 232.425 120.527 231.919C120.167 231.413 119.987 230.823 119.987 230.148H122.044C122.089 230.654 122.286 231.07 122.634 231.396C122.994 231.722 123.494 231.885 124.135 231.885C124.798 231.885 125.315 231.728 125.686 231.413C126.057 231.087 126.242 230.671 126.242 230.165C126.242 229.772 126.124 229.451 125.888 229.204C125.663 228.957 125.377 228.766 125.028 228.631C124.691 228.496 124.219 228.35 123.612 228.193C122.848 227.99 122.224 227.788 121.741 227.586C121.268 227.372 120.864 227.046 120.527 226.608C120.189 226.169 120.021 225.585 120.021 224.854C120.021 224.18 120.189 223.59 120.527 223.084C120.864 222.578 121.336 222.19 121.943 221.92C122.55 221.651 123.252 221.516 124.05 221.516C125.186 221.516 126.113 221.802 126.833 222.376C127.563 222.938 127.968 223.713 128.046 224.702H125.922C125.888 224.275 125.686 223.91 125.315 223.606C124.944 223.303 124.455 223.151 123.848 223.151C123.297 223.151 122.848 223.292 122.499 223.573C122.151 223.854 121.977 224.258 121.977 224.787C121.977 225.146 122.083 225.444 122.297 225.68C122.522 225.905 122.803 226.085 123.14 226.22C123.477 226.355 123.938 226.501 124.523 226.658C125.298 226.872 125.928 227.085 126.411 227.299C126.906 227.512 127.321 227.844 127.659 228.294C128.007 228.732 128.181 229.322 128.181 230.064C128.181 230.66 128.018 231.222 127.692 231.75C127.378 232.278 126.911 232.706 126.293 233.032C125.686 233.346 124.967 233.504 124.135 233.504Z" fill="black"/>
<path d="M138.644 225.158C138.644 225.753 138.503 226.315 138.222 226.844C137.941 227.372 137.492 227.805 136.873 228.142C136.255 228.468 135.463 228.631 134.496 228.631H132.372V233.386H130.449V221.667H134.496C135.395 221.667 136.154 221.825 136.772 222.139C137.402 222.443 137.868 222.859 138.172 223.387C138.486 223.915 138.644 224.506 138.644 225.158ZM134.496 227.063C135.227 227.063 135.772 226.9 136.132 226.574C136.491 226.237 136.671 225.765 136.671 225.158C136.671 223.876 135.946 223.235 134.496 223.235H132.372V227.063H134.496Z" fill="black"/>
<path d="M145.822 233.504C144.732 233.504 143.726 233.251 142.804 232.745C141.893 232.228 141.168 231.514 140.629 230.604C140.1 229.682 139.836 228.648 139.836 227.501C139.836 226.355 140.1 225.326 140.629 224.416C141.168 223.505 141.893 222.797 142.804 222.291C143.726 221.774 144.732 221.516 145.822 221.516C146.924 221.516 147.93 221.774 148.84 222.291C149.762 222.797 150.487 223.505 151.015 224.416C151.543 225.326 151.808 226.355 151.808 227.501C151.808 228.648 151.543 229.682 151.015 230.604C150.487 231.514 149.762 232.228 148.84 232.745C147.93 233.251 146.924 233.504 145.822 233.504ZM145.822 231.834C146.598 231.834 147.289 231.66 147.896 231.312C148.503 230.952 148.975 230.446 149.312 229.794C149.661 229.131 149.835 228.367 149.835 227.501C149.835 226.636 149.661 225.877 149.312 225.225C148.975 224.573 148.503 224.073 147.896 223.724C147.289 223.376 146.598 223.202 145.822 223.202C145.046 223.202 144.355 223.376 143.748 223.724C143.141 224.073 142.663 224.573 142.315 225.225C141.978 225.877 141.809 226.636 141.809 227.501C141.809 228.367 141.978 229.131 142.315 229.794C142.663 230.446 143.141 230.952 143.748 231.312C144.355 231.66 145.046 231.834 145.822 231.834Z" fill="black"/>
<path d="M163.327 233.386H161.404L155.621 224.635V233.386H153.699V221.651H155.621L161.404 230.384V221.651H163.327V233.386Z" fill="black"/>
<path d="M167.773 221.667V233.386H165.851V221.667H167.773Z" fill="black"/>
<path d="M176.569 227.366C177.198 227.479 177.732 227.81 178.17 228.361C178.609 228.912 178.828 229.536 178.828 230.233C178.828 230.828 178.671 231.368 178.356 231.851C178.052 232.323 177.608 232.7 177.024 232.981C176.439 233.251 175.759 233.386 174.984 233.386H170.296V221.667H174.765C175.563 221.667 176.248 221.802 176.822 222.072C177.395 222.342 177.828 222.707 178.12 223.168C178.412 223.618 178.558 224.123 178.558 224.685C178.558 225.36 178.378 225.922 178.019 226.372C177.659 226.821 177.176 227.153 176.569 227.366ZM172.219 226.591H174.596C175.225 226.591 175.714 226.45 176.063 226.169C176.423 225.877 176.602 225.461 176.602 224.922C176.602 224.393 176.423 223.983 176.063 223.691C175.714 223.387 175.225 223.235 174.596 223.235H172.219V226.591ZM174.815 231.818C175.467 231.818 175.979 231.66 176.349 231.346C176.72 231.031 176.906 230.592 176.906 230.03C176.906 229.457 176.709 229.002 176.316 228.665C175.922 228.327 175.4 228.159 174.748 228.159H172.219V231.818H174.815Z" fill="black"/>
<path d="M182.839 231.834H186.801V233.386H180.917V221.667H182.839V231.834Z" fill="black"/>
<path d="M190.331 223.219V226.658H194.377V228.226H190.331V231.818H194.883V233.386H188.409V221.651H194.883V223.219H190.331Z" fill="black"/>
<path d="M73.3422 167.543V179.262H71.42V171.236L67.8455 179.262H66.5135L62.9221 171.236V179.262H61V167.543H63.0739L67.1879 176.732L71.2851 167.543H73.3422Z" fill="black"/>
<path d="M79.8983 179.413C79.0215 179.413 78.2291 179.217 77.5209 178.823C76.8127 178.418 76.2563 177.856 75.8517 177.137C75.447 176.406 75.2447 175.563 75.2447 174.608C75.2447 173.664 75.4526 172.826 75.8685 172.096C76.2844 171.365 76.8521 170.803 77.5715 170.41C78.2909 170.016 79.0946 169.819 79.9826 169.819C80.8706 169.819 81.6743 170.016 82.3937 170.41C83.1131 170.803 83.6807 171.365 84.0966 172.096C84.5125 172.826 84.7205 173.664 84.7205 174.608C84.7205 175.552 84.5069 176.39 84.0798 177.12C83.6526 177.851 83.0681 178.418 82.3263 178.823C81.5956 179.217 80.7863 179.413 79.8983 179.413ZM79.8983 177.744C80.3929 177.744 80.8537 177.626 81.2809 177.39C81.7193 177.154 82.0733 176.8 82.3431 176.328C82.6129 175.856 82.7478 175.282 82.7478 174.608C82.7478 173.933 82.6185 173.366 82.36 172.905C82.1014 172.433 81.7586 172.079 81.3315 171.843C80.9043 171.607 80.4435 171.489 79.9489 171.489C79.4543 171.489 78.9934 171.607 78.5663 171.843C78.1504 172.079 77.8188 172.433 77.5715 172.905C77.3242 173.366 77.2005 173.933 77.2005 174.608C77.2005 175.608 77.4535 176.384 77.9593 176.935C78.4763 177.474 79.1227 177.744 79.8983 177.744Z" fill="black"/>
<path d="M85.9799 174.574C85.9799 173.641 86.171 172.815 86.5532 172.096C86.9466 171.376 87.4749 170.82 88.1381 170.426C88.8126 170.022 89.56 169.819 90.3806 169.819C90.9876 169.819 91.5834 169.954 92.1679 170.224C92.7636 170.483 93.2357 170.831 93.5842 171.269V166.784H95.5232V179.262H93.5842V177.862C93.2694 178.312 92.8311 178.683 92.269 178.975C91.7182 179.267 91.0832 179.413 90.3638 179.413C89.5544 179.413 88.8126 179.211 88.1381 178.806C87.4749 178.39 86.9466 177.817 86.5532 177.086C86.171 176.345 85.9799 175.507 85.9799 174.574ZM93.5842 174.608C93.5842 173.967 93.4493 173.411 93.1795 172.939C92.921 172.467 92.5781 172.107 92.151 171.86C91.7239 171.612 91.263 171.489 90.7684 171.489C90.2738 171.489 89.813 171.612 89.3858 171.86C88.9587 172.096 88.6102 172.45 88.3404 172.922C88.0819 173.383 87.9526 173.933 87.9526 174.574C87.9526 175.215 88.0819 175.777 88.3404 176.26C88.6102 176.744 88.9587 177.115 89.3858 177.373C89.8242 177.62 90.2851 177.744 90.7684 177.744C91.263 177.744 91.7239 177.62 92.151 177.373C92.5781 177.126 92.921 176.766 93.1795 176.294C93.4493 175.811 93.5842 175.249 93.5842 174.608Z" fill="black"/>
<path d="M106.563 174.389C106.563 174.737 106.54 175.052 106.495 175.333H99.3967C99.4529 176.075 99.7283 176.671 100.223 177.12C100.717 177.57 101.324 177.795 102.044 177.795C103.078 177.795 103.809 177.362 104.236 176.496H106.31C106.029 177.351 105.517 178.053 104.775 178.604C104.045 179.144 103.134 179.413 102.044 179.413C101.156 179.413 100.358 179.217 99.6496 178.823C98.9527 178.418 98.4019 177.856 97.9973 177.137C97.6038 176.406 97.4071 175.563 97.4071 174.608C97.4071 173.652 97.5982 172.815 97.9804 172.096C98.3738 171.365 98.919 170.803 99.6159 170.41C100.324 170.016 101.133 169.819 102.044 169.819C102.921 169.819 103.702 170.011 104.388 170.393C105.073 170.775 105.607 171.314 105.989 172.011C106.371 172.697 106.563 173.489 106.563 174.389ZM104.556 173.782C104.545 173.074 104.292 172.506 103.797 172.079C103.303 171.652 102.69 171.438 101.96 171.438C101.296 171.438 100.729 171.652 100.257 172.079C99.7845 172.495 99.5035 173.062 99.4136 173.782H104.556Z" fill="black"/>
<path d="M110.376 166.784V179.262H108.454V166.784H110.376Z" fill="black"/>
<path d="M116.93 179.413C116.053 179.413 115.26 179.217 114.552 178.823C113.844 178.418 113.288 177.856 112.883 177.137C112.478 176.406 112.276 175.563 112.276 174.608C112.276 173.664 112.484 172.826 112.9 172.096C113.316 171.365 113.883 170.803 114.603 170.41C115.322 170.016 116.126 169.819 117.014 169.819C117.902 169.819 118.706 170.016 119.425 170.41C120.144 170.803 120.712 171.365 121.128 172.096C121.544 172.826 121.752 173.664 121.752 174.608C121.752 175.552 121.538 176.39 121.111 177.12C120.684 177.851 120.099 178.418 119.358 178.823C118.627 179.217 117.818 179.413 116.93 179.413ZM116.93 177.744C117.424 177.744 117.885 177.626 118.312 177.39C118.751 177.154 119.105 176.8 119.374 176.328C119.644 175.856 119.779 175.282 119.779 174.608C119.779 173.933 119.65 173.366 119.391 172.905C119.133 172.433 118.79 172.079 118.363 171.843C117.936 171.607 117.475 171.489 116.98 171.489C116.486 171.489 116.025 171.607 115.598 171.843C115.182 172.079 114.85 172.433 114.603 172.905C114.356 173.366 114.232 173.933 114.232 174.608C114.232 175.608 114.485 176.384 114.991 176.935C115.508 177.474 116.154 177.744 116.93 177.744Z" fill="black"/>
<path d="M129.954 177.71H133.916V179.262H128.032V167.543H129.954V177.71Z" fill="black"/>
<path d="M139.554 179.413C138.677 179.413 137.884 179.217 137.176 178.823C136.468 178.418 135.912 177.856 135.507 177.137C135.102 176.406 134.9 175.563 134.9 174.608C134.9 173.664 135.108 172.826 135.524 172.096C135.94 171.365 136.507 170.803 137.227 170.41C137.946 170.016 138.75 169.819 139.638 169.819C140.526 169.819 141.33 170.016 142.049 170.41C142.768 170.803 143.336 171.365 143.752 172.096C144.168 172.826 144.376 173.664 144.376 174.608C144.376 175.552 144.162 176.39 143.735 177.12C143.308 177.851 142.723 178.418 141.981 178.823C141.251 179.217 140.442 179.413 139.554 179.413ZM139.554 177.744C140.048 177.744 140.509 177.626 140.936 177.39C141.375 177.154 141.729 176.8 141.998 176.328C142.268 175.856 142.403 175.282 142.403 174.608C142.403 173.933 142.274 173.366 142.015 172.905C141.757 172.433 141.414 172.079 140.987 171.843C140.56 171.607 140.099 171.489 139.604 171.489C139.11 171.489 138.649 171.607 138.222 171.843C137.806 172.079 137.474 172.433 137.227 172.905C136.979 173.366 136.856 173.933 136.856 174.608C136.856 175.608 137.109 176.384 137.615 176.935C138.132 177.474 138.778 177.744 139.554 177.744Z" fill="black"/>
<path d="M148.518 171.539V176.682C148.518 177.03 148.597 177.283 148.754 177.441C148.923 177.587 149.204 177.66 149.597 177.66H150.778V179.262H149.26C148.395 179.262 147.732 179.059 147.271 178.655C146.81 178.25 146.579 177.592 146.579 176.682V171.539H145.483V169.971H146.579V167.661H148.518V169.971H150.778V171.539H148.518Z" fill="black"/>
<path d="M160.963 169.971V179.262H159.041V178.166C158.737 178.548 158.338 178.851 157.844 179.076C157.36 179.29 156.843 179.396 156.292 179.396C155.562 179.396 154.904 179.245 154.32 178.941C153.746 178.638 153.291 178.188 152.954 177.592C152.628 176.997 152.465 176.277 152.465 175.434V169.971H154.37V175.147C154.37 175.979 154.578 176.62 154.994 177.07C155.41 177.508 155.978 177.727 156.697 177.727C157.416 177.727 157.984 177.508 158.4 177.07C158.827 176.62 159.041 175.979 159.041 175.147V169.971H160.963Z" fill="black"/>
<path d="M166.871 179.413C166.141 179.413 165.483 179.284 164.898 179.025C164.325 178.756 163.87 178.396 163.533 177.946C163.196 177.486 163.016 176.974 162.993 176.412H164.983C165.016 176.805 165.202 177.137 165.539 177.407C165.888 177.665 166.32 177.795 166.837 177.795C167.377 177.795 167.793 177.693 168.085 177.491C168.389 177.278 168.54 177.008 168.54 176.682C168.54 176.333 168.372 176.075 168.035 175.906C167.709 175.738 167.186 175.552 166.467 175.35C165.77 175.159 165.202 174.973 164.764 174.793C164.325 174.614 163.943 174.338 163.617 173.967C163.302 173.596 163.145 173.107 163.145 172.5C163.145 172.006 163.291 171.556 163.583 171.151C163.876 170.736 164.291 170.41 164.831 170.174C165.382 169.937 166.011 169.819 166.719 169.819C167.776 169.819 168.625 170.089 169.265 170.629C169.917 171.157 170.266 171.882 170.311 172.804H168.389C168.355 172.388 168.186 172.056 167.883 171.809C167.579 171.562 167.169 171.438 166.652 171.438C166.146 171.438 165.758 171.534 165.489 171.725C165.219 171.916 165.084 172.169 165.084 172.483C165.084 172.731 165.174 172.939 165.354 173.107C165.534 173.276 165.753 173.411 166.011 173.512C166.27 173.602 166.652 173.72 167.158 173.866C167.832 174.046 168.383 174.231 168.81 174.422C169.249 174.602 169.625 174.872 169.94 175.232C170.255 175.591 170.418 176.069 170.429 176.665C170.429 177.193 170.283 177.665 169.99 178.081C169.698 178.497 169.282 178.823 168.743 179.059C168.214 179.295 167.591 179.413 166.871 179.413Z" fill="black"/>
<path d="M180.264 181.902C179.336 181.013 178.622 179.882 178.12 178.509C177.628 177.136 177.382 175.665 177.382 174.093C177.382 172.484 177.647 170.965 178.177 169.535C178.716 168.106 179.507 166.928 180.548 166H182.223V166.156C181.135 167.16 180.316 168.362 179.767 169.763C179.218 171.164 178.944 172.607 178.944 174.093C178.944 175.523 179.199 176.905 179.71 178.239C180.221 179.574 180.964 180.743 181.939 181.746V181.902H180.264Z" fill="black"/>
<path d="M183.248 170.387V168.911H186.202V179.262H184.569V170.387H183.248Z" fill="black"/>
<path d="M189.32 177.061C190.229 176.275 190.943 175.631 191.464 175.13C191.994 174.619 192.434 174.088 192.784 173.539C193.135 172.99 193.31 172.441 193.31 171.892C193.31 171.324 193.172 170.88 192.898 170.558C192.633 170.236 192.212 170.075 191.634 170.075C191.076 170.075 190.64 170.255 190.328 170.615C190.025 170.965 189.864 171.438 189.845 172.034H188.283C188.312 170.955 188.634 170.132 189.249 169.564C189.874 168.986 190.664 168.698 191.62 168.698C192.652 168.698 193.456 168.982 194.034 169.55C194.621 170.118 194.914 170.875 194.914 171.821C194.914 172.503 194.739 173.161 194.389 173.795C194.048 174.42 193.636 174.983 193.153 175.485C192.68 175.977 192.074 176.55 191.336 177.203L190.697 177.771H195.198V179.12H188.298V177.941L189.32 177.061Z" fill="black"/>
<path d="M196.62 173.951C196.62 172.314 196.895 171.036 197.444 170.118C198.002 169.19 198.958 168.726 200.312 168.726C201.665 168.726 202.617 169.19 203.166 170.118C203.724 171.036 204.003 172.314 204.003 173.951C204.003 175.608 203.724 176.905 203.166 177.842C202.617 178.769 201.665 179.233 200.312 179.233C198.958 179.233 198.002 178.769 197.444 177.842C196.895 176.905 196.62 175.608 196.62 173.951ZM202.413 173.951C202.413 173.185 202.361 172.536 202.257 172.006C202.162 171.476 201.963 171.045 201.661 170.714C201.358 170.373 200.908 170.203 200.312 170.203C199.715 170.203 199.266 170.373 198.963 170.714C198.66 171.045 198.456 171.476 198.352 172.006C198.258 172.536 198.21 173.185 198.21 173.951C198.21 174.746 198.258 175.414 198.352 175.953C198.447 176.493 198.646 176.928 198.949 177.26C199.261 177.591 199.715 177.756 200.312 177.756C200.908 177.756 201.358 177.591 201.661 177.26C201.973 176.928 202.176 176.493 202.271 175.953C202.366 175.414 202.413 174.746 202.413 173.951Z" fill="black"/>
<path d="M219.088 171.31C219.703 171.31 220.252 171.438 220.735 171.694C221.227 171.949 221.61 172.328 221.885 172.83C222.169 173.331 222.311 173.937 222.311 174.647V179.262H220.707V174.888C220.707 174.188 220.531 173.653 220.181 173.284C219.831 172.905 219.353 172.716 218.747 172.716C218.141 172.716 217.659 172.905 217.299 173.284C216.949 173.653 216.773 174.188 216.773 174.888V179.262H215.169V174.888C215.169 174.188 214.994 173.653 214.644 173.284C214.293 172.905 213.815 172.716 213.21 172.716C212.604 172.716 212.121 172.905 211.761 173.284C211.411 173.653 211.236 174.188 211.236 174.888V179.262H209.617V171.438H211.236V172.333C211.501 172.011 211.837 171.76 212.244 171.58C212.651 171.4 213.087 171.31 213.55 171.31C214.175 171.31 214.734 171.443 215.226 171.708C215.718 171.973 216.097 172.356 216.362 172.858C216.598 172.385 216.968 172.011 217.469 171.736C217.971 171.452 218.51 171.31 219.088 171.31Z" fill="black"/>
<path d="M225.052 177.061C225.961 176.275 226.676 175.631 227.196 175.13C227.726 174.619 228.166 174.088 228.517 173.539C228.867 172.99 229.042 172.441 229.042 171.892C229.042 171.324 228.905 170.88 228.63 170.558C228.365 170.236 227.944 170.075 227.367 170.075C226.808 170.075 226.373 170.255 226.06 170.615C225.757 170.965 225.596 171.438 225.578 172.034H224.016C224.044 170.955 224.366 170.132 224.981 169.564C225.606 168.986 226.396 168.698 227.352 168.698C228.384 168.698 229.189 168.982 229.766 169.55C230.353 170.118 230.646 170.875 230.646 171.821C230.646 172.503 230.471 173.161 230.121 173.795C229.78 174.42 229.369 174.983 228.886 175.485C228.413 175.977 227.807 176.55 227.068 177.203L226.429 177.771H230.93V179.12H224.03V177.941L225.052 177.061Z" fill="black"/>
<path d="M232.168 181.902V181.746C233.143 180.743 233.886 179.574 234.397 178.239C234.908 176.905 235.164 175.523 235.164 174.093C235.164 172.607 234.889 171.164 234.34 169.763C233.791 168.362 232.972 167.16 231.884 166.156V166H233.559C234.601 166.928 235.386 168.106 235.916 169.535C236.456 170.965 236.726 172.484 236.726 174.093C236.726 175.665 236.475 177.136 235.973 178.509C235.481 179.882 234.771 181.013 233.843 181.902H232.168Z" fill="black"/>
<path d="M94.9063 202.383C95.9854 201.45 96.834 200.686 97.4522 200.09C98.0817 199.483 98.6044 198.854 99.0203 198.202C99.4362 197.55 99.6442 196.898 99.6442 196.246C99.6442 195.571 99.4812 195.043 99.1552 194.661C98.8405 194.279 98.3403 194.088 97.6546 194.088C96.9914 194.088 96.4743 194.301 96.1034 194.728C95.7437 195.144 95.5526 195.706 95.5301 196.414H93.6754C93.7091 195.133 94.0913 194.155 94.822 193.481C95.5638 192.795 96.5024 192.452 97.6377 192.452C98.8629 192.452 99.8184 192.789 100.504 193.464C101.201 194.138 101.549 195.037 101.549 196.161C101.549 196.971 101.341 197.752 100.926 198.505C100.521 199.247 100.032 199.916 99.4587 200.512C98.8967 201.096 98.1773 201.776 97.3005 202.552L96.5418 203.226H101.887V204.828H93.6923V203.428L94.9063 202.383Z" fill="black"/>
<path d="M114.295 204.997L111.597 200.309H110.13V204.997H108.208V193.278H112.255C113.154 193.278 113.913 193.436 114.531 193.75C115.16 194.065 115.627 194.487 115.93 195.015C116.245 195.543 116.402 196.133 116.402 196.785C116.402 197.55 116.178 198.247 115.728 198.876C115.29 199.494 114.61 199.916 113.688 200.141L116.588 204.997H114.295ZM110.13 198.775H112.255C112.974 198.775 113.514 198.595 113.873 198.235C114.244 197.876 114.43 197.392 114.43 196.785C114.43 196.178 114.25 195.706 113.89 195.369C113.53 195.021 112.985 194.846 112.255 194.846H110.13V198.775Z" fill="black"/>
<path d="M127.376 200.124C127.376 200.472 127.354 200.787 127.309 201.068H120.21C120.266 201.81 120.542 202.406 121.036 202.855C121.531 203.305 122.138 203.53 122.857 203.53C123.892 203.53 124.622 203.097 125.049 202.231H127.123C126.842 203.086 126.331 203.788 125.589 204.339C124.858 204.879 123.948 205.148 122.857 205.148C121.969 205.148 121.171 204.952 120.463 204.558C119.766 204.154 119.215 203.591 118.811 202.872C118.417 202.141 118.221 201.298 118.221 200.343C118.221 199.388 118.412 198.55 118.794 197.831C119.187 197.1 119.732 196.538 120.429 196.145C121.138 195.751 121.947 195.554 122.857 195.554C123.734 195.554 124.515 195.746 125.201 196.128C125.887 196.51 126.421 197.049 126.803 197.746C127.185 198.432 127.376 199.225 127.376 200.124ZM125.37 199.517C125.358 198.809 125.105 198.241 124.611 197.814C124.116 197.387 123.504 197.173 122.773 197.173C122.11 197.173 121.542 197.387 121.07 197.814C120.598 198.23 120.317 198.797 120.227 199.517H125.37Z" fill="black"/>
<path d="M128.627 200.343C128.627 199.388 128.818 198.55 129.2 197.831C129.594 197.1 130.133 196.538 130.819 196.145C131.505 195.751 132.291 195.554 133.179 195.554C134.303 195.554 135.231 195.824 135.961 196.364C136.703 196.892 137.204 197.651 137.462 198.64H135.388C135.22 198.179 134.95 197.819 134.579 197.561C134.208 197.302 133.741 197.173 133.179 197.173C132.393 197.173 131.763 197.454 131.291 198.016C130.83 198.567 130.6 199.343 130.6 200.343C130.6 201.343 130.83 202.125 131.291 202.687C131.763 203.249 132.393 203.53 133.179 203.53C134.292 203.53 135.028 203.041 135.388 202.063H137.462C137.192 203.007 136.686 203.76 135.945 204.322C135.203 204.873 134.281 205.148 133.179 205.148C132.291 205.148 131.505 204.952 130.819 204.558C130.133 204.154 129.594 203.591 129.2 202.872C128.818 202.141 128.627 201.298 128.627 200.343Z" fill="black"/>
<path d="M138.737 200.309C138.737 199.376 138.928 198.55 139.31 197.831C139.704 197.111 140.232 196.555 140.895 196.161C141.57 195.757 142.311 195.554 143.121 195.554C143.851 195.554 144.486 195.701 145.026 195.993C145.577 196.274 146.015 196.628 146.341 197.055V195.706H148.28V204.997H146.341V203.614C146.015 204.052 145.571 204.418 145.009 204.71C144.447 205.002 143.806 205.148 143.087 205.148C142.289 205.148 141.558 204.946 140.895 204.541C140.232 204.125 139.704 203.552 139.31 202.822C138.928 202.08 138.737 201.242 138.737 200.309ZM146.341 200.343C146.341 199.702 146.206 199.146 145.937 198.674C145.678 198.202 145.335 197.842 144.908 197.595C144.481 197.347 144.02 197.224 143.525 197.224C143.031 197.224 142.57 197.347 142.143 197.595C141.716 197.831 141.367 198.185 141.097 198.657C140.839 199.118 140.71 199.669 140.71 200.309C140.71 200.95 140.839 201.512 141.097 201.995C141.367 202.479 141.716 202.85 142.143 203.108C142.581 203.355 143.042 203.479 143.525 203.479C144.02 203.479 144.481 203.355 144.908 203.108C145.335 202.861 145.678 202.501 145.937 202.029C146.206 201.546 146.341 200.984 146.341 200.343Z" fill="black"/>
<path d="M162.051 195.554C162.782 195.554 163.434 195.706 164.007 196.01C164.591 196.313 165.047 196.763 165.373 197.359C165.71 197.954 165.878 198.674 165.878 199.517V204.997H163.973V199.803C163.973 198.972 163.765 198.337 163.349 197.898C162.933 197.448 162.366 197.224 161.646 197.224C160.927 197.224 160.354 197.448 159.927 197.898C159.511 198.337 159.303 198.972 159.303 199.803V204.997H157.397V199.803C157.397 198.972 157.189 198.337 156.774 197.898C156.358 197.448 155.79 197.224 155.071 197.224C154.351 197.224 153.778 197.448 153.351 197.898C152.935 198.337 152.727 198.972 152.727 199.803V204.997H150.805V195.706H152.727V196.768C153.042 196.386 153.441 196.088 153.924 195.875C154.407 195.661 154.924 195.554 155.475 195.554C156.217 195.554 156.88 195.712 157.465 196.027C158.049 196.341 158.499 196.797 158.814 197.392C159.095 196.83 159.533 196.386 160.129 196.06C160.725 195.723 161.365 195.554 162.051 195.554Z" fill="black"/>
<path d="M167.684 200.309C167.684 199.376 167.875 198.55 168.257 197.831C168.65 197.111 169.179 196.555 169.842 196.161C170.516 195.757 171.258 195.554 172.067 195.554C172.798 195.554 173.433 195.701 173.973 195.993C174.524 196.274 174.962 196.628 175.288 197.055V195.706H177.227V204.997H175.288V203.614C174.962 204.052 174.518 204.418 173.956 204.71C173.394 205.002 172.753 205.148 172.034 205.148C171.236 205.148 170.505 204.946 169.842 204.541C169.179 204.125 168.65 203.552 168.257 202.822C167.875 202.08 167.684 201.242 167.684 200.309ZM175.288 200.343C175.288 199.702 175.153 199.146 174.883 198.674C174.625 198.202 174.282 197.842 173.855 197.595C173.428 197.347 172.967 197.224 172.472 197.224C171.978 197.224 171.517 197.347 171.09 197.595C170.662 197.831 170.314 198.185 170.044 198.657C169.786 199.118 169.656 199.669 169.656 200.309C169.656 200.95 169.786 201.512 170.044 201.995C170.314 202.479 170.662 202.85 171.09 203.108C171.528 203.355 171.989 203.479 172.472 203.479C172.967 203.479 173.428 203.355 173.855 203.108C174.282 202.861 174.625 202.501 174.883 202.029C175.153 201.546 175.288 200.984 175.288 200.343Z" fill="black"/>
<path d="M181.674 197.055C181.955 196.583 182.326 196.218 182.786 195.959C183.259 195.689 183.815 195.554 184.456 195.554V197.544H183.967C183.214 197.544 182.64 197.735 182.247 198.117C181.865 198.499 181.674 199.163 181.674 200.107V204.997H179.752V195.706H181.674V197.055Z" fill="black"/>
<path d="M185.582 200.309C185.582 199.376 185.773 198.55 186.155 197.831C186.549 197.111 187.077 196.555 187.74 196.161C188.414 195.757 189.156 195.554 189.966 195.554C190.696 195.554 191.331 195.701 191.871 195.993C192.422 196.274 192.86 196.628 193.186 197.055V195.706H195.125V204.997H193.186V203.614C192.86 204.052 192.416 204.418 191.854 204.71C191.292 205.002 190.651 205.148 189.932 205.148C189.134 205.148 188.403 204.946 187.74 204.541C187.077 204.125 186.549 203.552 186.155 202.822C185.773 202.08 185.582 201.242 185.582 200.309ZM193.186 200.343C193.186 199.702 193.051 199.146 192.781 198.674C192.523 198.202 192.18 197.842 191.753 197.595C191.326 197.347 190.865 197.224 190.37 197.224C189.876 197.224 189.415 197.347 188.988 197.595C188.561 197.831 188.212 198.185 187.942 198.657C187.684 199.118 187.555 199.669 187.555 200.309C187.555 200.95 187.684 201.512 187.942 201.995C188.212 202.479 188.561 202.85 188.988 203.108C189.426 203.355 189.887 203.479 190.37 203.479C190.865 203.479 191.326 203.355 191.753 203.108C192.18 202.861 192.523 202.501 192.781 202.029C193.051 201.546 193.186 200.984 193.186 200.343Z" fill="black"/>
<path d="M201.022 205.148C200.291 205.148 199.634 205.019 199.049 204.761C198.476 204.491 198.021 204.131 197.683 203.681C197.346 203.221 197.166 202.709 197.144 202.147H199.134C199.167 202.54 199.353 202.872 199.69 203.142C200.038 203.4 200.471 203.53 200.988 203.53C201.528 203.53 201.944 203.428 202.236 203.226C202.539 203.013 202.691 202.743 202.691 202.417C202.691 202.068 202.523 201.81 202.185 201.641C201.859 201.473 201.337 201.287 200.617 201.085C199.92 200.894 199.353 200.708 198.914 200.528C198.476 200.349 198.094 200.073 197.768 199.702C197.453 199.331 197.296 198.842 197.296 198.235C197.296 197.741 197.442 197.291 197.734 196.886C198.026 196.471 198.442 196.145 198.982 195.909C199.533 195.672 200.162 195.554 200.87 195.554C201.927 195.554 202.775 195.824 203.416 196.364C204.068 196.892 204.417 197.617 204.462 198.539H202.539C202.506 198.123 202.337 197.791 202.034 197.544C201.73 197.297 201.32 197.173 200.803 197.173C200.297 197.173 199.909 197.269 199.639 197.46C199.37 197.651 199.235 197.904 199.235 198.218C199.235 198.466 199.325 198.674 199.504 198.842C199.684 199.011 199.903 199.146 200.162 199.247C200.421 199.337 200.803 199.455 201.309 199.601C201.983 199.781 202.534 199.966 202.961 200.157C203.399 200.337 203.776 200.607 204.091 200.967C204.405 201.327 204.568 201.804 204.58 202.4C204.58 202.928 204.433 203.4 204.141 203.816C203.849 204.232 203.433 204.558 202.893 204.794C202.365 205.03 201.741 205.148 201.022 205.148Z" fill="black"/>
</svg>
