<svg width="339" height="286" viewBox="0 0 339 286" fill="none" xmlns="http://www.w3.org/2000/svg">
<path d="M7 0H332H338.5V286H7V280H0V114.5H7V0Z" fill="#8DA616" fill-opacity="0.5"/>
<rect x="105" y="155.936" width="129" height="29" rx="14.5" fill="white"/>
<path d="M122.626 163.731C124.032 163.731 125.261 164.003 126.312 164.548C127.376 165.08 128.193 165.852 128.763 166.866C129.346 167.866 129.637 169.038 129.637 170.381C129.637 171.723 129.346 172.889 128.763 173.877C128.193 174.865 127.376 175.625 126.312 176.157C125.261 176.676 124.032 176.936 122.626 176.936H118.313V163.731H122.626ZM122.626 175.169C124.172 175.169 125.356 174.751 126.179 173.915C127.003 173.079 127.414 171.901 127.414 170.381C127.414 168.848 127.003 167.651 126.179 166.79C125.356 165.928 124.172 165.498 122.626 165.498H120.479V175.169H122.626Z" fill="black"/>
<path d="M133.95 163.731V176.936H131.784V163.731H133.95Z" fill="black"/>
<path d="M141.145 177.069C140.258 177.069 139.46 176.917 138.751 176.613C138.041 176.296 137.484 175.853 137.079 175.283C136.673 174.713 136.471 174.048 136.471 173.288H138.789C138.839 173.858 139.061 174.326 139.454 174.694C139.859 175.061 140.423 175.245 141.145 175.245C141.892 175.245 142.475 175.067 142.893 174.713C143.311 174.345 143.52 173.877 143.52 173.307C143.52 172.863 143.387 172.502 143.121 172.224C142.867 171.945 142.544 171.73 142.152 171.578C141.772 171.426 141.24 171.261 140.556 171.084C139.694 170.856 138.991 170.628 138.447 170.4C137.915 170.159 137.459 169.792 137.079 169.298C136.699 168.804 136.509 168.145 136.509 167.322C136.509 166.562 136.699 165.897 137.079 165.327C137.459 164.757 137.991 164.32 138.675 164.016C139.359 163.712 140.15 163.56 141.05 163.56C142.329 163.56 143.374 163.883 144.185 164.529C145.008 165.162 145.464 166.036 145.553 167.151H143.159C143.121 166.669 142.893 166.258 142.475 165.916C142.057 165.574 141.506 165.403 140.822 165.403C140.201 165.403 139.694 165.561 139.302 165.878C138.909 166.194 138.713 166.65 138.713 167.246C138.713 167.651 138.833 167.987 139.074 168.253C139.327 168.506 139.644 168.709 140.024 168.861C140.404 169.013 140.923 169.177 141.582 169.355C142.456 169.595 143.165 169.836 143.71 170.077C144.267 170.317 144.736 170.691 145.116 171.198C145.508 171.692 145.705 172.357 145.705 173.193C145.705 173.864 145.521 174.497 145.154 175.093C144.799 175.688 144.273 176.169 143.577 176.537C142.893 176.891 142.082 177.069 141.145 177.069Z" fill="black"/>
<path d="M157.494 167.664C157.494 168.335 157.336 168.968 157.02 169.564C156.703 170.159 156.196 170.647 155.5 171.027C154.803 171.394 153.91 171.578 152.82 171.578H150.426V176.936H148.26V163.731H152.82C153.834 163.731 154.689 163.908 155.385 164.263C156.095 164.605 156.621 165.073 156.963 165.669C157.317 166.264 157.494 166.929 157.494 167.664ZM152.82 169.811C153.644 169.811 154.258 169.627 154.663 169.26C155.069 168.88 155.271 168.348 155.271 167.664C155.271 166.22 154.454 165.498 152.82 165.498H150.426V169.811H152.82Z" fill="black"/>
<path d="M165.583 177.069C164.355 177.069 163.221 176.784 162.182 176.214C161.156 175.631 160.339 174.827 159.731 173.801C159.136 172.762 158.838 171.597 158.838 170.305C158.838 169.013 159.136 167.854 159.731 166.828C160.339 165.802 161.156 165.004 162.182 164.434C163.221 163.851 164.355 163.56 165.583 163.56C166.825 163.56 167.958 163.851 168.984 164.434C170.023 165.004 170.84 165.802 171.435 166.828C172.031 167.854 172.328 169.013 172.328 170.305C172.328 171.597 172.031 172.762 171.435 173.801C170.84 174.827 170.023 175.631 168.984 176.214C167.958 176.784 166.825 177.069 165.583 177.069ZM165.583 175.188C166.457 175.188 167.236 174.991 167.92 174.599C168.604 174.193 169.136 173.623 169.516 172.889C169.909 172.141 170.105 171.28 170.105 170.305C170.105 169.329 169.909 168.474 169.516 167.74C169.136 167.005 168.604 166.441 167.92 166.049C167.236 165.656 166.457 165.46 165.583 165.46C164.709 165.46 163.93 165.656 163.246 166.049C162.562 166.441 162.024 167.005 161.631 167.74C161.251 168.474 161.061 169.329 161.061 170.305C161.061 171.28 161.251 172.141 161.631 172.889C162.024 173.623 162.562 174.193 163.246 174.599C163.93 174.991 164.709 175.188 165.583 175.188Z" fill="black"/>
<path d="M185.309 176.936H183.143L176.626 167.075V176.936H174.46V163.712H176.626L183.143 173.554V163.712H185.309V176.936Z" fill="black"/>
<path d="M190.319 163.731V176.936H188.153V163.731H190.319Z" fill="black"/>
<path d="M200.231 170.153C200.94 170.279 201.542 170.653 202.036 171.274C202.53 171.894 202.777 172.597 202.777 173.383C202.777 174.054 202.6 174.662 202.245 175.207C201.903 175.739 201.403 176.163 200.744 176.48C200.085 176.784 199.319 176.936 198.445 176.936H193.163V163.731H198.198C199.097 163.731 199.87 163.883 200.516 164.187C201.162 164.491 201.65 164.902 201.979 165.422C202.308 165.928 202.473 166.498 202.473 167.132C202.473 167.892 202.27 168.525 201.865 169.032C201.46 169.538 200.915 169.912 200.231 170.153ZM195.329 169.279H198.008C198.717 169.279 199.268 169.12 199.661 168.804C200.066 168.474 200.269 168.006 200.269 167.398C200.269 166.802 200.066 166.34 199.661 166.011C199.268 165.669 198.717 165.498 198.008 165.498H195.329V169.279ZM198.255 175.169C198.99 175.169 199.566 174.991 199.984 174.637C200.402 174.282 200.611 173.788 200.611 173.155C200.611 172.509 200.389 171.996 199.946 171.616C199.503 171.236 198.914 171.046 198.179 171.046H195.329V175.169H198.255Z" fill="black"/>
<path d="M207.297 175.188H211.762V176.936H205.131V163.731H207.297V175.188Z" fill="black"/>
<path d="M215.739 165.479V169.355H220.299V171.122H215.739V175.169H220.869V176.936H213.573V163.712H220.869V165.479H215.739Z" fill="black"/>
<path d="M83.908 102.739V115.944H81.742V106.9L77.714 115.944H76.213L72.166 106.9V115.944H70V102.739H72.337L76.973 113.094L81.59 102.739H83.908Z" fill="black"/>
<path d="M91.2959 116.115C90.3079 116.115 89.4149 115.893 88.6169 115.45C87.8189 114.994 87.1919 114.361 86.7359 113.55C86.2799 112.727 86.0519 111.777 86.0519 110.7C86.0519 109.636 86.2862 108.692 86.7549 107.869C87.2235 107.046 87.8632 106.412 88.6739 105.969C89.4846 105.526 90.3902 105.304 91.3909 105.304C92.3916 105.304 93.2972 105.526 94.1079 105.969C94.9186 106.412 95.5582 107.046 96.0269 107.869C96.4956 108.692 96.7299 109.636 96.7299 110.7C96.7299 111.764 96.4892 112.708 96.0079 113.531C95.5266 114.354 94.8679 114.994 94.0319 115.45C93.2086 115.893 92.2965 116.115 91.2959 116.115ZM91.2959 114.234C91.8532 114.234 92.3726 114.101 92.8539 113.835C93.3479 113.569 93.7469 113.17 94.0509 112.638C94.3549 112.106 94.5069 111.46 94.5069 110.7C94.5069 109.94 94.3612 109.3 94.0699 108.781C93.7785 108.249 93.3922 107.85 92.9109 107.584C92.4296 107.318 91.9102 107.185 91.3529 107.185C90.7956 107.185 90.2762 107.318 89.7949 107.584C89.3262 107.85 88.9526 108.249 88.6739 108.781C88.3952 109.3 88.2559 109.94 88.2559 110.7C88.2559 111.827 88.5409 112.701 89.1109 113.322C89.6936 113.93 90.4219 114.234 91.2959 114.234Z" fill="black"/>
<path d="M98.1491 110.662C98.1491 109.611 98.3644 108.68 98.7951 107.869C99.2384 107.058 99.8338 106.431 100.581 105.988C101.341 105.532 102.183 105.304 103.108 105.304C103.792 105.304 104.463 105.456 105.122 105.76C105.793 106.051 106.325 106.444 106.718 106.938V101.884H108.903V115.944H106.718V114.367C106.363 114.874 105.869 115.292 105.236 115.621C104.615 115.95 103.9 116.115 103.089 116.115C102.177 116.115 101.341 115.887 100.581 115.431C99.8338 114.962 99.2384 114.316 98.7951 113.493C98.3644 112.657 98.1491 111.713 98.1491 110.662ZM106.718 110.7C106.718 109.978 106.566 109.351 106.262 108.819C105.971 108.287 105.584 107.882 105.103 107.603C104.622 107.324 104.102 107.185 103.545 107.185C102.988 107.185 102.468 107.324 101.987 107.603C101.506 107.869 101.113 108.268 100.809 108.8C100.518 109.319 100.372 109.94 100.372 110.662C100.372 111.384 100.518 112.017 100.809 112.562C101.113 113.107 101.506 113.525 101.987 113.816C102.481 114.095 103 114.234 103.545 114.234C104.102 114.234 104.622 114.095 105.103 113.816C105.584 113.537 105.971 113.132 106.262 112.6C106.566 112.055 106.718 111.422 106.718 110.7Z" fill="black"/>
<path d="M121.343 110.453C121.343 110.846 121.318 111.2 121.267 111.517H113.268C113.331 112.353 113.642 113.024 114.199 113.531C114.756 114.038 115.44 114.291 116.251 114.291C117.416 114.291 118.24 113.803 118.721 112.828H121.058C120.741 113.791 120.165 114.582 119.329 115.203C118.506 115.811 117.48 116.115 116.251 116.115C115.25 116.115 114.351 115.893 113.553 115.45C112.768 114.994 112.147 114.361 111.691 113.55C111.248 112.727 111.026 111.777 111.026 110.7C111.026 109.623 111.241 108.68 111.672 107.869C112.115 107.046 112.73 106.412 113.515 105.969C114.313 105.526 115.225 105.304 116.251 105.304C117.239 105.304 118.119 105.519 118.892 105.95C119.665 106.381 120.266 106.989 120.697 107.774C121.128 108.547 121.343 109.44 121.343 110.453ZM119.082 109.769C119.069 108.971 118.784 108.331 118.227 107.85C117.67 107.369 116.979 107.128 116.156 107.128C115.409 107.128 114.769 107.369 114.237 107.85C113.705 108.319 113.388 108.958 113.287 109.769H119.082Z" fill="black"/>
<path d="M125.641 101.884V115.944H123.475V101.884H125.641Z" fill="black"/>
<path d="M133.025 116.115C132.037 116.115 131.144 115.893 130.346 115.45C129.548 114.994 128.921 114.361 128.465 113.55C128.009 112.727 127.781 111.777 127.781 110.7C127.781 109.636 128.016 108.692 128.484 107.869C128.953 107.046 129.593 106.412 130.403 105.969C131.214 105.526 132.12 105.304 133.12 105.304C134.121 105.304 135.027 105.526 135.837 105.969C136.648 106.412 137.288 107.046 137.756 107.869C138.225 108.692 138.459 109.636 138.459 110.7C138.459 111.764 138.219 112.708 137.737 113.531C137.256 114.354 136.597 114.994 135.761 115.45C134.938 115.893 134.026 116.115 133.025 116.115ZM133.025 114.234C133.583 114.234 134.102 114.101 134.583 113.835C135.077 113.569 135.476 113.17 135.78 112.638C136.084 112.106 136.236 111.46 136.236 110.7C136.236 109.94 136.091 109.3 135.799 108.781C135.508 108.249 135.122 107.85 134.64 107.584C134.159 107.318 133.64 107.185 133.082 107.185C132.525 107.185 132.006 107.318 131.524 107.584C131.056 107.85 130.682 108.249 130.403 108.781C130.125 109.3 129.985 109.94 129.985 110.7C129.985 111.827 130.27 112.701 130.84 113.322C131.423 113.93 132.151 114.234 133.025 114.234Z" fill="black"/>
<path d="M147.702 114.196H152.167V115.944H145.536V102.739H147.702V114.196Z" fill="black"/>
<path d="M158.52 116.115C157.532 116.115 156.639 115.893 155.841 115.45C155.043 114.994 154.416 114.361 153.96 113.55C153.504 112.727 153.276 111.777 153.276 110.7C153.276 109.636 153.51 108.692 153.979 107.869C154.447 107.046 155.087 106.412 155.898 105.969C156.708 105.526 157.614 105.304 158.615 105.304C159.615 105.304 160.521 105.526 161.332 105.969C162.142 106.412 162.782 107.046 163.251 107.869C163.719 108.692 163.954 109.636 163.954 110.7C163.954 111.764 163.713 112.708 163.232 113.531C162.75 114.354 162.092 114.994 161.256 115.45C160.432 115.893 159.52 116.115 158.52 116.115ZM158.52 114.234C159.077 114.234 159.596 114.101 160.078 113.835C160.572 113.569 160.971 113.17 161.275 112.638C161.579 112.106 161.731 111.46 161.731 110.7C161.731 109.94 161.585 109.3 161.294 108.781C161.002 108.249 160.616 107.85 160.135 107.584C159.653 107.318 159.134 107.185 158.577 107.185C158.019 107.185 157.5 107.318 157.019 107.584C156.55 107.85 156.176 108.249 155.898 108.781C155.619 109.3 155.48 109.94 155.48 110.7C155.48 111.827 155.765 112.701 156.335 113.322C156.917 113.93 157.646 114.234 158.52 114.234Z" fill="black"/>
<path d="M168.622 107.242V113.037C168.622 113.43 168.71 113.715 168.888 113.892C169.078 114.057 169.394 114.139 169.838 114.139H171.168V115.944H169.458C168.482 115.944 167.735 115.716 167.216 115.26C166.696 114.804 166.437 114.063 166.437 113.037V107.242H165.202V105.475H166.437V102.872H168.622V105.475H171.168V107.242H168.622Z" fill="black"/>
<path d="M182.645 105.475V115.944H180.479V114.709C180.137 115.14 179.687 115.482 179.13 115.735C178.585 115.976 178.003 116.096 177.382 116.096C176.559 116.096 175.818 115.925 175.159 115.583C174.513 115.241 174 114.734 173.62 114.063C173.253 113.392 173.069 112.581 173.069 111.631V105.475H175.216V111.308C175.216 112.245 175.45 112.967 175.919 113.474C176.388 113.968 177.027 114.215 177.838 114.215C178.649 114.215 179.288 113.968 179.757 113.474C180.238 112.967 180.479 112.245 180.479 111.308V105.475H182.645Z" fill="black"/>
<path d="M189.303 116.115C188.48 116.115 187.739 115.969 187.08 115.678C186.434 115.374 185.921 114.969 185.541 114.462C185.161 113.943 184.958 113.366 184.933 112.733H187.175C187.213 113.176 187.422 113.55 187.802 113.854C188.195 114.145 188.682 114.291 189.265 114.291C189.873 114.291 190.342 114.177 190.671 113.949C191.013 113.708 191.184 113.404 191.184 113.037C191.184 112.644 190.994 112.353 190.614 112.163C190.247 111.973 189.658 111.764 188.847 111.536C188.062 111.321 187.422 111.112 186.928 110.909C186.434 110.706 186.003 110.396 185.636 109.978C185.281 109.56 185.104 109.009 185.104 108.325C185.104 107.768 185.269 107.261 185.598 106.805C185.927 106.336 186.396 105.969 187.004 105.703C187.625 105.437 188.334 105.304 189.132 105.304C190.323 105.304 191.279 105.608 192.001 106.216C192.736 106.811 193.128 107.628 193.179 108.667H191.013C190.975 108.198 190.785 107.825 190.443 107.546C190.101 107.267 189.639 107.128 189.056 107.128C188.486 107.128 188.049 107.236 187.745 107.451C187.441 107.666 187.289 107.951 187.289 108.306C187.289 108.585 187.39 108.819 187.593 109.009C187.796 109.199 188.043 109.351 188.334 109.465C188.625 109.566 189.056 109.699 189.626 109.864C190.386 110.067 191.007 110.276 191.488 110.491C191.982 110.694 192.406 110.998 192.761 111.403C193.116 111.808 193.299 112.347 193.312 113.018C193.312 113.613 193.147 114.145 192.818 114.614C192.489 115.083 192.02 115.45 191.412 115.716C190.817 115.982 190.114 116.115 189.303 116.115Z" fill="black"/>
<path d="M204.395 118.92C203.35 117.917 202.544 116.643 201.979 115.096C201.424 113.549 201.147 111.891 201.147 110.12C201.147 108.307 201.446 106.595 202.043 104.984C202.651 103.373 203.542 102.045 204.715 101H206.603V101.176C205.376 102.307 204.454 103.661 203.835 105.24C203.216 106.819 202.907 108.445 202.907 110.12C202.907 111.731 203.195 113.288 203.771 114.792C204.347 116.296 205.184 117.613 206.283 118.744V118.92H204.395Z" fill="black"/>
<path d="M207.758 105.944V104.28H211.086V115.944H209.246V105.944H207.758Z" fill="black"/>
<path d="M214.6 113.464C215.624 112.579 216.429 111.853 217.016 111.288C217.613 110.712 218.109 110.115 218.504 109.496C218.898 108.877 219.096 108.259 219.096 107.64C219.096 107 218.941 106.499 218.632 106.136C218.333 105.773 217.858 105.592 217.208 105.592C216.578 105.592 216.088 105.795 215.736 106.2C215.394 106.595 215.213 107.128 215.192 107.8H213.432C213.464 106.584 213.826 105.656 214.52 105.016C215.224 104.365 216.114 104.04 217.192 104.04C218.354 104.04 219.261 104.36 219.912 105C220.573 105.64 220.904 106.493 220.904 107.56C220.904 108.328 220.706 109.069 220.312 109.784C219.928 110.488 219.464 111.123 218.92 111.688C218.386 112.243 217.704 112.888 216.872 113.624L216.152 114.264H221.224V115.784H213.448V114.456L214.6 113.464Z" fill="black"/>
<path d="M222.826 109.96C222.826 108.115 223.135 106.675 223.754 105.64C224.383 104.595 225.461 104.072 226.986 104.072C228.511 104.072 229.583 104.595 230.202 105.64C230.831 106.675 231.146 108.115 231.146 109.96C231.146 111.827 230.831 113.288 230.202 114.344C229.583 115.389 228.511 115.912 226.986 115.912C225.461 115.912 224.383 115.389 223.754 114.344C223.135 113.288 222.826 111.827 222.826 109.96ZM229.354 109.96C229.354 109.096 229.295 108.365 229.178 107.768C229.071 107.171 228.847 106.685 228.506 106.312C228.165 105.928 227.658 105.736 226.986 105.736C226.314 105.736 225.807 105.928 225.466 106.312C225.125 106.685 224.895 107.171 224.778 107.768C224.671 108.365 224.618 109.096 224.618 109.96C224.618 110.856 224.671 111.608 224.778 112.216C224.885 112.824 225.109 113.315 225.45 113.688C225.802 114.061 226.314 114.248 226.986 114.248C227.658 114.248 228.165 114.061 228.506 113.688C228.858 113.315 229.087 112.824 229.194 112.216C229.301 111.608 229.354 110.856 229.354 109.96Z" fill="black"/>
<path d="M248.144 106.984C248.838 106.984 249.456 107.128 250 107.416C250.555 107.704 250.987 108.131 251.296 108.696C251.616 109.261 251.776 109.944 251.776 110.744V115.944H249.968V111.016C249.968 110.227 249.771 109.624 249.376 109.208C248.982 108.781 248.443 108.568 247.76 108.568C247.078 108.568 246.534 108.781 246.128 109.208C245.734 109.624 245.536 110.227 245.536 111.016V115.944H243.728V111.016C243.728 110.227 243.531 109.624 243.136 109.208C242.742 108.781 242.203 108.568 241.52 108.568C240.838 108.568 240.294 108.781 239.888 109.208C239.494 109.624 239.296 110.227 239.296 111.016V115.944H237.472V107.128H239.296V108.136C239.595 107.773 239.974 107.491 240.432 107.288C240.891 107.085 241.382 106.984 241.904 106.984C242.608 106.984 243.238 107.133 243.792 107.432C244.347 107.731 244.774 108.163 245.072 108.728C245.339 108.195 245.755 107.773 246.32 107.464C246.886 107.144 247.494 106.984 248.144 106.984Z" fill="black"/>
<path d="M254.865 113.464C255.889 112.579 256.695 111.853 257.281 111.288C257.879 110.712 258.375 110.115 258.769 109.496C259.164 108.877 259.361 108.259 259.361 107.64C259.361 107 259.207 106.499 258.897 106.136C258.599 105.773 258.124 105.592 257.473 105.592C256.844 105.592 256.353 105.795 256.001 106.2C255.66 106.595 255.479 107.128 255.457 107.8H253.697C253.729 106.584 254.092 105.656 254.785 105.016C255.489 104.365 256.38 104.04 257.457 104.04C258.62 104.04 259.527 104.36 260.177 105C260.839 105.64 261.169 106.493 261.169 107.56C261.169 108.328 260.972 109.069 260.577 109.784C260.193 110.488 259.729 111.123 259.185 111.688C258.652 112.243 257.969 112.888 257.137 113.624L256.417 114.264H261.489V115.784H253.713V114.456L254.865 113.464Z" fill="black"/>
<path d="M262.884 118.92V118.744C263.982 117.613 264.82 116.296 265.396 114.792C265.972 113.288 266.26 111.731 266.26 110.12C266.26 108.445 265.95 106.819 265.332 105.24C264.713 103.661 263.79 102.307 262.564 101.176V101H264.452C265.625 102.045 266.51 103.373 267.108 104.984C267.716 106.595 268.02 108.307 268.02 110.12C268.02 111.891 267.737 113.549 267.172 115.096C266.617 116.643 265.817 117.917 264.772 118.92H262.884Z" fill="black"/>
<path d="M108.208 141.999C109.424 140.948 110.38 140.086 111.077 139.415C111.786 138.731 112.375 138.022 112.844 137.287C113.313 136.552 113.547 135.818 113.547 135.083C113.547 134.323 113.363 133.728 112.996 133.297C112.641 132.866 112.078 132.651 111.305 132.651C110.558 132.651 109.975 132.892 109.557 133.373C109.152 133.842 108.936 134.475 108.911 135.273H106.821C106.859 133.829 107.29 132.727 108.113 131.967C108.949 131.194 110.007 130.808 111.286 130.808C112.667 130.808 113.743 131.188 114.516 131.948C115.301 132.708 115.694 133.721 115.694 134.988C115.694 135.9 115.46 136.78 114.991 137.629C114.535 138.465 113.984 139.219 113.338 139.89C112.705 140.549 111.894 141.315 110.906 142.189L110.051 142.949H116.074V144.754H106.84V143.177L108.208 141.999Z" fill="black"/>
<path d="M130.056 144.944L127.016 139.662H125.363V144.944H123.197V131.739H127.757C128.771 131.739 129.626 131.916 130.322 132.271C131.032 132.626 131.557 133.101 131.899 133.696C132.254 134.291 132.431 134.956 132.431 135.691C132.431 136.552 132.178 137.338 131.671 138.047C131.177 138.744 130.411 139.219 129.372 139.472L132.64 144.944H130.056ZM125.363 137.933H127.757C128.568 137.933 129.176 137.73 129.581 137.325C129.999 136.92 130.208 136.375 130.208 135.691C130.208 135.007 130.006 134.475 129.6 134.095C129.195 133.702 128.581 133.506 127.757 133.506H125.363V137.933Z" fill="black"/>
<path d="M144.797 139.453C144.797 139.846 144.772 140.2 144.721 140.517H136.722C136.785 141.353 137.096 142.024 137.653 142.531C138.21 143.038 138.894 143.291 139.705 143.291C140.87 143.291 141.694 142.803 142.175 141.828H144.512C144.195 142.791 143.619 143.582 142.783 144.203C141.96 144.811 140.934 145.115 139.705 145.115C138.704 145.115 137.805 144.893 137.007 144.45C136.222 143.994 135.601 143.361 135.145 142.55C134.702 141.727 134.48 140.777 134.48 139.7C134.48 138.623 134.695 137.68 135.126 136.869C135.569 136.046 136.184 135.412 136.969 134.969C137.767 134.526 138.679 134.304 139.705 134.304C140.693 134.304 141.573 134.519 142.346 134.95C143.119 135.381 143.72 135.989 144.151 136.774C144.582 137.547 144.797 138.44 144.797 139.453ZM142.536 138.769C142.523 137.971 142.238 137.331 141.681 136.85C141.124 136.369 140.433 136.128 139.61 136.128C138.863 136.128 138.223 136.369 137.691 136.85C137.159 137.319 136.842 137.958 136.741 138.769H142.536Z" fill="black"/>
<path d="M146.207 139.7C146.207 138.623 146.422 137.68 146.853 136.869C147.296 136.046 147.904 135.412 148.677 134.969C149.449 134.526 150.336 134.304 151.337 134.304C152.603 134.304 153.648 134.608 154.472 135.216C155.308 135.811 155.871 136.666 156.163 137.781H153.826C153.636 137.262 153.332 136.856 152.914 136.565C152.496 136.274 151.97 136.128 151.337 136.128C150.45 136.128 149.741 136.445 149.209 137.078C148.689 137.699 148.43 138.573 148.43 139.7C148.43 140.827 148.689 141.708 149.209 142.341C149.741 142.974 150.45 143.291 151.337 143.291C152.591 143.291 153.42 142.74 153.826 141.638H156.163C155.859 142.702 155.289 143.551 154.453 144.184C153.617 144.805 152.578 145.115 151.337 145.115C150.336 145.115 149.449 144.893 148.677 144.45C147.904 143.994 147.296 143.361 146.853 142.55C146.422 141.727 146.207 140.777 146.207 139.7Z" fill="black"/>
<path d="M157.599 139.662C157.599 138.611 157.815 137.68 158.245 136.869C158.689 136.058 159.284 135.431 160.031 134.988C160.791 134.532 161.627 134.304 162.539 134.304C163.363 134.304 164.078 134.469 164.686 134.798C165.307 135.115 165.801 135.514 166.168 135.995V134.475H168.353V144.944H166.168V143.386C165.801 143.88 165.301 144.292 164.667 144.621C164.034 144.95 163.312 145.115 162.501 145.115C161.602 145.115 160.779 144.887 160.031 144.431C159.284 143.962 158.689 143.316 158.245 142.493C157.815 141.657 157.599 140.713 157.599 139.662ZM166.168 139.7C166.168 138.978 166.016 138.351 165.712 137.819C165.421 137.287 165.035 136.882 164.553 136.603C164.072 136.324 163.553 136.185 162.995 136.185C162.438 136.185 161.919 136.324 161.437 136.603C160.956 136.869 160.563 137.268 160.259 137.8C159.968 138.319 159.822 138.94 159.822 139.662C159.822 140.384 159.968 141.017 160.259 141.562C160.563 142.107 160.956 142.525 161.437 142.816C161.931 143.095 162.451 143.234 162.995 143.234C163.553 143.234 164.072 143.095 164.553 142.816C165.035 142.537 165.421 142.132 165.712 141.6C166.016 141.055 166.168 140.422 166.168 139.7Z" fill="black"/>
<path d="M183.871 134.304C184.695 134.304 185.429 134.475 186.075 134.817C186.734 135.159 187.247 135.666 187.614 136.337C187.994 137.008 188.184 137.819 188.184 138.769V144.944H186.037V139.092C186.037 138.155 185.803 137.439 185.334 136.945C184.866 136.438 184.226 136.185 183.415 136.185C182.605 136.185 181.959 136.438 181.477 136.945C181.009 137.439 180.774 138.155 180.774 139.092V144.944H178.627V139.092C178.627 138.155 178.393 137.439 177.924 136.945C177.456 136.438 176.816 136.185 176.005 136.185C175.195 136.185 174.549 136.438 174.067 136.945C173.599 137.439 173.364 138.155 173.364 139.092V144.944H171.198V134.475H173.364V135.672C173.719 135.241 174.169 134.906 174.713 134.665C175.258 134.424 175.841 134.304 176.461 134.304C177.297 134.304 178.045 134.481 178.703 134.836C179.362 135.191 179.869 135.704 180.223 136.375C180.54 135.742 181.034 135.241 181.705 134.874C182.377 134.494 183.099 134.304 183.871 134.304Z" fill="black"/>
<path d="M190.218 139.662C190.218 138.611 190.434 137.68 190.864 136.869C191.308 136.058 191.903 135.431 192.65 134.988C193.41 134.532 194.246 134.304 195.158 134.304C195.982 134.304 196.697 134.469 197.305 134.798C197.926 135.115 198.42 135.514 198.787 135.995V134.475H200.972V144.944H198.787V143.386C198.42 143.88 197.92 144.292 197.286 144.621C196.653 144.95 195.931 145.115 195.12 145.115C194.221 145.115 193.398 144.887 192.65 144.431C191.903 143.962 191.308 143.316 190.864 142.493C190.434 141.657 190.218 140.713 190.218 139.662ZM198.787 139.7C198.787 138.978 198.635 138.351 198.331 137.819C198.04 137.287 197.654 136.882 197.172 136.603C196.691 136.324 196.172 136.185 195.614 136.185C195.057 136.185 194.538 136.324 194.056 136.603C193.575 136.869 193.182 137.268 192.878 137.8C192.587 138.319 192.441 138.94 192.441 139.662C192.441 140.384 192.587 141.017 192.878 141.562C193.182 142.107 193.575 142.525 194.056 142.816C194.55 143.095 195.07 143.234 195.614 143.234C196.172 143.234 196.691 143.095 197.172 142.816C197.654 142.537 198.04 142.132 198.331 141.6C198.635 141.055 198.787 140.422 198.787 139.7Z" fill="black"/>
<path d="M205.983 135.995C206.3 135.463 206.718 135.051 207.237 134.76C207.769 134.456 208.396 134.304 209.118 134.304V136.546H208.567C207.719 136.546 207.073 136.761 206.629 137.192C206.199 137.623 205.983 138.37 205.983 139.434V144.944H203.817V134.475H205.983V135.995Z" fill="black"/>
<path d="M210.387 139.662C210.387 138.611 210.603 137.68 211.033 136.869C211.477 136.058 212.072 135.431 212.819 134.988C213.579 134.532 214.415 134.304 215.327 134.304C216.151 134.304 216.866 134.469 217.474 134.798C218.095 135.115 218.589 135.514 218.956 135.995V134.475H221.141V144.944H218.956V143.386C218.589 143.88 218.089 144.292 217.455 144.621C216.822 144.95 216.1 145.115 215.289 145.115C214.39 145.115 213.567 144.887 212.819 144.431C212.072 143.962 211.477 143.316 211.033 142.493C210.603 141.657 210.387 140.713 210.387 139.662ZM218.956 139.7C218.956 138.978 218.804 138.351 218.5 137.819C218.209 137.287 217.823 136.882 217.341 136.603C216.86 136.324 216.341 136.185 215.783 136.185C215.226 136.185 214.707 136.324 214.225 136.603C213.744 136.869 213.351 137.268 213.047 137.8C212.756 138.319 212.61 138.94 212.61 139.662C212.61 140.384 212.756 141.017 213.047 141.562C213.351 142.107 213.744 142.525 214.225 142.816C214.719 143.095 215.239 143.234 215.783 143.234C216.341 143.234 216.86 143.095 217.341 142.816C217.823 142.537 218.209 142.132 218.5 141.6C218.804 141.055 218.956 140.422 218.956 139.7Z" fill="black"/>
<path d="M227.786 145.115C226.963 145.115 226.222 144.969 225.563 144.678C224.917 144.374 224.404 143.969 224.024 143.462C223.644 142.943 223.442 142.366 223.416 141.733H225.658C225.696 142.176 225.905 142.55 226.285 142.854C226.678 143.145 227.166 143.291 227.748 143.291C228.356 143.291 228.825 143.177 229.154 142.949C229.496 142.708 229.667 142.404 229.667 142.037C229.667 141.644 229.477 141.353 229.097 141.163C228.73 140.973 228.141 140.764 227.33 140.536C226.545 140.321 225.905 140.112 225.411 139.909C224.917 139.706 224.487 139.396 224.119 138.978C223.765 138.56 223.587 138.009 223.587 137.325C223.587 136.768 223.752 136.261 224.081 135.805C224.411 135.336 224.879 134.969 225.487 134.703C226.108 134.437 226.817 134.304 227.615 134.304C228.806 134.304 229.762 134.608 230.484 135.216C231.219 135.811 231.612 136.628 231.662 137.667H229.496C229.458 137.198 229.268 136.825 228.926 136.546C228.584 136.267 228.122 136.128 227.539 136.128C226.969 136.128 226.532 136.236 226.228 136.451C225.924 136.666 225.772 136.951 225.772 137.306C225.772 137.585 225.874 137.819 226.076 138.009C226.279 138.199 226.526 138.351 226.817 138.465C227.109 138.566 227.539 138.699 228.109 138.864C228.869 139.067 229.49 139.276 229.971 139.491C230.465 139.694 230.89 139.998 231.244 140.403C231.599 140.808 231.783 141.347 231.795 142.018C231.795 142.613 231.631 143.145 231.301 143.614C230.972 144.083 230.503 144.45 229.895 144.716C229.3 144.982 228.597 145.115 227.786 145.115Z" fill="black"/>
</svg>
