<svg width="302" height="194" viewBox="0 0 302 194" fill="none" xmlns="http://www.w3.org/2000/svg">
<path d="M0 193.5V0H301.5V193.5H0Z" fill="#8DA616" fill-opacity="0.5"/>
<path d="M70.908 53.739V66.944H68.742V57.9L64.714 66.944H63.213L59.166 57.9V66.944H57V53.739H59.337L63.973 64.094L68.59 53.739H70.908Z" fill="black"/>
<path d="M78.2959 67.115C77.3079 67.115 76.4149 66.8933 75.6169 66.45C74.8189 65.994 74.1919 65.3607 73.7359 64.55C73.2799 63.7267 73.0519 62.7767 73.0519 61.7C73.0519 60.636 73.2862 59.6923 73.7549 58.869C74.2235 58.0457 74.8632 57.4123 75.6739 56.969C76.4846 56.5257 77.3902 56.304 78.3909 56.304C79.3916 56.304 80.2972 56.5257 81.1079 56.969C81.9186 57.4123 82.5582 58.0457 83.0269 58.869C83.4956 59.6923 83.7299 60.636 83.7299 61.7C83.7299 62.764 83.4892 63.7077 83.0079 64.531C82.5266 65.3543 81.8679 65.994 81.0319 66.45C80.2086 66.8933 79.2965 67.115 78.2959 67.115ZM78.2959 65.234C78.8532 65.234 79.3726 65.101 79.8539 64.835C80.3479 64.569 80.7469 64.17 81.0509 63.638C81.3549 63.106 81.5069 62.46 81.5069 61.7C81.5069 60.94 81.3612 60.3003 81.0699 59.781C80.7785 59.249 80.3922 58.85 79.9109 58.584C79.4296 58.318 78.9102 58.185 78.3529 58.185C77.7956 58.185 77.2762 58.318 76.7949 58.584C76.3262 58.85 75.9526 59.249 75.6739 59.781C75.3952 60.3003 75.2559 60.94 75.2559 61.7C75.2559 62.8273 75.5409 63.7013 76.1109 64.322C76.6936 64.93 77.4219 65.234 78.2959 65.234Z" fill="black"/>
<path d="M85.1491 61.662C85.1491 60.6107 85.3644 59.6797 85.7951 58.869C86.2384 58.0583 86.8338 57.4313 87.5811 56.988C88.3411 56.532 89.1834 56.304 90.1081 56.304C90.7921 56.304 91.4634 56.456 92.1221 56.76C92.7934 57.0513 93.3254 57.444 93.7181 57.938V52.884H95.9031V66.944H93.7181V65.367C93.3634 65.8737 92.8694 66.2917 92.2361 66.621C91.6154 66.9503 90.8998 67.115 90.0891 67.115C89.1771 67.115 88.3411 66.887 87.5811 66.431C86.8338 65.9623 86.2384 65.3163 85.7951 64.493C85.3644 63.657 85.1491 62.7133 85.1491 61.662ZM93.7181 61.7C93.7181 60.978 93.5661 60.351 93.2621 59.819C92.9708 59.287 92.5844 58.8817 92.1031 58.603C91.6218 58.3243 91.1024 58.185 90.5451 58.185C89.9878 58.185 89.4684 58.3243 88.9871 58.603C88.5058 58.869 88.1131 59.268 87.8091 59.8C87.5178 60.3193 87.3721 60.94 87.3721 61.662C87.3721 62.384 87.5178 63.0173 87.8091 63.562C88.1131 64.1067 88.5058 64.5247 88.9871 64.816C89.4811 65.0947 90.0004 65.234 90.5451 65.234C91.1024 65.234 91.6218 65.0947 92.1031 64.816C92.5844 64.5373 92.9708 64.132 93.2621 63.6C93.5661 63.0553 93.7181 62.422 93.7181 61.7Z" fill="black"/>
<path d="M108.343 61.453C108.343 61.8457 108.318 62.2003 108.267 62.517H100.268C100.331 63.353 100.642 64.0243 101.199 64.531C101.756 65.0377 102.44 65.291 103.251 65.291C104.416 65.291 105.24 64.8033 105.721 63.828H108.058C107.741 64.7907 107.165 65.5823 106.329 66.203C105.506 66.811 104.48 67.115 103.251 67.115C102.25 67.115 101.351 66.8933 100.553 66.45C99.7677 65.994 99.147 65.3607 98.691 64.55C98.2477 63.7267 98.026 62.7767 98.026 61.7C98.026 60.6233 98.2414 59.6797 98.672 58.869C99.1154 58.0457 99.7297 57.4123 100.515 56.969C101.313 56.5257 102.225 56.304 103.251 56.304C104.239 56.304 105.119 56.5193 105.892 56.95C106.665 57.3807 107.266 57.9887 107.697 58.774C108.128 59.5467 108.343 60.4397 108.343 61.453ZM106.082 60.769C106.069 59.971 105.784 59.3313 105.227 58.85C104.67 58.3687 103.979 58.128 103.156 58.128C102.409 58.128 101.769 58.3687 101.237 58.85C100.705 59.3187 100.388 59.9583 100.287 60.769H106.082Z" fill="black"/>
<path d="M112.641 52.884V66.944H110.475V52.884H112.641Z" fill="black"/>
<path d="M120.025 67.115C119.037 67.115 118.144 66.8933 117.346 66.45C116.548 65.994 115.921 65.3607 115.465 64.55C115.009 63.7267 114.781 62.7767 114.781 61.7C114.781 60.636 115.016 59.6923 115.484 58.869C115.953 58.0457 116.593 57.4123 117.403 56.969C118.214 56.5257 119.12 56.304 120.12 56.304C121.121 56.304 122.027 56.5257 122.837 56.969C123.648 57.4123 124.288 58.0457 124.756 58.869C125.225 59.6923 125.459 60.636 125.459 61.7C125.459 62.764 125.219 63.7077 124.737 64.531C124.256 65.3543 123.597 65.994 122.761 66.45C121.938 66.8933 121.026 67.115 120.025 67.115ZM120.025 65.234C120.583 65.234 121.102 65.101 121.583 64.835C122.077 64.569 122.476 64.17 122.78 63.638C123.084 63.106 123.236 62.46 123.236 61.7C123.236 60.94 123.091 60.3003 122.799 59.781C122.508 59.249 122.122 58.85 121.64 58.584C121.159 58.318 120.64 58.185 120.082 58.185C119.525 58.185 119.006 58.318 118.524 58.584C118.056 58.85 117.682 59.249 117.403 59.781C117.125 60.3003 116.985 60.94 116.985 61.7C116.985 62.8273 117.27 63.7013 117.84 64.322C118.423 64.93 119.151 65.234 120.025 65.234Z" fill="black"/>
<path d="M140.497 64.246H134.968L134.018 66.944H131.757L136.488 53.72H138.996L143.727 66.944H141.447L140.497 64.246ZM139.889 62.479L137.742 56.342L135.576 62.479H139.889Z" fill="black"/>
<path d="M155.265 56.475V66.944H153.099V65.709C152.757 66.1397 152.308 66.4817 151.75 66.735C151.206 66.9757 150.623 67.096 150.002 67.096C149.179 67.096 148.438 66.925 147.779 66.583C147.133 66.241 146.62 65.7343 146.24 65.063C145.873 64.3917 145.689 63.581 145.689 62.631V56.475H147.836V62.308C147.836 63.2453 148.071 63.9673 148.539 64.474C149.008 64.968 149.648 65.215 150.458 65.215C151.269 65.215 151.909 64.968 152.377 64.474C152.859 63.9673 153.099 63.2453 153.099 62.308V56.475H155.265Z" fill="black"/>
<path d="M160.289 57.995C160.606 57.463 161.024 57.0513 161.543 56.76C162.075 56.456 162.702 56.304 163.424 56.304V58.546H162.873C162.024 58.546 161.378 58.7613 160.935 59.192C160.504 59.6227 160.289 60.37 160.289 61.434V66.944H158.123V56.475H160.289V57.995Z" fill="black"/>
<path d="M164.693 61.662C164.693 60.6107 164.908 59.6797 165.339 58.869C165.782 58.0583 166.378 57.4313 167.125 56.988C167.885 56.532 168.721 56.304 169.633 56.304C170.456 56.304 171.172 56.4687 171.78 56.798C172.401 57.1147 172.895 57.5137 173.262 57.995V56.475H175.447V66.944H173.262V65.386C172.895 65.88 172.394 66.2917 171.761 66.621C171.128 66.9503 170.406 67.115 169.595 67.115C168.696 67.115 167.872 66.887 167.125 66.431C166.378 65.9623 165.782 65.3163 165.339 64.493C164.908 63.657 164.693 62.7133 164.693 61.662ZM173.262 61.7C173.262 60.978 173.11 60.351 172.806 59.819C172.515 59.287 172.128 58.8817 171.647 58.603C171.166 58.3243 170.646 58.185 170.089 58.185C169.532 58.185 169.012 58.3243 168.531 58.603C168.05 58.869 167.657 59.268 167.353 59.8C167.062 60.3193 166.916 60.94 166.916 61.662C166.916 62.384 167.062 63.0173 167.353 63.562C167.657 64.1067 168.05 64.5247 168.531 64.816C169.025 65.0947 169.544 65.234 170.089 65.234C170.646 65.234 171.166 65.0947 171.647 64.816C172.128 64.5373 172.515 64.132 172.806 63.6C173.11 63.0553 173.262 62.422 173.262 61.7Z" fill="black"/>
<path d="M187.035 69.92C185.989 68.9173 185.184 67.6427 184.619 66.096C184.064 64.5493 183.787 62.8907 183.787 61.12C183.787 59.3067 184.085 57.5947 184.683 55.984C185.291 54.3733 186.181 53.0453 187.355 52H189.243V52.176C188.016 53.3067 187.093 54.6613 186.475 56.24C185.856 57.8187 185.547 59.4453 185.547 61.12C185.547 62.7307 185.835 64.288 186.411 65.792C186.987 67.296 187.824 68.6133 188.923 69.744V69.92H187.035Z" fill="black"/>
<path d="M198.03 56.688L193.582 66.944H191.742L196.238 56.88H190.318V55.328H198.03V56.688Z" fill="black"/>
<path d="M207.111 56.848H201.751V60.032C201.975 59.7333 202.305 59.4827 202.743 59.28C203.191 59.0773 203.665 58.976 204.167 58.976C205.063 58.976 205.788 59.168 206.343 59.552C206.908 59.936 207.308 60.4213 207.543 61.008C207.788 61.5947 207.911 62.2133 207.911 62.864C207.911 63.6533 207.756 64.3573 207.447 64.976C207.148 65.584 206.695 66.064 206.087 66.416C205.489 66.768 204.753 66.944 203.879 66.944C202.716 66.944 201.783 66.656 201.079 66.08C200.375 65.504 199.953 64.7413 199.815 63.792H201.591C201.708 64.2933 201.969 64.6933 202.375 64.992C202.78 65.28 203.287 65.424 203.895 65.424C204.652 65.424 205.217 65.1947 205.591 64.736C205.975 64.2773 206.167 63.6693 206.167 62.912C206.167 62.144 205.975 61.5573 205.591 61.152C205.207 60.736 204.641 60.528 203.895 60.528C203.372 60.528 202.929 60.6613 202.567 60.928C202.215 61.184 201.959 61.536 201.799 61.984H200.071V55.248H207.111V56.848Z" fill="black"/>
<path d="M224.878 57.984C225.571 57.984 226.19 58.128 226.734 58.416C227.288 58.704 227.72 59.1307 228.03 59.696C228.35 60.2613 228.51 60.944 228.51 61.744V66.944H226.702V62.016C226.702 61.2267 226.504 60.624 226.11 60.208C225.715 59.7813 225.176 59.568 224.494 59.568C223.811 59.568 223.267 59.7813 222.862 60.208C222.467 60.624 222.27 61.2267 222.27 62.016V66.944H220.462V62.016C220.462 61.2267 220.264 60.624 219.87 60.208C219.475 59.7813 218.936 59.568 218.254 59.568C217.571 59.568 217.027 59.7813 216.622 60.208C216.227 60.624 216.03 61.2267 216.03 62.016V66.944H214.206V58.128H216.03V59.136C216.328 58.7733 216.707 58.4907 217.166 58.288C217.624 58.0853 218.115 57.984 218.638 57.984C219.342 57.984 219.971 58.1333 220.526 58.432C221.08 58.7307 221.507 59.1627 221.806 59.728C222.072 59.1947 222.488 58.7733 223.054 58.464C223.619 58.144 224.227 57.984 224.878 57.984Z" fill="black"/>
<path d="M231.599 64.464C232.623 63.5787 233.428 62.8533 234.015 62.288C234.612 61.712 235.108 61.1147 235.503 60.496C235.897 59.8773 236.095 59.2587 236.095 58.64C236.095 58 235.94 57.4987 235.631 57.136C235.332 56.7733 234.857 56.592 234.207 56.592C233.577 56.592 233.087 56.7947 232.735 57.2C232.393 57.5947 232.212 58.128 232.191 58.8H230.431C230.463 57.584 230.825 56.656 231.519 56.016C232.223 55.3653 233.113 55.04 234.191 55.04C235.353 55.04 236.26 55.36 236.911 56C237.572 56.64 237.903 57.4933 237.903 58.56C237.903 59.328 237.705 60.0693 237.311 60.784C236.927 61.488 236.463 62.1227 235.919 62.688C235.385 63.2427 234.703 63.888 233.871 64.624L233.151 65.264H238.223V66.784H230.447V65.456L231.599 64.464Z" fill="black"/>
<path d="M239.617 69.92V69.744C240.716 68.6133 241.553 67.296 242.129 65.792C242.705 64.288 242.993 62.7307 242.993 61.12C242.993 59.4453 242.684 57.8187 242.065 56.24C241.446 54.6613 240.524 53.3067 239.297 52.176V52H241.185C242.358 53.0453 243.244 54.3733 243.841 55.984C244.449 57.5947 244.753 59.3067 244.753 61.12C244.753 62.8907 244.47 64.5493 243.905 66.096C243.35 67.6427 242.55 68.9173 241.505 69.92H239.617Z" fill="black"/>
<path d="M95.8289 84.069V82.093H99.7809V95.944H97.5959V84.069H95.8289Z" fill="black"/>
<path d="M114.836 95.944L111.796 90.662H110.143V95.944H107.977V82.739H112.537C113.55 82.739 114.405 82.9163 115.102 83.271C115.811 83.6257 116.337 84.1007 116.679 84.696C117.034 85.2913 117.211 85.9563 117.211 86.691C117.211 87.5523 116.958 88.3377 116.451 89.047C115.957 89.7437 115.191 90.2187 114.152 90.472L117.42 95.944H114.836ZM110.143 88.933H112.537C113.348 88.933 113.956 88.7303 114.361 88.325C114.779 87.9197 114.988 87.375 114.988 86.691C114.988 86.007 114.785 85.475 114.38 85.095C113.975 84.7023 113.36 84.506 112.537 84.506H110.143V88.933Z" fill="black"/>
<path d="M129.577 90.453C129.577 90.8457 129.552 91.2003 129.501 91.517H121.502C121.565 92.353 121.876 93.0243 122.433 93.531C122.99 94.0377 123.674 94.291 124.485 94.291C125.65 94.291 126.474 93.8033 126.955 92.828H129.292C128.975 93.7907 128.399 94.5823 127.563 95.203C126.74 95.811 125.714 96.115 124.485 96.115C123.484 96.115 122.585 95.8933 121.787 95.45C121.002 94.994 120.381 94.3607 119.925 93.55C119.482 92.7267 119.26 91.7767 119.26 90.7C119.26 89.6233 119.475 88.6797 119.906 87.869C120.349 87.0457 120.964 86.4123 121.749 85.969C122.547 85.5257 123.459 85.304 124.485 85.304C125.473 85.304 126.353 85.5193 127.126 85.95C127.899 86.3807 128.5 86.9887 128.931 87.774C129.362 88.5467 129.577 89.4397 129.577 90.453ZM127.316 89.769C127.303 88.971 127.018 88.3313 126.461 87.85C125.904 87.3687 125.213 87.128 124.39 87.128C123.643 87.128 123.003 87.3687 122.471 87.85C121.939 88.3187 121.622 88.9583 121.521 89.769H127.316Z" fill="black"/>
<path d="M130.986 90.7C130.986 89.6233 131.202 88.6797 131.632 87.869C132.076 87.0457 132.684 86.4123 133.456 85.969C134.229 85.5257 135.116 85.304 136.116 85.304C137.383 85.304 138.428 85.608 139.251 86.216C140.087 86.8113 140.651 87.6663 140.942 88.781H138.605C138.415 88.2617 138.111 87.8563 137.693 87.565C137.275 87.2737 136.75 87.128 136.116 87.128C135.23 87.128 134.52 87.4447 133.988 88.078C133.469 88.6987 133.209 89.5727 133.209 90.7C133.209 91.8273 133.469 92.7077 133.988 93.341C134.52 93.9743 135.23 94.291 136.116 94.291C137.37 94.291 138.2 93.74 138.605 92.638H140.942C140.638 93.702 140.068 94.5507 139.232 95.184C138.396 95.8047 137.358 96.115 136.116 96.115C135.116 96.115 134.229 95.8933 133.456 95.45C132.684 94.994 132.076 94.3607 131.632 93.55C131.202 92.7267 130.986 91.7767 130.986 90.7Z" fill="black"/>
<path d="M142.379 90.662C142.379 89.6107 142.594 88.6797 143.025 87.869C143.468 87.0583 144.064 86.4313 144.811 85.988C145.571 85.532 146.407 85.304 147.319 85.304C148.142 85.304 148.858 85.4687 149.466 85.798C150.087 86.1147 150.581 86.5137 150.948 86.995V85.475H153.133V95.944H150.948V94.386C150.581 94.88 150.08 95.2917 149.447 95.621C148.814 95.9503 148.092 96.115 147.281 96.115C146.382 96.115 145.558 95.887 144.811 95.431C144.064 94.9623 143.468 94.3163 143.025 93.493C142.594 92.657 142.379 91.7133 142.379 90.662ZM150.948 90.7C150.948 89.978 150.796 89.351 150.492 88.819C150.201 88.287 149.814 87.8817 149.333 87.603C148.852 87.3243 148.332 87.185 147.775 87.185C147.218 87.185 146.698 87.3243 146.217 87.603C145.736 87.869 145.343 88.268 145.039 88.8C144.748 89.3193 144.602 89.94 144.602 90.662C144.602 91.384 144.748 92.0173 145.039 92.562C145.343 93.1067 145.736 93.5247 146.217 93.816C146.711 94.0947 147.23 94.234 147.775 94.234C148.332 94.234 148.852 94.0947 149.333 93.816C149.814 93.5373 150.201 93.132 150.492 92.6C150.796 92.0553 150.948 91.422 150.948 90.7Z" fill="black"/>
<path d="M168.651 85.304C169.474 85.304 170.209 85.475 170.855 85.817C171.514 86.159 172.027 86.6657 172.394 87.337C172.774 88.0083 172.964 88.819 172.964 89.769V95.944H170.817V90.092C170.817 89.1547 170.583 88.439 170.114 87.945C169.645 87.4383 169.006 87.185 168.195 87.185C167.384 87.185 166.738 87.4383 166.257 87.945C165.788 88.439 165.554 89.1547 165.554 90.092V95.944H163.407V90.092C163.407 89.1547 163.173 88.439 162.704 87.945C162.235 87.4383 161.596 87.185 160.785 87.185C159.974 87.185 159.328 87.4383 158.847 87.945C158.378 88.439 158.144 89.1547 158.144 90.092V95.944H155.978V85.475H158.144V86.672C158.499 86.2413 158.948 85.9057 159.493 85.665C160.038 85.4243 160.62 85.304 161.241 85.304C162.077 85.304 162.824 85.4813 163.483 85.836C164.142 86.1907 164.648 86.7037 165.003 87.375C165.32 86.7417 165.814 86.2413 166.485 85.874C167.156 85.494 167.878 85.304 168.651 85.304Z" fill="black"/>
<path d="M174.998 90.662C174.998 89.6107 175.214 88.6797 175.644 87.869C176.088 87.0583 176.683 86.4313 177.43 85.988C178.19 85.532 179.026 85.304 179.938 85.304C180.762 85.304 181.477 85.4687 182.085 85.798C182.706 86.1147 183.2 86.5137 183.567 86.995V85.475H185.752V95.944H183.567V94.386C183.2 94.88 182.7 95.2917 182.066 95.621C181.433 95.9503 180.711 96.115 179.9 96.115C179.001 96.115 178.178 95.887 177.43 95.431C176.683 94.9623 176.088 94.3163 175.644 93.493C175.214 92.657 174.998 91.7133 174.998 90.662ZM183.567 90.7C183.567 89.978 183.415 89.351 183.111 88.819C182.82 88.287 182.434 87.8817 181.952 87.603C181.471 87.3243 180.952 87.185 180.394 87.185C179.837 87.185 179.318 87.3243 178.836 87.603C178.355 87.869 177.962 88.268 177.658 88.8C177.367 89.3193 177.221 89.94 177.221 90.662C177.221 91.384 177.367 92.0173 177.658 92.562C177.962 93.1067 178.355 93.5247 178.836 93.816C179.33 94.0947 179.85 94.234 180.394 94.234C180.952 94.234 181.471 94.0947 181.952 93.816C182.434 93.5373 182.82 93.132 183.111 92.6C183.415 92.0553 183.567 91.422 183.567 90.7Z" fill="black"/>
<path d="M190.763 86.995C191.08 86.463 191.498 86.0513 192.017 85.76C192.549 85.456 193.176 85.304 193.898 85.304V87.546H193.347C192.499 87.546 191.852 87.7613 191.409 88.192C190.978 88.6227 190.763 89.37 190.763 90.434V95.944H188.597V85.475H190.763V86.995Z" fill="black"/>
<path d="M195.167 90.662C195.167 89.6107 195.382 88.6797 195.813 87.869C196.256 87.0583 196.852 86.4313 197.599 85.988C198.359 85.532 199.195 85.304 200.107 85.304C200.93 85.304 201.646 85.4687 202.254 85.798C202.875 86.1147 203.369 86.5137 203.736 86.995V85.475H205.921V95.944H203.736V94.386C203.369 94.88 202.868 95.2917 202.235 95.621C201.602 95.9503 200.88 96.115 200.069 96.115C199.17 96.115 198.346 95.887 197.599 95.431C196.852 94.9623 196.256 94.3163 195.813 93.493C195.382 92.657 195.167 91.7133 195.167 90.662ZM203.736 90.7C203.736 89.978 203.584 89.351 203.28 88.819C202.989 88.287 202.602 87.8817 202.121 87.603C201.64 87.3243 201.12 87.185 200.563 87.185C200.006 87.185 199.486 87.3243 199.005 87.603C198.524 87.869 198.131 88.268 197.827 88.8C197.536 89.3193 197.39 89.94 197.39 90.662C197.39 91.384 197.536 92.0173 197.827 92.562C198.131 93.1067 198.524 93.5247 199.005 93.816C199.499 94.0947 200.018 94.234 200.563 94.234C201.12 94.234 201.64 94.0947 202.121 93.816C202.602 93.5373 202.989 93.132 203.28 92.6C203.584 92.0553 203.736 91.422 203.736 90.7Z" fill="black"/>
<rect x="86" y="111" width="129" height="29" rx="14.5" fill="white"/>
<path d="M103.626 118.795C105.032 118.795 106.261 119.067 107.312 119.612C108.376 120.144 109.193 120.917 109.763 121.93C110.346 122.931 110.637 124.102 110.637 125.445C110.637 126.788 110.346 127.953 109.763 128.941C109.193 129.929 108.376 130.689 107.312 131.221C106.261 131.74 105.032 132 103.626 132H99.3132V118.795H103.626ZM103.626 130.233C105.172 130.233 106.356 129.815 107.179 128.979C108.003 128.143 108.414 126.965 108.414 125.445C108.414 123.912 108.003 122.715 107.179 121.854C106.356 120.993 105.172 120.562 103.626 120.562H101.479V130.233H103.626Z" fill="black"/>
<path d="M114.95 118.795V132H112.784V118.795H114.95Z" fill="black"/>
<path d="M122.145 132.133C121.258 132.133 120.46 131.981 119.751 131.677C119.041 131.36 118.484 130.917 118.079 130.347C117.673 129.777 117.471 129.112 117.471 128.352H119.789C119.839 128.922 120.061 129.391 120.454 129.758C120.859 130.125 121.423 130.309 122.145 130.309C122.892 130.309 123.475 130.132 123.893 129.777C124.311 129.41 124.52 128.941 124.52 128.371C124.52 127.928 124.387 127.567 124.121 127.288C123.867 127.009 123.544 126.794 123.152 126.642C122.772 126.49 122.24 126.325 121.556 126.148C120.694 125.92 119.991 125.692 119.447 125.464C118.915 125.223 118.459 124.856 118.079 124.362C117.699 123.868 117.509 123.209 117.509 122.386C117.509 121.626 117.699 120.961 118.079 120.391C118.459 119.821 118.991 119.384 119.675 119.08C120.359 118.776 121.15 118.624 122.05 118.624C123.329 118.624 124.374 118.947 125.185 119.593C126.008 120.226 126.464 121.1 126.553 122.215H124.159C124.121 121.734 123.893 121.322 123.475 120.98C123.057 120.638 122.506 120.467 121.822 120.467C121.201 120.467 120.694 120.625 120.302 120.942C119.909 121.259 119.713 121.715 119.713 122.31C119.713 122.715 119.833 123.051 120.074 123.317C120.327 123.57 120.644 123.773 121.024 123.925C121.404 124.077 121.923 124.242 122.582 124.419C123.456 124.66 124.165 124.9 124.71 125.141C125.267 125.382 125.736 125.755 126.116 126.262C126.508 126.756 126.705 127.421 126.705 128.257C126.705 128.928 126.521 129.562 126.154 130.157C125.799 130.752 125.273 131.234 124.577 131.601C123.893 131.956 123.082 132.133 122.145 132.133Z" fill="black"/>
<path d="M138.494 122.728C138.494 123.399 138.336 124.033 138.02 124.628C137.703 125.223 137.196 125.711 136.5 126.091C135.803 126.458 134.91 126.642 133.82 126.642H131.426V132H129.26V118.795H133.82C134.834 118.795 135.689 118.972 136.385 119.327C137.095 119.669 137.621 120.138 137.963 120.733C138.317 121.328 138.494 121.993 138.494 122.728ZM133.82 124.875C134.644 124.875 135.258 124.691 135.663 124.324C136.069 123.944 136.271 123.412 136.271 122.728C136.271 121.284 135.454 120.562 133.82 120.562H131.426V124.875H133.82Z" fill="black"/>
<path d="M146.583 132.133C145.355 132.133 144.221 131.848 143.182 131.278C142.156 130.695 141.339 129.891 140.731 128.865C140.136 127.826 139.838 126.661 139.838 125.369C139.838 124.077 140.136 122.918 140.731 121.892C141.339 120.866 142.156 120.068 143.182 119.498C144.221 118.915 145.355 118.624 146.583 118.624C147.825 118.624 148.958 118.915 149.984 119.498C151.023 120.068 151.84 120.866 152.435 121.892C153.031 122.918 153.328 124.077 153.328 125.369C153.328 126.661 153.031 127.826 152.435 128.865C151.84 129.891 151.023 130.695 149.984 131.278C148.958 131.848 147.825 132.133 146.583 132.133ZM146.583 130.252C147.457 130.252 148.236 130.056 148.92 129.663C149.604 129.258 150.136 128.688 150.516 127.953C150.909 127.206 151.105 126.344 151.105 125.369C151.105 124.394 150.909 123.539 150.516 122.804C150.136 122.069 149.604 121.506 148.92 121.113C148.236 120.72 147.457 120.524 146.583 120.524C145.709 120.524 144.93 120.72 144.246 121.113C143.562 121.506 143.024 122.069 142.631 122.804C142.251 123.539 142.061 124.394 142.061 125.369C142.061 126.344 142.251 127.206 142.631 127.953C143.024 128.688 143.562 129.258 144.246 129.663C144.93 130.056 145.709 130.252 146.583 130.252Z" fill="black"/>
<path d="M166.309 132H164.143L157.626 122.139V132H155.46V118.776H157.626L164.143 128.618V118.776H166.309V132Z" fill="black"/>
<path d="M171.319 118.795V132H169.153V118.795H171.319Z" fill="black"/>
<path d="M181.231 125.217C181.94 125.344 182.542 125.717 183.036 126.338C183.53 126.959 183.777 127.662 183.777 128.447C183.777 129.118 183.6 129.726 183.245 130.271C182.903 130.803 182.403 131.227 181.744 131.544C181.085 131.848 180.319 132 179.445 132H174.163V118.795H179.198C180.097 118.795 180.87 118.947 181.516 119.251C182.162 119.555 182.65 119.967 182.979 120.486C183.308 120.993 183.473 121.563 183.473 122.196C183.473 122.956 183.27 123.589 182.865 124.096C182.46 124.603 181.915 124.976 181.231 125.217ZM176.329 124.343H179.008C179.717 124.343 180.268 124.185 180.661 123.868C181.066 123.539 181.269 123.07 181.269 122.462C181.269 121.867 181.066 121.404 180.661 121.075C180.268 120.733 179.717 120.562 179.008 120.562H176.329V124.343ZM179.255 130.233C179.99 130.233 180.566 130.056 180.984 129.701C181.402 129.346 181.611 128.852 181.611 128.219C181.611 127.573 181.389 127.06 180.946 126.68C180.503 126.3 179.914 126.11 179.179 126.11H176.329V130.233H179.255Z" fill="black"/>
<path d="M188.297 130.252H192.762V132H186.131V118.795H188.297V130.252Z" fill="black"/>
<path d="M196.739 120.543V124.419H201.299V126.186H196.739V130.233H201.869V132H194.573V118.776H201.869V120.543H196.739Z" fill="black"/>
</svg>
