<svg width="286" height="339" viewBox="0 0 286 339" fill="none" xmlns="http://www.w3.org/2000/svg">
<path d="M-3.0598e-07 331.5L-1.45122e-05 6.5L-1.47963e-05 0L286 -1.25015e-05L286 331.5L280 331.5L280 338.5L114.5 338.5L114.5 331.5L-3.0598e-07 331.5Z" fill="#8DA616" fill-opacity="0.7"/>
<rect x="85.0593" y="180.751" width="114.477" height="25.735" rx="12.8675" fill="white"/>
<path d="M100.701 187.668C101.949 187.668 103.039 187.91 103.972 188.393C104.916 188.865 105.641 189.551 106.147 190.45C106.664 191.338 106.923 192.378 106.923 193.57C106.923 194.761 106.664 195.795 106.147 196.672C105.641 197.549 104.916 198.223 103.972 198.695C103.039 199.156 101.949 199.387 100.701 199.387H96.8735V187.668H100.701ZM100.701 197.819C102.072 197.819 103.123 197.448 103.854 196.706C104.585 195.964 104.95 194.919 104.95 193.57C104.95 192.21 104.585 191.147 103.854 190.383C103.123 189.619 102.072 189.236 100.701 189.236H98.7957V197.819H100.701Z" fill="black"/>
<path d="M110.75 187.668V199.387H108.828V187.668H110.75Z" fill="black"/>
<path d="M117.135 199.505C116.348 199.505 115.64 199.37 115.01 199.1C114.381 198.819 113.886 198.426 113.526 197.92C113.167 197.414 112.987 196.824 112.987 196.149H115.044C115.089 196.655 115.285 197.071 115.634 197.397C115.994 197.723 116.494 197.886 117.135 197.886C117.798 197.886 118.315 197.729 118.686 197.414C119.057 197.088 119.242 196.672 119.242 196.166C119.242 195.773 119.124 195.452 118.888 195.205C118.663 194.958 118.377 194.767 118.028 194.632C117.691 194.497 117.219 194.351 116.612 194.194C115.847 193.991 115.224 193.789 114.74 193.587C114.268 193.373 113.864 193.047 113.526 192.609C113.189 192.17 113.02 191.586 113.02 190.855C113.02 190.181 113.189 189.59 113.526 189.085C113.864 188.579 114.336 188.191 114.943 187.921C115.55 187.651 116.252 187.517 117.05 187.517C118.186 187.517 119.113 187.803 119.832 188.377C120.563 188.939 120.968 189.714 121.046 190.703H118.922C118.888 190.276 118.686 189.911 118.315 189.607C117.944 189.304 117.455 189.152 116.848 189.152C116.297 189.152 115.847 189.293 115.499 189.574C115.151 189.855 114.976 190.259 114.976 190.788C114.976 191.147 115.083 191.445 115.297 191.681C115.521 191.906 115.803 192.086 116.14 192.221C116.477 192.356 116.938 192.502 117.522 192.659C118.298 192.873 118.927 193.086 119.411 193.3C119.905 193.513 120.321 193.845 120.658 194.295C121.007 194.733 121.181 195.323 121.181 196.065C121.181 196.661 121.018 197.223 120.692 197.751C120.377 198.279 119.911 198.707 119.293 199.033C118.686 199.347 117.966 199.505 117.135 199.505Z" fill="black"/>
<path d="M131.644 191.159C131.644 191.754 131.503 192.316 131.222 192.845C130.941 193.373 130.491 193.806 129.873 194.143C129.255 194.469 128.462 194.632 127.496 194.632H125.371V199.387H123.449V187.668H127.496C128.395 187.668 129.154 187.826 129.772 188.14C130.401 188.444 130.868 188.86 131.171 189.388C131.486 189.916 131.644 190.507 131.644 191.159ZM127.496 193.064C128.226 193.064 128.772 192.901 129.131 192.575C129.491 192.238 129.671 191.766 129.671 191.159C129.671 189.877 128.946 189.236 127.496 189.236H125.371V193.064H127.496Z" fill="black"/>
<path d="M138.822 199.505C137.731 199.505 136.725 199.252 135.804 198.746C134.893 198.229 134.168 197.515 133.629 196.605C133.1 195.683 132.836 194.649 132.836 193.502C132.836 192.356 133.1 191.327 133.629 190.417C134.168 189.506 134.893 188.798 135.804 188.292C136.725 187.775 137.731 187.517 138.822 187.517C139.923 187.517 140.929 187.775 141.84 188.292C142.762 188.798 143.487 189.506 144.015 190.417C144.543 191.327 144.807 192.356 144.807 193.502C144.807 194.649 144.543 195.683 144.015 196.605C143.487 197.515 142.762 198.229 141.84 198.746C140.929 199.252 139.923 199.505 138.822 199.505ZM138.822 197.835C139.597 197.835 140.289 197.661 140.896 197.313C141.503 196.953 141.975 196.447 142.312 195.795C142.66 195.132 142.835 194.368 142.835 193.502C142.835 192.637 142.66 191.878 142.312 191.226C141.975 190.574 141.503 190.074 140.896 189.725C140.289 189.377 139.597 189.203 138.822 189.203C138.046 189.203 137.355 189.377 136.748 189.725C136.141 190.074 135.663 190.574 135.315 191.226C134.977 191.878 134.809 192.637 134.809 193.502C134.809 194.368 134.977 195.132 135.315 195.795C135.663 196.447 136.141 196.953 136.748 197.313C137.355 197.661 138.046 197.835 138.822 197.835Z" fill="black"/>
<path d="M156.326 199.387H154.404L148.621 190.636V199.387H146.699V187.651H148.621L154.404 196.385V187.651H156.326V199.387Z" fill="black"/>
<path d="M160.773 187.668V199.387H158.85V187.668H160.773Z" fill="black"/>
<path d="M169.568 193.367C170.198 193.48 170.732 193.811 171.17 194.362C171.609 194.913 171.828 195.537 171.828 196.234C171.828 196.829 171.67 197.369 171.356 197.852C171.052 198.324 170.608 198.701 170.024 198.982C169.439 199.252 168.759 199.387 167.984 199.387H163.296V187.668H167.764C168.562 187.668 169.248 187.803 169.821 188.073C170.395 188.343 170.827 188.708 171.12 189.169C171.412 189.619 171.558 190.124 171.558 190.686C171.558 191.361 171.378 191.923 171.018 192.373C170.659 192.822 170.175 193.154 169.568 193.367ZM165.218 192.592H167.596C168.225 192.592 168.714 192.451 169.063 192.17C169.422 191.878 169.602 191.462 169.602 190.922C169.602 190.394 169.422 189.984 169.063 189.692C168.714 189.388 168.225 189.236 167.596 189.236H165.218V192.592ZM167.815 197.819C168.467 197.819 168.978 197.661 169.349 197.346C169.72 197.032 169.906 196.593 169.906 196.031C169.906 195.458 169.709 195.003 169.316 194.666C168.922 194.328 168.399 194.16 167.747 194.16H165.218V197.819H167.815Z" fill="black"/>
<path d="M175.839 197.835H179.801V199.387H173.917V187.668H175.839V197.835Z" fill="black"/>
<path d="M183.331 189.22V192.659H187.377V194.227H183.331V197.819H187.883V199.387H181.408V187.651H187.883V189.22H183.331Z" fill="black"/>
<path d="M66.3422 133.543V145.262H64.42V137.236L60.8455 145.262H59.5135L55.9221 137.236V145.262H54V133.543H56.0739L60.1879 142.732L64.2851 133.543H66.3422Z" fill="black"/>
<path d="M72.8983 145.413C72.0215 145.413 71.2291 145.217 70.5209 144.823C69.8127 144.418 69.2563 143.856 68.8517 143.137C68.447 142.406 68.2447 141.563 68.2447 140.608C68.2447 139.664 68.4526 138.826 68.8685 138.096C69.2844 137.365 69.8521 136.803 70.5715 136.41C71.2909 136.016 72.0946 135.819 72.9826 135.819C73.8706 135.819 74.6743 136.016 75.3937 136.41C76.1131 136.803 76.6807 137.365 77.0966 138.096C77.5125 138.826 77.7205 139.664 77.7205 140.608C77.7205 141.552 77.5069 142.39 77.0798 143.12C76.6526 143.851 76.0681 144.418 75.3263 144.823C74.5956 145.217 73.7863 145.413 72.8983 145.413ZM72.8983 143.744C73.3929 143.744 73.8537 143.626 74.2809 143.39C74.7193 143.154 75.0733 142.8 75.3431 142.328C75.6129 141.856 75.7478 141.282 75.7478 140.608C75.7478 139.933 75.6185 139.366 75.36 138.905C75.1014 138.433 74.7586 138.079 74.3315 137.843C73.9043 137.607 73.4435 137.489 72.9489 137.489C72.4543 137.489 71.9934 137.607 71.5663 137.843C71.1504 138.079 70.8188 138.433 70.5715 138.905C70.3242 139.366 70.2005 139.933 70.2005 140.608C70.2005 141.608 70.4535 142.384 70.9593 142.935C71.4763 143.474 72.1227 143.744 72.8983 143.744Z" fill="black"/>
<path d="M78.9799 140.574C78.9799 139.641 79.171 138.815 79.5532 138.096C79.9466 137.376 80.4749 136.82 81.1381 136.426C81.8126 136.022 82.56 135.819 83.3806 135.819C83.9876 135.819 84.5834 135.954 85.1679 136.224C85.7636 136.483 86.2357 136.831 86.5842 137.269V132.784H88.5232V145.262H86.5842V143.862C86.2694 144.312 85.8311 144.683 85.269 144.975C84.7182 145.267 84.0832 145.413 83.3638 145.413C82.5544 145.413 81.8126 145.211 81.1381 144.806C80.4749 144.39 79.9466 143.817 79.5532 143.086C79.171 142.345 78.9799 141.507 78.9799 140.574ZM86.5842 140.608C86.5842 139.967 86.4493 139.411 86.1795 138.939C85.921 138.467 85.5781 138.107 85.151 137.86C84.7239 137.612 84.263 137.489 83.7684 137.489C83.2738 137.489 82.813 137.612 82.3858 137.86C81.9587 138.096 81.6102 138.45 81.3404 138.922C81.0819 139.383 80.9526 139.933 80.9526 140.574C80.9526 141.215 81.0819 141.777 81.3404 142.26C81.6102 142.744 81.9587 143.115 82.3858 143.373C82.8242 143.62 83.2851 143.744 83.7684 143.744C84.263 143.744 84.7239 143.62 85.151 143.373C85.5781 143.126 85.921 142.766 86.1795 142.294C86.4493 141.811 86.5842 141.249 86.5842 140.608Z" fill="black"/>
<path d="M99.5626 140.389C99.5626 140.737 99.5401 141.052 99.4951 141.333H92.3967C92.4529 142.075 92.7283 142.671 93.2229 143.12C93.7175 143.57 94.3245 143.795 95.0439 143.795C96.078 143.795 96.8086 143.362 97.2358 142.496H99.3097C99.0287 143.351 98.5172 144.053 97.7753 144.604C97.0447 145.144 96.1342 145.413 95.0439 145.413C94.1559 145.413 93.3578 145.217 92.6496 144.823C91.9527 144.418 91.4019 143.856 90.9973 143.137C90.6038 142.406 90.4071 141.563 90.4071 140.608C90.4071 139.652 90.5982 138.815 90.9804 138.096C91.3738 137.365 91.919 136.803 92.6159 136.41C93.3241 136.016 94.1334 135.819 95.0439 135.819C95.9206 135.819 96.7019 136.011 97.3875 136.393C98.0732 136.775 98.6071 137.314 98.9893 138.011C99.3715 138.697 99.5626 139.489 99.5626 140.389ZM97.5561 139.782C97.5449 139.074 97.292 138.506 96.7974 138.079C96.3028 137.652 95.6902 137.438 94.9596 137.438C94.2964 137.438 93.7287 137.652 93.2566 138.079C92.7845 138.495 92.5035 139.062 92.4136 139.782H97.5561Z" fill="black"/>
<path d="M103.376 132.784V145.262H101.454V132.784H103.376Z" fill="black"/>
<path d="M109.93 145.413C109.053 145.413 108.26 145.217 107.552 144.823C106.844 144.418 106.288 143.856 105.883 143.137C105.478 142.406 105.276 141.563 105.276 140.608C105.276 139.664 105.484 138.826 105.9 138.096C106.316 137.365 106.883 136.803 107.603 136.41C108.322 136.016 109.126 135.819 110.014 135.819C110.902 135.819 111.706 136.016 112.425 136.41C113.144 136.803 113.712 137.365 114.128 138.096C114.544 138.826 114.752 139.664 114.752 140.608C114.752 141.552 114.538 142.39 114.111 143.12C113.684 143.851 113.099 144.418 112.358 144.823C111.627 145.217 110.818 145.413 109.93 145.413ZM109.93 143.744C110.424 143.744 110.885 143.626 111.312 143.39C111.751 143.154 112.105 142.8 112.374 142.328C112.644 141.856 112.779 141.282 112.779 140.608C112.779 139.933 112.65 139.366 112.391 138.905C112.133 138.433 111.79 138.079 111.363 137.843C110.936 137.607 110.475 137.489 109.98 137.489C109.486 137.489 109.025 137.607 108.598 137.843C108.182 138.079 107.85 138.433 107.603 138.905C107.356 139.366 107.232 139.933 107.232 140.608C107.232 141.608 107.485 142.384 107.991 142.935C108.508 143.474 109.154 143.744 109.93 143.744Z" fill="black"/>
<path d="M122.954 143.71H126.916V145.262H121.032V133.543H122.954V143.71Z" fill="black"/>
<path d="M132.554 145.413C131.677 145.413 130.884 145.217 130.176 144.823C129.468 144.418 128.912 143.856 128.507 143.137C128.102 142.406 127.9 141.563 127.9 140.608C127.9 139.664 128.108 138.826 128.524 138.096C128.94 137.365 129.507 136.803 130.227 136.41C130.946 136.016 131.75 135.819 132.638 135.819C133.526 135.819 134.33 136.016 135.049 136.41C135.768 136.803 136.336 137.365 136.752 138.096C137.168 138.826 137.376 139.664 137.376 140.608C137.376 141.552 137.162 142.39 136.735 143.12C136.308 143.851 135.723 144.418 134.981 144.823C134.251 145.217 133.442 145.413 132.554 145.413ZM132.554 143.744C133.048 143.744 133.509 143.626 133.936 143.39C134.375 143.154 134.729 142.8 134.998 142.328C135.268 141.856 135.403 141.282 135.403 140.608C135.403 139.933 135.274 139.366 135.015 138.905C134.757 138.433 134.414 138.079 133.987 137.843C133.56 137.607 133.099 137.489 132.604 137.489C132.11 137.489 131.649 137.607 131.222 137.843C130.806 138.079 130.474 138.433 130.227 138.905C129.979 139.366 129.856 139.933 129.856 140.608C129.856 141.608 130.109 142.384 130.615 142.935C131.132 143.474 131.778 143.744 132.554 143.744Z" fill="black"/>
<path d="M141.518 137.539V142.682C141.518 143.03 141.597 143.283 141.754 143.441C141.923 143.587 142.204 143.66 142.597 143.66H143.778V145.262H142.26C141.395 145.262 140.732 145.059 140.271 144.655C139.81 144.25 139.579 143.592 139.579 142.682V137.539H138.483V135.971H139.579V133.661H141.518V135.971H143.778V137.539H141.518Z" fill="black"/>
<path d="M153.963 135.971V145.262H152.041V144.166C151.737 144.548 151.338 144.851 150.844 145.076C150.36 145.29 149.843 145.396 149.292 145.396C148.562 145.396 147.904 145.245 147.32 144.941C146.746 144.638 146.291 144.188 145.954 143.592C145.628 142.997 145.465 142.277 145.465 141.434V135.971H147.37V141.147C147.37 141.979 147.578 142.62 147.994 143.07C148.41 143.508 148.978 143.727 149.697 143.727C150.416 143.727 150.984 143.508 151.4 143.07C151.827 142.62 152.041 141.979 152.041 141.147V135.971H153.963Z" fill="black"/>
<path d="M159.871 145.413C159.141 145.413 158.483 145.284 157.898 145.025C157.325 144.756 156.87 144.396 156.533 143.946C156.196 143.486 156.016 142.974 155.993 142.412H157.983C158.016 142.805 158.202 143.137 158.539 143.407C158.888 143.665 159.32 143.795 159.837 143.795C160.377 143.795 160.793 143.693 161.085 143.491C161.389 143.278 161.54 143.008 161.54 142.682C161.54 142.333 161.372 142.075 161.035 141.906C160.709 141.738 160.186 141.552 159.467 141.35C158.77 141.159 158.202 140.973 157.764 140.793C157.325 140.614 156.943 140.338 156.617 139.967C156.302 139.596 156.145 139.107 156.145 138.5C156.145 138.006 156.291 137.556 156.583 137.151C156.876 136.736 157.291 136.41 157.831 136.174C158.382 135.937 159.011 135.819 159.719 135.819C160.776 135.819 161.625 136.089 162.265 136.629C162.917 137.157 163.266 137.882 163.311 138.804H161.389C161.355 138.388 161.186 138.056 160.883 137.809C160.579 137.562 160.169 137.438 159.652 137.438C159.146 137.438 158.758 137.534 158.489 137.725C158.219 137.916 158.084 138.169 158.084 138.483C158.084 138.731 158.174 138.939 158.354 139.107C158.534 139.276 158.753 139.411 159.011 139.512C159.27 139.602 159.652 139.72 160.158 139.866C160.832 140.046 161.383 140.231 161.81 140.422C162.249 140.602 162.625 140.872 162.94 141.232C163.255 141.591 163.418 142.069 163.429 142.665C163.429 143.193 163.283 143.665 162.99 144.081C162.698 144.497 162.282 144.823 161.743 145.059C161.214 145.295 160.591 145.413 159.871 145.413Z" fill="black"/>
<path d="M173.264 147.902C172.336 147.013 171.622 145.882 171.12 144.509C170.628 143.136 170.382 141.665 170.382 140.093C170.382 138.484 170.647 136.965 171.177 135.535C171.716 134.106 172.507 132.928 173.548 132H175.223V132.156C174.135 133.16 173.316 134.362 172.767 135.763C172.218 137.164 171.944 138.607 171.944 140.093C171.944 141.523 172.199 142.905 172.71 144.239C173.221 145.574 173.964 146.743 174.939 147.746V147.902H173.264Z" fill="black"/>
<path d="M176.248 136.387V134.911H179.202V145.262H177.569V136.387H176.248Z" fill="black"/>
<path d="M182.32 143.061C183.229 142.275 183.943 141.631 184.464 141.13C184.994 140.619 185.434 140.088 185.784 139.539C186.135 138.99 186.31 138.441 186.31 137.892C186.31 137.324 186.172 136.88 185.898 136.558C185.633 136.236 185.212 136.075 184.634 136.075C184.076 136.075 183.64 136.255 183.328 136.615C183.025 136.965 182.864 137.438 182.845 138.034H181.283C181.312 136.955 181.634 136.132 182.249 135.564C182.874 134.986 183.664 134.698 184.62 134.698C185.652 134.698 186.456 134.982 187.034 135.55C187.621 136.118 187.914 136.875 187.914 137.821C187.914 138.503 187.739 139.161 187.389 139.795C187.048 140.42 186.636 140.983 186.153 141.485C185.68 141.977 185.074 142.55 184.336 143.203L183.697 143.771H188.198V145.12H181.298V143.941L182.32 143.061Z" fill="black"/>
<path d="M189.62 139.951C189.62 138.314 189.895 137.036 190.444 136.118C191.002 135.19 191.958 134.726 193.312 134.726C194.665 134.726 195.617 135.19 196.166 136.118C196.724 137.036 197.003 138.314 197.003 139.951C197.003 141.608 196.724 142.905 196.166 143.842C195.617 144.769 194.665 145.233 193.312 145.233C191.958 145.233 191.002 144.769 190.444 143.842C189.895 142.905 189.62 141.608 189.62 139.951ZM195.413 139.951C195.413 139.185 195.361 138.536 195.257 138.006C195.162 137.476 194.963 137.045 194.661 136.714C194.358 136.373 193.908 136.203 193.312 136.203C192.715 136.203 192.266 136.373 191.963 136.714C191.66 137.045 191.456 137.476 191.352 138.006C191.258 138.536 191.21 139.185 191.21 139.951C191.21 140.746 191.258 141.414 191.352 141.953C191.447 142.493 191.646 142.928 191.949 143.26C192.261 143.591 192.715 143.756 193.312 143.756C193.908 143.756 194.358 143.591 194.661 143.26C194.973 142.928 195.176 142.493 195.271 141.953C195.366 141.414 195.413 140.746 195.413 139.951Z" fill="black"/>
<path d="M212.088 137.31C212.703 137.31 213.252 137.438 213.735 137.694C214.227 137.949 214.61 138.328 214.885 138.83C215.169 139.331 215.311 139.937 215.311 140.647V145.262H213.707V140.888C213.707 140.188 213.531 139.653 213.181 139.284C212.831 138.905 212.353 138.716 211.747 138.716C211.141 138.716 210.659 138.905 210.299 139.284C209.949 139.653 209.773 140.188 209.773 140.888V145.262H208.169V140.888C208.169 140.188 207.994 139.653 207.644 139.284C207.293 138.905 206.815 138.716 206.21 138.716C205.604 138.716 205.121 138.905 204.761 139.284C204.411 139.653 204.236 140.188 204.236 140.888V145.262H202.617V137.438H204.236V138.333C204.501 138.011 204.837 137.76 205.244 137.58C205.651 137.4 206.087 137.31 206.55 137.31C207.175 137.31 207.734 137.443 208.226 137.708C208.718 137.973 209.097 138.356 209.362 138.858C209.598 138.385 209.968 138.011 210.469 137.736C210.971 137.452 211.51 137.31 212.088 137.31Z" fill="black"/>
<path d="M218.052 143.061C218.961 142.275 219.676 141.631 220.196 141.13C220.726 140.619 221.166 140.088 221.517 139.539C221.867 138.99 222.042 138.441 222.042 137.892C222.042 137.324 221.905 136.88 221.63 136.558C221.365 136.236 220.944 136.075 220.367 136.075C219.808 136.075 219.373 136.255 219.06 136.615C218.757 136.965 218.596 137.438 218.578 138.034H217.016C217.044 136.955 217.366 136.132 217.981 135.564C218.606 134.986 219.396 134.698 220.352 134.698C221.384 134.698 222.189 134.982 222.766 135.55C223.353 136.118 223.646 136.875 223.646 137.821C223.646 138.503 223.471 139.161 223.121 139.795C222.78 140.42 222.369 140.983 221.886 141.485C221.413 141.977 220.807 142.55 220.068 143.203L219.429 143.771H223.93V145.12H217.03V143.941L218.052 143.061Z" fill="black"/>
<path d="M225.168 147.902V147.746C226.143 146.743 226.886 145.574 227.397 144.239C227.908 142.905 228.164 141.523 228.164 140.093C228.164 138.607 227.889 137.164 227.34 135.763C226.791 134.362 225.972 133.16 224.884 132.156V132H226.559C227.601 132.928 228.386 134.106 228.916 135.535C229.456 136.965 229.726 138.484 229.726 140.093C229.726 141.665 229.475 143.136 228.973 144.509C228.481 145.882 227.771 147.013 226.843 147.902H225.168Z" fill="black"/>
<path d="M87.9063 168.383C88.9854 167.45 89.834 166.686 90.4522 166.09C91.0817 165.483 91.6044 164.854 92.0203 164.202C92.4362 163.55 92.6442 162.898 92.6442 162.246C92.6442 161.571 92.4812 161.043 92.1552 160.661C91.8405 160.279 91.3403 160.088 90.6546 160.088C89.9914 160.088 89.4743 160.301 89.1034 160.728C88.7437 161.144 88.5526 161.706 88.5301 162.414H86.6754C86.7091 161.133 87.0913 160.155 87.822 159.481C88.5638 158.795 89.5024 158.452 90.6377 158.452C91.8629 158.452 92.8184 158.789 93.5041 159.464C94.201 160.138 94.5494 161.037 94.5494 162.161C94.5494 162.971 94.3415 163.752 93.9256 164.505C93.5209 165.247 93.032 165.916 92.4587 166.512C91.8967 167.096 91.1773 167.776 90.3005 168.552L89.5418 169.226H94.8867V170.828H86.6923V169.428L87.9063 168.383Z" fill="black"/>
<path d="M107.295 170.997L104.597 166.309H103.13V170.997H101.208V159.278H105.255C106.154 159.278 106.913 159.436 107.531 159.75C108.16 160.065 108.627 160.487 108.93 161.015C109.245 161.543 109.402 162.133 109.402 162.785C109.402 163.55 109.178 164.247 108.728 164.876C108.29 165.494 107.61 165.916 106.688 166.141L109.588 170.997H107.295ZM103.13 164.775H105.255C105.974 164.775 106.514 164.595 106.873 164.235C107.244 163.876 107.43 163.392 107.43 162.785C107.43 162.178 107.25 161.706 106.89 161.369C106.53 161.021 105.985 160.846 105.255 160.846H103.13V164.775Z" fill="black"/>
<path d="M120.376 166.124C120.376 166.472 120.354 166.787 120.309 167.068H113.21C113.266 167.81 113.542 168.406 114.036 168.855C114.531 169.305 115.138 169.53 115.857 169.53C116.892 169.53 117.622 169.097 118.049 168.231H120.123C119.842 169.086 119.331 169.788 118.589 170.339C117.858 170.879 116.948 171.148 115.857 171.148C114.969 171.148 114.171 170.952 113.463 170.558C112.766 170.154 112.215 169.591 111.811 168.872C111.417 168.141 111.221 167.298 111.221 166.343C111.221 165.388 111.412 164.55 111.794 163.831C112.187 163.1 112.732 162.538 113.429 162.145C114.138 161.751 114.947 161.554 115.857 161.554C116.734 161.554 117.515 161.746 118.201 162.128C118.887 162.51 119.421 163.049 119.803 163.746C120.185 164.432 120.376 165.225 120.376 166.124ZM118.37 165.517C118.358 164.809 118.105 164.241 117.611 163.814C117.116 163.387 116.504 163.173 115.773 163.173C115.11 163.173 114.542 163.387 114.07 163.814C113.598 164.23 113.317 164.797 113.227 165.517H118.37Z" fill="black"/>
<path d="M121.627 166.343C121.627 165.388 121.818 164.55 122.2 163.831C122.594 163.1 123.133 162.538 123.819 162.145C124.505 161.751 125.291 161.554 126.179 161.554C127.303 161.554 128.231 161.824 128.961 162.364C129.703 162.892 130.204 163.651 130.462 164.64H128.388C128.22 164.179 127.95 163.819 127.579 163.561C127.208 163.302 126.741 163.173 126.179 163.173C125.393 163.173 124.763 163.454 124.291 164.016C123.83 164.567 123.6 165.343 123.6 166.343C123.6 167.343 123.83 168.125 124.291 168.687C124.763 169.249 125.393 169.53 126.179 169.53C127.292 169.53 128.028 169.041 128.388 168.063H130.462C130.192 169.007 129.686 169.76 128.945 170.322C128.203 170.873 127.281 171.148 126.179 171.148C125.291 171.148 124.505 170.952 123.819 170.558C123.133 170.154 122.594 169.591 122.2 168.872C121.818 168.141 121.627 167.298 121.627 166.343Z" fill="black"/>
<path d="M131.737 166.309C131.737 165.376 131.928 164.55 132.31 163.831C132.704 163.111 133.232 162.555 133.895 162.161C134.57 161.757 135.311 161.554 136.121 161.554C136.851 161.554 137.486 161.701 138.026 161.993C138.577 162.274 139.015 162.628 139.341 163.055V161.706H141.28V170.997H139.341V169.614C139.015 170.052 138.571 170.418 138.009 170.71C137.447 171.002 136.806 171.148 136.087 171.148C135.289 171.148 134.558 170.946 133.895 170.541C133.232 170.125 132.704 169.552 132.31 168.822C131.928 168.08 131.737 167.242 131.737 166.309ZM139.341 166.343C139.341 165.702 139.206 165.146 138.937 164.674C138.678 164.202 138.335 163.842 137.908 163.595C137.481 163.347 137.02 163.224 136.525 163.224C136.031 163.224 135.57 163.347 135.143 163.595C134.716 163.831 134.367 164.185 134.097 164.657C133.839 165.118 133.71 165.669 133.71 166.309C133.71 166.95 133.839 167.512 134.097 167.995C134.367 168.479 134.716 168.85 135.143 169.108C135.581 169.355 136.042 169.479 136.525 169.479C137.02 169.479 137.481 169.355 137.908 169.108C138.335 168.861 138.678 168.501 138.937 168.029C139.206 167.546 139.341 166.984 139.341 166.343Z" fill="black"/>
<path d="M155.051 161.554C155.782 161.554 156.434 161.706 157.007 162.01C157.591 162.313 158.047 162.763 158.373 163.359C158.71 163.954 158.878 164.674 158.878 165.517V170.997H156.973V165.803C156.973 164.972 156.765 164.337 156.349 163.898C155.933 163.448 155.366 163.224 154.646 163.224C153.927 163.224 153.354 163.448 152.927 163.898C152.511 164.337 152.303 164.972 152.303 165.803V170.997H150.397V165.803C150.397 164.972 150.189 164.337 149.774 163.898C149.358 163.448 148.79 163.224 148.071 163.224C147.351 163.224 146.778 163.448 146.351 163.898C145.935 164.337 145.727 164.972 145.727 165.803V170.997H143.805V161.706H145.727V162.768C146.042 162.386 146.441 162.088 146.924 161.875C147.407 161.661 147.924 161.554 148.475 161.554C149.217 161.554 149.88 161.712 150.465 162.027C151.049 162.341 151.499 162.797 151.814 163.392C152.095 162.83 152.533 162.386 153.129 162.06C153.725 161.723 154.365 161.554 155.051 161.554Z" fill="black"/>
<path d="M160.684 166.309C160.684 165.376 160.875 164.55 161.257 163.831C161.65 163.111 162.179 162.555 162.842 162.161C163.516 161.757 164.258 161.554 165.067 161.554C165.798 161.554 166.433 161.701 166.973 161.993C167.524 162.274 167.962 162.628 168.288 163.055V161.706H170.227V170.997H168.288V169.614C167.962 170.052 167.518 170.418 166.956 170.71C166.394 171.002 165.753 171.148 165.034 171.148C164.236 171.148 163.505 170.946 162.842 170.541C162.179 170.125 161.65 169.552 161.257 168.822C160.875 168.08 160.684 167.242 160.684 166.309ZM168.288 166.343C168.288 165.702 168.153 165.146 167.883 164.674C167.625 164.202 167.282 163.842 166.855 163.595C166.428 163.347 165.967 163.224 165.472 163.224C164.978 163.224 164.517 163.347 164.09 163.595C163.662 163.831 163.314 164.185 163.044 164.657C162.786 165.118 162.656 165.669 162.656 166.309C162.656 166.95 162.786 167.512 163.044 167.995C163.314 168.479 163.662 168.85 164.09 169.108C164.528 169.355 164.989 169.479 165.472 169.479C165.967 169.479 166.428 169.355 166.855 169.108C167.282 168.861 167.625 168.501 167.883 168.029C168.153 167.546 168.288 166.984 168.288 166.343Z" fill="black"/>
<path d="M174.674 163.055C174.955 162.583 175.326 162.218 175.786 161.959C176.259 161.689 176.815 161.554 177.456 161.554V163.544H176.967C176.214 163.544 175.64 163.735 175.247 164.117C174.865 164.499 174.674 165.163 174.674 166.107V170.997H172.752V161.706H174.674V163.055Z" fill="black"/>
<path d="M178.582 166.309C178.582 165.376 178.773 164.55 179.155 163.831C179.549 163.111 180.077 162.555 180.74 162.161C181.414 161.757 182.156 161.554 182.966 161.554C183.696 161.554 184.331 161.701 184.871 161.993C185.422 162.274 185.86 162.628 186.186 163.055V161.706H188.125V170.997H186.186V169.614C185.86 170.052 185.416 170.418 184.854 170.71C184.292 171.002 183.651 171.148 182.932 171.148C182.134 171.148 181.403 170.946 180.74 170.541C180.077 170.125 179.549 169.552 179.155 168.822C178.773 168.08 178.582 167.242 178.582 166.309ZM186.186 166.343C186.186 165.702 186.051 165.146 185.781 164.674C185.523 164.202 185.18 163.842 184.753 163.595C184.326 163.347 183.865 163.224 183.37 163.224C182.876 163.224 182.415 163.347 181.988 163.595C181.561 163.831 181.212 164.185 180.942 164.657C180.684 165.118 180.555 165.669 180.555 166.309C180.555 166.95 180.684 167.512 180.942 167.995C181.212 168.479 181.561 168.85 181.988 169.108C182.426 169.355 182.887 169.479 183.37 169.479C183.865 169.479 184.326 169.355 184.753 169.108C185.18 168.861 185.523 168.501 185.781 168.029C186.051 167.546 186.186 166.984 186.186 166.343Z" fill="black"/>
<path d="M194.022 171.148C193.291 171.148 192.634 171.019 192.049 170.761C191.476 170.491 191.021 170.131 190.683 169.681C190.346 169.221 190.166 168.709 190.144 168.147H192.134C192.167 168.54 192.353 168.872 192.69 169.142C193.038 169.4 193.471 169.53 193.988 169.53C194.528 169.53 194.944 169.428 195.236 169.226C195.539 169.013 195.691 168.743 195.691 168.417C195.691 168.068 195.523 167.81 195.185 167.641C194.859 167.473 194.337 167.287 193.617 167.085C192.92 166.894 192.353 166.708 191.914 166.528C191.476 166.349 191.094 166.073 190.768 165.702C190.453 165.331 190.296 164.842 190.296 164.235C190.296 163.741 190.442 163.291 190.734 162.886C191.026 162.471 191.442 162.145 191.982 161.909C192.533 161.672 193.162 161.554 193.87 161.554C194.927 161.554 195.775 161.824 196.416 162.364C197.068 162.892 197.417 163.617 197.462 164.539H195.539C195.506 164.123 195.337 163.791 195.034 163.544C194.73 163.297 194.32 163.173 193.803 163.173C193.297 163.173 192.909 163.269 192.639 163.46C192.37 163.651 192.235 163.904 192.235 164.218C192.235 164.466 192.325 164.674 192.504 164.842C192.684 165.011 192.903 165.146 193.162 165.247C193.421 165.337 193.803 165.455 194.309 165.601C194.983 165.781 195.534 165.966 195.961 166.157C196.399 166.337 196.776 166.607 197.091 166.967C197.405 167.327 197.568 167.804 197.58 168.4C197.58 168.928 197.433 169.4 197.141 169.816C196.849 170.232 196.433 170.558 195.893 170.794C195.365 171.03 194.741 171.148 194.022 171.148Z" fill="black"/>
</svg>
