<svg width="336" height="287" viewBox="0 0 336 287" fill="none" xmlns="http://www.w3.org/2000/svg">
<rect x="111" y="154.995" width="114.477" height="25.735" rx="12.8675" fill="white"/>
<path d="M126.642 161.912C127.89 161.912 128.98 162.154 129.913 162.638C130.857 163.11 131.582 163.795 132.088 164.695C132.605 165.583 132.864 166.622 132.864 167.814C132.864 169.005 132.605 170.039 132.088 170.916C131.582 171.793 130.857 172.467 129.913 172.94C128.98 173.4 127.89 173.631 126.642 173.631H122.814L122.814 161.912H126.642ZM126.642 172.063C128.013 172.063 129.064 171.692 129.795 170.95C130.525 170.208 130.891 169.163 130.891 167.814C130.891 166.454 130.525 165.391 129.795 164.627C129.064 163.863 128.013 163.481 126.642 163.481H124.737L124.737 172.063H126.642Z" fill="black"/>
<path d="M136.691 161.912L136.691 173.631H134.769L134.769 161.912H136.691Z" fill="black"/>
<path d="M143.075 173.749C142.289 173.749 141.58 173.614 140.951 173.344C140.321 173.063 139.827 172.67 139.467 172.164C139.108 171.658 138.928 171.068 138.928 170.394H140.985C141.03 170.899 141.226 171.315 141.575 171.641C141.935 171.967 142.435 172.13 143.075 172.13C143.739 172.13 144.256 171.973 144.627 171.658C144.998 171.332 145.183 170.916 145.183 170.41C145.183 170.017 145.065 169.697 144.829 169.449C144.604 169.202 144.318 169.011 143.969 168.876C143.632 168.741 143.16 168.595 142.553 168.438C141.788 168.235 141.165 168.033 140.681 167.831C140.209 167.617 139.804 167.291 139.467 166.853C139.13 166.414 138.961 165.83 138.961 165.099C138.961 164.425 139.13 163.835 139.467 163.329C139.804 162.823 140.277 162.435 140.884 162.165C141.491 161.896 142.193 161.761 142.991 161.761C144.126 161.761 145.054 162.047 145.773 162.621C146.504 163.183 146.908 163.958 146.987 164.947H144.863C144.829 164.52 144.627 164.155 144.256 163.851C143.885 163.548 143.396 163.396 142.789 163.396C142.238 163.396 141.788 163.537 141.44 163.818C141.091 164.099 140.917 164.503 140.917 165.032C140.917 165.391 141.024 165.689 141.238 165.925C141.462 166.15 141.743 166.33 142.081 166.465C142.418 166.6 142.879 166.746 143.463 166.903C144.239 167.117 144.868 167.33 145.352 167.544C145.846 167.758 146.262 168.089 146.599 168.539C146.948 168.977 147.122 169.567 147.122 170.309C147.122 170.905 146.959 171.467 146.633 171.995C146.318 172.524 145.852 172.951 145.234 173.277C144.627 173.591 143.907 173.749 143.075 173.749Z" fill="black"/>
<path d="M157.584 165.403C157.584 165.998 157.444 166.56 157.163 167.089C156.882 167.617 156.432 168.05 155.814 168.387C155.196 168.713 154.403 168.876 153.437 168.876H151.312L151.312 173.631H149.39L149.39 161.912H153.437C154.336 161.912 155.095 162.07 155.713 162.385C156.342 162.688 156.809 163.104 157.112 163.632C157.427 164.161 157.584 164.751 157.584 165.403ZM153.437 167.308C154.167 167.308 154.713 167.145 155.072 166.819C155.432 166.482 155.612 166.01 155.612 165.403C155.612 164.121 154.887 163.481 153.437 163.481H151.312V167.308H153.437Z" fill="black"/>
<path d="M164.763 173.749C163.672 173.749 162.666 173.496 161.745 172.99C160.834 172.473 160.109 171.759 159.569 170.849C159.041 169.927 158.777 168.893 158.777 167.746C158.777 166.6 159.041 165.571 159.569 164.661C160.109 163.75 160.834 163.042 161.745 162.536C162.666 162.019 163.672 161.761 164.763 161.761C165.864 161.761 166.87 162.019 167.781 162.536C168.702 163.042 169.427 163.75 169.956 164.661C170.484 165.571 170.748 166.6 170.748 167.746C170.748 168.893 170.484 169.927 169.956 170.849C169.427 171.759 168.702 172.473 167.781 172.99C166.87 173.496 165.864 173.749 164.763 173.749ZM164.763 172.08C165.538 172.08 166.23 171.905 166.836 171.557C167.443 171.197 167.916 170.691 168.253 170.039C168.601 169.376 168.776 168.612 168.776 167.746C168.776 166.881 168.601 166.122 168.253 165.47C167.916 164.818 167.443 164.318 166.836 163.97C166.23 163.621 165.538 163.447 164.763 163.447C163.987 163.447 163.296 163.621 162.689 163.97C162.082 164.318 161.604 164.818 161.256 165.47C160.918 166.122 160.75 166.881 160.75 167.746C160.75 168.612 160.918 169.376 161.256 170.039C161.604 170.691 162.082 171.197 162.689 171.557C163.296 171.905 163.987 172.08 164.763 172.08Z" fill="black"/>
<path d="M182.267 173.631H180.345L174.562 164.88L174.562 173.631H172.64L172.64 161.896H174.562L180.345 170.63V161.896L182.267 161.896L182.267 173.631Z" fill="black"/>
<path d="M186.714 161.912L186.714 173.631H184.791L184.791 161.912H186.714Z" fill="black"/>
<path d="M195.509 167.611C196.139 167.724 196.673 168.055 197.111 168.606C197.55 169.157 197.769 169.781 197.769 170.478C197.769 171.074 197.611 171.613 197.297 172.096C196.993 172.569 196.549 172.945 195.965 173.226C195.38 173.496 194.7 173.631 193.924 173.631H189.237V161.912H193.705C194.503 161.912 195.189 162.047 195.762 162.317C196.336 162.587 196.768 162.952 197.061 163.413C197.353 163.863 197.499 164.369 197.499 164.931C197.499 165.605 197.319 166.167 196.959 166.617C196.6 167.066 196.116 167.398 195.509 167.611ZM191.159 166.836H193.537C194.166 166.836 194.655 166.695 195.004 166.414C195.363 166.122 195.543 165.706 195.543 165.167C195.543 164.638 195.363 164.228 195.004 163.936C194.655 163.632 194.166 163.481 193.537 163.481H191.159V166.836ZM193.756 172.063C194.408 172.063 194.919 171.905 195.29 171.591C195.661 171.276 195.847 170.838 195.847 170.275C195.847 169.702 195.65 169.247 195.256 168.91C194.863 168.573 194.34 168.404 193.688 168.404H191.159V172.063H193.756Z" fill="black"/>
<path d="M201.78 172.08H205.742V173.631H199.857V161.912H201.78V172.08Z" fill="black"/>
<path d="M209.272 163.464V166.903H213.318V168.471H209.272V172.063L213.824 172.063V173.631L207.349 173.631V161.896H213.824V163.464H209.272Z" fill="black"/>
<path d="M157.393 120L157.393 111.435H155.908V109.05H160.063L160.063 120H157.393Z" fill="black"/>
<path d="M161.817 114.375C161.817 111.165 162.912 108.825 166.032 108.825C169.152 108.825 170.247 111.165 170.247 114.375C170.247 117.615 169.152 119.955 166.032 119.955C162.912 119.955 161.817 117.615 161.817 114.375ZM167.727 114.375C167.727 112.695 167.547 111.225 166.032 111.225C164.517 111.225 164.337 112.695 164.337 114.375C164.337 116.115 164.517 117.555 166.032 117.555C167.547 117.555 167.727 116.115 167.727 114.375Z" fill="black"/>
<path d="M171.513 119.85V117.945C173.838 116.025 176.313 114.12 176.313 112.275C176.313 111.48 175.953 110.97 175.173 110.97C174.408 110.97 173.958 111.57 173.958 112.605H171.483C171.558 109.95 173.283 108.81 175.278 108.81C177.768 108.81 178.878 110.265 178.878 112.11C178.878 114.51 176.733 116.43 174.993 117.765L179.043 117.765V119.85L171.513 119.85Z" fill="black"/>
<path d="M108.523 125.696L108.523 134H107.431L107.431 127.808L104.671 134H103.903L101.131 127.796L101.131 134H100.039L100.039 125.696H101.215L104.287 132.56L107.359 125.696H108.523Z" fill="black"/>
<path d="M113.243 134.108C112.627 134.108 112.067 133.968 111.563 133.688C111.067 133.408 110.675 133.012 110.387 132.5C110.107 131.98 109.967 131.38 109.967 130.7C109.967 130.028 110.111 129.436 110.399 128.924C110.695 128.404 111.095 128.008 111.599 127.736C112.103 127.456 112.667 127.316 113.291 127.316C113.915 127.316 114.479 127.456 114.983 127.736C115.487 128.008 115.883 128.4 116.171 128.912C116.467 129.424 116.615 130.02 116.615 130.7C116.615 131.38 116.463 131.98 116.159 132.5C115.863 133.012 115.459 133.408 114.947 133.688C114.435 133.968 113.867 134.108 113.243 134.108ZM113.243 133.148C113.635 133.148 114.003 133.056 114.347 132.872C114.691 132.688 114.967 132.412 115.175 132.044C115.391 131.676 115.499 131.228 115.499 130.7C115.499 130.172 115.395 129.724 115.187 129.356C114.979 128.988 114.707 128.716 114.371 128.54C114.035 128.356 113.671 128.264 113.279 128.264C112.879 128.264 112.511 128.356 112.175 128.54C111.847 128.716 111.583 128.988 111.383 129.356C111.183 129.724 111.083 130.172 111.083 130.7C111.083 131.236 111.179 131.688 111.371 132.056C111.571 132.424 111.835 132.7 112.163 132.884C112.491 133.06 112.851 133.148 113.243 133.148Z" fill="black"/>
<path d="M117.643 130.688C117.643 130.016 117.779 129.428 118.051 128.924C118.323 128.412 118.695 128.016 119.167 127.736C119.647 127.456 120.183 127.316 120.775 127.316C121.287 127.316 121.763 127.436 122.203 127.676C122.643 127.908 122.979 128.216 123.211 128.6V125.12H124.315L124.315 134L123.211 134V132.764C122.995 133.156 122.675 133.48 122.251 133.736C121.827 133.984 121.331 134.108 120.763 134.108C120.179 134.108 119.647 133.964 119.167 133.676C118.695 133.388 118.323 132.984 118.051 132.464C117.779 131.944 117.643 131.352 117.643 130.688ZM123.211 130.7C123.211 130.204 123.111 129.772 122.911 129.404C122.711 129.036 122.439 128.756 122.095 128.564C121.759 128.364 121.387 128.264 120.979 128.264C120.571 128.264 120.199 128.36 119.863 128.552C119.527 128.744 119.259 129.024 119.059 129.392C118.859 129.76 118.759 130.192 118.759 130.688C118.759 131.192 118.859 131.632 119.059 132.008C119.259 132.376 119.527 132.66 119.863 132.86C120.199 133.052 120.571 133.148 120.979 133.148C121.387 133.148 121.759 133.052 122.095 132.86C122.439 132.66 122.711 132.376 122.911 132.008C123.111 131.632 123.211 131.196 123.211 130.7Z" fill="black"/>
<path d="M132.16 130.46C132.16 130.668 132.148 130.888 132.124 131.12H126.868C126.908 131.768 127.128 132.276 127.528 132.644C127.936 133.004 128.428 133.184 129.004 133.184C129.476 133.184 129.868 133.076 130.18 132.86C130.5 132.636 130.724 132.34 130.852 131.972H132.028C131.852 132.604 131.5 133.12 130.972 133.52C130.444 133.912 129.788 134.108 129.004 134.108C128.38 134.108 127.82 133.968 127.324 133.688C126.836 133.408 126.452 133.012 126.172 132.5C125.892 131.98 125.752 131.38 125.752 130.7C125.752 130.02 125.888 129.424 126.16 128.912C126.432 128.4 126.812 128.008 127.3 127.736C127.796 127.456 128.364 127.316 129.004 127.316C129.628 127.316 130.18 127.452 130.66 127.724C131.14 127.996 131.508 128.372 131.764 128.852C132.028 129.324 132.16 129.86 132.16 130.46ZM131.032 130.232C131.032 129.816 130.94 129.46 130.756 129.164C130.572 128.86 130.32 128.632 130 128.48C129.688 128.32 129.34 128.24 128.956 128.24C128.404 128.24 127.932 128.416 127.54 128.768C127.156 129.12 126.936 129.608 126.88 130.232H131.032Z" fill="black"/>
<path d="M134.694 125.12L134.694 134H133.602L133.602 125.12H134.694Z" fill="black"/>
<path d="M139.423 134.108C138.807 134.108 138.247 133.968 137.743 133.688C137.247 133.408 136.855 133.012 136.567 132.5C136.287 131.98 136.147 131.38 136.147 130.7C136.147 130.028 136.291 129.436 136.579 128.924C136.875 128.404 137.275 128.008 137.779 127.736C138.283 127.456 138.847 127.316 139.471 127.316C140.095 127.316 140.659 127.456 141.163 127.736C141.667 128.008 142.063 128.4 142.351 128.912C142.647 129.424 142.795 130.02 142.795 130.7C142.795 131.38 142.643 131.98 142.339 132.5C142.043 133.012 141.639 133.408 141.127 133.688C140.615 133.968 140.047 134.108 139.423 134.108ZM139.423 133.148C139.815 133.148 140.183 133.056 140.527 132.872C140.871 132.688 141.147 132.412 141.355 132.044C141.571 131.676 141.679 131.228 141.679 130.7C141.679 130.172 141.575 129.724 141.367 129.356C141.159 128.988 140.887 128.716 140.551 128.54C140.215 128.356 139.851 128.264 139.459 128.264C139.059 128.264 138.691 128.356 138.355 128.54C138.027 128.716 137.763 128.988 137.563 129.356C137.363 129.724 137.263 130.172 137.263 130.7C137.263 131.236 137.359 131.688 137.551 132.056C137.751 132.424 138.015 132.7 138.343 132.884C138.671 133.06 139.031 133.148 139.423 133.148Z" fill="black"/>
<path d="M148.522 133.112H151.45V134H147.43L147.43 125.636H148.522L148.522 133.112Z" fill="black"/>
<path d="M155.477 134.108C154.861 134.108 154.301 133.968 153.797 133.688C153.301 133.408 152.909 133.012 152.621 132.5C152.341 131.98 152.201 131.38 152.201 130.7C152.201 130.028 152.345 129.436 152.633 128.924C152.929 128.404 153.329 128.008 153.833 127.736C154.337 127.456 154.901 127.316 155.525 127.316C156.149 127.316 156.713 127.456 157.217 127.736C157.721 128.008 158.117 128.4 158.405 128.912C158.701 129.424 158.849 130.02 158.849 130.7C158.849 131.38 158.697 131.98 158.393 132.5C158.097 133.012 157.693 133.408 157.181 133.688C156.669 133.968 156.101 134.108 155.477 134.108ZM155.477 133.148C155.869 133.148 156.237 133.056 156.581 132.872C156.925 132.688 157.201 132.412 157.409 132.044C157.625 131.676 157.733 131.228 157.733 130.7C157.733 130.172 157.629 129.724 157.421 129.356C157.213 128.988 156.941 128.716 156.605 128.54C156.269 128.356 155.905 128.264 155.513 128.264C155.113 128.264 154.745 128.356 154.409 128.54C154.081 128.716 153.817 128.988 153.617 129.356C153.417 129.724 153.317 130.172 153.317 130.7C153.317 131.236 153.413 131.688 153.605 132.056C153.805 132.424 154.069 132.7 154.397 132.884C154.725 133.06 155.085 133.148 155.477 133.148Z" fill="black"/>
<path d="M161.617 128.324L161.617 132.2C161.617 132.52 161.685 132.748 161.821 132.884C161.957 133.012 162.193 133.076 162.529 133.076H163.333V134H162.349C161.741 134 161.285 133.86 160.981 133.58C160.677 133.3 160.525 132.84 160.525 132.2L160.525 128.324H159.673V127.424H160.525V125.768L161.617 125.768V127.424H163.333V128.324H161.617Z" fill="black"/>
<path d="M170.488 127.424L170.488 134H169.396V133.028C169.188 133.364 168.896 133.628 168.52 133.82C168.152 134.004 167.744 134.096 167.296 134.096C166.784 134.096 166.324 133.992 165.916 133.784C165.508 133.568 165.184 133.248 164.944 132.824C164.712 132.4 164.596 131.884 164.596 131.276L164.596 127.424H165.676L165.676 131.132C165.676 131.78 165.84 132.28 166.168 132.632C166.496 132.976 166.944 133.148 167.512 133.148C168.096 133.148 168.556 132.968 168.892 132.608C169.228 132.248 169.396 131.724 169.396 131.036L169.396 127.424H170.488Z" fill="black"/>
<path d="M174.66 134.108C174.156 134.108 173.704 134.024 173.304 133.856C172.904 133.68 172.588 133.44 172.356 133.136C172.124 132.824 171.996 132.468 171.972 132.068H173.1C173.132 132.396 173.284 132.664 173.556 132.872C173.836 133.08 174.2 133.184 174.648 133.184C175.064 133.184 175.392 133.092 175.632 132.908C175.872 132.724 175.992 132.492 175.992 132.212C175.992 131.924 175.864 131.712 175.608 131.576C175.352 131.432 174.956 131.292 174.42 131.156C173.932 131.028 173.532 130.9 173.22 130.772C172.916 130.636 172.652 130.44 172.428 130.184C172.212 129.92 172.104 129.576 172.104 129.152C172.104 128.816 172.204 128.508 172.404 128.228C172.604 127.948 172.888 127.728 173.256 127.568C173.624 127.4 174.044 127.316 174.516 127.316C175.244 127.316 175.832 127.5 176.28 127.868C176.728 128.236 176.968 128.74 177 129.38H175.908C175.884 129.036 175.744 128.76 175.488 128.552C175.24 128.344 174.904 128.24 174.48 128.24C174.088 128.24 173.776 128.324 173.544 128.492C173.312 128.66 173.196 128.88 173.196 129.152C173.196 129.368 173.264 129.548 173.4 129.692C173.544 129.828 173.72 129.94 173.928 130.028C174.144 130.108 174.44 130.2 174.816 130.304C175.288 130.432 175.672 130.56 175.968 130.688C176.264 130.808 176.516 130.992 176.724 131.24C176.94 131.488 177.052 131.812 177.06 132.212C177.06 132.572 176.96 132.896 176.76 133.184C176.56 133.472 176.276 133.7 175.908 133.868C175.548 134.028 175.132 134.108 174.66 134.108Z" fill="black"/>
<path d="M184.609 136.232C183.841 135.48 183.241 134.524 182.809 133.364C182.385 132.204 182.173 130.952 182.173 129.608C182.173 128.232 182.397 126.948 182.845 125.756C183.301 124.556 183.949 123.568 184.789 122.792H185.929V122.9C185.033 123.74 184.357 124.752 183.901 125.936C183.453 127.112 183.229 128.336 183.229 129.608C183.229 130.848 183.441 132.032 183.865 133.16C184.297 134.288 184.925 135.276 185.749 136.124V136.232H184.609Z" fill="black"/>
<path d="M186.782 126.32V125.324L189.038 125.324L189.038 134H187.934L187.934 126.32H186.782Z" fill="black"/>
<path d="M190.89 127.508C190.946 126.772 191.23 126.196 191.742 125.78C192.254 125.364 192.918 125.156 193.734 125.156C194.278 125.156 194.746 125.256 195.138 125.456C195.538 125.648 195.838 125.912 196.038 126.248C196.246 126.584 196.35 126.964 196.35 127.388C196.35 127.884 196.206 128.312 195.918 128.672C195.638 129.032 195.27 129.264 194.814 129.368V129.428C195.334 129.556 195.746 129.808 196.05 130.184C196.354 130.56 196.506 131.052 196.506 131.66C196.506 132.116 196.402 132.528 196.194 132.896C195.986 133.256 195.674 133.54 195.258 133.748C194.842 133.956 194.342 134.06 193.758 134.06C192.91 134.06 192.214 133.84 191.67 133.4C191.126 132.952 190.822 132.32 190.758 131.504H191.814C191.87 131.984 192.066 132.376 192.402 132.68C192.738 132.984 193.186 133.136 193.746 133.136C194.306 133.136 194.73 132.992 195.018 132.704C195.314 132.408 195.462 132.028 195.462 131.564C195.462 130.964 195.262 130.532 194.862 130.268C194.462 130.004 193.858 129.872 193.05 129.872H192.774L192.774 128.96H193.062C193.798 128.952 194.354 128.832 194.73 128.6C195.106 128.36 195.294 127.992 195.294 127.496C195.294 127.072 195.154 126.732 194.874 126.476C194.602 126.22 194.21 126.092 193.698 126.092C193.202 126.092 192.802 126.22 192.498 126.476C192.194 126.732 192.014 127.076 191.958 127.508H190.89Z" fill="black"/>
<path d="M197.98 129.572C197.98 128.196 198.204 127.124 198.652 126.356C199.1 125.58 199.884 125.192 201.004 125.192C202.116 125.192 202.896 125.58 203.344 126.356C203.792 127.124 204.016 128.196 204.016 129.572C204.016 130.972 203.792 132.06 203.344 132.836C202.896 133.612 202.116 134 201.004 134C199.884 134 199.1 133.612 198.652 132.836C198.204 132.06 197.98 130.972 197.98 129.572ZM202.936 129.572C202.936 128.876 202.888 128.288 202.792 127.808C202.704 127.32 202.516 126.928 202.228 126.632C201.948 126.336 201.54 126.188 201.004 126.188C200.46 126.188 200.044 126.336 199.756 126.632C199.476 126.928 199.288 127.32 199.192 127.808C199.104 128.288 199.06 128.876 199.06 129.572C199.06 130.292 199.104 130.896 199.192 131.384C199.288 131.872 199.476 132.264 199.756 132.56C200.044 132.856 200.46 133.004 201.004 133.004C201.54 133.004 201.948 132.856 202.228 132.56C202.516 132.264 202.704 131.872 202.792 131.384C202.888 130.896 202.936 130.292 202.936 129.572Z" fill="black"/>
<path d="M216.803 127.304C217.315 127.304 217.771 127.412 218.171 127.628C218.571 127.836 218.887 128.152 219.119 128.576C219.351 129 219.467 129.516 219.467 130.124V134H218.387V130.28C218.387 129.624 218.223 129.124 217.895 128.78C217.575 128.428 217.139 128.252 216.587 128.252C216.019 128.252 215.567 128.436 215.231 128.804C214.895 129.164 214.727 129.688 214.727 130.376V134H213.647V130.28C213.647 129.624 213.483 129.124 213.155 128.78C212.835 128.428 212.399 128.252 211.847 128.252C211.279 128.252 210.827 128.436 210.491 128.804C210.155 129.164 209.987 129.688 209.987 130.376V134H208.895L208.895 127.424H209.987V128.372C210.203 128.028 210.491 127.764 210.851 127.58C211.219 127.396 211.623 127.304 212.063 127.304C212.615 127.304 213.103 127.428 213.527 127.676C213.951 127.924 214.267 128.288 214.475 128.768C214.659 128.304 214.963 127.944 215.387 127.688C215.811 127.432 216.283 127.304 216.803 127.304Z" fill="black"/>
<path d="M220.946 133.124C221.962 132.308 222.758 131.64 223.334 131.12C223.91 130.592 224.394 130.044 224.786 129.476C225.186 128.9 225.386 128.336 225.386 127.784C225.386 127.264 225.258 126.856 225.002 126.56C224.754 126.256 224.35 126.104 223.79 126.104C223.246 126.104 222.822 126.276 222.518 126.62C222.222 126.956 222.062 127.408 222.038 127.976L220.982 127.976C221.014 127.08 221.286 126.388 221.798 125.9C222.31 125.412 222.97 125.168 223.778 125.168C224.602 125.168 225.254 125.396 225.734 125.852C226.222 126.308 226.466 126.936 226.466 127.736C226.466 128.4 226.266 129.048 225.866 129.68C225.474 130.304 225.026 130.856 224.522 131.336C224.018 131.808 223.374 132.36 222.59 132.992L226.718 132.992V133.904L220.946 133.904V133.124Z" fill="black"/>
<path d="M227.812 136.232V136.124C228.636 135.276 229.26 134.288 229.684 133.16C230.116 132.032 230.332 130.848 230.332 129.608C230.332 128.336 230.104 127.112 229.648 125.936C229.2 124.752 228.528 123.74 227.632 122.9V122.792L228.772 122.792C229.612 123.568 230.256 124.556 230.704 125.756C231.16 126.948 231.388 128.232 231.388 129.608C231.388 130.952 231.172 132.204 230.74 133.364C230.316 134.524 229.72 135.48 228.952 136.232H227.812Z" fill="black"/>
<path d="M128.327 147.124C129.343 146.308 130.139 145.64 130.715 145.12C131.291 144.592 131.775 144.044 132.167 143.476C132.567 142.9 132.767 142.336 132.767 141.784C132.767 141.264 132.639 140.856 132.383 140.56C132.135 140.256 131.731 140.104 131.171 140.104C130.627 140.104 130.203 140.276 129.899 140.62C129.603 140.956 129.443 141.408 129.419 141.976H128.363C128.395 141.08 128.667 140.388 129.179 139.9C129.691 139.412 130.351 139.168 131.159 139.168C131.983 139.168 132.635 139.396 133.115 139.852C133.603 140.308 133.847 140.936 133.847 141.736C133.847 142.4 133.647 143.048 133.247 143.68C132.855 144.304 132.407 144.856 131.903 145.336C131.399 145.808 130.755 146.36 129.971 146.992H134.099V147.904H128.327V147.124Z" fill="black"/>
<path d="M143.144 148L141.152 144.58H139.832V148H138.74V139.636H141.44C142.072 139.636 142.604 139.744 143.036 139.96C143.476 140.176 143.804 140.468 144.02 140.836C144.236 141.204 144.344 141.624 144.344 142.096C144.344 142.672 144.176 143.18 143.84 143.62C143.512 144.06 143.016 144.352 142.352 144.496L144.452 148L143.144 148ZM139.832 143.704H141.44C142.032 143.704 142.476 143.56 142.772 143.272C143.068 142.976 143.216 142.584 143.216 142.096C143.216 141.6 143.068 141.216 142.772 140.944C142.484 140.672 142.04 140.536 141.44 140.536H139.832V143.704Z" fill="black"/>
<path d="M152.041 144.46C152.041 144.668 152.029 144.888 152.005 145.12H146.749C146.789 145.768 147.009 146.276 147.409 146.644C147.817 147.004 148.309 147.184 148.885 147.184C149.357 147.184 149.749 147.076 150.061 146.86C150.381 146.636 150.605 146.34 150.733 145.972H151.909C151.733 146.604 151.381 147.12 150.853 147.52C150.325 147.912 149.669 148.108 148.885 148.108C148.261 148.108 147.701 147.968 147.205 147.688C146.717 147.408 146.333 147.012 146.053 146.5C145.773 145.98 145.633 145.38 145.633 144.7C145.633 144.02 145.769 143.424 146.041 142.912C146.313 142.4 146.693 142.008 147.181 141.736C147.677 141.456 148.245 141.316 148.885 141.316C149.509 141.316 150.061 141.452 150.541 141.724C151.021 141.996 151.389 142.372 151.645 142.852C151.909 143.324 152.041 143.86 152.041 144.46ZM150.913 144.232C150.913 143.816 150.821 143.46 150.637 143.164C150.453 142.86 150.201 142.632 149.881 142.48C149.569 142.32 149.221 142.24 148.837 142.24C148.285 142.24 147.813 142.416 147.421 142.768C147.037 143.12 146.817 143.608 146.761 144.232H150.913Z" fill="black"/>
<path d="M153.074 144.7C153.074 144.02 153.21 143.428 153.482 142.924C153.754 142.412 154.13 142.016 154.61 141.736C155.098 141.456 155.654 141.316 156.278 141.316C157.086 141.316 157.75 141.512 158.27 141.904C158.798 142.296 159.146 142.84 159.314 143.536H158.138C158.026 143.136 157.806 142.82 157.478 142.588C157.158 142.356 156.758 142.24 156.278 142.24C155.654 142.24 155.15 142.456 154.766 142.888C154.382 143.312 154.19 143.916 154.19 144.7C154.19 145.492 154.382 146.104 154.766 146.536C155.15 146.968 155.654 147.184 156.278 147.184C156.758 147.184 157.158 147.072 157.478 146.848C157.798 146.624 158.018 146.304 158.138 145.888H159.314C159.138 146.56 158.786 147.1 158.258 147.508C157.73 147.908 157.07 148.108 156.278 148.108C155.654 148.108 155.098 147.968 154.61 147.688C154.13 147.408 153.754 147.012 153.482 146.5C153.21 145.988 153.074 145.388 153.074 144.7Z" fill="black"/>
<path d="M160.363 144.688C160.363 144.016 160.499 143.428 160.771 142.924C161.043 142.412 161.415 142.016 161.887 141.736C162.367 141.456 162.899 141.316 163.483 141.316C164.059 141.316 164.559 141.44 164.983 141.688C165.407 141.936 165.723 142.248 165.931 142.624V141.424H167.035V148H165.931V146.776C165.715 147.16 165.391 147.48 164.959 147.736C164.535 147.984 164.039 148.108 163.471 148.108C162.887 148.108 162.359 147.964 161.887 147.676C161.415 147.388 161.043 146.984 160.771 146.464C160.499 145.944 160.363 145.352 160.363 144.688ZM165.931 144.7C165.931 144.204 165.831 143.772 165.631 143.404C165.431 143.036 165.159 142.756 164.815 142.564C164.479 142.364 164.107 142.264 163.699 142.264C163.291 142.264 162.919 142.36 162.583 142.552C162.247 142.744 161.979 143.024 161.779 143.392C161.579 143.76 161.479 144.192 161.479 144.688C161.479 145.192 161.579 145.632 161.779 146.008C161.979 146.376 162.247 146.66 162.583 146.86C162.919 147.052 163.291 147.148 163.699 147.148C164.107 147.148 164.479 147.052 164.815 146.86C165.159 146.66 165.431 146.376 165.631 146.008C165.831 145.632 165.931 145.196 165.931 144.7ZM165.079 139.564L162.523 140.932V140.116L165.079 138.616V139.564Z" fill="black"/>
<path d="M176.789 141.304C177.301 141.304 177.757 141.412 178.157 141.628C178.557 141.836 178.873 142.152 179.105 142.576C179.337 143 179.453 143.516 179.453 144.124V148H178.373V144.28C178.373 143.624 178.209 143.124 177.881 142.78C177.561 142.428 177.125 142.252 176.573 142.252C176.005 142.252 175.553 142.436 175.217 142.804C174.881 143.164 174.713 143.688 174.713 144.376V148H173.633V144.28C173.633 143.624 173.469 143.124 173.141 142.78C172.821 142.428 172.385 142.252 171.833 142.252C171.265 142.252 170.813 142.436 170.477 142.804C170.141 143.164 169.973 143.688 169.973 144.376V148H168.881V141.424H169.973V142.372C170.189 142.028 170.477 141.764 170.837 141.58C171.205 141.396 171.609 141.304 172.049 141.304C172.601 141.304 173.089 141.428 173.513 141.676C173.937 141.924 174.253 142.288 174.461 142.768C174.645 142.304 174.949 141.944 175.373 141.688C175.797 141.432 176.269 141.304 176.789 141.304Z" fill="black"/>
<path d="M180.836 144.688C180.836 144.016 180.972 143.428 181.244 142.924C181.516 142.412 181.888 142.016 182.36 141.736C182.84 141.456 183.372 141.316 183.956 141.316C184.532 141.316 185.032 141.44 185.456 141.688C185.88 141.936 186.196 142.248 186.404 142.624V141.424H187.508V148H186.404V146.776C186.188 147.16 185.864 147.48 185.432 147.736C185.008 147.984 184.512 148.108 183.944 148.108C183.36 148.108 182.832 147.964 182.36 147.676C181.888 147.388 181.516 146.984 181.244 146.464C180.972 145.944 180.836 145.352 180.836 144.688ZM186.404 144.7C186.404 144.204 186.304 143.772 186.104 143.404C185.904 143.036 185.632 142.756 185.288 142.564C184.952 142.364 184.58 142.264 184.172 142.264C183.764 142.264 183.392 142.36 183.056 142.552C182.72 142.744 182.452 143.024 182.252 143.392C182.052 143.76 181.952 144.192 181.952 144.688C181.952 145.192 182.052 145.632 182.252 146.008C182.452 146.376 182.72 146.66 183.056 146.86C183.392 147.052 183.764 147.148 184.172 147.148C184.58 147.148 184.952 147.052 185.288 146.86C185.632 146.66 185.904 146.376 186.104 146.008C186.304 145.632 186.404 145.196 186.404 144.7Z" fill="black"/>
<path d="M190.446 142.492C190.638 142.116 190.91 141.824 191.262 141.616C191.622 141.408 192.058 141.304 192.57 141.304V142.432H192.282C191.058 142.432 190.446 143.096 190.446 144.424V148H189.354V141.424H190.446V142.492Z" fill="black"/>
<path d="M193.422 144.688C193.422 144.016 193.558 143.428 193.83 142.924C194.102 142.412 194.474 142.016 194.946 141.736C195.426 141.456 195.958 141.316 196.542 141.316C197.118 141.316 197.618 141.44 198.042 141.688C198.466 141.936 198.782 142.248 198.99 142.624V141.424H200.094V148H198.99V146.776C198.774 147.16 198.45 147.48 198.018 147.736C197.594 147.984 197.098 148.108 196.53 148.108C195.946 148.108 195.418 147.964 194.946 147.676C194.474 147.388 194.102 146.984 193.83 146.464C193.558 145.944 193.422 145.352 193.422 144.688ZM198.99 144.7C198.99 144.204 198.89 143.772 198.69 143.404C198.49 143.036 198.218 142.756 197.874 142.564C197.538 142.364 197.166 142.264 196.758 142.264C196.35 142.264 195.978 142.36 195.642 142.552C195.306 142.744 195.038 143.024 194.838 143.392C194.638 143.76 194.538 144.192 194.538 144.688C194.538 145.192 194.638 145.632 194.838 146.008C195.038 146.376 195.306 146.66 195.642 146.86C195.978 147.052 196.35 147.148 196.758 147.148C197.166 147.148 197.538 147.052 197.874 146.86C198.218 146.66 198.49 146.376 198.69 146.008C198.89 145.632 198.99 145.196 198.99 144.7Z" fill="black"/>
<path d="M204.267 148.108C203.763 148.108 203.311 148.024 202.911 147.856C202.511 147.68 202.195 147.44 201.963 147.136C201.731 146.824 201.603 146.468 201.579 146.068H202.707C202.739 146.396 202.891 146.664 203.163 146.872C203.443 147.08 203.807 147.184 204.255 147.184C204.671 147.184 204.999 147.092 205.239 146.908C205.479 146.724 205.599 146.492 205.599 146.212C205.599 145.924 205.471 145.712 205.215 145.576C204.959 145.432 204.563 145.292 204.027 145.156C203.539 145.028 203.139 144.9 202.827 144.772C202.523 144.636 202.259 144.44 202.035 144.184C201.819 143.92 201.711 143.576 201.711 143.152C201.711 142.816 201.811 142.508 202.011 142.228C202.211 141.948 202.495 141.728 202.863 141.568C203.231 141.4 203.651 141.316 204.123 141.316C204.851 141.316 205.439 141.5 205.887 141.868C206.335 142.236 206.575 142.74 206.607 143.38H205.515C205.491 143.036 205.351 142.76 205.095 142.552C204.847 142.344 204.511 142.24 204.087 142.24C203.695 142.24 203.383 142.324 203.151 142.492C202.919 142.66 202.803 142.88 202.803 143.152C202.803 143.368 202.871 143.548 203.007 143.692C203.151 143.828 203.327 143.94 203.535 144.028C203.751 144.108 204.047 144.2 204.423 144.304C204.895 144.432 205.279 144.56 205.575 144.688C205.871 144.808 206.123 144.992 206.331 145.24C206.547 145.488 206.659 145.812 206.667 146.212C206.667 146.572 206.567 146.896 206.367 147.184C206.167 147.472 205.883 147.7 205.515 147.868C205.155 148.028 204.739 148.108 204.267 148.108Z" fill="black"/>
</svg>
