<svg width="392" height="330" viewBox="0 0 392 330" fill="none" xmlns="http://www.w3.org/2000/svg">
<path d="M181.935 132V128.88L173.871 128.88L173.871 125.568L181.455 114.72L186.039 114.72V125.328H188.007L188.007 128.88H186.039V132H181.935ZM178.191 125.328H182.223V119.232L178.191 125.328Z" fill="black"/>
<path d="M190.017 123C190.017 117.864 191.769 114.12 196.761 114.12C201.753 114.12 203.505 117.864 203.505 123C203.505 128.184 201.753 131.928 196.761 131.928C191.769 131.928 190.017 128.184 190.017 123ZM199.473 123C199.473 120.312 199.185 117.96 196.761 117.96C194.337 117.96 194.049 120.312 194.049 123C194.049 125.784 194.337 128.088 196.761 128.088C199.185 128.088 199.473 125.784 199.473 123Z" fill="black"/>
<path d="M205.53 131.76V128.712C209.25 125.64 213.21 122.592 213.21 119.64C213.21 118.368 212.634 117.552 211.386 117.552C210.162 117.552 209.442 118.512 209.442 120.168H205.482C205.602 115.92 208.362 114.096 211.554 114.096C215.538 114.096 217.314 116.424 217.314 119.376C217.314 123.216 213.882 126.288 211.098 128.424L217.578 128.424V131.76L205.53 131.76Z" fill="black"/>
<path d="M116.974 139.928L116.974 151L115.518 151V142.744L111.838 151H110.814L107.118 142.728L107.118 151H105.662L105.662 139.928H107.23L111.326 149.08L115.422 139.928H116.974Z" fill="black"/>
<path d="M123.267 151.144C122.446 151.144 121.699 150.957 121.027 150.584C120.366 150.21 119.843 149.682 119.459 149C119.086 148.306 118.899 147.506 118.899 146.6C118.899 145.704 119.091 144.914 119.475 144.232C119.87 143.538 120.403 143.01 121.075 142.648C121.747 142.274 122.499 142.088 123.331 142.088C124.163 142.088 124.915 142.274 125.587 142.648C126.259 143.01 126.787 143.533 127.171 144.216C127.566 144.898 127.763 145.693 127.763 146.6C127.763 147.506 127.56 148.306 127.155 149C126.76 149.682 126.222 150.21 125.539 150.584C124.856 150.957 124.099 151.144 123.267 151.144ZM123.267 149.864C123.79 149.864 124.28 149.741 124.739 149.496C125.198 149.25 125.566 148.882 125.843 148.392C126.131 147.901 126.275 147.304 126.275 146.6C126.275 145.896 126.136 145.298 125.859 144.808C125.582 144.317 125.219 143.954 124.771 143.72C124.323 143.474 123.838 143.352 123.315 143.352C122.782 143.352 122.291 143.474 121.843 143.72C121.406 143.954 121.054 144.317 120.787 144.808C120.52 145.298 120.387 145.896 120.387 146.6C120.387 147.314 120.515 147.917 120.771 148.408C121.038 148.898 121.39 149.266 121.827 149.512C122.264 149.746 122.744 149.864 123.267 149.864Z" fill="black"/>
<path d="M129.133 146.584C129.133 145.688 129.315 144.904 129.677 144.232C130.04 143.549 130.536 143.021 131.165 142.648C131.805 142.274 132.52 142.088 133.309 142.088C133.992 142.088 134.627 142.248 135.213 142.568C135.8 142.877 136.248 143.288 136.557 143.8V139.16H138.029V151H136.557V149.352C136.269 149.874 135.843 150.306 135.277 150.648C134.712 150.978 134.051 151.144 133.293 151.144C132.515 151.144 131.805 150.952 131.165 150.568C130.536 150.184 130.04 149.645 129.677 148.952C129.315 148.258 129.133 147.469 129.133 146.584ZM136.557 146.6C136.557 145.938 136.424 145.362 136.157 144.872C135.891 144.381 135.528 144.008 135.069 143.752C134.621 143.485 134.125 143.352 133.581 143.352C133.037 143.352 132.541 143.48 132.093 143.736C131.645 143.992 131.288 144.365 131.021 144.856C130.755 145.346 130.621 145.922 130.621 146.584C130.621 147.256 130.755 147.842 131.021 148.344C131.288 148.834 131.645 149.213 132.093 149.48C132.541 149.736 133.037 149.864 133.581 149.864C134.125 149.864 134.621 149.736 135.069 149.48C135.528 149.213 135.891 148.834 136.157 148.344C136.424 147.842 136.557 147.261 136.557 146.6Z" fill="black"/>
<path d="M148.49 146.28C148.49 146.557 148.474 146.85 148.442 147.16H141.434C141.487 148.024 141.78 148.701 142.314 149.192C142.858 149.672 143.514 149.912 144.282 149.912C144.911 149.912 145.434 149.768 145.85 149.48C146.276 149.181 146.575 148.786 146.746 148.296H148.314C148.079 149.138 147.61 149.826 146.906 150.36C146.202 150.882 145.327 151.144 144.282 151.144C143.45 151.144 142.703 150.957 142.042 150.584C141.391 150.21 140.879 149.682 140.506 149C140.132 148.306 139.946 147.506 139.946 146.6C139.946 145.693 140.127 144.898 140.49 144.216C140.852 143.533 141.359 143.01 142.01 142.648C142.671 142.274 143.428 142.088 144.282 142.088C145.114 142.088 145.85 142.269 146.49 142.632C147.13 142.994 147.62 143.496 147.962 144.136C148.314 144.765 148.49 145.48 148.49 146.28ZM146.986 145.976C146.986 145.421 146.863 144.946 146.618 144.552C146.372 144.146 146.036 143.842 145.61 143.64C145.194 143.426 144.73 143.32 144.218 143.32C143.482 143.32 142.852 143.554 142.33 144.024C141.818 144.493 141.524 145.144 141.45 145.976H146.986Z" fill="black"/>
<path d="M151.868 139.16V151H150.412V139.16H151.868Z" fill="black"/>
<path d="M158.173 151.144C157.352 151.144 156.605 150.957 155.933 150.584C155.272 150.21 154.749 149.682 154.365 149C153.992 148.306 153.805 147.506 153.805 146.6C153.805 145.704 153.997 144.914 154.381 144.232C154.776 143.538 155.309 143.01 155.981 142.648C156.653 142.274 157.405 142.088 158.237 142.088C159.069 142.088 159.821 142.274 160.493 142.648C161.165 143.01 161.693 143.533 162.077 144.216C162.472 144.898 162.669 145.693 162.669 146.6C162.669 147.506 162.466 148.306 162.061 149C161.666 149.682 161.128 150.21 160.445 150.584C159.762 150.957 159.005 151.144 158.173 151.144ZM158.173 149.864C158.696 149.864 159.186 149.741 159.645 149.496C160.104 149.25 160.472 148.882 160.749 148.392C161.037 147.901 161.181 147.304 161.181 146.6C161.181 145.896 161.042 145.298 160.765 144.808C160.488 144.317 160.125 143.954 159.677 143.72C159.229 143.474 158.744 143.352 158.221 143.352C157.688 143.352 157.197 143.474 156.749 143.72C156.312 143.954 155.96 144.317 155.693 144.808C155.426 145.298 155.293 145.896 155.293 146.6C155.293 147.314 155.421 147.917 155.677 148.408C155.944 148.898 156.296 149.266 156.733 149.512C157.17 149.746 157.65 149.864 158.173 149.864Z" fill="black"/>
<path d="M170.305 149.816H174.209V151H168.849V139.848H170.305V149.816Z" fill="black"/>
<path d="M179.579 151.144C178.758 151.144 178.011 150.957 177.339 150.584C176.678 150.21 176.155 149.682 175.771 149C175.398 148.306 175.211 147.506 175.211 146.6C175.211 145.704 175.403 144.914 175.787 144.232C176.182 143.538 176.715 143.01 177.387 142.648C178.059 142.274 178.811 142.088 179.643 142.088C180.475 142.088 181.227 142.274 181.899 142.648C182.571 143.01 183.099 143.533 183.483 144.216C183.878 144.898 184.075 145.693 184.075 146.6C184.075 147.506 183.873 148.306 183.467 149C183.073 149.682 182.534 150.21 181.851 150.584C181.169 150.957 180.411 151.144 179.579 151.144ZM179.579 149.864C180.102 149.864 180.593 149.741 181.051 149.496C181.51 149.25 181.878 148.882 182.155 148.392C182.443 147.901 182.587 147.304 182.587 146.6C182.587 145.896 182.449 145.298 182.171 144.808C181.894 144.317 181.531 143.954 181.083 143.72C180.635 143.474 180.15 143.352 179.627 143.352C179.094 143.352 178.603 143.474 178.155 143.72C177.718 143.954 177.366 144.317 177.099 144.808C176.833 145.298 176.699 145.896 176.699 146.6C176.699 147.314 176.827 147.917 177.083 148.408C177.35 148.898 177.702 149.266 178.139 149.512C178.577 149.746 179.057 149.864 179.579 149.864Z" fill="black"/>
<path d="M187.766 143.432V148.6C187.766 149.026 187.856 149.33 188.038 149.512C188.219 149.682 188.534 149.768 188.982 149.768H190.054V151H188.742C187.931 151 187.323 150.813 186.918 150.44C186.512 150.066 186.31 149.453 186.31 148.6V143.432H185.174V142.232H186.31V140.024H187.766V142.232H190.054V143.432H187.766Z" fill="black"/>
<path d="M199.594 142.232V151H198.138V149.704C197.861 150.152 197.471 150.504 196.97 150.76C196.479 151.005 195.935 151.128 195.338 151.128C194.655 151.128 194.042 150.989 193.498 150.712C192.954 150.424 192.522 149.997 192.202 149.432C191.893 148.866 191.738 148.178 191.738 147.368V142.232H193.178V147.176C193.178 148.04 193.397 148.706 193.834 149.176C194.271 149.634 194.869 149.864 195.626 149.864C196.405 149.864 197.018 149.624 197.466 149.144C197.914 148.664 198.138 147.965 198.138 147.048V142.232H199.594Z" fill="black"/>
<path d="M205.156 151.144C204.484 151.144 203.882 151.032 203.348 150.808C202.815 150.573 202.394 150.253 202.084 149.848C201.775 149.432 201.604 148.957 201.572 148.424H203.076C203.119 148.861 203.322 149.218 203.684 149.496C204.058 149.773 204.543 149.912 205.14 149.912C205.695 149.912 206.132 149.789 206.452 149.544C206.772 149.298 206.932 148.989 206.932 148.616C206.932 148.232 206.762 147.949 206.42 147.768C206.079 147.576 205.551 147.389 204.836 147.208C204.186 147.037 203.652 146.866 203.236 146.696C202.831 146.514 202.479 146.253 202.18 145.912C201.892 145.56 201.748 145.101 201.748 144.536C201.748 144.088 201.882 143.677 202.148 143.304C202.415 142.93 202.794 142.637 203.284 142.424C203.775 142.2 204.335 142.088 204.964 142.088C205.935 142.088 206.719 142.333 207.316 142.824C207.914 143.314 208.234 143.986 208.276 144.84H206.82C206.788 144.381 206.602 144.013 206.26 143.736C205.93 143.458 205.482 143.32 204.916 143.32C204.394 143.32 203.978 143.432 203.668 143.656C203.359 143.88 203.204 144.173 203.204 144.536C203.204 144.824 203.295 145.064 203.476 145.256C203.668 145.437 203.903 145.586 204.18 145.704C204.468 145.81 204.863 145.933 205.364 146.072C205.994 146.242 206.506 146.413 206.9 146.584C207.295 146.744 207.631 146.989 207.908 147.32C208.196 147.65 208.346 148.082 208.356 148.616C208.356 149.096 208.223 149.528 207.956 149.912C207.69 150.296 207.311 150.6 206.82 150.824C206.34 151.037 205.786 151.144 205.156 151.144Z" fill="black"/>
<path d="M218.421 153.976C217.397 152.973 216.597 151.698 216.021 150.152C215.456 148.605 215.173 146.936 215.173 145.144C215.173 143.309 215.472 141.597 216.069 140.008C216.677 138.408 217.541 137.09 218.661 136.056H220.181V136.2C218.987 137.32 218.085 138.669 217.477 140.248C216.88 141.816 216.581 143.448 216.581 145.144C216.581 146.797 216.864 148.376 217.429 149.88C218.005 151.384 218.843 152.701 219.941 153.832V153.976H218.421Z" fill="black"/>
<path d="M221.319 140.76V139.432H224.327V151H222.855V140.76H221.319Z" fill="black"/>
<path d="M226.652 149.832C228.007 148.744 229.068 147.853 229.836 147.16C230.604 146.456 231.249 145.725 231.772 144.968C232.305 144.2 232.572 143.448 232.572 142.712C232.572 142.018 232.401 141.474 232.06 141.08C231.729 140.674 231.191 140.472 230.444 140.472C229.719 140.472 229.153 140.701 228.748 141.16C228.353 141.608 228.14 142.21 228.108 142.968H226.7C226.743 141.773 227.105 140.85 227.788 140.2C228.471 139.549 229.351 139.224 230.428 139.224C231.527 139.224 232.396 139.528 233.036 140.136C233.687 140.744 234.012 141.581 234.012 142.648C234.012 143.533 233.745 144.397 233.212 145.24C232.689 146.072 232.092 146.808 231.42 147.448C230.748 148.077 229.889 148.813 228.844 149.656H234.348V150.872L226.652 150.872V149.832Z" fill="black"/>
<path d="M236.031 145.096C236.031 143.261 236.33 141.832 236.927 140.808C237.524 139.773 238.57 139.256 240.063 139.256C241.546 139.256 242.586 139.773 243.183 140.808C243.78 141.832 244.079 143.261 244.079 145.096C244.079 146.962 243.78 148.413 243.183 149.448C242.586 150.482 241.546 151 240.063 151C238.57 151 237.524 150.482 236.927 149.448C236.33 148.413 236.031 146.962 236.031 145.096ZM242.639 145.096C242.639 144.168 242.575 143.384 242.447 142.744C242.33 142.093 242.079 141.57 241.695 141.176C241.322 140.781 240.778 140.584 240.063 140.584C239.338 140.584 238.783 140.781 238.399 141.176C238.026 141.57 237.775 142.093 237.647 142.744C237.53 143.384 237.471 144.168 237.471 145.096C237.471 146.056 237.53 146.861 237.647 147.512C237.775 148.162 238.026 148.685 238.399 149.08C238.783 149.474 239.338 149.672 240.063 149.672C240.778 149.672 241.322 149.474 241.695 149.08C242.079 148.685 242.33 148.162 242.447 147.512C242.575 146.861 242.639 146.056 242.639 145.096Z" fill="black"/>
<path d="M261.128 142.072C261.81 142.072 262.418 142.216 262.952 142.504C263.485 142.781 263.906 143.202 264.215 143.768C264.525 144.333 264.68 145.021 264.68 145.832V151H263.24V146.04C263.24 145.165 263.021 144.498 262.583 144.04C262.157 143.57 261.576 143.336 260.84 143.336C260.082 143.336 259.479 143.581 259.031 144.072C258.583 144.552 258.359 145.25 258.359 146.168V151H256.919V146.04C256.919 145.165 256.701 144.498 256.264 144.04C255.837 143.57 255.256 143.336 254.52 143.336C253.762 143.336 253.16 143.581 252.712 144.072C252.264 144.552 252.04 145.25 252.04 146.168V151H250.583V142.232H252.04V143.496C252.328 143.037 252.711 142.685 253.191 142.44C253.682 142.194 254.221 142.072 254.807 142.072C255.543 142.072 256.194 142.237 256.76 142.568C257.325 142.898 257.746 143.384 258.023 144.024C258.269 143.405 258.674 142.925 259.24 142.584C259.805 142.242 260.434 142.072 261.128 142.072Z" fill="black"/>
<path d="M266.652 149.832C268.007 148.744 269.068 147.853 269.836 147.16C270.604 146.456 271.249 145.725 271.772 144.968C272.305 144.2 272.572 143.448 272.572 142.712C272.572 142.018 272.401 141.474 272.06 141.08C271.729 140.674 271.191 140.472 270.444 140.472C269.719 140.472 269.153 140.701 268.748 141.16C268.353 141.608 268.14 142.21 268.108 142.968H266.7C266.743 141.773 267.105 140.85 267.788 140.2C268.471 139.549 269.351 139.224 270.428 139.224C271.527 139.224 272.396 139.528 273.036 140.136C273.687 140.744 274.012 141.581 274.012 142.648C274.012 143.533 273.745 144.397 273.212 145.24C272.689 146.072 272.092 146.808 271.42 147.448C270.748 148.077 269.889 148.813 268.844 149.656H274.348V150.872H266.652V149.832Z" fill="black"/>
<path d="M275.807 153.976V153.832C276.906 152.701 277.738 151.384 278.303 149.88C278.879 148.376 279.167 146.797 279.167 145.144C279.167 143.448 278.863 141.816 278.255 140.248C277.658 138.669 276.762 137.32 275.567 136.2V136.056H277.087C278.207 137.09 279.066 138.408 279.663 140.008C280.271 141.597 280.575 143.309 280.575 145.144C280.575 146.936 280.287 148.605 279.711 150.152C279.146 151.698 278.351 152.973 277.327 153.976H275.807Z" fill="black"/>
<path d="M143.269 168.832C144.624 167.744 145.685 166.853 146.453 166.16C147.221 165.456 147.866 164.725 148.389 163.968C148.922 163.2 149.189 162.448 149.189 161.712C149.189 161.018 149.018 160.474 148.677 160.08C148.346 159.674 147.808 159.472 147.061 159.472C146.336 159.472 145.77 159.701 145.365 160.16C144.97 160.608 144.757 161.21 144.725 161.968H143.317C143.36 160.773 143.722 159.85 144.405 159.2C145.088 158.549 145.968 158.224 147.045 158.224C148.144 158.224 149.013 158.528 149.653 159.136C150.304 159.744 150.629 160.581 150.629 161.648C150.629 162.533 150.362 163.397 149.829 164.24C149.306 165.072 148.709 165.808 148.037 166.448C147.365 167.077 146.506 167.813 145.461 168.656L150.965 168.656V169.872L143.269 169.872V168.832Z" fill="black"/>
<path d="M163.026 170L160.37 165.44H158.61V170H157.154V158.848H160.754C161.596 158.848 162.306 158.992 162.882 159.28C163.468 159.568 163.906 159.957 164.194 160.448C164.482 160.938 164.626 161.498 164.626 162.128C164.626 162.896 164.402 163.573 163.954 164.16C163.516 164.746 162.855 165.136 161.97 165.328L164.77 170H163.026ZM158.61 164.272H160.754C161.543 164.272 162.135 164.08 162.53 163.696C162.924 163.301 163.122 162.778 163.122 162.128C163.122 161.466 162.924 160.954 162.53 160.592C162.146 160.229 161.554 160.048 160.754 160.048H158.61V164.272Z" fill="black"/>
<path d="M174.888 165.28C174.888 165.557 174.872 165.85 174.84 166.16H167.832C167.886 167.024 168.179 167.701 168.712 168.192C169.256 168.672 169.912 168.912 170.68 168.912C171.31 168.912 171.832 168.768 172.248 168.48C172.675 168.181 172.974 167.786 173.144 167.296H174.712C174.478 168.138 174.008 168.826 173.304 169.36C172.6 169.882 171.726 170.144 170.68 170.144C169.848 170.144 169.102 169.957 168.44 169.584C167.79 169.21 167.278 168.682 166.904 168C166.531 167.306 166.344 166.506 166.344 165.6C166.344 164.693 166.526 163.898 166.888 163.216C167.251 162.533 167.758 162.01 168.408 161.648C169.07 161.274 169.827 161.088 170.68 161.088C171.512 161.088 172.248 161.269 172.888 161.632C173.528 161.994 174.019 162.496 174.36 163.136C174.712 163.765 174.888 164.48 174.888 165.28ZM173.384 164.976C173.384 164.421 173.262 163.946 173.016 163.552C172.771 163.146 172.435 162.842 172.008 162.64C171.592 162.426 171.128 162.32 170.616 162.32C169.88 162.32 169.251 162.554 168.728 163.024C168.216 163.493 167.923 164.144 167.848 164.976H173.384Z" fill="black"/>
<path d="M176.266 165.6C176.266 164.693 176.447 163.904 176.81 163.232C177.173 162.549 177.674 162.021 178.314 161.648C178.965 161.274 179.706 161.088 180.538 161.088C181.615 161.088 182.501 161.349 183.194 161.872C183.898 162.394 184.362 163.12 184.586 164.048H183.018C182.869 163.514 182.575 163.093 182.138 162.784C181.711 162.474 181.178 162.32 180.538 162.32C179.706 162.32 179.034 162.608 178.522 163.184C178.01 163.749 177.754 164.554 177.754 165.6C177.754 166.656 178.01 167.472 178.522 168.048C179.034 168.624 179.706 168.912 180.538 168.912C181.178 168.912 181.711 168.762 182.138 168.464C182.565 168.165 182.858 167.738 183.018 167.184H184.586C184.351 168.08 183.882 168.8 183.178 169.344C182.474 169.877 181.594 170.144 180.538 170.144C179.706 170.144 178.965 169.957 178.314 169.584C177.674 169.21 177.173 168.682 176.81 168C176.447 167.317 176.266 166.517 176.266 165.6Z" fill="black"/>
<path d="M185.985 165.584C185.985 164.688 186.166 163.904 186.529 163.232C186.891 162.549 187.387 162.021 188.017 161.648C188.657 161.274 189.366 161.088 190.145 161.088C190.913 161.088 191.579 161.253 192.145 161.584C192.71 161.914 193.131 162.33 193.409 162.832V161.232L194.881 161.232L194.881 170L193.409 170V168.368C193.121 168.88 192.689 169.306 192.113 169.648C191.547 169.978 190.886 170.144 190.129 170.144C189.35 170.144 188.646 169.952 188.017 169.568C187.387 169.184 186.891 168.645 186.529 167.952C186.166 167.258 185.985 166.469 185.985 165.584ZM193.409 165.6C193.409 164.938 193.275 164.362 193.009 163.872C192.742 163.381 192.379 163.008 191.921 162.752C191.473 162.485 190.977 162.352 190.433 162.352C189.889 162.352 189.393 162.48 188.945 162.736C188.497 162.992 188.139 163.365 187.873 163.856C187.606 164.346 187.473 164.922 187.473 165.584C187.473 166.256 187.606 166.842 187.873 167.344C188.139 167.834 188.497 168.213 188.945 168.48C189.393 168.736 189.889 168.864 190.433 168.864C190.977 168.864 191.473 168.736 191.921 168.48C192.379 168.213 192.742 167.834 193.009 167.344C193.275 166.842 193.409 166.261 193.409 165.6ZM192.273 158.752L188.865 160.576L188.865 159.488L192.273 157.488V158.752Z" fill="black"/>
<path d="M207.885 161.072C208.568 161.072 209.176 161.216 209.709 161.504C210.243 161.781 210.664 162.202 210.973 162.768C211.283 163.333 211.437 164.021 211.437 164.832L211.437 170H209.997L209.997 165.04C209.997 164.165 209.779 163.498 209.341 163.04C208.915 162.57 208.333 162.336 207.597 162.336C206.84 162.336 206.237 162.581 205.789 163.072C205.341 163.552 205.117 164.25 205.117 165.168L205.117 170H203.677L203.677 165.04C203.677 164.165 203.459 163.498 203.021 163.04C202.595 162.57 202.013 162.336 201.277 162.336C200.52 162.336 199.917 162.581 199.469 163.072C199.021 163.552 198.797 164.25 198.797 165.168L198.797 170H197.341L197.341 161.232H198.797V162.496C199.085 162.037 199.469 161.685 199.949 161.44C200.44 161.194 200.979 161.072 201.565 161.072C202.301 161.072 202.952 161.237 203.517 161.568C204.083 161.898 204.504 162.384 204.781 163.024C205.027 162.405 205.432 161.925 205.997 161.584C206.563 161.242 207.192 161.072 207.885 161.072Z" fill="black"/>
<path d="M213.282 165.584C213.282 164.688 213.463 163.904 213.826 163.232C214.188 162.549 214.684 162.021 215.314 161.648C215.954 161.274 216.663 161.088 217.442 161.088C218.21 161.088 218.876 161.253 219.442 161.584C220.007 161.914 220.428 162.33 220.706 162.832V161.232H222.178L222.178 170H220.706V168.368C220.418 168.88 219.986 169.306 219.41 169.648C218.844 169.978 218.183 170.144 217.426 170.144C216.647 170.144 215.943 169.952 215.314 169.568C214.684 169.184 214.188 168.645 213.826 167.952C213.463 167.258 213.282 166.469 213.282 165.584ZM220.706 165.6C220.706 164.938 220.572 164.362 220.306 163.872C220.039 163.381 219.676 163.008 219.218 162.752C218.77 162.485 218.274 162.352 217.73 162.352C217.186 162.352 216.69 162.48 216.242 162.736C215.794 162.992 215.436 163.365 215.17 163.856C214.903 164.346 214.77 164.922 214.77 165.584C214.77 166.256 214.903 166.842 215.17 167.344C215.436 167.834 215.794 168.213 216.242 168.48C216.69 168.736 217.186 168.864 217.73 168.864C218.274 168.864 218.77 168.736 219.218 168.48C219.676 168.213 220.039 167.834 220.306 167.344C220.572 166.842 220.706 166.261 220.706 165.6Z" fill="black"/>
<path d="M226.094 162.656C226.35 162.154 226.713 161.765 227.182 161.488C227.662 161.21 228.244 161.072 228.926 161.072V162.576H228.542C226.91 162.576 226.094 163.461 226.094 165.232L226.094 170H224.638L224.638 161.232H226.094V162.656Z" fill="black"/>
<path d="M230.063 165.584C230.063 164.688 230.244 163.904 230.607 163.232C230.97 162.549 231.466 162.021 232.095 161.648C232.735 161.274 233.444 161.088 234.223 161.088C234.991 161.088 235.658 161.253 236.223 161.584C236.788 161.914 237.21 162.33 237.487 162.832V161.232H238.959V170H237.487V168.368C237.199 168.88 236.767 169.306 236.191 169.648C235.626 169.978 234.964 170.144 234.207 170.144C233.428 170.144 232.724 169.952 232.095 169.568C231.466 169.184 230.97 168.645 230.607 167.952C230.244 167.258 230.063 166.469 230.063 165.584ZM237.487 165.6C237.487 164.938 237.354 164.362 237.087 163.872C236.82 163.381 236.458 163.008 235.999 162.752C235.551 162.485 235.055 162.352 234.511 162.352C233.967 162.352 233.471 162.48 233.023 162.736C232.575 162.992 232.218 163.365 231.951 163.856C231.684 164.346 231.551 164.922 231.551 165.584C231.551 166.256 231.684 166.842 231.951 167.344C232.218 167.834 232.575 168.213 233.023 168.48C233.471 168.736 233.967 168.864 234.511 168.864C235.055 168.864 235.551 168.736 235.999 168.48C236.458 168.213 236.82 167.834 237.087 167.344C237.354 166.842 237.487 166.261 237.487 165.6Z" fill="black"/>
<path d="M244.523 170.144C243.851 170.144 243.249 170.032 242.715 169.808C242.182 169.573 241.761 169.253 241.451 168.848C241.142 168.432 240.971 167.957 240.939 167.424H242.443C242.486 167.861 242.689 168.218 243.051 168.496C243.425 168.773 243.91 168.912 244.507 168.912C245.062 168.912 245.499 168.789 245.819 168.544C246.139 168.298 246.299 167.989 246.299 167.616C246.299 167.232 246.129 166.949 245.787 166.768C245.446 166.576 244.918 166.389 244.203 166.208C243.553 166.037 243.019 165.866 242.603 165.696C242.198 165.514 241.846 165.253 241.547 164.912C241.259 164.56 241.115 164.101 241.115 163.536C241.115 163.088 241.249 162.677 241.515 162.304C241.782 161.93 242.161 161.637 242.651 161.424C243.142 161.2 243.702 161.088 244.331 161.088C245.302 161.088 246.086 161.333 246.683 161.824C247.281 162.314 247.601 162.986 247.643 163.84H246.187C246.155 163.381 245.969 163.013 245.627 162.736C245.297 162.458 244.849 162.32 244.283 162.32C243.761 162.32 243.345 162.432 243.035 162.656C242.726 162.88 242.571 163.173 242.571 163.536C242.571 163.824 242.662 164.064 242.843 164.256C243.035 164.437 243.27 164.586 243.547 164.704C243.835 164.81 244.23 164.933 244.731 165.072C245.361 165.242 245.873 165.413 246.267 165.584C246.662 165.744 246.998 165.989 247.275 166.32C247.563 166.65 247.713 167.082 247.723 167.616C247.723 168.096 247.59 168.528 247.323 168.912C247.057 169.296 246.678 169.6 246.187 169.824C245.707 170.037 245.153 170.144 244.523 170.144Z" fill="black"/>
<rect x="138" y="186" width="115.14" height="34" rx="16" fill="#A66316"/>
<path d="M161.875 208.287L161.245 206.427H157.315L156.685 208.287H154L157.81 197.757H160.78L164.59 208.287H161.875ZM160.585 204.447L159.28 200.592L157.99 204.447H160.585Z" fill="white"/>
<path d="M168.315 202.467H169.71C170.73 202.467 171.165 201.957 171.165 201.147C171.165 200.337 170.73 199.827 169.71 199.827H168.315V202.467ZM173.775 201.147C173.775 202.887 172.59 204.507 169.905 204.507H168.315V208.287H165.75V197.757H169.905C172.485 197.757 173.775 199.212 173.775 201.147Z" fill="white"/>
<path d="M182.295 208.287L181.665 206.427H177.735L177.105 208.287H174.42L178.23 197.757H181.2L185.01 208.287H182.295ZM181.005 204.447L179.7 200.592L178.41 204.447H181.005Z" fill="white"/>
<path d="M191.734 201.177C191.734 200.397 191.284 199.887 190.324 199.887H188.734V202.497H190.324C191.284 202.497 191.734 202.002 191.734 201.177ZM186.169 197.757H190.474C193.054 197.757 194.344 199.242 194.344 201.072C194.344 202.392 193.624 203.637 192.004 204.117L194.434 208.287H191.539L189.349 204.312H188.734V208.287H186.169V197.757Z" fill="white"/>
<path d="M195.385 199.812V197.757H203.53V199.812H200.74V208.287H198.175V199.812H195.385Z" fill="white"/>
<path d="M212.002 208.287L211.372 206.427H207.442L206.812 208.287H204.127L207.937 197.757H210.907L214.717 208.287H212.002ZM210.712 204.447L209.407 200.592L208.117 204.447H210.712Z" fill="white"/>
<path d="M219.822 197.757C223.182 197.757 225.342 199.887 225.342 203.022C225.342 206.142 223.182 208.287 219.822 208.287H215.877V197.757H219.822ZM218.442 206.067H219.657C221.592 206.067 222.732 204.957 222.732 203.022C222.732 201.087 221.592 199.947 219.657 199.947H218.442V206.067Z" fill="white"/>
<path d="M237.14 202.992C237.14 206.157 234.74 208.392 231.755 208.392C228.77 208.392 226.34 206.157 226.34 202.992C226.34 199.827 228.77 197.607 231.755 197.607C234.755 197.607 237.14 199.827 237.14 202.992ZM228.965 202.992C228.965 204.837 230.045 206.052 231.755 206.052C233.435 206.052 234.53 204.837 234.53 202.992C234.53 201.117 233.435 199.932 231.755 199.932C230.045 199.932 228.965 201.117 228.965 202.992Z" fill="white"/>
</svg>
