<svg width="392" height="224" viewBox="0 0 392 224" fill="none" xmlns="http://www.w3.org/2000/svg">
<path d="M177.118 65.4243C177.262 61.9683 179.518 60.0723 183.094 60.0723C186.79 60.0723 188.782 62.1843 188.782 64.8243C188.782 67.1283 187.342 68.3523 186.142 68.7603V68.8563C187.894 69.4323 189.094 70.7763 189.094 73.0803C189.094 76.0323 186.982 78.1443 183.31 78.1443C179.662 78.1443 177.022 76.4163 176.902 72.4563H180.886C180.91 73.8243 181.654 74.7363 183.166 74.7363C184.438 74.7363 185.134 73.9203 185.134 72.7683C185.134 71.2083 184.198 70.5843 182.062 70.5843H181.294V67.2483H182.062C183.454 67.2483 184.798 66.9123 184.798 65.3283C184.798 64.1523 184.102 63.5043 182.998 63.5043C181.678 63.5043 181.198 64.4643 181.126 65.4243L177.118 65.4243Z" fill="white"/>
<path d="M191.506 69.0003C191.506 63.8643 193.258 60.1203 198.25 60.1203C203.242 60.1203 204.994 63.8643 204.994 69.0003C204.994 74.1843 203.242 77.9283 198.25 77.9283C193.258 77.9283 191.506 74.1843 191.506 69.0003ZM200.962 69.0003C200.962 66.3123 200.674 63.9603 198.25 63.9603C195.826 63.9603 195.538 66.3123 195.538 69.0003C195.538 71.7843 195.826 74.0883 198.25 74.0883C200.674 74.0883 200.962 71.7843 200.962 69.0003Z" fill="white"/>
<path d="M209.106 78.0003L209.106 64.2963H206.73V60.4803L213.378 60.4803L213.378 78.0003H209.106Z" fill="white"/>
<path d="M121.653 85.9283L121.653 97.0003L120.197 97.0003V88.7443L116.517 97.0003H115.493L111.797 88.7283L111.797 97.0003H110.341L110.341 85.9283H111.909L116.005 95.0803L120.101 85.9283H121.653Z" fill="white"/>
<path d="M127.947 97.1443C127.125 97.1443 126.379 96.9576 125.707 96.5843C125.045 96.2109 124.523 95.6829 124.139 95.0003C123.765 94.3069 123.579 93.5069 123.579 92.6003C123.579 91.7043 123.771 90.9149 124.155 90.2323C124.549 89.5389 125.083 89.0109 125.755 88.6483C126.427 88.2749 127.179 88.0883 128.011 88.0883C128.843 88.0883 129.595 88.2749 130.267 88.6483C130.939 89.0109 131.467 89.5336 131.851 90.2163C132.245 90.8989 132.443 91.6936 132.443 92.6003C132.443 93.5069 132.24 94.3069 131.835 95.0003C131.44 95.6829 130.901 96.2109 130.219 96.5843C129.536 96.9576 128.779 97.1443 127.947 97.1443ZM127.947 95.8643C128.469 95.8643 128.96 95.7416 129.419 95.4963C129.877 95.2509 130.245 94.8829 130.523 94.3923C130.811 93.9016 130.955 93.3043 130.955 92.6003C130.955 91.8963 130.816 91.2989 130.539 90.8083C130.261 90.3176 129.899 89.9549 129.451 89.7203C129.003 89.4749 128.517 89.3523 127.995 89.3523C127.461 89.3523 126.971 89.4749 126.523 89.7203C126.085 89.9549 125.733 90.3176 125.467 90.8083C125.2 91.2989 125.067 91.8963 125.067 92.6003C125.067 93.3149 125.195 93.9176 125.451 94.4083C125.717 94.8989 126.069 95.2669 126.507 95.5123C126.944 95.7469 127.424 95.8643 127.947 95.8643Z" fill="white"/>
<path d="M133.813 92.5843C133.813 91.6883 133.994 90.9043 134.357 90.2323C134.72 89.5496 135.216 89.0216 135.845 88.6483C136.485 88.2749 137.2 88.0883 137.989 88.0883C138.672 88.0883 139.306 88.2483 139.893 88.5683C140.48 88.8776 140.928 89.2883 141.237 89.8003V85.1603H142.709V97.0003H141.237V95.3523C140.949 95.8749 140.522 96.3069 139.957 96.6483C139.392 96.9789 138.73 97.1443 137.973 97.1443C137.194 97.1443 136.485 96.9523 135.845 96.5683C135.216 96.1843 134.72 95.6456 134.357 94.9523C133.994 94.2589 133.813 93.4696 133.813 92.5843ZM141.237 92.6003C141.237 91.9389 141.104 91.3629 140.837 90.8723C140.57 90.3816 140.208 90.0083 139.749 89.7523C139.301 89.4856 138.805 89.3523 138.261 89.3523C137.717 89.3523 137.221 89.4803 136.773 89.7363C136.325 89.9923 135.968 90.3656 135.701 90.8563C135.434 91.3469 135.301 91.9229 135.301 92.5843C135.301 93.2563 135.434 93.8429 135.701 94.3443C135.968 94.8349 136.325 95.2136 136.773 95.4803C137.221 95.7363 137.717 95.8643 138.261 95.8643C138.805 95.8643 139.301 95.7363 139.749 95.4803C140.208 95.2136 140.57 94.8349 140.837 94.3443C141.104 93.8429 141.237 93.2616 141.237 92.6003Z" fill="white"/>
<path d="M153.169 92.2803C153.169 92.5576 153.153 92.8509 153.121 93.1603L146.113 93.1603C146.167 94.0243 146.46 94.7016 146.993 95.1923C147.537 95.6723 148.193 95.9123 148.961 95.9123C149.591 95.9123 150.113 95.7683 150.529 95.4803C150.956 95.1816 151.255 94.7869 151.425 94.2963H152.993C152.759 95.1389 152.289 95.8269 151.585 96.3603C150.881 96.8829 150.007 97.1443 148.961 97.1443C148.129 97.1443 147.383 96.9576 146.721 96.5843C146.071 96.2109 145.559 95.6829 145.185 95.0003C144.812 94.3069 144.625 93.5069 144.625 92.6003C144.625 91.6936 144.807 90.8989 145.169 90.2163C145.532 89.5336 146.039 89.0109 146.689 88.6483C147.351 88.2749 148.108 88.0883 148.961 88.0883C149.793 88.0883 150.529 88.2696 151.169 88.6323C151.809 88.9949 152.3 89.4963 152.641 90.1363C152.993 90.7656 153.169 91.4803 153.169 92.2803ZM151.665 91.9763C151.665 91.4216 151.543 90.9469 151.297 90.5523C151.052 90.1469 150.716 89.8429 150.289 89.6403C149.873 89.4269 149.409 89.3203 148.897 89.3203C148.161 89.3203 147.532 89.5549 147.009 90.0243C146.497 90.4936 146.204 91.1443 146.129 91.9763L151.665 91.9763Z" fill="white"/>
<path d="M156.547 85.1603V97.0003H155.091V85.1603H156.547Z" fill="white"/>
<path d="M162.853 97.1443C162.031 97.1443 161.285 96.9576 160.613 96.5843C159.951 96.2109 159.429 95.6829 159.045 95.0003C158.671 94.3069 158.485 93.5069 158.485 92.6003C158.485 91.7043 158.677 90.9149 159.061 90.2323C159.455 89.5389 159.989 89.0109 160.661 88.6483C161.333 88.2749 162.085 88.0883 162.917 88.0883C163.749 88.0883 164.501 88.2749 165.173 88.6483C165.845 89.0109 166.373 89.5336 166.757 90.2163C167.151 90.8989 167.349 91.6936 167.349 92.6003C167.349 93.5069 167.146 94.3069 166.741 95.0003C166.346 95.6829 165.807 96.2109 165.125 96.5843C164.442 96.9576 163.685 97.1443 162.853 97.1443ZM162.853 95.8643C163.375 95.8643 163.866 95.7416 164.325 95.4963C164.783 95.2509 165.151 94.8829 165.429 94.3923C165.717 93.9016 165.861 93.3043 165.861 92.6003C165.861 91.8963 165.722 91.2989 165.445 90.8083C165.167 90.3176 164.805 89.9549 164.357 89.7203C163.909 89.4749 163.423 89.3523 162.901 89.3523C162.367 89.3523 161.877 89.4749 161.429 89.7203C160.991 89.9549 160.639 90.3176 160.373 90.8083C160.106 91.2989 159.973 91.8963 159.973 92.6003C159.973 93.3149 160.101 93.9176 160.357 94.4083C160.623 94.8989 160.975 95.2669 161.413 95.5123C161.85 95.7469 162.33 95.8643 162.853 95.8643Z" fill="white"/>
<path d="M180.121 94.5203H175.257L174.361 97.0003H172.825L176.857 85.9123H178.537L182.553 97.0003H181.017L180.121 94.5203ZM179.705 93.3363L177.689 87.7043L175.673 93.3363H179.705Z" fill="white"/>
<path d="M192.086 88.2323V97.0003H190.63V95.7043C190.353 96.1523 189.963 96.5043 189.462 96.7603C188.971 97.0056 188.427 97.1283 187.83 97.1283C187.147 97.1283 186.534 96.9896 185.99 96.7123C185.446 96.4243 185.014 95.9976 184.694 95.4323C184.385 94.8669 184.23 94.1789 184.23 93.3683V88.2323H185.67V93.1763C185.67 94.0403 185.889 94.7069 186.326 95.1763C186.763 95.6349 187.361 95.8643 188.118 95.8643C188.897 95.8643 189.51 95.6243 189.958 95.1443C190.406 94.6643 190.63 93.9656 190.63 93.0483V88.2323H192.086Z" fill="white"/>
<path d="M196 89.6563C196.256 89.1549 196.619 88.7656 197.088 88.4883C197.568 88.2109 198.15 88.0723 198.832 88.0723V89.5763H198.448C196.816 89.5763 196 90.4616 196 92.2323V97.0003H194.544V88.2323H196V89.6563Z" fill="white"/>
<path d="M199.969 92.5843C199.969 91.6883 200.151 90.9043 200.513 90.2323C200.876 89.5496 201.372 89.0216 202.001 88.6483C202.641 88.2749 203.351 88.0883 204.129 88.0883C204.897 88.0883 205.564 88.2536 206.129 88.5843C206.695 88.9149 207.116 89.3309 207.393 89.8323V88.2323H208.865V97.0003H207.393V95.3683C207.105 95.8803 206.673 96.3069 206.097 96.6483C205.532 96.9789 204.871 97.1443 204.113 97.1443C203.335 97.1443 202.631 96.9523 202.001 96.5683C201.372 96.1843 200.876 95.6456 200.513 94.9523C200.151 94.2589 199.969 93.4696 199.969 92.5843ZM207.393 92.6003C207.393 91.9389 207.26 91.3629 206.993 90.8723C206.727 90.3816 206.364 90.0083 205.905 89.7523C205.457 89.4856 204.961 89.3523 204.417 89.3523C203.873 89.3523 203.377 89.4803 202.929 89.7363C202.481 89.9923 202.124 90.3656 201.857 90.8563C201.591 91.3469 201.457 91.9229 201.457 92.5843C201.457 93.2563 201.591 93.8429 201.857 94.3443C202.124 94.8349 202.481 95.2136 202.929 95.4803C203.377 95.7363 203.873 95.8643 204.417 95.8643C204.961 95.8643 205.457 95.7363 205.905 95.4803C206.364 95.2136 206.727 94.8349 206.993 94.3443C207.26 93.8429 207.393 93.2616 207.393 92.6003Z" fill="white"/>
<path d="M219.335 99.9763C218.311 98.9736 217.511 97.6989 216.935 96.1523C216.37 94.6056 216.087 92.9363 216.087 91.1443C216.087 89.3096 216.386 87.5976 216.983 86.0083C217.591 84.4083 218.455 83.0909 219.575 82.0563H221.095V82.2003C219.901 83.3203 218.999 84.6696 218.391 86.2483C217.794 87.8163 217.495 89.4483 217.495 91.1443C217.495 92.7976 217.778 94.3763 218.343 95.8803C218.919 97.3843 219.757 98.7016 220.855 99.8323V99.9763L219.335 99.9763Z" fill="white"/>
<path d="M229.737 86.5683L225.289 97.0003H223.817L228.329 86.7123H222.153V85.4643H229.737V86.5683Z" fill="white"/>
<path d="M238.727 86.6963L233.111 86.6963V90.3443C233.357 90.0029 233.719 89.7256 234.199 89.5123C234.679 89.2883 235.197 89.1763 235.751 89.1763C236.637 89.1763 237.357 89.3629 237.911 89.7363C238.466 90.0989 238.861 90.5736 239.095 91.1603C239.341 91.7363 239.463 92.3496 239.463 93.0003C239.463 93.7683 239.319 94.4563 239.031 95.0643C238.743 95.6723 238.301 96.1523 237.703 96.5043C237.117 96.8563 236.386 97.0323 235.511 97.0323C234.391 97.0323 233.485 96.7443 232.791 96.1683C232.098 95.5923 231.677 94.8243 231.527 93.8643L232.951 93.8643C233.09 94.4723 233.383 94.9469 233.831 95.2883C234.279 95.6296 234.845 95.8003 235.527 95.8003C236.37 95.8003 237.005 95.5496 237.431 95.0483C237.858 94.5363 238.071 93.8643 238.071 93.0323C238.071 92.2003 237.858 91.5603 237.431 91.1123C237.005 90.6536 236.375 90.4243 235.543 90.4243C234.978 90.4243 234.482 90.5629 234.055 90.8403C233.639 91.1069 233.335 91.4749 233.143 91.9443H231.767V85.4163L238.727 85.4163V86.6963Z" fill="white"/>
<path d="M256.448 88.0723C257.13 88.0723 257.738 88.2163 258.272 88.5043C258.805 88.7816 259.226 89.2029 259.536 89.7683C259.845 90.3336 260 91.0216 260 91.8323V97.0003H258.56V92.0403C258.56 91.1656 258.341 90.4989 257.904 90.0403C257.477 89.5709 256.896 89.3363 256.16 89.3363C255.402 89.3363 254.8 89.5816 254.352 90.0723C253.904 90.5523 253.68 91.2509 253.68 92.1683V97.0003L252.24 97.0003V92.0403C252.24 91.1656 252.021 90.4989 251.584 90.0403C251.157 89.5709 250.576 89.3363 249.84 89.3363C249.082 89.3363 248.48 89.5816 248.032 90.0723C247.584 90.5523 247.36 91.2509 247.36 92.1683V97.0003H245.904V88.2323H247.36V89.4963C247.648 89.0376 248.032 88.6856 248.512 88.4403C249.002 88.1949 249.541 88.0723 250.128 88.0723C250.864 88.0723 251.514 88.2376 252.08 88.5683C252.645 88.8989 253.066 89.3843 253.344 90.0243C253.589 89.4056 253.994 88.9256 254.56 88.5843C255.125 88.2429 255.754 88.0723 256.448 88.0723Z" fill="white"/>
<path d="M261.972 95.8323C263.327 94.7443 264.388 93.8536 265.156 93.1603C265.924 92.4563 266.57 91.7256 267.092 90.9683C267.626 90.2003 267.892 89.4483 267.892 88.7123C267.892 88.0189 267.722 87.4749 267.38 87.0803C267.05 86.6749 266.511 86.4723 265.764 86.4723C265.039 86.4723 264.474 86.7016 264.068 87.1603C263.674 87.6083 263.46 88.2109 263.428 88.9683H262.02C262.063 87.7736 262.426 86.8509 263.108 86.2003C263.791 85.5496 264.671 85.2243 265.748 85.2243C266.847 85.2243 267.716 85.5283 268.356 86.1363C269.007 86.7443 269.332 87.5816 269.332 88.6483C269.332 89.5336 269.066 90.3976 268.532 91.2403C268.01 92.0723 267.412 92.8083 266.74 93.4483C266.068 94.0776 265.21 94.8136 264.164 95.6563L269.668 95.6563V96.8723L261.972 96.8723V95.8323Z" fill="white"/>
<path d="M271.127 99.9763V99.8323C272.226 98.7016 273.058 97.3843 273.623 95.8803C274.199 94.3763 274.487 92.7976 274.487 91.1443C274.487 89.4483 274.183 87.8163 273.575 86.2483C272.978 84.6696 272.082 83.3203 270.887 82.2003V82.0563H272.407C273.527 83.0909 274.386 84.4083 274.983 86.0083C275.591 87.5976 275.895 89.3096 275.895 91.1443C275.895 92.9363 275.607 94.6056 275.031 96.1523C274.466 97.6989 273.671 98.9736 272.647 99.9763H271.127Z" fill="white"/>
<path d="M149.28 105.76V104.432L152.288 104.432L152.288 116H150.816L150.816 105.76L149.28 105.76Z" fill="white"/>
<path d="M165.166 116L162.51 111.44H160.75L160.75 116H159.294L159.294 104.848H162.894C163.737 104.848 164.446 104.992 165.022 105.28C165.609 105.568 166.046 105.958 166.334 106.448C166.622 106.939 166.766 107.499 166.766 108.128C166.766 108.896 166.542 109.574 166.094 110.16C165.657 110.747 164.996 111.136 164.11 111.328L166.91 116L165.166 116ZM160.75 110.272H162.894C163.684 110.272 164.276 110.08 164.67 109.696C165.065 109.302 165.262 108.779 165.262 108.128C165.262 107.467 165.065 106.955 164.67 106.592C164.286 106.23 163.694 106.048 162.894 106.048H160.75V110.272Z" fill="white"/>
<path d="M177.029 111.28C177.029 111.558 177.013 111.851 176.981 112.16L169.973 112.16C170.026 113.024 170.319 113.702 170.853 114.192C171.397 114.672 172.053 114.912 172.821 114.912C173.45 114.912 173.973 114.768 174.389 114.48C174.815 114.182 175.114 113.787 175.285 113.296H176.853C176.618 114.139 176.149 114.827 175.445 115.36C174.741 115.883 173.866 116.144 172.821 116.144C171.989 116.144 171.242 115.958 170.581 115.584C169.93 115.211 169.418 114.683 169.045 114C168.671 113.307 168.485 112.507 168.485 111.6C168.485 110.694 168.666 109.899 169.029 109.216C169.391 108.534 169.898 108.011 170.549 107.648C171.21 107.275 171.967 107.088 172.821 107.088C173.653 107.088 174.389 107.27 175.029 107.632C175.669 107.995 176.159 108.496 176.501 109.136C176.853 109.766 177.029 110.48 177.029 111.28ZM175.525 110.976C175.525 110.422 175.402 109.947 175.157 109.552C174.911 109.147 174.575 108.843 174.149 108.64C173.733 108.427 173.269 108.32 172.757 108.32C172.021 108.32 171.391 108.555 170.869 109.024C170.357 109.494 170.063 110.144 169.989 110.976L175.525 110.976Z" fill="white"/>
<path d="M178.407 111.6C178.407 110.694 178.588 109.904 178.951 109.232C179.313 108.55 179.815 108.022 180.455 107.648C181.105 107.275 181.847 107.088 182.679 107.088C183.756 107.088 184.641 107.35 185.335 107.872C186.039 108.395 186.503 109.12 186.727 110.048H185.159C185.009 109.515 184.716 109.094 184.279 108.784C183.852 108.475 183.319 108.32 182.679 108.32C181.847 108.32 181.175 108.608 180.663 109.184C180.151 109.75 179.895 110.555 179.895 111.6C179.895 112.656 180.151 113.472 180.663 114.048C181.175 114.624 181.847 114.912 182.679 114.912C183.319 114.912 183.852 114.763 184.279 114.464C184.705 114.166 184.999 113.739 185.159 113.184H186.727C186.492 114.08 186.023 114.8 185.319 115.344C184.615 115.878 183.735 116.144 182.679 116.144C181.847 116.144 181.105 115.958 180.455 115.584C179.815 115.211 179.313 114.683 178.951 114C178.588 113.318 178.407 112.518 178.407 111.6Z" fill="white"/>
<path d="M188.125 111.584C188.125 110.688 188.307 109.904 188.669 109.232C189.032 108.55 189.528 108.022 190.157 107.648C190.797 107.275 191.507 107.088 192.285 107.088C193.053 107.088 193.72 107.254 194.285 107.584C194.851 107.915 195.272 108.331 195.549 108.832V107.232H197.021L197.021 116H195.549V114.368C195.261 114.88 194.829 115.307 194.253 115.648C193.688 115.979 193.027 116.144 192.269 116.144C191.491 116.144 190.787 115.952 190.157 115.568C189.528 115.184 189.032 114.646 188.669 113.952C188.307 113.259 188.125 112.47 188.125 111.584ZM195.549 111.6C195.549 110.939 195.416 110.363 195.149 109.872C194.883 109.382 194.52 109.008 194.061 108.752C193.613 108.486 193.117 108.352 192.573 108.352C192.029 108.352 191.533 108.48 191.085 108.736C190.637 108.992 190.28 109.366 190.013 109.856C189.747 110.347 189.613 110.923 189.613 111.584C189.613 112.256 189.747 112.843 190.013 113.344C190.28 113.835 190.637 114.214 191.085 114.48C191.533 114.736 192.029 114.864 192.573 114.864C193.117 114.864 193.613 114.736 194.061 114.48C194.52 114.214 194.883 113.835 195.149 113.344C195.416 112.843 195.549 112.262 195.549 111.6ZM194.413 104.752L191.005 106.576L191.005 105.488L194.413 103.488V104.752Z" fill="white"/>
<path d="M210.026 107.072C210.709 107.072 211.317 107.216 211.85 107.504C212.383 107.782 212.805 108.203 213.114 108.768C213.423 109.334 213.578 110.022 213.578 110.832L213.578 116H212.138L212.138 111.04C212.138 110.166 211.919 109.499 211.482 109.04C211.055 108.571 210.474 108.336 209.738 108.336C208.981 108.336 208.378 108.582 207.93 109.072C207.482 109.552 207.258 110.251 207.258 111.168L207.258 116H205.818L205.818 111.04C205.818 110.166 205.599 109.499 205.162 109.04C204.735 108.571 204.154 108.336 203.418 108.336C202.661 108.336 202.058 108.582 201.61 109.072C201.162 109.552 200.938 110.251 200.938 111.168L200.938 116H199.482L199.482 107.232H200.938V108.496C201.226 108.038 201.61 107.686 202.09 107.44C202.581 107.195 203.119 107.072 203.706 107.072C204.442 107.072 205.093 107.238 205.658 107.568C206.223 107.899 206.645 108.384 206.922 109.024C207.167 108.406 207.573 107.926 208.138 107.584C208.703 107.243 209.333 107.072 210.026 107.072Z" fill="white"/>
<path d="M215.422 111.584C215.422 110.688 215.604 109.904 215.966 109.232C216.329 108.55 216.825 108.022 217.454 107.648C218.094 107.275 218.804 107.088 219.582 107.088C220.35 107.088 221.017 107.254 221.582 107.584C222.148 107.915 222.569 108.331 222.846 108.832V107.232H224.318L224.318 116H222.846V114.368C222.558 114.88 222.126 115.307 221.55 115.648C220.985 115.979 220.324 116.144 219.566 116.144C218.788 116.144 218.084 115.952 217.454 115.568C216.825 115.184 216.329 114.646 215.966 113.952C215.604 113.259 215.422 112.47 215.422 111.584ZM222.846 111.6C222.846 110.939 222.713 110.363 222.446 109.872C222.18 109.382 221.817 109.008 221.358 108.752C220.91 108.486 220.414 108.352 219.87 108.352C219.326 108.352 218.83 108.48 218.382 108.736C217.934 108.992 217.577 109.366 217.31 109.856C217.044 110.347 216.91 110.923 216.91 111.584C216.91 112.256 217.044 112.843 217.31 113.344C217.577 113.835 217.934 114.214 218.382 114.48C218.83 114.736 219.326 114.864 219.87 114.864C220.414 114.864 220.91 114.736 221.358 114.48C221.817 114.214 222.18 113.835 222.446 113.344C222.713 112.843 222.846 112.262 222.846 111.6Z" fill="white"/>
<path d="M228.235 108.656C228.491 108.155 228.853 107.766 229.323 107.488C229.803 107.211 230.384 107.072 231.067 107.072V108.576H230.683C229.051 108.576 228.235 109.462 228.235 111.232L228.235 116H226.779L226.779 107.232H228.235V108.656Z" fill="white"/>
<path d="M232.204 111.584C232.204 110.688 232.385 109.904 232.748 109.232C233.11 108.55 233.606 108.022 234.236 107.648C234.876 107.275 235.585 107.088 236.364 107.088C237.132 107.088 237.798 107.254 238.364 107.584C238.929 107.915 239.35 108.331 239.628 108.832V107.232H241.1V116H239.628V114.368C239.34 114.88 238.908 115.307 238.332 115.648C237.766 115.979 237.105 116.144 236.348 116.144C235.569 116.144 234.865 115.952 234.236 115.568C233.606 115.184 233.11 114.646 232.748 113.952C232.385 113.259 232.204 112.47 232.204 111.584ZM239.628 111.6C239.628 110.939 239.494 110.363 239.228 109.872C238.961 109.382 238.598 109.008 238.14 108.752C237.692 108.486 237.196 108.352 236.652 108.352C236.108 108.352 235.612 108.48 235.164 108.736C234.716 108.992 234.358 109.366 234.092 109.856C233.825 110.347 233.692 110.923 233.692 111.584C233.692 112.256 233.825 112.843 234.092 113.344C234.358 113.835 234.716 114.214 235.164 114.48C235.612 114.736 236.108 114.864 236.652 114.864C237.196 114.864 237.692 114.736 238.14 114.48C238.598 114.214 238.961 113.835 239.228 113.344C239.494 112.843 239.628 112.262 239.628 111.6Z" fill="white"/>
<rect x="146" y="132" width="100" height="34" rx="16" fill="#A61616"/>
<path d="M167.773 151.855L170.638 143.53H172.873L169.033 154H166.483L162.643 143.53H164.893L167.773 151.855ZM180.207 143.515V145.225H176.232V147.85H179.757V149.515H176.232V152.29H180.207V154H174.132V143.515H180.207ZM188.971 143.515H191.071V154H188.971L184.216 146.815V154H182.116V143.515H184.216L188.971 150.715V143.515ZM196.806 143.53C200.151 143.53 202.326 145.6 202.326 148.78C202.326 151.945 200.151 154 196.806 154H193.146V143.53H196.806ZM195.246 152.215H196.731C198.936 152.215 200.181 150.955 200.181 148.78C200.181 146.605 198.936 145.3 196.731 145.3H195.246V152.215ZM203.898 154V143.53H205.998V154H203.898ZM211.733 143.53C215.078 143.53 217.253 145.6 217.253 148.78C217.253 151.945 215.078 154 211.733 154H208.073V143.53H211.733ZM210.173 152.215H211.658C213.863 152.215 215.108 150.955 215.108 148.78C215.108 146.605 213.863 145.3 211.658 145.3H210.173V152.215ZM229.04 148.735C229.04 151.885 226.655 154.105 223.685 154.105C220.73 154.105 218.315 151.885 218.315 148.735C218.315 145.6 220.73 143.38 223.685 143.38C226.67 143.38 229.04 145.6 229.04 148.735ZM220.475 148.735C220.475 150.865 221.78 152.23 223.685 152.23C225.575 152.23 226.88 150.865 226.88 148.735C226.88 146.605 225.575 145.27 223.685 145.27C221.78 145.27 220.475 146.605 220.475 148.735Z" fill="white"/>
</svg>
