<svg width="389" height="333" viewBox="0 0 389 333" fill="none" xmlns="http://www.w3.org/2000/svg">
<path d="M179.67 133V129.88H171.606L171.606 126.568L179.19 115.72L183.774 115.72V126.328H185.742L185.742 129.88H183.774V133L179.67 133ZM175.926 126.328H179.958V120.232L175.926 126.328Z" fill="black"/>
<path d="M187.752 124C187.752 118.864 189.504 115.12 194.496 115.12C199.488 115.12 201.24 118.864 201.24 124C201.24 129.184 199.488 132.928 194.496 132.928C189.504 132.928 187.752 129.184 187.752 124ZM197.208 124C197.208 121.312 196.92 118.96 194.496 118.96C192.072 118.96 191.784 121.312 191.784 124C191.784 126.784 192.072 129.088 194.496 129.088C196.92 129.088 197.208 126.784 197.208 124Z" fill="black"/>
<path d="M211.568 133V129.88H203.504L203.504 126.568L211.088 115.72H215.672V126.328L217.64 126.328L217.64 129.88H215.672V133L211.568 133ZM207.824 126.328L211.856 126.328V120.232L207.824 126.328Z" fill="black"/>
<path d="M115.974 140.928L115.974 152L114.518 152V143.744L110.838 152H109.814L106.118 143.728L106.118 152H104.662L104.662 140.928H106.23L110.326 150.08L114.422 140.928H115.974Z" fill="black"/>
<path d="M122.267 152.144C121.446 152.144 120.699 151.957 120.027 151.584C119.366 151.211 118.843 150.683 118.459 150C118.086 149.307 117.899 148.507 117.899 147.6C117.899 146.704 118.091 145.915 118.475 145.232C118.87 144.539 119.403 144.011 120.075 143.648C120.747 143.275 121.499 143.088 122.331 143.088C123.163 143.088 123.915 143.275 124.587 143.648C125.259 144.011 125.787 144.533 126.171 145.216C126.566 145.899 126.763 146.693 126.763 147.6C126.763 148.507 126.56 149.307 126.155 150C125.76 150.683 125.222 151.211 124.539 151.584C123.856 151.957 123.099 152.144 122.267 152.144ZM122.267 150.864C122.79 150.864 123.28 150.741 123.739 150.496C124.198 150.251 124.566 149.883 124.843 149.392C125.131 148.901 125.275 148.304 125.275 147.6C125.275 146.896 125.136 146.299 124.859 145.808C124.582 145.317 124.219 144.955 123.771 144.72C123.323 144.475 122.838 144.352 122.315 144.352C121.782 144.352 121.291 144.475 120.843 144.72C120.406 144.955 120.054 145.317 119.787 145.808C119.52 146.299 119.387 146.896 119.387 147.6C119.387 148.315 119.515 148.917 119.771 149.408C120.038 149.899 120.39 150.267 120.827 150.512C121.264 150.747 121.744 150.864 122.267 150.864Z" fill="black"/>
<path d="M128.133 147.584C128.133 146.688 128.315 145.904 128.677 145.232C129.04 144.549 129.536 144.021 130.165 143.648C130.805 143.275 131.52 143.088 132.309 143.088C132.992 143.088 133.627 143.248 134.213 143.568C134.8 143.877 135.248 144.288 135.557 144.8V140.16H137.029V152H135.557V150.352C135.269 150.875 134.843 151.307 134.277 151.648C133.712 151.979 133.051 152.144 132.293 152.144C131.515 152.144 130.805 151.952 130.165 151.568C129.536 151.184 129.04 150.645 128.677 149.952C128.315 149.259 128.133 148.469 128.133 147.584ZM135.557 147.6C135.557 146.939 135.424 146.363 135.157 145.872C134.891 145.381 134.528 145.008 134.069 144.752C133.621 144.485 133.125 144.352 132.581 144.352C132.037 144.352 131.541 144.48 131.093 144.736C130.645 144.992 130.288 145.365 130.021 145.856C129.755 146.347 129.621 146.923 129.621 147.584C129.621 148.256 129.755 148.843 130.021 149.344C130.288 149.835 130.645 150.213 131.093 150.48C131.541 150.736 132.037 150.864 132.581 150.864C133.125 150.864 133.621 150.736 134.069 150.48C134.528 150.213 134.891 149.835 135.157 149.344C135.424 148.843 135.557 148.261 135.557 147.6Z" fill="black"/>
<path d="M147.49 147.28C147.49 147.557 147.474 147.851 147.442 148.16H140.434C140.487 149.024 140.781 149.701 141.314 150.192C141.858 150.672 142.514 150.912 143.282 150.912C143.911 150.912 144.434 150.768 144.85 150.48C145.277 150.181 145.575 149.787 145.746 149.296H147.314C147.079 150.139 146.61 150.827 145.906 151.36C145.202 151.883 144.327 152.144 143.282 152.144C142.45 152.144 141.703 151.957 141.042 151.584C140.391 151.211 139.879 150.683 139.506 150C139.133 149.307 138.946 148.507 138.946 147.6C138.946 146.693 139.127 145.899 139.49 145.216C139.853 144.533 140.359 144.011 141.01 143.648C141.671 143.275 142.429 143.088 143.282 143.088C144.114 143.088 144.85 143.269 145.49 143.632C146.13 143.995 146.621 144.496 146.962 145.136C147.314 145.765 147.49 146.48 147.49 147.28ZM145.986 146.976C145.986 146.421 145.863 145.947 145.618 145.552C145.373 145.147 145.037 144.843 144.61 144.64C144.194 144.427 143.73 144.32 143.218 144.32C142.482 144.32 141.853 144.555 141.33 145.024C140.818 145.493 140.525 146.144 140.45 146.976H145.986Z" fill="black"/>
<path d="M150.868 140.16V152H149.412V140.16H150.868Z" fill="black"/>
<path d="M157.173 152.144C156.352 152.144 155.605 151.957 154.933 151.584C154.272 151.211 153.749 150.683 153.365 150C152.992 149.307 152.805 148.507 152.805 147.6C152.805 146.704 152.997 145.915 153.381 145.232C153.776 144.539 154.309 144.011 154.981 143.648C155.653 143.275 156.405 143.088 157.237 143.088C158.069 143.088 158.821 143.275 159.493 143.648C160.165 144.011 160.693 144.533 161.077 145.216C161.472 145.899 161.669 146.693 161.669 147.6C161.669 148.507 161.467 149.307 161.061 150C160.667 150.683 160.128 151.211 159.445 151.584C158.763 151.957 158.005 152.144 157.173 152.144ZM157.173 150.864C157.696 150.864 158.187 150.741 158.645 150.496C159.104 150.251 159.472 149.883 159.749 149.392C160.037 148.901 160.181 148.304 160.181 147.6C160.181 146.896 160.043 146.299 159.765 145.808C159.488 145.317 159.125 144.955 158.677 144.72C158.229 144.475 157.744 144.352 157.221 144.352C156.688 144.352 156.197 144.475 155.749 144.72C155.312 144.955 154.96 145.317 154.693 145.808C154.427 146.299 154.293 146.896 154.293 147.6C154.293 148.315 154.421 148.917 154.677 149.408C154.944 149.899 155.296 150.267 155.733 150.512C156.171 150.747 156.651 150.864 157.173 150.864Z" fill="black"/>
<path d="M169.305 150.816H173.209V152H167.849V140.848H169.305V150.816Z" fill="black"/>
<path d="M178.579 152.144C177.758 152.144 177.011 151.957 176.339 151.584C175.678 151.211 175.155 150.683 174.771 150C174.398 149.307 174.211 148.507 174.211 147.6C174.211 146.704 174.403 145.915 174.787 145.232C175.182 144.539 175.715 144.011 176.387 143.648C177.059 143.275 177.811 143.088 178.643 143.088C179.475 143.088 180.227 143.275 180.899 143.648C181.571 144.011 182.099 144.533 182.483 145.216C182.878 145.899 183.075 146.693 183.075 147.6C183.075 148.507 182.873 149.307 182.467 150C182.073 150.683 181.534 151.211 180.851 151.584C180.169 151.957 179.411 152.144 178.579 152.144ZM178.579 150.864C179.102 150.864 179.593 150.741 180.051 150.496C180.51 150.251 180.878 149.883 181.155 149.392C181.443 148.901 181.587 148.304 181.587 147.6C181.587 146.896 181.449 146.299 181.171 145.808C180.894 145.317 180.531 144.955 180.083 144.72C179.635 144.475 179.15 144.352 178.627 144.352C178.094 144.352 177.603 144.475 177.155 144.72C176.718 144.955 176.366 145.317 176.099 145.808C175.833 146.299 175.699 146.896 175.699 147.6C175.699 148.315 175.827 148.917 176.083 149.408C176.35 149.899 176.702 150.267 177.139 150.512C177.577 150.747 178.057 150.864 178.579 150.864Z" fill="black"/>
<path d="M186.766 144.432V149.6C186.766 150.027 186.857 150.331 187.038 150.512C187.219 150.683 187.534 150.768 187.982 150.768H189.054V152H187.742C186.931 152 186.323 151.813 185.918 151.44C185.513 151.067 185.31 150.453 185.31 149.6V144.432H184.174V143.232H185.31V141.024H186.766V143.232H189.054V144.432H186.766Z" fill="black"/>
<path d="M198.594 143.232V152H197.138V150.704C196.861 151.152 196.471 151.504 195.97 151.76C195.479 152.005 194.935 152.128 194.338 152.128C193.655 152.128 193.042 151.989 192.498 151.712C191.954 151.424 191.522 150.997 191.202 150.432C190.893 149.867 190.738 149.179 190.738 148.368V143.232H192.178V148.176C192.178 149.04 192.397 149.707 192.834 150.176C193.271 150.635 193.869 150.864 194.626 150.864C195.405 150.864 196.018 150.624 196.466 150.144C196.914 149.664 197.138 148.965 197.138 148.048V143.232H198.594Z" fill="black"/>
<path d="M204.156 152.144C203.484 152.144 202.882 152.032 202.348 151.808C201.815 151.573 201.394 151.253 201.084 150.848C200.775 150.432 200.604 149.957 200.572 149.424H202.076C202.119 149.861 202.322 150.219 202.684 150.496C203.058 150.773 203.543 150.912 204.14 150.912C204.695 150.912 205.132 150.789 205.452 150.544C205.772 150.299 205.932 149.989 205.932 149.616C205.932 149.232 205.762 148.949 205.42 148.768C205.079 148.576 204.551 148.389 203.836 148.208C203.186 148.037 202.652 147.867 202.236 147.696C201.831 147.515 201.479 147.253 201.18 146.912C200.892 146.56 200.748 146.101 200.748 145.536C200.748 145.088 200.882 144.677 201.148 144.304C201.415 143.931 201.794 143.637 202.284 143.424C202.775 143.2 203.335 143.088 203.964 143.088C204.935 143.088 205.719 143.333 206.316 143.824C206.914 144.315 207.234 144.987 207.276 145.84H205.82C205.788 145.381 205.602 145.013 205.26 144.736C204.93 144.459 204.482 144.32 203.916 144.32C203.394 144.32 202.978 144.432 202.668 144.656C202.359 144.88 202.204 145.173 202.204 145.536C202.204 145.824 202.295 146.064 202.476 146.256C202.668 146.437 202.903 146.587 203.18 146.704C203.468 146.811 203.863 146.933 204.364 147.072C204.994 147.243 205.506 147.413 205.9 147.584C206.295 147.744 206.631 147.989 206.908 148.32C207.196 148.651 207.346 149.083 207.356 149.616C207.356 150.096 207.223 150.528 206.956 150.912C206.69 151.296 206.311 151.6 205.82 151.824C205.34 152.037 204.786 152.144 204.156 152.144Z" fill="black"/>
<path d="M217.421 154.976C216.397 153.973 215.597 152.699 215.021 151.152C214.456 149.605 214.173 147.936 214.173 146.144C214.173 144.309 214.472 142.597 215.069 141.008C215.677 139.408 216.541 138.091 217.661 137.056H219.181V137.2C217.987 138.32 217.085 139.669 216.477 141.248C215.88 142.816 215.581 144.448 215.581 146.144C215.581 147.797 215.864 149.376 216.429 150.88C217.005 152.384 217.843 153.701 218.941 154.832V154.976H217.421Z" fill="black"/>
<path d="M220.319 141.76V140.432H223.327V152H221.855V141.76H220.319Z" fill="black"/>
<path d="M225.652 150.832C227.007 149.744 228.068 148.853 228.836 148.16C229.604 147.456 230.249 146.725 230.772 145.968C231.305 145.2 231.572 144.448 231.572 143.712C231.572 143.019 231.401 142.475 231.06 142.08C230.729 141.675 230.191 141.472 229.444 141.472C228.719 141.472 228.153 141.701 227.748 142.16C227.353 142.608 227.14 143.211 227.108 143.968H225.7C225.743 142.773 226.105 141.851 226.788 141.2C227.471 140.549 228.351 140.224 229.428 140.224C230.527 140.224 231.396 140.528 232.036 141.136C232.687 141.744 233.012 142.581 233.012 143.648C233.012 144.533 232.745 145.397 232.212 146.24C231.689 147.072 231.092 147.808 230.42 148.448C229.748 149.077 228.889 149.813 227.844 150.656H233.348V151.872L225.652 151.872V150.832Z" fill="black"/>
<path d="M235.031 146.096C235.031 144.261 235.33 142.832 235.927 141.808C236.524 140.773 237.57 140.256 239.063 140.256C240.546 140.256 241.586 140.773 242.183 141.808C242.78 142.832 243.079 144.261 243.079 146.096C243.079 147.963 242.78 149.413 242.183 150.448C241.586 151.483 240.546 152 239.063 152C237.57 152 236.524 151.483 235.927 150.448C235.33 149.413 235.031 147.963 235.031 146.096ZM241.639 146.096C241.639 145.168 241.575 144.384 241.447 143.744C241.33 143.093 241.079 142.571 240.695 142.176C240.322 141.781 239.778 141.584 239.063 141.584C238.338 141.584 237.783 141.781 237.399 142.176C237.026 142.571 236.775 143.093 236.647 143.744C236.53 144.384 236.471 145.168 236.471 146.096C236.471 147.056 236.53 147.861 236.647 148.512C236.775 149.163 237.026 149.685 237.399 150.08C237.783 150.475 238.338 150.672 239.063 150.672C239.778 150.672 240.322 150.475 240.695 150.08C241.079 149.685 241.33 149.163 241.447 148.512C241.575 147.861 241.639 147.056 241.639 146.096Z" fill="black"/>
<path d="M260.128 143.072C260.81 143.072 261.418 143.216 261.952 143.504C262.485 143.781 262.906 144.203 263.216 144.768C263.525 145.333 263.68 146.021 263.68 146.832V152H262.24V147.04C262.24 146.165 262.021 145.499 261.584 145.04C261.157 144.571 260.576 144.336 259.84 144.336C259.082 144.336 258.48 144.581 258.032 145.072C257.584 145.552 257.36 146.251 257.36 147.168V152H255.92V147.04C255.92 146.165 255.701 145.499 255.264 145.04C254.837 144.571 254.256 144.336 253.52 144.336C252.762 144.336 252.16 144.581 251.712 145.072C251.264 145.552 251.04 146.251 251.04 147.168V152H249.584V143.232H251.04V144.496C251.328 144.037 251.712 143.685 252.192 143.44C252.682 143.195 253.221 143.072 253.808 143.072C254.544 143.072 255.194 143.237 255.76 143.568C256.325 143.899 256.746 144.384 257.024 145.024C257.269 144.405 257.674 143.925 258.24 143.584C258.805 143.243 259.434 143.072 260.128 143.072Z" fill="black"/>
<path d="M265.652 150.832C267.007 149.744 268.068 148.853 268.836 148.16C269.604 147.456 270.249 146.725 270.772 145.968C271.305 145.2 271.572 144.448 271.572 143.712C271.572 143.019 271.401 142.475 271.06 142.08C270.729 141.675 270.191 141.472 269.444 141.472C268.719 141.472 268.153 141.701 267.748 142.16C267.353 142.608 267.14 143.211 267.108 143.968H265.7C265.743 142.773 266.105 141.851 266.788 141.2C267.471 140.549 268.351 140.224 269.428 140.224C270.527 140.224 271.396 140.528 272.036 141.136C272.687 141.744 273.012 142.581 273.012 143.648C273.012 144.533 272.745 145.397 272.212 146.24C271.689 147.072 271.092 147.808 270.42 148.448C269.748 149.077 268.889 149.813 267.844 150.656H273.348V151.872H265.652V150.832Z" fill="black"/>
<path d="M274.807 154.976V154.832C275.906 153.701 276.738 152.384 277.303 150.88C277.879 149.376 278.167 147.797 278.167 146.144C278.167 144.448 277.863 142.816 277.255 141.248C276.658 139.669 275.762 138.32 274.567 137.2V137.056H276.087C277.207 138.091 278.066 139.408 278.663 141.008C279.271 142.597 279.575 144.309 279.575 146.144C279.575 147.936 279.287 149.605 278.711 151.152C278.146 152.699 277.351 153.973 276.327 154.976H274.807Z" fill="black"/>
<path d="M142.269 169.832C143.624 168.744 144.685 167.853 145.453 167.16C146.221 166.456 146.867 165.725 147.389 164.968C147.923 164.2 148.189 163.448 148.189 162.712C148.189 162.019 148.019 161.475 147.677 161.08C147.347 160.675 146.808 160.472 146.061 160.472C145.336 160.472 144.771 160.701 144.365 161.16C143.971 161.608 143.757 162.211 143.725 162.968H142.317C142.36 161.773 142.723 160.851 143.405 160.2C144.088 159.549 144.968 159.224 146.045 159.224C147.144 159.224 148.013 159.528 148.653 160.136C149.304 160.744 149.629 161.581 149.629 162.648C149.629 163.533 149.363 164.397 148.829 165.24C148.307 166.072 147.709 166.808 147.037 167.448C146.365 168.077 145.507 168.813 144.461 169.656L149.965 169.656V170.872L142.269 170.872V169.832Z" fill="black"/>
<path d="M162.026 171L159.37 166.44H157.61V171H156.154V159.848H159.754C160.597 159.848 161.306 159.992 161.882 160.28C162.469 160.568 162.906 160.957 163.194 161.448C163.482 161.939 163.626 162.499 163.626 163.128C163.626 163.896 163.402 164.573 162.954 165.16C162.517 165.747 161.855 166.136 160.97 166.328L163.77 171H162.026ZM157.61 165.272H159.754C160.543 165.272 161.135 165.08 161.53 164.696C161.925 164.301 162.122 163.779 162.122 163.128C162.122 162.467 161.925 161.955 161.53 161.592C161.146 161.229 160.554 161.048 159.754 161.048H157.61V165.272Z" fill="black"/>
<path d="M173.888 166.28C173.888 166.557 173.872 166.851 173.84 167.16H166.832C166.886 168.024 167.179 168.701 167.712 169.192C168.256 169.672 168.912 169.912 169.68 169.912C170.31 169.912 170.832 169.768 171.248 169.48C171.675 169.181 171.974 168.787 172.144 168.296H173.712C173.478 169.139 173.008 169.827 172.304 170.36C171.6 170.883 170.726 171.144 169.68 171.144C168.848 171.144 168.102 170.957 167.44 170.584C166.79 170.211 166.278 169.683 165.904 169C165.531 168.307 165.344 167.507 165.344 166.6C165.344 165.693 165.526 164.899 165.888 164.216C166.251 163.533 166.758 163.011 167.408 162.648C168.07 162.275 168.827 162.088 169.68 162.088C170.512 162.088 171.248 162.269 171.888 162.632C172.528 162.995 173.019 163.496 173.36 164.136C173.712 164.765 173.888 165.48 173.888 166.28ZM172.384 165.976C172.384 165.421 172.262 164.947 172.016 164.552C171.771 164.147 171.435 163.843 171.008 163.64C170.592 163.427 170.128 163.32 169.616 163.32C168.88 163.32 168.251 163.555 167.728 164.024C167.216 164.493 166.923 165.144 166.848 165.976H172.384Z" fill="black"/>
<path d="M175.266 166.6C175.266 165.693 175.448 164.904 175.81 164.232C176.173 163.549 176.674 163.021 177.314 162.648C177.965 162.275 178.706 162.088 179.538 162.088C180.616 162.088 181.501 162.349 182.194 162.872C182.898 163.395 183.362 164.12 183.586 165.048H182.018C181.869 164.515 181.576 164.093 181.138 163.784C180.712 163.475 180.178 163.32 179.538 163.32C178.706 163.32 178.034 163.608 177.522 164.184C177.01 164.749 176.754 165.555 176.754 166.6C176.754 167.656 177.01 168.472 177.522 169.048C178.034 169.624 178.706 169.912 179.538 169.912C180.178 169.912 180.712 169.763 181.138 169.464C181.565 169.165 181.858 168.739 182.018 168.184H183.586C183.352 169.08 182.882 169.8 182.178 170.344C181.474 170.877 180.594 171.144 179.538 171.144C178.706 171.144 177.965 170.957 177.314 170.584C176.674 170.211 176.173 169.683 175.81 169C175.448 168.317 175.266 167.517 175.266 166.6Z" fill="black"/>
<path d="M184.985 166.584C184.985 165.688 185.166 164.904 185.529 164.232C185.892 163.549 186.388 163.021 187.017 162.648C187.657 162.275 188.366 162.088 189.145 162.088C189.913 162.088 190.58 162.253 191.145 162.584C191.71 162.915 192.132 163.331 192.409 163.832V162.232L193.881 162.232L193.881 171L192.409 171V169.368C192.121 169.88 191.689 170.307 191.113 170.648C190.548 170.979 189.886 171.144 189.129 171.144C188.35 171.144 187.646 170.952 187.017 170.568C186.388 170.184 185.892 169.645 185.529 168.952C185.166 168.259 184.985 167.469 184.985 166.584ZM192.409 166.6C192.409 165.939 192.276 165.363 192.009 164.872C191.742 164.381 191.38 164.008 190.921 163.752C190.473 163.485 189.977 163.352 189.433 163.352C188.889 163.352 188.393 163.48 187.945 163.736C187.497 163.992 187.14 164.365 186.873 164.856C186.606 165.347 186.473 165.923 186.473 166.584C186.473 167.256 186.606 167.843 186.873 168.344C187.14 168.835 187.497 169.213 187.945 169.48C188.393 169.736 188.889 169.864 189.433 169.864C189.977 169.864 190.473 169.736 190.921 169.48C191.38 169.213 191.742 168.835 192.009 168.344C192.276 167.843 192.409 167.261 192.409 166.6ZM191.273 159.752L187.865 161.576L187.865 160.488L191.273 158.488V159.752Z" fill="black"/>
<path d="M206.885 162.072C207.568 162.072 208.176 162.216 208.709 162.504C209.243 162.781 209.664 163.203 209.973 163.768C210.283 164.333 210.437 165.021 210.437 165.832L210.437 171H208.997L208.997 166.04C208.997 165.165 208.779 164.499 208.341 164.04C207.915 163.571 207.333 163.336 206.597 163.336C205.84 163.336 205.237 163.581 204.789 164.072C204.341 164.552 204.117 165.251 204.117 166.168L204.117 171H202.677L202.677 166.04C202.677 165.165 202.459 164.499 202.021 164.04C201.595 163.571 201.013 163.336 200.277 163.336C199.52 163.336 198.917 163.581 198.469 164.072C198.021 164.552 197.797 165.251 197.797 166.168L197.797 171H196.341L196.341 162.232H197.797V163.496C198.085 163.037 198.469 162.685 198.949 162.44C199.44 162.195 199.979 162.072 200.565 162.072C201.301 162.072 201.952 162.237 202.517 162.568C203.083 162.899 203.504 163.384 203.781 164.024C204.027 163.405 204.432 162.925 204.997 162.584C205.563 162.243 206.192 162.072 206.885 162.072Z" fill="black"/>
<path d="M212.282 166.584C212.282 165.688 212.463 164.904 212.826 164.232C213.188 163.549 213.684 163.021 214.314 162.648C214.954 162.275 215.663 162.088 216.442 162.088C217.21 162.088 217.876 162.253 218.442 162.584C219.007 162.915 219.428 163.331 219.706 163.832V162.232H221.178L221.178 171H219.706V169.368C219.418 169.88 218.986 170.307 218.41 170.648C217.844 170.979 217.183 171.144 216.426 171.144C215.647 171.144 214.943 170.952 214.314 170.568C213.684 170.184 213.188 169.645 212.826 168.952C212.463 168.259 212.282 167.469 212.282 166.584ZM219.706 166.6C219.706 165.939 219.572 165.363 219.306 164.872C219.039 164.381 218.676 164.008 218.218 163.752C217.77 163.485 217.274 163.352 216.73 163.352C216.186 163.352 215.69 163.48 215.242 163.736C214.794 163.992 214.436 164.365 214.17 164.856C213.903 165.347 213.77 165.923 213.77 166.584C213.77 167.256 213.903 167.843 214.17 168.344C214.436 168.835 214.794 169.213 215.242 169.48C215.69 169.736 216.186 169.864 216.73 169.864C217.274 169.864 217.77 169.736 218.218 169.48C218.676 169.213 219.039 168.835 219.306 168.344C219.572 167.843 219.706 167.261 219.706 166.6Z" fill="black"/>
<path d="M225.094 163.656C225.35 163.155 225.713 162.765 226.182 162.488C226.662 162.211 227.244 162.072 227.926 162.072V163.576H227.542C225.91 163.576 225.094 164.461 225.094 166.232L225.094 171H223.638L223.638 162.232H225.094V163.656Z" fill="black"/>
<path d="M229.063 166.584C229.063 165.688 229.244 164.904 229.607 164.232C229.97 163.549 230.466 163.021 231.095 162.648C231.735 162.275 232.444 162.088 233.223 162.088C233.991 162.088 234.658 162.253 235.223 162.584C235.788 162.915 236.21 163.331 236.487 163.832V162.232H237.959V171H236.487V169.368C236.199 169.88 235.767 170.307 235.191 170.648C234.626 170.979 233.964 171.144 233.207 171.144C232.428 171.144 231.724 170.952 231.095 170.568C230.466 170.184 229.97 169.645 229.607 168.952C229.244 168.259 229.063 167.469 229.063 166.584ZM236.487 166.6C236.487 165.939 236.354 165.363 236.087 164.872C235.82 164.381 235.458 164.008 234.999 163.752C234.551 163.485 234.055 163.352 233.511 163.352C232.967 163.352 232.471 163.48 232.023 163.736C231.575 163.992 231.218 164.365 230.951 164.856C230.684 165.347 230.551 165.923 230.551 166.584C230.551 167.256 230.684 167.843 230.951 168.344C231.218 168.835 231.575 169.213 232.023 169.48C232.471 169.736 232.967 169.864 233.511 169.864C234.055 169.864 234.551 169.736 234.999 169.48C235.458 169.213 235.82 168.835 236.087 168.344C236.354 167.843 236.487 167.261 236.487 166.6Z" fill="black"/>
<path d="M243.524 171.144C242.852 171.144 242.249 171.032 241.716 170.808C241.182 170.573 240.761 170.253 240.452 169.848C240.142 169.432 239.972 168.957 239.94 168.424H241.444C241.486 168.861 241.689 169.219 242.052 169.496C242.425 169.773 242.91 169.912 243.508 169.912C244.062 169.912 244.5 169.789 244.82 169.544C245.14 169.299 245.3 168.989 245.3 168.616C245.3 168.232 245.129 167.949 244.788 167.768C244.446 167.576 243.918 167.389 243.204 167.208C242.553 167.037 242.02 166.867 241.604 166.696C241.198 166.515 240.846 166.253 240.548 165.912C240.26 165.56 240.116 165.101 240.116 164.536C240.116 164.088 240.249 163.677 240.516 163.304C240.782 162.931 241.161 162.637 241.652 162.424C242.142 162.2 242.702 162.088 243.332 162.088C244.302 162.088 245.086 162.333 245.684 162.824C246.281 163.315 246.601 163.987 246.644 164.84H245.188C245.156 164.381 244.969 164.013 244.628 163.736C244.297 163.459 243.849 163.32 243.284 163.32C242.761 163.32 242.345 163.432 242.036 163.656C241.726 163.88 241.572 164.173 241.572 164.536C241.572 164.824 241.662 165.064 241.844 165.256C242.036 165.437 242.27 165.587 242.548 165.704C242.836 165.811 243.23 165.933 243.732 166.072C244.361 166.243 244.873 166.413 245.268 166.584C245.662 166.744 245.998 166.989 246.276 167.32C246.564 167.651 246.713 168.083 246.724 168.616C246.724 169.096 246.59 169.528 246.324 169.912C246.057 170.296 245.678 170.6 245.188 170.824C244.708 171.037 244.153 171.144 243.524 171.144Z" fill="black"/>
<rect x="137" y="189" width="114" height="34" rx="17" fill="#67742A"/>
<rect x="137" y="189" width="114" height="34" rx="17" fill="black" fill-opacity="0.2"/>
<path d="M152.642 199.917C153.889 199.917 154.98 200.159 155.913 200.642C156.857 201.114 157.582 201.8 158.088 202.699C158.605 203.587 158.863 204.627 158.863 205.819C158.863 207.01 158.605 208.044 158.088 208.921C157.582 209.798 156.857 210.472 155.913 210.944C154.98 211.405 153.889 211.636 152.642 211.636H148.814L148.814 199.917H152.642ZM152.642 210.068C154.013 210.068 155.064 209.697 155.795 208.955C156.525 208.213 156.891 207.168 156.891 205.819C156.891 204.459 156.525 203.396 155.795 202.632C155.064 201.868 154.013 201.485 152.642 201.485H150.736L150.736 210.068H152.642Z" fill="white"/>
<path d="M162.69 199.917L162.69 211.636H160.768L160.768 199.917H162.69Z" fill="white"/>
<path d="M169.075 211.754C168.288 211.754 167.58 211.619 166.951 211.349C166.321 211.068 165.827 210.675 165.467 210.169C165.107 209.663 164.927 209.073 164.927 208.398H166.984C167.029 208.904 167.226 209.32 167.575 209.646C167.934 209.972 168.434 210.135 169.075 210.135C169.738 210.135 170.255 209.978 170.626 209.663C170.997 209.337 171.183 208.921 171.183 208.415C171.183 208.022 171.065 207.701 170.829 207.454C170.604 207.207 170.317 207.016 169.969 206.881C169.632 206.746 169.159 206.6 168.553 206.443C167.788 206.24 167.164 206.038 166.681 205.836C166.209 205.622 165.804 205.296 165.467 204.858C165.13 204.419 164.961 203.835 164.961 203.104C164.961 202.43 165.13 201.84 165.467 201.334C165.804 200.828 166.276 200.44 166.883 200.17C167.49 199.901 168.193 199.766 168.991 199.766C170.126 199.766 171.054 200.052 171.773 200.626C172.504 201.188 172.908 201.963 172.987 202.952H170.862C170.829 202.525 170.626 202.16 170.255 201.856C169.885 201.553 169.396 201.401 168.789 201.401C168.238 201.401 167.788 201.542 167.44 201.823C167.091 202.104 166.917 202.508 166.917 203.037C166.917 203.396 167.024 203.694 167.237 203.93C167.462 204.155 167.743 204.335 168.08 204.47C168.418 204.605 168.878 204.751 169.463 204.908C170.239 205.122 170.868 205.335 171.351 205.549C171.846 205.762 172.262 206.094 172.599 206.544C172.948 206.982 173.122 207.572 173.122 208.314C173.122 208.91 172.959 209.472 172.633 210C172.318 210.528 171.852 210.956 171.233 211.282C170.626 211.596 169.907 211.754 169.075 211.754Z" fill="white"/>
<path d="M183.584 203.408C183.584 204.003 183.444 204.565 183.163 205.094C182.882 205.622 182.432 206.055 181.814 206.392C181.196 206.718 180.403 206.881 179.436 206.881H177.312L177.312 211.636H175.39L175.39 199.917H179.436C180.336 199.917 181.094 200.075 181.713 200.389C182.342 200.693 182.809 201.109 183.112 201.637C183.427 202.165 183.584 202.756 183.584 203.408ZM179.436 205.313C180.167 205.313 180.712 205.15 181.072 204.824C181.432 204.487 181.612 204.015 181.612 203.408C181.612 202.126 180.887 201.485 179.436 201.485H177.312V205.313H179.436Z" fill="white"/>
<path d="M190.762 211.754C189.672 211.754 188.666 211.501 187.744 210.995C186.834 210.478 186.109 209.764 185.569 208.854C185.041 207.932 184.777 206.898 184.777 205.751C184.777 204.605 185.041 203.576 185.569 202.666C186.109 201.755 186.834 201.047 187.744 200.541C188.666 200.024 189.672 199.766 190.762 199.766C191.864 199.766 192.87 200.024 193.78 200.541C194.702 201.047 195.427 201.755 195.956 202.666C196.484 203.576 196.748 204.605 196.748 205.751C196.748 206.898 196.484 207.932 195.956 208.854C195.427 209.764 194.702 210.478 193.78 210.995C192.87 211.501 191.864 211.754 190.762 211.754ZM190.762 210.084C191.538 210.084 192.229 209.91 192.836 209.562C193.443 209.202 193.915 208.696 194.253 208.044C194.601 207.381 194.775 206.617 194.775 205.751C194.775 204.886 194.601 204.127 194.253 203.475C193.915 202.823 193.443 202.323 192.836 201.974C192.229 201.626 191.538 201.452 190.762 201.452C189.987 201.452 189.295 201.626 188.688 201.974C188.081 202.323 187.604 202.823 187.255 203.475C186.918 204.127 186.749 204.886 186.749 205.751C186.749 206.617 186.918 207.381 187.255 208.044C187.604 208.696 188.081 209.202 188.688 209.562C189.295 209.91 189.987 210.084 190.762 210.084Z" fill="white"/>
<path d="M208.267 211.636H206.345L200.562 202.885L200.562 211.636H198.639L198.639 199.901H200.562L206.345 208.634V199.901L208.267 199.901L208.267 211.636Z" fill="white"/>
<path d="M212.713 199.917L212.713 211.636H210.791L210.791 199.917H212.713Z" fill="white"/>
<path d="M221.509 205.616C222.139 205.729 222.673 206.06 223.111 206.611C223.549 207.162 223.768 207.786 223.768 208.483C223.768 209.078 223.611 209.618 223.296 210.101C222.993 210.573 222.549 210.95 221.964 211.231C221.38 211.501 220.7 211.636 219.924 211.636H215.237V199.917H219.705C220.503 199.917 221.189 200.052 221.762 200.322C222.335 200.592 222.768 200.957 223.06 201.418C223.353 201.868 223.499 202.373 223.499 202.935C223.499 203.61 223.319 204.172 222.959 204.622C222.599 205.071 222.116 205.403 221.509 205.616ZM217.159 204.841H219.536C220.166 204.841 220.655 204.7 221.003 204.419C221.363 204.127 221.543 203.711 221.543 203.172C221.543 202.643 221.363 202.233 221.003 201.941C220.655 201.637 220.166 201.485 219.536 201.485H217.159V204.841ZM219.756 210.068C220.408 210.068 220.919 209.91 221.29 209.596C221.661 209.281 221.846 208.842 221.846 208.28C221.846 207.707 221.65 207.252 221.256 206.915C220.863 206.577 220.34 206.409 219.688 206.409H217.159V210.068H219.756Z" fill="white"/>
<path d="M227.779 210.084H231.742V211.636H225.857V199.917H227.779V210.084Z" fill="white"/>
<path d="M235.271 201.469V204.908H239.318V206.476H235.271V210.068L239.824 210.068V211.636L233.349 211.636V199.901H239.824V201.469H235.271Z" fill="white"/>
</svg>
