<svg width="392" height="224" viewBox="0 0 392 224" fill="none" xmlns="http://www.w3.org/2000/svg">
<path d="M177.241 77.7597V74.7117C180.961 71.6397 184.921 68.5917 184.921 65.6397C184.921 64.3677 184.345 63.5517 183.097 63.5517C181.873 63.5517 181.153 64.5117 181.153 66.1677L177.193 66.1677C177.313 61.9197 180.073 60.0957 183.265 60.0957C187.249 60.0957 189.025 62.4237 189.025 65.3757C189.025 69.2157 185.593 72.2877 182.809 74.4237L189.289 74.4237V77.7597L177.241 77.7597Z" fill="black"/>
<path d="M191.096 68.9997C191.096 63.8637 192.848 60.1197 197.84 60.1197C202.832 60.1197 204.584 63.8637 204.584 68.9997C204.584 74.1837 202.832 77.9277 197.84 77.9277C192.848 77.9277 191.096 74.1837 191.096 68.9997ZM200.552 68.9997C200.552 66.3117 200.264 63.9597 197.84 63.9597C195.416 63.9597 195.128 66.3117 195.128 68.9997C195.128 71.7837 195.416 74.0877 197.84 74.0877C200.264 74.0877 200.552 71.7837 200.552 68.9997Z" fill="black"/>
<path d="M208.696 77.9997L208.696 64.2957H206.32V60.4797L212.968 60.4797L212.968 77.9997H208.696Z" fill="black"/>
<path d="M121.653 85.9277L121.653 96.9997L120.197 96.9997V88.7437L116.517 96.9997H115.493L111.797 88.7277L111.797 96.9997H110.341L110.341 85.9277H111.909L116.005 95.0797L120.101 85.9277H121.653Z" fill="black"/>
<path d="M127.947 97.1437C127.125 97.1437 126.379 96.957 125.707 96.5837C125.045 96.2104 124.523 95.6824 124.139 94.9997C123.765 94.3064 123.579 93.5064 123.579 92.5997C123.579 91.7037 123.771 90.9144 124.155 90.2317C124.549 89.5384 125.083 89.0104 125.755 88.6477C126.427 88.2744 127.179 88.0877 128.011 88.0877C128.843 88.0877 129.595 88.2744 130.267 88.6477C130.939 89.0104 131.467 89.533 131.851 90.2157C132.245 90.8984 132.443 91.693 132.443 92.5997C132.443 93.5064 132.24 94.3064 131.835 94.9997C131.44 95.6824 130.901 96.2104 130.219 96.5837C129.536 96.957 128.779 97.1437 127.947 97.1437ZM127.947 95.8637C128.469 95.8637 128.96 95.741 129.419 95.4957C129.877 95.2504 130.245 94.8824 130.523 94.3917C130.811 93.901 130.955 93.3037 130.955 92.5997C130.955 91.8957 130.816 91.2984 130.539 90.8077C130.261 90.317 129.899 89.9544 129.451 89.7197C129.003 89.4744 128.517 89.3517 127.995 89.3517C127.461 89.3517 126.971 89.4744 126.523 89.7197C126.085 89.9544 125.733 90.317 125.467 90.8077C125.2 91.2984 125.067 91.8957 125.067 92.5997C125.067 93.3144 125.195 93.917 125.451 94.4077C125.717 94.8984 126.069 95.2664 126.507 95.5117C126.944 95.7464 127.424 95.8637 127.947 95.8637Z" fill="black"/>
<path d="M133.813 92.5837C133.813 91.6877 133.994 90.9037 134.357 90.2317C134.72 89.549 135.216 89.021 135.845 88.6477C136.485 88.2744 137.2 88.0877 137.989 88.0877C138.672 88.0877 139.306 88.2477 139.893 88.5677C140.48 88.877 140.928 89.2877 141.237 89.7997V85.1597H142.709V96.9997H141.237V95.3517C140.949 95.8744 140.522 96.3064 139.957 96.6477C139.392 96.9784 138.73 97.1437 137.973 97.1437C137.194 97.1437 136.485 96.9517 135.845 96.5677C135.216 96.1837 134.72 95.645 134.357 94.9517C133.994 94.2584 133.813 93.469 133.813 92.5837ZM141.237 92.5997C141.237 91.9384 141.104 91.3624 140.837 90.8717C140.57 90.381 140.208 90.0077 139.749 89.7517C139.301 89.485 138.805 89.3517 138.261 89.3517C137.717 89.3517 137.221 89.4797 136.773 89.7357C136.325 89.9917 135.968 90.365 135.701 90.8557C135.434 91.3464 135.301 91.9224 135.301 92.5837C135.301 93.2557 135.434 93.8424 135.701 94.3437C135.968 94.8344 136.325 95.213 136.773 95.4797C137.221 95.7357 137.717 95.8637 138.261 95.8637C138.805 95.8637 139.301 95.7357 139.749 95.4797C140.208 95.213 140.57 94.8344 140.837 94.3437C141.104 93.8424 141.237 93.261 141.237 92.5997Z" fill="black"/>
<path d="M153.169 92.2797C153.169 92.557 153.153 92.8504 153.121 93.1597L146.113 93.1597C146.167 94.0237 146.46 94.701 146.993 95.1917C147.537 95.6717 148.193 95.9117 148.961 95.9117C149.591 95.9117 150.113 95.7677 150.529 95.4797C150.956 95.181 151.255 94.7864 151.425 94.2957H152.993C152.759 95.1384 152.289 95.8264 151.585 96.3597C150.881 96.8824 150.007 97.1437 148.961 97.1437C148.129 97.1437 147.383 96.957 146.721 96.5837C146.071 96.2104 145.559 95.6824 145.185 94.9997C144.812 94.3064 144.625 93.5064 144.625 92.5997C144.625 91.693 144.807 90.8984 145.169 90.2157C145.532 89.533 146.039 89.0104 146.689 88.6477C147.351 88.2744 148.108 88.0877 148.961 88.0877C149.793 88.0877 150.529 88.269 151.169 88.6317C151.809 88.9944 152.3 89.4957 152.641 90.1357C152.993 90.765 153.169 91.4797 153.169 92.2797ZM151.665 91.9757C151.665 91.421 151.543 90.9464 151.297 90.5517C151.052 90.1464 150.716 89.8424 150.289 89.6397C149.873 89.4264 149.409 89.3197 148.897 89.3197C148.161 89.3197 147.532 89.5544 147.009 90.0237C146.497 90.493 146.204 91.1437 146.129 91.9757L151.665 91.9757Z" fill="black"/>
<path d="M156.547 85.1597V96.9997H155.091V85.1597H156.547Z" fill="black"/>
<path d="M162.853 97.1437C162.031 97.1437 161.285 96.957 160.613 96.5837C159.951 96.2104 159.429 95.6824 159.045 94.9997C158.671 94.3064 158.485 93.5064 158.485 92.5997C158.485 91.7037 158.677 90.9144 159.061 90.2317C159.455 89.5384 159.989 89.0104 160.661 88.6477C161.333 88.2744 162.085 88.0877 162.917 88.0877C163.749 88.0877 164.501 88.2744 165.173 88.6477C165.845 89.0104 166.373 89.533 166.757 90.2157C167.151 90.8984 167.349 91.693 167.349 92.5997C167.349 93.5064 167.146 94.3064 166.741 94.9997C166.346 95.6824 165.807 96.2104 165.125 96.5837C164.442 96.957 163.685 97.1437 162.853 97.1437ZM162.853 95.8637C163.375 95.8637 163.866 95.741 164.325 95.4957C164.783 95.2504 165.151 94.8824 165.429 94.3917C165.717 93.901 165.861 93.3037 165.861 92.5997C165.861 91.8957 165.722 91.2984 165.445 90.8077C165.167 90.317 164.805 89.9544 164.357 89.7197C163.909 89.4744 163.423 89.3517 162.901 89.3517C162.367 89.3517 161.877 89.4744 161.429 89.7197C160.991 89.9544 160.639 90.317 160.373 90.8077C160.106 91.2984 159.973 91.8957 159.973 92.5997C159.973 93.3144 160.101 93.917 160.357 94.4077C160.623 94.8984 160.975 95.2664 161.413 95.5117C161.85 95.7464 162.33 95.8637 162.853 95.8637Z" fill="black"/>
<path d="M180.121 94.5197H175.257L174.361 96.9997H172.825L176.857 85.9117H178.537L182.553 96.9997H181.017L180.121 94.5197ZM179.705 93.3357L177.689 87.7037L175.673 93.3357H179.705Z" fill="black"/>
<path d="M192.086 88.2317V96.9997H190.63V95.7037C190.353 96.1517 189.963 96.5037 189.462 96.7597C188.971 97.005 188.427 97.1277 187.83 97.1277C187.147 97.1277 186.534 96.989 185.99 96.7117C185.446 96.4237 185.014 95.997 184.694 95.4317C184.385 94.8664 184.23 94.1784 184.23 93.3677V88.2317H185.67V93.1757C185.67 94.0397 185.889 94.7064 186.326 95.1757C186.763 95.6344 187.361 95.8637 188.118 95.8637C188.897 95.8637 189.51 95.6237 189.958 95.1437C190.406 94.6637 190.63 93.965 190.63 93.0477V88.2317H192.086Z" fill="black"/>
<path d="M196 89.6557C196.256 89.1544 196.619 88.765 197.088 88.4877C197.568 88.2104 198.15 88.0717 198.832 88.0717V89.5757H198.448C196.816 89.5757 196 90.461 196 92.2317V96.9997H194.544V88.2317H196V89.6557Z" fill="black"/>
<path d="M199.969 92.5837C199.969 91.6877 200.151 90.9037 200.513 90.2317C200.876 89.549 201.372 89.021 202.001 88.6477C202.641 88.2744 203.351 88.0877 204.129 88.0877C204.897 88.0877 205.564 88.253 206.129 88.5837C206.695 88.9144 207.116 89.3304 207.393 89.8317V88.2317H208.865V96.9997H207.393V95.3677C207.105 95.8797 206.673 96.3064 206.097 96.6477C205.532 96.9784 204.871 97.1437 204.113 97.1437C203.335 97.1437 202.631 96.9517 202.001 96.5677C201.372 96.1837 200.876 95.645 200.513 94.9517C200.151 94.2584 199.969 93.469 199.969 92.5837ZM207.393 92.5997C207.393 91.9384 207.26 91.3624 206.993 90.8717C206.727 90.381 206.364 90.0077 205.905 89.7517C205.457 89.485 204.961 89.3517 204.417 89.3517C203.873 89.3517 203.377 89.4797 202.929 89.7357C202.481 89.9917 202.124 90.365 201.857 90.8557C201.591 91.3464 201.457 91.9224 201.457 92.5837C201.457 93.2557 201.591 93.8424 201.857 94.3437C202.124 94.8344 202.481 95.213 202.929 95.4797C203.377 95.7357 203.873 95.8637 204.417 95.8637C204.961 95.8637 205.457 95.7357 205.905 95.4797C206.364 95.213 206.727 94.8344 206.993 94.3437C207.26 93.8424 207.393 93.261 207.393 92.5997Z" fill="black"/>
<path d="M219.335 99.9757C218.311 98.973 217.511 97.6984 216.935 96.1517C216.37 94.605 216.087 92.9357 216.087 91.1437C216.087 89.309 216.386 87.597 216.983 86.0077C217.591 84.4077 218.455 83.0904 219.575 82.0557H221.095V82.1997C219.901 83.3197 218.999 84.669 218.391 86.2477C217.794 87.8157 217.495 89.4477 217.495 91.1437C217.495 92.797 217.778 94.3757 218.343 95.8797C218.919 97.3837 219.757 98.701 220.855 99.8317V99.9757L219.335 99.9757Z" fill="black"/>
<path d="M229.737 86.5677L225.289 96.9997H223.817L228.329 86.7117H222.153V85.4637H229.737V86.5677Z" fill="black"/>
<path d="M238.727 86.6957L233.111 86.6957V90.3437C233.357 90.0024 233.719 89.725 234.199 89.5117C234.679 89.2877 235.197 89.1757 235.751 89.1757C236.637 89.1757 237.357 89.3624 237.911 89.7357C238.466 90.0984 238.861 90.573 239.095 91.1597C239.341 91.7357 239.463 92.349 239.463 92.9997C239.463 93.7677 239.319 94.4557 239.031 95.0637C238.743 95.6717 238.301 96.1517 237.703 96.5037C237.117 96.8557 236.386 97.0317 235.511 97.0317C234.391 97.0317 233.485 96.7437 232.791 96.1677C232.098 95.5917 231.677 94.8237 231.527 93.8637L232.951 93.8637C233.09 94.4717 233.383 94.9464 233.831 95.2877C234.279 95.629 234.845 95.7997 235.527 95.7997C236.37 95.7997 237.005 95.549 237.431 95.0477C237.858 94.5357 238.071 93.8637 238.071 93.0317C238.071 92.1997 237.858 91.5597 237.431 91.1117C237.005 90.653 236.375 90.4237 235.543 90.4237C234.978 90.4237 234.482 90.5624 234.055 90.8397C233.639 91.1064 233.335 91.4744 233.143 91.9437H231.767V85.4157L238.727 85.4157V86.6957Z" fill="black"/>
<path d="M256.448 88.0717C257.13 88.0717 257.738 88.2157 258.272 88.5037C258.805 88.781 259.226 89.2024 259.536 89.7677C259.845 90.333 260 91.021 260 91.8317V96.9997H258.56V92.0397C258.56 91.165 258.341 90.4984 257.904 90.0397C257.477 89.5704 256.896 89.3357 256.16 89.3357C255.402 89.3357 254.8 89.581 254.352 90.0717C253.904 90.5517 253.68 91.2504 253.68 92.1677V96.9997L252.24 96.9997V92.0397C252.24 91.165 252.021 90.4984 251.584 90.0397C251.157 89.5704 250.576 89.3357 249.84 89.3357C249.082 89.3357 248.48 89.581 248.032 90.0717C247.584 90.5517 247.36 91.2504 247.36 92.1677V96.9997H245.904V88.2317H247.36V89.4957C247.648 89.037 248.032 88.685 248.512 88.4397C249.002 88.1944 249.541 88.0717 250.128 88.0717C250.864 88.0717 251.514 88.237 252.08 88.5677C252.645 88.8984 253.066 89.3837 253.344 90.0237C253.589 89.405 253.994 88.925 254.56 88.5837C255.125 88.2424 255.754 88.0717 256.448 88.0717Z" fill="black"/>
<path d="M261.972 95.8317C263.327 94.7437 264.388 93.853 265.156 93.1597C265.924 92.4557 266.57 91.725 267.092 90.9677C267.626 90.1997 267.892 89.4477 267.892 88.7117C267.892 88.0184 267.722 87.4744 267.38 87.0797C267.05 86.6744 266.511 86.4717 265.764 86.4717C265.039 86.4717 264.474 86.701 264.068 87.1597C263.674 87.6077 263.46 88.2104 263.428 88.9677H262.02C262.063 87.773 262.426 86.8504 263.108 86.1997C263.791 85.549 264.671 85.2237 265.748 85.2237C266.847 85.2237 267.716 85.5277 268.356 86.1357C269.007 86.7437 269.332 87.581 269.332 88.6477C269.332 89.533 269.066 90.397 268.532 91.2397C268.01 92.0717 267.412 92.8077 266.74 93.4477C266.068 94.077 265.21 94.813 264.164 95.6557L269.668 95.6557V96.8717L261.972 96.8717V95.8317Z" fill="black"/>
<path d="M271.127 99.9757V99.8317C272.226 98.701 273.058 97.3837 273.623 95.8797C274.199 94.3757 274.487 92.797 274.487 91.1437C274.487 89.4477 274.183 87.8157 273.575 86.2477C272.978 84.669 272.082 83.3197 270.887 82.1997V82.0557H272.407C273.527 83.0904 274.386 84.4077 274.983 86.0077C275.591 87.597 275.895 89.309 275.895 91.1437C275.895 92.9357 275.607 94.605 275.031 96.1517C274.466 97.6984 273.671 98.973 272.647 99.9757H271.127Z" fill="black"/>
<path d="M149.28 105.76V104.432L152.288 104.432V116H150.816V105.76L149.28 105.76Z" fill="black"/>
<path d="M165.166 116L162.51 111.44H160.75V116H159.294V104.848H162.894C163.737 104.848 164.446 104.992 165.022 105.28C165.609 105.568 166.046 105.957 166.334 106.448C166.622 106.938 166.766 107.498 166.766 108.128C166.766 108.896 166.542 109.573 166.094 110.16C165.657 110.746 164.996 111.136 164.11 111.328L166.91 116L165.166 116ZM160.75 110.272H162.894C163.684 110.272 164.276 110.08 164.67 109.696C165.065 109.301 165.262 108.778 165.262 108.128C165.262 107.466 165.065 106.954 164.67 106.592C164.286 106.229 163.694 106.048 162.894 106.048H160.75V110.272Z" fill="black"/>
<path d="M177.029 111.28C177.029 111.557 177.013 111.85 176.981 112.16L169.973 112.16C170.026 113.024 170.319 113.701 170.853 114.192C171.397 114.672 172.053 114.912 172.821 114.912C173.45 114.912 173.973 114.768 174.389 114.48C174.815 114.181 175.114 113.786 175.285 113.296H176.853C176.618 114.138 176.149 114.826 175.445 115.36C174.741 115.882 173.866 116.144 172.821 116.144C171.989 116.144 171.242 115.957 170.581 115.584C169.93 115.21 169.418 114.682 169.045 114C168.671 113.306 168.485 112.506 168.485 111.6C168.485 110.693 168.666 109.898 169.029 109.216C169.391 108.533 169.898 108.01 170.549 107.648C171.21 107.274 171.967 107.088 172.821 107.088C173.653 107.088 174.389 107.269 175.029 107.632C175.669 107.994 176.159 108.496 176.501 109.136C176.853 109.765 177.029 110.48 177.029 111.28ZM175.525 110.976C175.525 110.421 175.402 109.946 175.157 109.552C174.911 109.146 174.575 108.842 174.149 108.64C173.733 108.426 173.269 108.32 172.757 108.32C172.021 108.32 171.391 108.554 170.869 109.024C170.357 109.493 170.063 110.144 169.989 110.976L175.525 110.976Z" fill="black"/>
<path d="M178.407 111.6C178.407 110.693 178.588 109.904 178.951 109.232C179.313 108.549 179.815 108.021 180.455 107.648C181.105 107.274 181.847 107.088 182.679 107.088C183.756 107.088 184.641 107.349 185.335 107.872C186.039 108.394 186.503 109.12 186.727 110.048H185.159C185.009 109.514 184.716 109.093 184.279 108.784C183.852 108.474 183.319 108.32 182.679 108.32C181.847 108.32 181.175 108.608 180.663 109.184C180.151 109.749 179.895 110.554 179.895 111.6C179.895 112.656 180.151 113.472 180.663 114.048C181.175 114.624 181.847 114.912 182.679 114.912C183.319 114.912 183.852 114.762 184.279 114.464C184.705 114.165 184.999 113.738 185.159 113.184H186.727C186.492 114.08 186.023 114.8 185.319 115.344C184.615 115.877 183.735 116.144 182.679 116.144C181.847 116.144 181.105 115.957 180.455 115.584C179.815 115.21 179.313 114.682 178.951 114C178.588 113.317 178.407 112.517 178.407 111.6Z" fill="black"/>
<path d="M188.125 111.584C188.125 110.688 188.307 109.904 188.669 109.232C189.032 108.549 189.528 108.021 190.157 107.648C190.797 107.274 191.507 107.088 192.285 107.088C193.053 107.088 193.72 107.253 194.285 107.584C194.851 107.914 195.272 108.33 195.549 108.832V107.232H197.021L197.021 116H195.549V114.368C195.261 114.88 194.829 115.306 194.253 115.648C193.688 115.978 193.027 116.144 192.269 116.144C191.491 116.144 190.787 115.952 190.157 115.568C189.528 115.184 189.032 114.645 188.669 113.952C188.307 113.258 188.125 112.469 188.125 111.584ZM195.549 111.6C195.549 110.938 195.416 110.362 195.149 109.872C194.883 109.381 194.52 109.008 194.061 108.752C193.613 108.485 193.117 108.352 192.573 108.352C192.029 108.352 191.533 108.48 191.085 108.736C190.637 108.992 190.28 109.365 190.013 109.856C189.747 110.346 189.613 110.922 189.613 111.584C189.613 112.256 189.747 112.842 190.013 113.344C190.28 113.834 190.637 114.213 191.085 114.48C191.533 114.736 192.029 114.864 192.573 114.864C193.117 114.864 193.613 114.736 194.061 114.48C194.52 114.213 194.883 113.834 195.149 113.344C195.416 112.842 195.549 112.261 195.549 111.6ZM194.413 104.752L191.005 106.576L191.005 105.488L194.413 103.488V104.752Z" fill="black"/>
<path d="M210.026 107.072C210.709 107.072 211.317 107.216 211.85 107.504C212.383 107.781 212.805 108.202 213.114 108.768C213.423 109.333 213.578 110.021 213.578 110.832L213.578 116H212.138L212.138 111.04C212.138 110.165 211.919 109.498 211.482 109.04C211.055 108.57 210.474 108.336 209.738 108.336C208.981 108.336 208.378 108.581 207.93 109.072C207.482 109.552 207.258 110.25 207.258 111.168L207.258 116H205.818L205.818 111.04C205.818 110.165 205.599 109.498 205.162 109.04C204.735 108.57 204.154 108.336 203.418 108.336C202.661 108.336 202.058 108.581 201.61 109.072C201.162 109.552 200.938 110.25 200.938 111.168L200.938 116H199.482L199.482 107.232H200.938V108.496C201.226 108.037 201.61 107.685 202.09 107.44C202.581 107.194 203.119 107.072 203.706 107.072C204.442 107.072 205.093 107.237 205.658 107.568C206.223 107.898 206.645 108.384 206.922 109.024C207.167 108.405 207.573 107.925 208.138 107.584C208.703 107.242 209.333 107.072 210.026 107.072Z" fill="black"/>
<path d="M215.422 111.584C215.422 110.688 215.604 109.904 215.966 109.232C216.329 108.549 216.825 108.021 217.454 107.648C218.094 107.274 218.804 107.088 219.582 107.088C220.35 107.088 221.017 107.253 221.582 107.584C222.148 107.914 222.569 108.33 222.846 108.832V107.232H224.318L224.318 116H222.846V114.368C222.558 114.88 222.126 115.306 221.55 115.648C220.985 115.978 220.324 116.144 219.566 116.144C218.788 116.144 218.084 115.952 217.454 115.568C216.825 115.184 216.329 114.645 215.966 113.952C215.604 113.258 215.422 112.469 215.422 111.584ZM222.846 111.6C222.846 110.938 222.713 110.362 222.446 109.872C222.18 109.381 221.817 109.008 221.358 108.752C220.91 108.485 220.414 108.352 219.87 108.352C219.326 108.352 218.83 108.48 218.382 108.736C217.934 108.992 217.577 109.365 217.31 109.856C217.044 110.346 216.91 110.922 216.91 111.584C216.91 112.256 217.044 112.842 217.31 113.344C217.577 113.834 217.934 114.213 218.382 114.48C218.83 114.736 219.326 114.864 219.87 114.864C220.414 114.864 220.91 114.736 221.358 114.48C221.817 114.213 222.18 113.834 222.446 113.344C222.713 112.842 222.846 112.261 222.846 111.6Z" fill="black"/>
<path d="M228.235 108.656C228.491 108.154 228.853 107.765 229.323 107.488C229.803 107.21 230.384 107.072 231.067 107.072V108.576H230.683C229.051 108.576 228.235 109.461 228.235 111.232L228.235 116H226.779L226.779 107.232H228.235V108.656Z" fill="black"/>
<path d="M232.204 111.584C232.204 110.688 232.385 109.904 232.748 109.232C233.11 108.549 233.606 108.021 234.236 107.648C234.876 107.274 235.585 107.088 236.364 107.088C237.132 107.088 237.798 107.253 238.364 107.584C238.929 107.914 239.35 108.33 239.628 108.832V107.232H241.1V116H239.628V114.368C239.34 114.88 238.908 115.306 238.332 115.648C237.766 115.978 237.105 116.144 236.348 116.144C235.569 116.144 234.865 115.952 234.236 115.568C233.606 115.184 233.11 114.645 232.748 113.952C232.385 113.258 232.204 112.469 232.204 111.584ZM239.628 111.6C239.628 110.938 239.494 110.362 239.228 109.872C238.961 109.381 238.598 109.008 238.14 108.752C237.692 108.485 237.196 108.352 236.652 108.352C236.108 108.352 235.612 108.48 235.164 108.736C234.716 108.992 234.358 109.365 234.092 109.856C233.825 110.346 233.692 110.922 233.692 111.584C233.692 112.256 233.825 112.842 234.092 113.344C234.358 113.834 234.716 114.213 235.164 114.48C235.612 114.736 236.108 114.864 236.652 114.864C237.196 114.864 237.692 114.736 238.14 114.48C238.598 114.213 238.961 113.834 239.228 113.344C239.494 112.842 239.628 112.261 239.628 111.6Z" fill="black"/>
<rect x="139" y="132" width="114" height="34" rx="17" fill="#67742A"/>
<rect x="139" y="132" width="114" height="34" rx="17" fill="black" fill-opacity="0.2"/>
<path d="M154.642 142.917C155.889 142.917 156.98 143.159 157.913 143.642C158.857 144.114 159.582 144.8 160.088 145.699C160.605 146.587 160.863 147.627 160.863 148.819C160.863 150.01 160.605 151.044 160.088 151.921C159.582 152.798 158.857 153.472 157.913 153.944C156.98 154.405 155.889 154.636 154.642 154.636H150.814L150.814 142.917H154.642ZM154.642 153.068C156.013 153.068 157.064 152.697 157.795 151.955C158.525 151.213 158.891 150.168 158.891 148.819C158.891 147.459 158.525 146.396 157.795 145.632C157.064 144.868 156.013 144.485 154.642 144.485H152.736L152.736 153.068H154.642Z" fill="white"/>
<path d="M164.69 142.917L164.69 154.636H162.768L162.768 142.917H164.69Z" fill="white"/>
<path d="M171.075 154.754C170.288 154.754 169.58 154.619 168.951 154.349C168.321 154.068 167.827 153.675 167.467 153.169C167.107 152.663 166.927 152.073 166.927 151.398H168.984C169.029 151.904 169.226 152.32 169.575 152.646C169.934 152.972 170.434 153.135 171.075 153.135C171.738 153.135 172.255 152.978 172.626 152.663C172.997 152.337 173.183 151.921 173.183 151.415C173.183 151.022 173.065 150.701 172.829 150.454C172.604 150.207 172.317 150.016 171.969 149.881C171.632 149.746 171.159 149.6 170.553 149.443C169.788 149.24 169.164 149.038 168.681 148.836C168.209 148.622 167.804 148.296 167.467 147.858C167.13 147.419 166.961 146.835 166.961 146.104C166.961 145.43 167.13 144.84 167.467 144.334C167.804 143.828 168.276 143.44 168.883 143.17C169.49 142.901 170.193 142.766 170.991 142.766C172.126 142.766 173.054 143.052 173.773 143.626C174.504 144.188 174.908 144.963 174.987 145.952H172.862C172.829 145.525 172.626 145.16 172.255 144.856C171.885 144.553 171.396 144.401 170.789 144.401C170.238 144.401 169.788 144.542 169.44 144.823C169.091 145.104 168.917 145.508 168.917 146.037C168.917 146.396 169.024 146.694 169.237 146.93C169.462 147.155 169.743 147.335 170.08 147.47C170.418 147.605 170.878 147.751 171.463 147.908C172.239 148.122 172.868 148.335 173.351 148.549C173.846 148.762 174.262 149.094 174.599 149.544C174.948 149.982 175.122 150.572 175.122 151.314C175.122 151.91 174.959 152.472 174.633 153C174.318 153.528 173.852 153.956 173.233 154.282C172.626 154.596 171.907 154.754 171.075 154.754Z" fill="white"/>
<path d="M185.584 146.408C185.584 147.003 185.444 147.565 185.163 148.094C184.882 148.622 184.432 149.055 183.814 149.392C183.196 149.718 182.403 149.881 181.436 149.881H179.312L179.312 154.636H177.39L177.39 142.917H181.436C182.336 142.917 183.094 143.075 183.713 143.389C184.342 143.693 184.809 144.109 185.112 144.637C185.427 145.165 185.584 145.756 185.584 146.408ZM181.436 148.313C182.167 148.313 182.712 148.15 183.072 147.824C183.432 147.487 183.612 147.015 183.612 146.408C183.612 145.126 182.887 144.485 181.436 144.485H179.312V148.313H181.436Z" fill="white"/>
<path d="M192.762 154.754C191.672 154.754 190.666 154.501 189.744 153.995C188.834 153.478 188.109 152.764 187.569 151.854C187.041 150.932 186.777 149.898 186.777 148.751C186.777 147.605 187.041 146.576 187.569 145.666C188.109 144.755 188.834 144.047 189.744 143.541C190.666 143.024 191.672 142.766 192.762 142.766C193.864 142.766 194.87 143.024 195.78 143.541C196.702 144.047 197.427 144.755 197.956 145.666C198.484 146.576 198.748 147.605 198.748 148.751C198.748 149.898 198.484 150.932 197.956 151.854C197.427 152.764 196.702 153.478 195.78 153.995C194.87 154.501 193.864 154.754 192.762 154.754ZM192.762 153.084C193.538 153.084 194.229 152.91 194.836 152.562C195.443 152.202 195.915 151.696 196.253 151.044C196.601 150.381 196.775 149.617 196.775 148.751C196.775 147.886 196.601 147.127 196.253 146.475C195.915 145.823 195.443 145.323 194.836 144.974C194.229 144.626 193.538 144.452 192.762 144.452C191.987 144.452 191.295 144.626 190.688 144.974C190.081 145.323 189.604 145.823 189.255 146.475C188.918 147.127 188.749 147.886 188.749 148.751C188.749 149.617 188.918 150.381 189.255 151.044C189.604 151.696 190.081 152.202 190.688 152.562C191.295 152.91 191.987 153.084 192.762 153.084Z" fill="white"/>
<path d="M210.267 154.636H208.345L202.562 145.885L202.562 154.636H200.639L200.639 142.901H202.562L208.345 151.634V142.901L210.267 142.901L210.267 154.636Z" fill="white"/>
<path d="M214.713 142.917L214.713 154.636H212.791L212.791 142.917H214.713Z" fill="white"/>
<path d="M223.509 148.616C224.139 148.729 224.673 149.06 225.111 149.611C225.549 150.162 225.768 150.786 225.768 151.483C225.768 152.078 225.611 152.618 225.296 153.101C224.993 153.573 224.549 153.95 223.964 154.231C223.38 154.501 222.7 154.636 221.924 154.636H217.237V142.917H221.705C222.503 142.917 223.189 143.052 223.762 143.322C224.335 143.592 224.768 143.957 225.06 144.418C225.353 144.868 225.499 145.373 225.499 145.935C225.499 146.61 225.319 147.172 224.959 147.622C224.599 148.071 224.116 148.403 223.509 148.616ZM219.159 147.841H221.536C222.166 147.841 222.655 147.7 223.003 147.419C223.363 147.127 223.543 146.711 223.543 146.172C223.543 145.643 223.363 145.233 223.003 144.941C222.655 144.637 222.166 144.485 221.536 144.485H219.159V147.841ZM221.756 153.068C222.408 153.068 222.919 152.91 223.29 152.596C223.661 152.281 223.846 151.842 223.846 151.28C223.846 150.707 223.65 150.252 223.256 149.915C222.863 149.577 222.34 149.409 221.688 149.409H219.159V153.068H221.756Z" fill="white"/>
<path d="M229.779 153.084H233.742V154.636H227.857V142.917H229.779V153.084Z" fill="white"/>
<path d="M237.271 144.469V147.908H241.318V149.476H237.271V153.068L241.824 153.068V154.636L235.349 154.636V142.901H241.824V144.469H237.271Z" fill="white"/>
</svg>
