<svg width="392" height="224" viewBox="0 0 392 224" fill="none" xmlns="http://www.w3.org/2000/svg">
<path d="M174.487 77.7603V74.7123C178.207 71.6403 182.167 68.5923 182.167 65.6403C182.167 64.3683 181.591 63.5523 180.343 63.5523C179.119 63.5523 178.399 64.5123 178.399 66.1683H174.439C174.559 61.9203 177.319 60.0963 180.511 60.0963C184.495 60.0963 186.271 62.4243 186.271 65.3763C186.271 69.2163 182.839 72.2883 180.055 74.4243L186.535 74.4243V77.7603L174.487 77.7603Z" fill="black"/>
<path d="M188.342 69.0003C188.342 63.8643 190.094 60.1203 195.086 60.1203C200.078 60.1203 201.83 63.8643 201.83 69.0003C201.83 74.1843 200.078 77.9283 195.086 77.9283C190.094 77.9283 188.342 74.1843 188.342 69.0003ZM197.798 69.0003C197.798 66.3123 197.51 63.9603 195.086 63.9603C192.662 63.9603 192.374 66.3123 192.374 69.0003C192.374 71.7843 192.662 74.0883 195.086 74.0883C197.51 74.0883 197.798 71.7843 197.798 69.0003Z" fill="black"/>
<path d="M204.142 65.4243C204.286 61.9683 206.542 60.0723 210.118 60.0723C213.814 60.0723 215.806 62.1843 215.806 64.8243C215.806 67.1283 214.366 68.3523 213.166 68.7603V68.8563C214.918 69.4323 216.118 70.7763 216.118 73.0803C216.118 76.0323 214.006 78.1443 210.334 78.1443C206.686 78.1443 204.046 76.4163 203.926 72.4563L207.91 72.4563C207.934 73.8243 208.678 74.7363 210.19 74.7363C211.462 74.7363 212.158 73.9203 212.158 72.7683C212.158 71.2083 211.222 70.5843 209.086 70.5843H208.318V67.2483H209.086C210.478 67.2483 211.822 66.9123 211.822 65.3283C211.822 64.1523 211.126 63.5043 210.022 63.5043C208.702 63.5043 208.222 64.4643 208.15 65.4243L204.142 65.4243Z" fill="black"/>
<path d="M121.653 85.9283L121.653 97.0003L120.197 97.0003V88.7443L116.517 97.0003H115.493L111.797 88.7283L111.797 97.0003H110.341L110.341 85.9283H111.909L116.005 95.0803L120.101 85.9283H121.653Z" fill="black"/>
<path d="M127.947 97.1443C127.125 97.1443 126.379 96.9576 125.707 96.5843C125.045 96.2109 124.523 95.6829 124.139 95.0003C123.765 94.3069 123.579 93.5069 123.579 92.6003C123.579 91.7043 123.771 90.9149 124.155 90.2323C124.549 89.5389 125.083 89.0109 125.755 88.6483C126.427 88.2749 127.179 88.0883 128.011 88.0883C128.843 88.0883 129.595 88.2749 130.267 88.6483C130.939 89.0109 131.467 89.5336 131.851 90.2163C132.245 90.8989 132.443 91.6936 132.443 92.6003C132.443 93.5069 132.24 94.3069 131.835 95.0003C131.44 95.6829 130.901 96.2109 130.219 96.5843C129.536 96.9576 128.779 97.1443 127.947 97.1443ZM127.947 95.8643C128.469 95.8643 128.96 95.7416 129.419 95.4963C129.877 95.2509 130.245 94.8829 130.523 94.3923C130.811 93.9016 130.955 93.3043 130.955 92.6003C130.955 91.8963 130.816 91.2989 130.539 90.8083C130.261 90.3176 129.899 89.9549 129.451 89.7203C129.003 89.4749 128.517 89.3523 127.995 89.3523C127.461 89.3523 126.971 89.4749 126.523 89.7203C126.085 89.9549 125.733 90.3176 125.467 90.8083C125.2 91.2989 125.067 91.8963 125.067 92.6003C125.067 93.3149 125.195 93.9176 125.451 94.4083C125.717 94.8989 126.069 95.2669 126.507 95.5123C126.944 95.7469 127.424 95.8643 127.947 95.8643Z" fill="black"/>
<path d="M133.813 92.5843C133.813 91.6883 133.994 90.9043 134.357 90.2323C134.72 89.5496 135.216 89.0216 135.845 88.6483C136.485 88.2749 137.2 88.0883 137.989 88.0883C138.672 88.0883 139.306 88.2483 139.893 88.5683C140.48 88.8776 140.928 89.2883 141.237 89.8003V85.1603H142.709V97.0003H141.237V95.3523C140.949 95.8749 140.522 96.3069 139.957 96.6483C139.392 96.9789 138.73 97.1443 137.973 97.1443C137.194 97.1443 136.485 96.9523 135.845 96.5683C135.216 96.1843 134.72 95.6456 134.357 94.9523C133.994 94.2589 133.813 93.4696 133.813 92.5843ZM141.237 92.6003C141.237 91.9389 141.104 91.3629 140.837 90.8723C140.57 90.3816 140.208 90.0083 139.749 89.7523C139.301 89.4856 138.805 89.3523 138.261 89.3523C137.717 89.3523 137.221 89.4803 136.773 89.7363C136.325 89.9923 135.968 90.3656 135.701 90.8563C135.434 91.3469 135.301 91.9229 135.301 92.5843C135.301 93.2563 135.434 93.8429 135.701 94.3443C135.968 94.8349 136.325 95.2136 136.773 95.4803C137.221 95.7363 137.717 95.8643 138.261 95.8643C138.805 95.8643 139.301 95.7363 139.749 95.4803C140.208 95.2136 140.57 94.8349 140.837 94.3443C141.104 93.8429 141.237 93.2616 141.237 92.6003Z" fill="black"/>
<path d="M153.169 92.2803C153.169 92.5576 153.153 92.8509 153.121 93.1603L146.113 93.1603C146.167 94.0243 146.46 94.7016 146.993 95.1923C147.537 95.6723 148.193 95.9123 148.961 95.9123C149.591 95.9123 150.113 95.7683 150.529 95.4803C150.956 95.1816 151.255 94.7869 151.425 94.2963H152.993C152.759 95.1389 152.289 95.8269 151.585 96.3603C150.881 96.8829 150.007 97.1443 148.961 97.1443C148.129 97.1443 147.383 96.9576 146.721 96.5843C146.071 96.2109 145.559 95.6829 145.185 95.0003C144.812 94.3069 144.625 93.5069 144.625 92.6003C144.625 91.6936 144.807 90.8989 145.169 90.2163C145.532 89.5336 146.039 89.0109 146.689 88.6483C147.351 88.2749 148.108 88.0883 148.961 88.0883C149.793 88.0883 150.529 88.2696 151.169 88.6323C151.809 88.9949 152.3 89.4963 152.641 90.1363C152.993 90.7656 153.169 91.4803 153.169 92.2803ZM151.665 91.9763C151.665 91.4216 151.543 90.9469 151.297 90.5523C151.052 90.1469 150.716 89.8429 150.289 89.6403C149.873 89.4269 149.409 89.3203 148.897 89.3203C148.161 89.3203 147.532 89.5549 147.009 90.0243C146.497 90.4936 146.204 91.1443 146.129 91.9763L151.665 91.9763Z" fill="black"/>
<path d="M156.547 85.1603V97.0003H155.091V85.1603H156.547Z" fill="black"/>
<path d="M162.853 97.1443C162.031 97.1443 161.285 96.9576 160.613 96.5843C159.951 96.2109 159.429 95.6829 159.045 95.0003C158.671 94.3069 158.485 93.5069 158.485 92.6003C158.485 91.7043 158.677 90.9149 159.061 90.2323C159.455 89.5389 159.989 89.0109 160.661 88.6483C161.333 88.2749 162.085 88.0883 162.917 88.0883C163.749 88.0883 164.501 88.2749 165.173 88.6483C165.845 89.0109 166.373 89.5336 166.757 90.2163C167.151 90.8989 167.349 91.6936 167.349 92.6003C167.349 93.5069 167.146 94.3069 166.741 95.0003C166.346 95.6829 165.807 96.2109 165.125 96.5843C164.442 96.9576 163.685 97.1443 162.853 97.1443ZM162.853 95.8643C163.375 95.8643 163.866 95.7416 164.325 95.4963C164.783 95.2509 165.151 94.8829 165.429 94.3923C165.717 93.9016 165.861 93.3043 165.861 92.6003C165.861 91.8963 165.722 91.2989 165.445 90.8083C165.167 90.3176 164.805 89.9549 164.357 89.7203C163.909 89.4749 163.423 89.3523 162.901 89.3523C162.367 89.3523 161.877 89.4749 161.429 89.7203C160.991 89.9549 160.639 90.3176 160.373 90.8083C160.106 91.2989 159.973 91.8963 159.973 92.6003C159.973 93.3149 160.101 93.9176 160.357 94.4083C160.623 94.8989 160.975 95.2669 161.413 95.5123C161.85 95.7469 162.33 95.8643 162.853 95.8643Z" fill="black"/>
<path d="M180.121 94.5203H175.257L174.361 97.0003H172.825L176.857 85.9123H178.537L182.553 97.0003H181.017L180.121 94.5203ZM179.705 93.3363L177.689 87.7043L175.673 93.3363H179.705Z" fill="black"/>
<path d="M192.086 88.2323V97.0003H190.63V95.7043C190.353 96.1523 189.963 96.5043 189.462 96.7603C188.971 97.0056 188.427 97.1283 187.83 97.1283C187.147 97.1283 186.534 96.9896 185.99 96.7123C185.446 96.4243 185.014 95.9976 184.694 95.4323C184.385 94.8669 184.23 94.1789 184.23 93.3683V88.2323H185.67V93.1763C185.67 94.0403 185.889 94.7069 186.326 95.1763C186.763 95.6349 187.361 95.8643 188.118 95.8643C188.897 95.8643 189.51 95.6243 189.958 95.1443C190.406 94.6643 190.63 93.9656 190.63 93.0483V88.2323H192.086Z" fill="black"/>
<path d="M196 89.6563C196.256 89.1549 196.619 88.7656 197.088 88.4883C197.568 88.2109 198.15 88.0723 198.832 88.0723V89.5763H198.448C196.816 89.5763 196 90.4616 196 92.2323V97.0003H194.544V88.2323H196V89.6563Z" fill="black"/>
<path d="M199.969 92.5843C199.969 91.6883 200.151 90.9043 200.513 90.2323C200.876 89.5496 201.372 89.0216 202.001 88.6483C202.641 88.2749 203.351 88.0883 204.129 88.0883C204.897 88.0883 205.564 88.2536 206.129 88.5843C206.695 88.9149 207.116 89.3309 207.393 89.8323V88.2323H208.865V97.0003H207.393V95.3683C207.105 95.8803 206.673 96.3069 206.097 96.6483C205.532 96.9789 204.871 97.1443 204.113 97.1443C203.335 97.1443 202.631 96.9523 202.001 96.5683C201.372 96.1843 200.876 95.6456 200.513 94.9523C200.151 94.2589 199.969 93.4696 199.969 92.5843ZM207.393 92.6003C207.393 91.9389 207.26 91.3629 206.993 90.8723C206.727 90.3816 206.364 90.0083 205.905 89.7523C205.457 89.4856 204.961 89.3523 204.417 89.3523C203.873 89.3523 203.377 89.4803 202.929 89.7363C202.481 89.9923 202.124 90.3656 201.857 90.8563C201.591 91.3469 201.457 91.9229 201.457 92.5843C201.457 93.2563 201.591 93.8429 201.857 94.3443C202.124 94.8349 202.481 95.2136 202.929 95.4803C203.377 95.7363 203.873 95.8643 204.417 95.8643C204.961 95.8643 205.457 95.7363 205.905 95.4803C206.364 95.2136 206.727 94.8349 206.993 94.3443C207.26 93.8429 207.393 93.2616 207.393 92.6003Z" fill="black"/>
<path d="M219.335 99.9763C218.311 98.9736 217.511 97.6989 216.935 96.1523C216.37 94.6056 216.087 92.9363 216.087 91.1443C216.087 89.3096 216.386 87.5976 216.983 86.0083C217.591 84.4083 218.455 83.0909 219.575 82.0563H221.095V82.2003C219.901 83.3203 218.999 84.6696 218.391 86.2483C217.794 87.8163 217.495 89.4483 217.495 91.1443C217.495 92.7976 217.778 94.3763 218.343 95.8803C218.919 97.3843 219.757 98.7016 220.855 99.8323V99.9763L219.335 99.9763Z" fill="black"/>
<path d="M229.737 86.5683L225.289 97.0003H223.817L228.329 86.7123H222.153V85.4643H229.737V86.5683Z" fill="black"/>
<path d="M238.727 86.6963L233.111 86.6963V90.3443C233.357 90.0029 233.719 89.7256 234.199 89.5123C234.679 89.2883 235.197 89.1763 235.751 89.1763C236.637 89.1763 237.357 89.3629 237.911 89.7363C238.466 90.0989 238.861 90.5736 239.095 91.1603C239.341 91.7363 239.463 92.3496 239.463 93.0003C239.463 93.7683 239.319 94.4563 239.031 95.0643C238.743 95.6723 238.301 96.1523 237.703 96.5043C237.117 96.8563 236.386 97.0323 235.511 97.0323C234.391 97.0323 233.485 96.7443 232.791 96.1683C232.098 95.5923 231.677 94.8243 231.527 93.8643L232.951 93.8643C233.09 94.4723 233.383 94.9469 233.831 95.2883C234.279 95.6296 234.845 95.8003 235.527 95.8003C236.37 95.8003 237.005 95.5496 237.431 95.0483C237.858 94.5363 238.071 93.8643 238.071 93.0323C238.071 92.2003 237.858 91.5603 237.431 91.1123C237.005 90.6536 236.375 90.4243 235.543 90.4243C234.978 90.4243 234.482 90.5629 234.055 90.8403C233.639 91.1069 233.335 91.4749 233.143 91.9443H231.767V85.4163L238.727 85.4163V86.6963Z" fill="black"/>
<path d="M256.448 88.0723C257.13 88.0723 257.738 88.2163 258.272 88.5043C258.805 88.7816 259.226 89.2029 259.536 89.7683C259.845 90.3336 260 91.0216 260 91.8323V97.0003H258.56V92.0403C258.56 91.1656 258.341 90.4989 257.904 90.0403C257.477 89.5709 256.896 89.3363 256.16 89.3363C255.402 89.3363 254.8 89.5816 254.352 90.0723C253.904 90.5523 253.68 91.2509 253.68 92.1683V97.0003L252.24 97.0003V92.0403C252.24 91.1656 252.021 90.4989 251.584 90.0403C251.157 89.5709 250.576 89.3363 249.84 89.3363C249.082 89.3363 248.48 89.5816 248.032 90.0723C247.584 90.5523 247.36 91.2509 247.36 92.1683V97.0003H245.904V88.2323H247.36V89.4963C247.648 89.0376 248.032 88.6856 248.512 88.4403C249.002 88.1949 249.541 88.0723 250.128 88.0723C250.864 88.0723 251.514 88.2376 252.08 88.5683C252.645 88.8989 253.066 89.3843 253.344 90.0243C253.589 89.4056 253.994 88.9256 254.56 88.5843C255.125 88.2429 255.754 88.0723 256.448 88.0723Z" fill="black"/>
<path d="M261.972 95.8323C263.327 94.7443 264.388 93.8536 265.156 93.1603C265.924 92.4563 266.57 91.7256 267.092 90.9683C267.626 90.2003 267.892 89.4483 267.892 88.7123C267.892 88.0189 267.722 87.4749 267.38 87.0803C267.05 86.6749 266.511 86.4723 265.764 86.4723C265.039 86.4723 264.474 86.7016 264.068 87.1603C263.674 87.6083 263.46 88.2109 263.428 88.9683H262.02C262.063 87.7736 262.426 86.8509 263.108 86.2003C263.791 85.5496 264.671 85.2243 265.748 85.2243C266.847 85.2243 267.716 85.5283 268.356 86.1363C269.007 86.7443 269.332 87.5816 269.332 88.6483C269.332 89.5336 269.066 90.3976 268.532 91.2403C268.01 92.0723 267.412 92.8083 266.74 93.4483C266.068 94.0776 265.21 94.8136 264.164 95.6563L269.668 95.6563V96.8723L261.972 96.8723V95.8323Z" fill="black"/>
<path d="M271.127 99.9763V99.8323C272.226 98.7016 273.058 97.3843 273.623 95.8803C274.199 94.3763 274.487 92.7976 274.487 91.1443C274.487 89.4483 274.183 87.8163 273.575 86.2483C272.978 84.6696 272.082 83.3203 270.887 82.2003V82.0563H272.407C273.527 83.0909 274.386 84.4083 274.983 86.0083C275.591 87.5976 275.895 89.3096 275.895 91.1443C275.895 92.9363 275.607 94.6056 275.031 96.1523C274.466 97.6989 273.671 98.9736 272.647 99.9763H271.127Z" fill="black"/>
<path d="M149.28 105.76V104.432L152.288 104.432L152.288 116H150.816L150.816 105.76L149.28 105.76Z" fill="black"/>
<path d="M165.166 116L162.51 111.44H160.75L160.75 116H159.294L159.294 104.848H162.894C163.737 104.848 164.446 104.992 165.022 105.28C165.609 105.568 166.046 105.958 166.334 106.448C166.622 106.939 166.766 107.499 166.766 108.128C166.766 108.896 166.542 109.574 166.094 110.16C165.657 110.747 164.996 111.136 164.11 111.328L166.91 116L165.166 116ZM160.75 110.272H162.894C163.684 110.272 164.276 110.08 164.67 109.696C165.065 109.302 165.262 108.779 165.262 108.128C165.262 107.467 165.065 106.955 164.67 106.592C164.286 106.23 163.694 106.048 162.894 106.048H160.75V110.272Z" fill="black"/>
<path d="M177.029 111.28C177.029 111.558 177.013 111.851 176.981 112.16L169.973 112.16C170.026 113.024 170.319 113.702 170.853 114.192C171.397 114.672 172.053 114.912 172.821 114.912C173.45 114.912 173.973 114.768 174.389 114.48C174.815 114.182 175.114 113.787 175.285 113.296H176.853C176.618 114.139 176.149 114.827 175.445 115.36C174.741 115.883 173.866 116.144 172.821 116.144C171.989 116.144 171.242 115.958 170.581 115.584C169.93 115.211 169.418 114.683 169.045 114C168.671 113.307 168.485 112.507 168.485 111.6C168.485 110.694 168.666 109.899 169.029 109.216C169.391 108.534 169.898 108.011 170.549 107.648C171.21 107.275 171.967 107.088 172.821 107.088C173.653 107.088 174.389 107.27 175.029 107.632C175.669 107.995 176.159 108.496 176.501 109.136C176.853 109.766 177.029 110.48 177.029 111.28ZM175.525 110.976C175.525 110.422 175.402 109.947 175.157 109.552C174.911 109.147 174.575 108.843 174.149 108.64C173.733 108.427 173.269 108.32 172.757 108.32C172.021 108.32 171.391 108.555 170.869 109.024C170.357 109.494 170.063 110.144 169.989 110.976L175.525 110.976Z" fill="black"/>
<path d="M178.407 111.6C178.407 110.694 178.588 109.904 178.951 109.232C179.313 108.55 179.815 108.022 180.455 107.648C181.105 107.275 181.847 107.088 182.679 107.088C183.756 107.088 184.641 107.35 185.335 107.872C186.039 108.395 186.503 109.12 186.727 110.048H185.159C185.009 109.515 184.716 109.094 184.279 108.784C183.852 108.475 183.319 108.32 182.679 108.32C181.847 108.32 181.175 108.608 180.663 109.184C180.151 109.75 179.895 110.555 179.895 111.6C179.895 112.656 180.151 113.472 180.663 114.048C181.175 114.624 181.847 114.912 182.679 114.912C183.319 114.912 183.852 114.763 184.279 114.464C184.705 114.166 184.999 113.739 185.159 113.184H186.727C186.492 114.08 186.023 114.8 185.319 115.344C184.615 115.878 183.735 116.144 182.679 116.144C181.847 116.144 181.105 115.958 180.455 115.584C179.815 115.211 179.313 114.683 178.951 114C178.588 113.318 178.407 112.518 178.407 111.6Z" fill="black"/>
<path d="M188.125 111.584C188.125 110.688 188.307 109.904 188.669 109.232C189.032 108.55 189.528 108.022 190.157 107.648C190.797 107.275 191.507 107.088 192.285 107.088C193.053 107.088 193.72 107.254 194.285 107.584C194.851 107.915 195.272 108.331 195.549 108.832V107.232H197.021L197.021 116H195.549V114.368C195.261 114.88 194.829 115.307 194.253 115.648C193.688 115.979 193.027 116.144 192.269 116.144C191.491 116.144 190.787 115.952 190.157 115.568C189.528 115.184 189.032 114.646 188.669 113.952C188.307 113.259 188.125 112.47 188.125 111.584ZM195.549 111.6C195.549 110.939 195.416 110.363 195.149 109.872C194.883 109.382 194.52 109.008 194.061 108.752C193.613 108.486 193.117 108.352 192.573 108.352C192.029 108.352 191.533 108.48 191.085 108.736C190.637 108.992 190.28 109.366 190.013 109.856C189.747 110.347 189.613 110.923 189.613 111.584C189.613 112.256 189.747 112.843 190.013 113.344C190.28 113.835 190.637 114.214 191.085 114.48C191.533 114.736 192.029 114.864 192.573 114.864C193.117 114.864 193.613 114.736 194.061 114.48C194.52 114.214 194.883 113.835 195.149 113.344C195.416 112.843 195.549 112.262 195.549 111.6ZM194.413 104.752L191.005 106.576L191.005 105.488L194.413 103.488V104.752Z" fill="black"/>
<path d="M210.026 107.072C210.709 107.072 211.317 107.216 211.85 107.504C212.383 107.782 212.805 108.203 213.114 108.768C213.423 109.334 213.578 110.022 213.578 110.832L213.578 116H212.138L212.138 111.04C212.138 110.166 211.919 109.499 211.482 109.04C211.055 108.571 210.474 108.336 209.738 108.336C208.981 108.336 208.378 108.582 207.93 109.072C207.482 109.552 207.258 110.251 207.258 111.168L207.258 116H205.818L205.818 111.04C205.818 110.166 205.599 109.499 205.162 109.04C204.735 108.571 204.154 108.336 203.418 108.336C202.661 108.336 202.058 108.582 201.61 109.072C201.162 109.552 200.938 110.251 200.938 111.168L200.938 116H199.482L199.482 107.232H200.938V108.496C201.226 108.038 201.61 107.686 202.09 107.44C202.581 107.195 203.119 107.072 203.706 107.072C204.442 107.072 205.093 107.238 205.658 107.568C206.223 107.899 206.645 108.384 206.922 109.024C207.167 108.406 207.573 107.926 208.138 107.584C208.703 107.243 209.333 107.072 210.026 107.072Z" fill="black"/>
<path d="M215.422 111.584C215.422 110.688 215.604 109.904 215.966 109.232C216.329 108.55 216.825 108.022 217.454 107.648C218.094 107.275 218.804 107.088 219.582 107.088C220.35 107.088 221.017 107.254 221.582 107.584C222.148 107.915 222.569 108.331 222.846 108.832V107.232H224.318L224.318 116H222.846V114.368C222.558 114.88 222.126 115.307 221.55 115.648C220.985 115.979 220.324 116.144 219.566 116.144C218.788 116.144 218.084 115.952 217.454 115.568C216.825 115.184 216.329 114.646 215.966 113.952C215.604 113.259 215.422 112.47 215.422 111.584ZM222.846 111.6C222.846 110.939 222.713 110.363 222.446 109.872C222.18 109.382 221.817 109.008 221.358 108.752C220.91 108.486 220.414 108.352 219.87 108.352C219.326 108.352 218.83 108.48 218.382 108.736C217.934 108.992 217.577 109.366 217.31 109.856C217.044 110.347 216.91 110.923 216.91 111.584C216.91 112.256 217.044 112.843 217.31 113.344C217.577 113.835 217.934 114.214 218.382 114.48C218.83 114.736 219.326 114.864 219.87 114.864C220.414 114.864 220.91 114.736 221.358 114.48C221.817 114.214 222.18 113.835 222.446 113.344C222.713 112.843 222.846 112.262 222.846 111.6Z" fill="black"/>
<path d="M228.235 108.656C228.491 108.155 228.853 107.766 229.323 107.488C229.803 107.211 230.384 107.072 231.067 107.072V108.576H230.683C229.051 108.576 228.235 109.462 228.235 111.232L228.235 116H226.779L226.779 107.232H228.235V108.656Z" fill="black"/>
<path d="M232.204 111.584C232.204 110.688 232.385 109.904 232.748 109.232C233.11 108.55 233.606 108.022 234.236 107.648C234.876 107.275 235.585 107.088 236.364 107.088C237.132 107.088 237.798 107.254 238.364 107.584C238.929 107.915 239.35 108.331 239.628 108.832V107.232H241.1V116H239.628V114.368C239.34 114.88 238.908 115.307 238.332 115.648C237.766 115.979 237.105 116.144 236.348 116.144C235.569 116.144 234.865 115.952 234.236 115.568C233.606 115.184 233.11 114.646 232.748 113.952C232.385 113.259 232.204 112.47 232.204 111.584ZM239.628 111.6C239.628 110.939 239.494 110.363 239.228 109.872C238.961 109.382 238.598 109.008 238.14 108.752C237.692 108.486 237.196 108.352 236.652 108.352C236.108 108.352 235.612 108.48 235.164 108.736C234.716 108.992 234.358 109.366 234.092 109.856C233.825 110.347 233.692 110.923 233.692 111.584C233.692 112.256 233.825 112.843 234.092 113.344C234.358 113.835 234.716 114.214 235.164 114.48C235.612 114.736 236.108 114.864 236.652 114.864C237.196 114.864 237.692 114.736 238.14 114.48C238.598 114.214 238.961 113.835 239.228 113.344C239.494 112.843 239.628 112.262 239.628 111.6Z" fill="black"/>
<rect x="139" y="132" width="114" height="34" rx="17" fill="#67742A"/>
<rect x="139" y="132" width="114" height="34" rx="17" fill="black" fill-opacity="0.2"/>
<path d="M154.642 142.917C155.89 142.917 156.98 143.159 157.913 143.642C158.857 144.114 159.582 144.8 160.088 145.699C160.605 146.587 160.864 147.627 160.864 148.819C160.864 150.01 160.605 151.044 160.088 151.921C159.582 152.798 158.857 153.472 157.913 153.944C156.98 154.405 155.89 154.636 154.642 154.636H150.814L150.814 142.917H154.642ZM154.642 153.068C156.013 153.068 157.064 152.697 157.795 151.955C158.525 151.213 158.891 150.168 158.891 148.819C158.891 147.459 158.525 146.396 157.795 145.632C157.064 144.868 156.013 144.485 154.642 144.485H152.737L152.737 153.068H154.642Z" fill="white"/>
<path d="M164.691 142.917L164.691 154.636H162.769L162.769 142.917H164.691Z" fill="white"/>
<path d="M171.075 154.754C170.289 154.754 169.58 154.619 168.951 154.349C168.321 154.068 167.827 153.675 167.467 153.169C167.108 152.663 166.928 152.073 166.928 151.398H168.985C169.03 151.904 169.226 152.32 169.575 152.646C169.935 152.972 170.435 153.135 171.075 153.135C171.739 153.135 172.256 152.978 172.627 152.663C172.998 152.337 173.183 151.921 173.183 151.415C173.183 151.022 173.065 150.701 172.829 150.454C172.604 150.207 172.318 150.016 171.969 149.881C171.632 149.746 171.16 149.6 170.553 149.443C169.788 149.24 169.165 149.038 168.681 148.836C168.209 148.622 167.804 148.296 167.467 147.858C167.13 147.419 166.961 146.835 166.961 146.104C166.961 145.43 167.13 144.84 167.467 144.334C167.804 143.828 168.277 143.44 168.884 143.17C169.491 142.901 170.193 142.766 170.991 142.766C172.126 142.766 173.054 143.052 173.773 143.626C174.504 144.188 174.908 144.963 174.987 145.952H172.863C172.829 145.525 172.627 145.16 172.256 144.856C171.885 144.553 171.396 144.401 170.789 144.401C170.238 144.401 169.788 144.542 169.44 144.823C169.091 145.104 168.917 145.508 168.917 146.037C168.917 146.396 169.024 146.694 169.238 146.93C169.462 147.155 169.743 147.335 170.081 147.47C170.418 147.605 170.879 147.751 171.463 147.908C172.239 148.122 172.868 148.335 173.352 148.549C173.846 148.762 174.262 149.094 174.599 149.544C174.948 149.982 175.122 150.572 175.122 151.314C175.122 151.91 174.959 152.472 174.633 153C174.318 153.528 173.852 153.956 173.234 154.282C172.627 154.596 171.907 154.754 171.075 154.754Z" fill="white"/>
<path d="M185.584 146.408C185.584 147.003 185.444 147.565 185.163 148.094C184.882 148.622 184.432 149.055 183.814 149.392C183.196 149.718 182.403 149.881 181.437 149.881H179.312L179.312 154.636H177.39L177.39 142.917H181.437C182.336 142.917 183.095 143.075 183.713 143.389C184.342 143.693 184.809 144.109 185.112 144.637C185.427 145.165 185.584 145.756 185.584 146.408ZM181.437 148.313C182.167 148.313 182.713 148.15 183.072 147.824C183.432 147.487 183.612 147.015 183.612 146.408C183.612 145.126 182.887 144.485 181.437 144.485H179.312V148.313H181.437Z" fill="white"/>
<path d="M192.763 154.754C191.672 154.754 190.666 154.501 189.745 153.995C188.834 153.478 188.109 152.764 187.569 151.854C187.041 150.932 186.777 149.898 186.777 148.751C186.777 147.605 187.041 146.576 187.569 145.666C188.109 144.755 188.834 144.047 189.745 143.541C190.666 143.024 191.672 142.766 192.763 142.766C193.864 142.766 194.87 143.024 195.781 143.541C196.702 144.047 197.427 144.755 197.956 145.666C198.484 146.576 198.748 147.605 198.748 148.751C198.748 149.898 198.484 150.932 197.956 151.854C197.427 152.764 196.702 153.478 195.781 153.995C194.87 154.501 193.864 154.754 192.763 154.754ZM192.763 153.084C193.538 153.084 194.23 152.91 194.836 152.562C195.443 152.202 195.916 151.696 196.253 151.044C196.601 150.381 196.776 149.617 196.776 148.751C196.776 147.886 196.601 147.127 196.253 146.475C195.916 145.823 195.443 145.323 194.836 144.974C194.23 144.626 193.538 144.452 192.763 144.452C191.987 144.452 191.296 144.626 190.689 144.974C190.082 145.323 189.604 145.823 189.256 146.475C188.918 147.127 188.75 147.886 188.75 148.751C188.75 149.617 188.918 150.381 189.256 151.044C189.604 151.696 190.082 152.202 190.689 152.562C191.296 152.91 191.987 153.084 192.763 153.084Z" fill="white"/>
<path d="M210.267 154.636H208.345L202.562 145.885L202.562 154.636H200.64L200.64 142.901H202.562L208.345 151.634V142.901L210.267 142.901L210.267 154.636Z" fill="white"/>
<path d="M214.714 142.917L214.714 154.636H212.791L212.791 142.917H214.714Z" fill="white"/>
<path d="M223.509 148.616C224.139 148.729 224.673 149.06 225.111 149.611C225.55 150.162 225.769 150.786 225.769 151.483C225.769 152.078 225.611 152.618 225.297 153.101C224.993 153.573 224.549 153.95 223.965 154.231C223.38 154.501 222.7 154.636 221.924 154.636H217.237V142.917H221.705C222.503 142.917 223.189 143.052 223.762 143.322C224.336 143.592 224.768 143.957 225.061 144.418C225.353 144.868 225.499 145.373 225.499 145.935C225.499 146.61 225.319 147.172 224.959 147.622C224.6 148.071 224.116 148.403 223.509 148.616ZM219.159 147.841H221.537C222.166 147.841 222.655 147.7 223.004 147.419C223.363 147.127 223.543 146.711 223.543 146.172C223.543 145.643 223.363 145.233 223.004 144.941C222.655 144.637 222.166 144.485 221.537 144.485H219.159V147.841ZM221.756 153.068C222.408 153.068 222.919 152.91 223.29 152.596C223.661 152.281 223.847 151.842 223.847 151.28C223.847 150.707 223.65 150.252 223.256 149.915C222.863 149.577 222.34 149.409 221.688 149.409H219.159V153.068H221.756Z" fill="white"/>
<path d="M229.78 153.084H233.742V154.636H227.857V142.917H229.78V153.084Z" fill="white"/>
<path d="M237.272 144.469V147.908H241.318V149.476H237.272V153.068L241.824 153.068V154.636L235.349 154.636V142.901H241.824V144.469H237.272Z" fill="white"/>
</svg>
