<svg width="392" height="330" viewBox="0 0 392 330" fill="none" xmlns="http://www.w3.org/2000/svg">
<path d="M179.329 132L179.329 118.296H176.953V114.48H183.601L183.601 132L179.329 132Z" fill="black"/>
<path d="M186.408 123C186.408 117.864 188.16 114.12 193.152 114.12C198.144 114.12 199.896 117.864 199.896 123C199.896 128.184 198.144 131.928 193.152 131.928C188.16 131.928 186.408 128.184 186.408 123ZM195.864 123C195.864 120.312 195.576 117.96 193.152 117.96C190.728 117.96 190.44 120.312 190.44 123C190.44 125.784 190.728 128.088 193.152 128.088C195.576 128.088 195.864 125.784 195.864 123Z" fill="black"/>
<path d="M201.92 131.76V128.712C205.64 125.64 209.6 122.592 209.6 119.64C209.6 118.368 209.024 117.552 207.776 117.552C206.552 117.552 205.832 118.512 205.832 120.168H201.872C201.992 115.92 204.752 114.096 207.944 114.096C211.928 114.096 213.704 116.424 213.704 119.376C213.704 123.216 210.272 126.288 207.488 128.424L213.968 128.424V131.76H201.92Z" fill="black"/>
<path d="M116.864 139.928L116.864 151L115.408 151V142.744L111.728 151H110.704L107.008 142.728L107.008 151H105.552L105.552 139.928H107.12L111.216 149.08L115.312 139.928H116.864Z" fill="black"/>
<path d="M123.157 151.144C122.336 151.144 121.589 150.957 120.917 150.584C120.256 150.21 119.733 149.682 119.349 149C118.976 148.306 118.789 147.506 118.789 146.6C118.789 145.704 118.981 144.914 119.365 144.232C119.76 143.538 120.293 143.01 120.965 142.648C121.637 142.274 122.389 142.088 123.221 142.088C124.053 142.088 124.805 142.274 125.477 142.648C126.149 143.01 126.677 143.533 127.061 144.216C127.456 144.898 127.653 145.693 127.653 146.6C127.653 147.506 127.451 148.306 127.045 149C126.651 149.682 126.112 150.21 125.429 150.584C124.747 150.957 123.989 151.144 123.157 151.144ZM123.157 149.864C123.68 149.864 124.171 149.741 124.629 149.496C125.088 149.25 125.456 148.882 125.733 148.392C126.021 147.901 126.165 147.304 126.165 146.6C126.165 145.896 126.027 145.298 125.749 144.808C125.472 144.317 125.109 143.954 124.661 143.72C124.213 143.474 123.728 143.352 123.205 143.352C122.672 143.352 122.181 143.474 121.733 143.72C121.296 143.954 120.944 144.317 120.677 144.808C120.411 145.298 120.277 145.896 120.277 146.6C120.277 147.314 120.405 147.917 120.661 148.408C120.928 148.898 121.28 149.266 121.717 149.512C122.155 149.746 122.635 149.864 123.157 149.864Z" fill="black"/>
<path d="M129.024 146.584C129.024 145.688 129.205 144.904 129.568 144.232C129.931 143.549 130.427 143.021 131.056 142.648C131.696 142.274 132.411 142.088 133.2 142.088C133.883 142.088 134.517 142.248 135.104 142.568C135.691 142.877 136.139 143.288 136.448 143.8V139.16H137.92V151H136.448V149.352C136.16 149.874 135.733 150.306 135.168 150.648C134.603 150.978 133.941 151.144 133.184 151.144C132.405 151.144 131.696 150.952 131.056 150.568C130.427 150.184 129.931 149.645 129.568 148.952C129.205 148.258 129.024 147.469 129.024 146.584ZM136.448 146.6C136.448 145.938 136.315 145.362 136.048 144.872C135.781 144.381 135.419 144.008 134.96 143.752C134.512 143.485 134.016 143.352 133.472 143.352C132.928 143.352 132.432 143.48 131.984 143.736C131.536 143.992 131.179 144.365 130.912 144.856C130.645 145.346 130.512 145.922 130.512 146.584C130.512 147.256 130.645 147.842 130.912 148.344C131.179 148.834 131.536 149.213 131.984 149.48C132.432 149.736 132.928 149.864 133.472 149.864C134.016 149.864 134.512 149.736 134.96 149.48C135.419 149.213 135.781 148.834 136.048 148.344C136.315 147.842 136.448 147.261 136.448 146.6Z" fill="black"/>
<path d="M148.38 146.28C148.38 146.557 148.364 146.85 148.332 147.16H141.324C141.378 148.024 141.671 148.701 142.204 149.192C142.748 149.672 143.404 149.912 144.172 149.912C144.802 149.912 145.324 149.768 145.74 149.48C146.167 149.181 146.466 148.786 146.636 148.296H148.204C147.97 149.138 147.5 149.826 146.796 150.36C146.092 150.882 145.218 151.144 144.172 151.144C143.34 151.144 142.594 150.957 141.932 150.584C141.282 150.21 140.77 149.682 140.396 149C140.023 148.306 139.836 147.506 139.836 146.6C139.836 145.693 140.018 144.898 140.38 144.216C140.743 143.533 141.25 143.01 141.9 142.648C142.562 142.274 143.319 142.088 144.172 142.088C145.004 142.088 145.74 142.269 146.38 142.632C147.02 142.994 147.511 143.496 147.852 144.136C148.204 144.765 148.38 145.48 148.38 146.28ZM146.876 145.976C146.876 145.421 146.754 144.946 146.508 144.552C146.263 144.146 145.927 143.842 145.5 143.64C145.084 143.426 144.62 143.32 144.108 143.32C143.372 143.32 142.743 143.554 142.22 144.024C141.708 144.493 141.415 145.144 141.34 145.976H146.876Z" fill="black"/>
<path d="M151.758 139.16V151H150.302V139.16H151.758Z" fill="black"/>
<path d="M158.064 151.144C157.242 151.144 156.496 150.957 155.824 150.584C155.162 150.21 154.64 149.682 154.256 149C153.882 148.306 153.696 147.506 153.696 146.6C153.696 145.704 153.888 144.914 154.272 144.232C154.666 143.538 155.2 143.01 155.872 142.648C156.544 142.274 157.296 142.088 158.128 142.088C158.96 142.088 159.712 142.274 160.384 142.648C161.056 143.01 161.584 143.533 161.968 144.216C162.362 144.898 162.56 145.693 162.56 146.6C162.56 147.506 162.357 148.306 161.952 149C161.557 149.682 161.018 150.21 160.336 150.584C159.653 150.957 158.896 151.144 158.064 151.144ZM158.064 149.864C158.586 149.864 159.077 149.741 159.536 149.496C159.994 149.25 160.362 148.882 160.64 148.392C160.928 147.901 161.072 147.304 161.072 146.6C161.072 145.896 160.933 145.298 160.656 144.808C160.378 144.317 160.016 143.954 159.568 143.72C159.12 143.474 158.634 143.352 158.112 143.352C157.578 143.352 157.088 143.474 156.64 143.72C156.202 143.954 155.85 144.317 155.584 144.808C155.317 145.298 155.184 145.896 155.184 146.6C155.184 147.314 155.312 147.917 155.568 148.408C155.834 148.898 156.186 149.266 156.624 149.512C157.061 149.746 157.541 149.864 158.064 149.864Z" fill="black"/>
<path d="M170.196 149.816H174.1V151H168.74V139.848H170.196V149.816Z" fill="black"/>
<path d="M179.47 151.144C178.649 151.144 177.902 150.957 177.23 150.584C176.569 150.21 176.046 149.682 175.662 149C175.289 148.306 175.102 147.506 175.102 146.6C175.102 145.704 175.294 144.914 175.678 144.232C176.073 143.538 176.606 143.01 177.278 142.648C177.95 142.274 178.702 142.088 179.534 142.088C180.366 142.088 181.118 142.274 181.79 142.648C182.462 143.01 182.99 143.533 183.374 144.216C183.769 144.898 183.966 145.693 183.966 146.6C183.966 147.506 183.763 148.306 183.358 149C182.963 149.682 182.425 150.21 181.742 150.584C181.059 150.957 180.302 151.144 179.47 151.144ZM179.47 149.864C179.993 149.864 180.483 149.741 180.942 149.496C181.401 149.25 181.769 148.882 182.046 148.392C182.334 147.901 182.478 147.304 182.478 146.6C182.478 145.896 182.339 145.298 182.062 144.808C181.785 144.317 181.422 143.954 180.974 143.72C180.526 143.474 180.041 143.352 179.518 143.352C178.985 143.352 178.494 143.474 178.046 143.72C177.609 143.954 177.257 144.317 176.99 144.808C176.723 145.298 176.59 145.896 176.59 146.6C176.59 147.314 176.718 147.917 176.974 148.408C177.241 148.898 177.593 149.266 178.03 149.512C178.467 149.746 178.947 149.864 179.47 149.864Z" fill="black"/>
<path d="M187.656 143.432V148.6C187.656 149.026 187.747 149.33 187.928 149.512C188.11 149.682 188.424 149.768 188.872 149.768H189.944V151H188.632C187.822 151 187.214 150.813 186.808 150.44C186.403 150.066 186.2 149.453 186.2 148.6V143.432H185.064V142.232H186.2V140.024H187.656V142.232H189.944V143.432H187.656Z" fill="black"/>
<path d="M199.484 142.232V151H198.028V149.704C197.751 150.152 197.362 150.504 196.86 150.76C196.37 151.005 195.826 151.128 195.228 151.128C194.546 151.128 193.932 150.989 193.388 150.712C192.844 150.424 192.412 149.997 192.092 149.432C191.783 148.866 191.628 148.178 191.628 147.368V142.232H193.068V147.176C193.068 148.04 193.287 148.706 193.724 149.176C194.162 149.634 194.759 149.864 195.516 149.864C196.295 149.864 196.908 149.624 197.356 149.144C197.804 148.664 198.028 147.965 198.028 147.048V142.232H199.484Z" fill="black"/>
<path d="M205.047 151.144C204.375 151.144 203.772 151.032 203.239 150.808C202.706 150.573 202.284 150.253 201.975 149.848C201.666 149.432 201.495 148.957 201.463 148.424H202.967C203.01 148.861 203.212 149.218 203.575 149.496C203.948 149.773 204.434 149.912 205.031 149.912C205.586 149.912 206.023 149.789 206.343 149.544C206.663 149.298 206.823 148.989 206.823 148.616C206.823 148.232 206.652 147.949 206.311 147.768C205.97 147.576 205.442 147.389 204.727 147.208C204.076 147.037 203.543 146.866 203.127 146.696C202.722 146.514 202.37 146.253 202.071 145.912C201.783 145.56 201.639 145.101 201.639 144.536C201.639 144.088 201.772 143.677 202.039 143.304C202.306 142.93 202.684 142.637 203.175 142.424C203.666 142.2 204.226 142.088 204.855 142.088C205.826 142.088 206.61 142.333 207.207 142.824C207.804 143.314 208.124 143.986 208.167 144.84H206.711C206.679 144.381 206.492 144.013 206.151 143.736C205.82 143.458 205.372 143.32 204.807 143.32C204.284 143.32 203.868 143.432 203.559 143.656C203.25 143.88 203.095 144.173 203.095 144.536C203.095 144.824 203.186 145.064 203.367 145.256C203.559 145.437 203.794 145.586 204.071 145.704C204.359 145.81 204.754 145.933 205.255 146.072C205.884 146.242 206.396 146.413 206.791 146.584C207.186 146.744 207.522 146.989 207.799 147.32C208.087 147.65 208.236 148.082 208.247 148.616C208.247 149.096 208.114 149.528 207.847 149.912C207.58 150.296 207.202 150.6 206.711 150.824C206.231 151.037 205.676 151.144 205.047 151.144Z" fill="black"/>
<path d="M218.312 153.976C217.288 152.973 216.488 151.698 215.912 150.152C215.347 148.605 215.064 146.936 215.064 145.144C215.064 143.309 215.363 141.597 215.96 140.008C216.568 138.408 217.432 137.09 218.552 136.056H220.072V136.2C218.877 137.32 217.976 138.669 217.368 140.248C216.771 141.816 216.472 143.448 216.472 145.144C216.472 146.797 216.755 148.376 217.32 149.88C217.896 151.384 218.733 152.701 219.832 153.832V153.976H218.312Z" fill="black"/>
<path d="M221.209 140.76V139.432H224.217V151H222.745V140.76H221.209Z" fill="black"/>
<path d="M226.686 142.344C226.761 141.362 227.14 140.594 227.822 140.04C228.505 139.485 229.39 139.208 230.478 139.208C231.204 139.208 231.828 139.341 232.35 139.608C232.884 139.864 233.284 140.216 233.55 140.664C233.828 141.112 233.967 141.618 233.967 142.184C233.967 142.845 233.774 143.416 233.39 143.896C233.017 144.376 232.526 144.685 231.918 144.824V144.904C232.612 145.074 233.161 145.41 233.566 145.912C233.972 146.413 234.174 147.069 234.174 147.88C234.174 148.488 234.036 149.037 233.758 149.528C233.481 150.008 233.065 150.386 232.51 150.664C231.956 150.941 231.289 151.08 230.51 151.08C229.38 151.08 228.452 150.786 227.726 150.2C227.001 149.602 226.596 148.76 226.51 147.672L227.918 147.672C227.993 148.312 228.254 148.834 228.702 149.24C229.15 149.645 229.748 149.848 230.494 149.848C231.241 149.848 231.806 149.656 232.19 149.272C232.585 148.877 232.782 148.37 232.782 147.752C232.782 146.952 232.516 146.376 231.982 146.024C231.449 145.672 230.644 145.496 229.566 145.496H229.198V144.28H229.582C230.564 144.269 231.305 144.109 231.806 143.8C232.308 143.48 232.558 142.989 232.558 142.328C232.558 141.762 232.372 141.309 231.998 140.968C231.636 140.626 231.113 140.456 230.43 140.456C229.769 140.456 229.236 140.626 228.83 140.968C228.425 141.309 228.185 141.768 228.11 142.344H226.686Z" fill="black"/>
<path d="M236.14 145.096C236.14 143.261 236.439 141.832 237.036 140.808C237.634 139.773 238.679 139.256 240.172 139.256C241.655 139.256 242.695 139.773 243.292 140.808C243.89 141.832 244.188 143.261 244.188 145.096C244.188 146.962 243.89 148.413 243.292 149.448C242.695 150.482 241.655 151 240.172 151C238.679 151 237.634 150.482 237.036 149.448C236.439 148.413 236.14 146.962 236.14 145.096ZM242.748 145.096C242.748 144.168 242.684 143.384 242.556 142.744C242.439 142.093 242.188 141.57 241.804 141.176C241.431 140.781 240.887 140.584 240.172 140.584C239.447 140.584 238.892 140.781 238.508 141.176C238.135 141.57 237.884 142.093 237.756 142.744C237.639 143.384 237.58 144.168 237.58 145.096C237.58 146.056 237.639 146.861 237.756 147.512C237.884 148.162 238.135 148.685 238.508 149.08C238.892 149.474 239.447 149.672 240.172 149.672C240.887 149.672 241.431 149.474 241.804 149.08C242.188 148.685 242.439 148.162 242.556 147.512C242.684 146.861 242.748 146.056 242.748 145.096Z" fill="black"/>
<path d="M261.237 142.072C261.92 142.072 262.528 142.216 263.061 142.504C263.594 142.781 264.016 143.202 264.325 143.768C264.634 144.333 264.789 145.021 264.789 145.832V151H263.349V146.04C263.349 145.165 263.13 144.498 262.693 144.04C262.266 143.57 261.685 143.336 260.949 143.336C260.192 143.336 259.589 143.581 259.141 144.072C258.693 144.552 258.469 145.25 258.469 146.168V151H257.029V146.04C257.029 145.165 256.81 144.498 256.373 144.04C255.946 143.57 255.365 143.336 254.629 143.336C253.872 143.336 253.269 143.581 252.821 144.072C252.373 144.552 252.149 145.25 252.149 146.168V151H250.693V142.232H252.149V143.496C252.437 143.037 252.821 142.685 253.301 142.44C253.792 142.194 254.33 142.072 254.917 142.072C255.653 142.072 256.304 142.237 256.869 142.568C257.434 142.898 257.856 143.384 258.133 144.024C258.378 143.405 258.784 142.925 259.349 142.584C259.914 142.242 260.544 142.072 261.237 142.072Z" fill="black"/>
<path d="M266.761 149.832C268.116 148.744 269.177 147.853 269.945 147.16C270.713 146.456 271.359 145.725 271.881 144.968C272.415 144.2 272.681 143.448 272.681 142.712C272.681 142.018 272.511 141.474 272.169 141.08C271.839 140.674 271.3 140.472 270.553 140.472C269.828 140.472 269.263 140.701 268.857 141.16C268.463 141.608 268.249 142.21 268.217 142.968H266.809C266.852 141.773 267.215 140.85 267.897 140.2C268.58 139.549 269.46 139.224 270.537 139.224C271.636 139.224 272.505 139.528 273.145 140.136C273.796 140.744 274.121 141.581 274.121 142.648C274.121 143.533 273.855 144.397 273.321 145.24C272.799 146.072 272.201 146.808 271.529 147.448C270.857 148.077 269.999 148.813 268.953 149.656H274.457V150.872H266.761V149.832Z" fill="black"/>
<path d="M275.916 153.976V153.832C277.015 152.701 277.847 151.384 278.412 149.88C278.988 148.376 279.276 146.797 279.276 145.144C279.276 143.448 278.972 141.816 278.364 140.248C277.767 138.669 276.871 137.32 275.676 136.2V136.056H277.196C278.316 137.09 279.175 138.408 279.772 140.008C280.38 141.597 280.684 143.309 280.684 145.144C280.684 146.936 280.396 148.605 279.82 150.152C279.255 151.698 278.46 152.973 277.436 153.976H275.916Z" fill="black"/>
<path d="M143.269 168.832C144.624 167.744 145.685 166.853 146.453 166.16C147.221 165.456 147.866 164.725 148.389 163.968C148.922 163.2 149.189 162.448 149.189 161.712C149.189 161.018 149.018 160.474 148.677 160.08C148.346 159.674 147.808 159.472 147.061 159.472C146.336 159.472 145.77 159.701 145.365 160.16C144.97 160.608 144.757 161.21 144.725 161.968H143.317C143.36 160.773 143.722 159.85 144.405 159.2C145.088 158.549 145.968 158.224 147.045 158.224C148.144 158.224 149.013 158.528 149.653 159.136C150.304 159.744 150.629 160.581 150.629 161.648C150.629 162.533 150.362 163.397 149.829 164.24C149.306 165.072 148.709 165.808 148.037 166.448C147.365 167.077 146.506 167.813 145.461 168.656L150.965 168.656V169.872L143.269 169.872V168.832Z" fill="black"/>
<path d="M163.026 170L160.37 165.44H158.61V170H157.154V158.848H160.754C161.596 158.848 162.306 158.992 162.882 159.28C163.468 159.568 163.906 159.957 164.194 160.448C164.482 160.938 164.626 161.498 164.626 162.128C164.626 162.896 164.402 163.573 163.954 164.16C163.516 164.746 162.855 165.136 161.97 165.328L164.77 170H163.026ZM158.61 164.272H160.754C161.543 164.272 162.135 164.08 162.53 163.696C162.924 163.301 163.122 162.778 163.122 162.128C163.122 161.466 162.924 160.954 162.53 160.592C162.146 160.229 161.554 160.048 160.754 160.048H158.61V164.272Z" fill="black"/>
<path d="M174.888 165.28C174.888 165.557 174.872 165.85 174.84 166.16H167.832C167.886 167.024 168.179 167.701 168.712 168.192C169.256 168.672 169.912 168.912 170.68 168.912C171.31 168.912 171.832 168.768 172.248 168.48C172.675 168.181 172.974 167.786 173.144 167.296H174.712C174.478 168.138 174.008 168.826 173.304 169.36C172.6 169.882 171.726 170.144 170.68 170.144C169.848 170.144 169.102 169.957 168.44 169.584C167.79 169.21 167.278 168.682 166.904 168C166.531 167.306 166.344 166.506 166.344 165.6C166.344 164.693 166.526 163.898 166.888 163.216C167.251 162.533 167.758 162.01 168.408 161.648C169.07 161.274 169.827 161.088 170.68 161.088C171.512 161.088 172.248 161.269 172.888 161.632C173.528 161.994 174.019 162.496 174.36 163.136C174.712 163.765 174.888 164.48 174.888 165.28ZM173.384 164.976C173.384 164.421 173.262 163.946 173.016 163.552C172.771 163.146 172.435 162.842 172.008 162.64C171.592 162.426 171.128 162.32 170.616 162.32C169.88 162.32 169.251 162.554 168.728 163.024C168.216 163.493 167.923 164.144 167.848 164.976H173.384Z" fill="black"/>
<path d="M176.266 165.6C176.266 164.693 176.447 163.904 176.81 163.232C177.173 162.549 177.674 162.021 178.314 161.648C178.965 161.274 179.706 161.088 180.538 161.088C181.615 161.088 182.501 161.349 183.194 161.872C183.898 162.394 184.362 163.12 184.586 164.048H183.018C182.869 163.514 182.575 163.093 182.138 162.784C181.711 162.474 181.178 162.32 180.538 162.32C179.706 162.32 179.034 162.608 178.522 163.184C178.01 163.749 177.754 164.554 177.754 165.6C177.754 166.656 178.01 167.472 178.522 168.048C179.034 168.624 179.706 168.912 180.538 168.912C181.178 168.912 181.711 168.762 182.138 168.464C182.565 168.165 182.858 167.738 183.018 167.184H184.586C184.351 168.08 183.882 168.8 183.178 169.344C182.474 169.877 181.594 170.144 180.538 170.144C179.706 170.144 178.965 169.957 178.314 169.584C177.674 169.21 177.173 168.682 176.81 168C176.447 167.317 176.266 166.517 176.266 165.6Z" fill="black"/>
<path d="M185.985 165.584C185.985 164.688 186.166 163.904 186.529 163.232C186.891 162.549 187.387 162.021 188.017 161.648C188.657 161.274 189.366 161.088 190.145 161.088C190.913 161.088 191.579 161.253 192.145 161.584C192.71 161.914 193.131 162.33 193.409 162.832V161.232L194.881 161.232L194.881 170L193.409 170V168.368C193.121 168.88 192.689 169.306 192.113 169.648C191.547 169.978 190.886 170.144 190.129 170.144C189.35 170.144 188.646 169.952 188.017 169.568C187.387 169.184 186.891 168.645 186.529 167.952C186.166 167.258 185.985 166.469 185.985 165.584ZM193.409 165.6C193.409 164.938 193.275 164.362 193.009 163.872C192.742 163.381 192.379 163.008 191.921 162.752C191.473 162.485 190.977 162.352 190.433 162.352C189.889 162.352 189.393 162.48 188.945 162.736C188.497 162.992 188.139 163.365 187.873 163.856C187.606 164.346 187.473 164.922 187.473 165.584C187.473 166.256 187.606 166.842 187.873 167.344C188.139 167.834 188.497 168.213 188.945 168.48C189.393 168.736 189.889 168.864 190.433 168.864C190.977 168.864 191.473 168.736 191.921 168.48C192.379 168.213 192.742 167.834 193.009 167.344C193.275 166.842 193.409 166.261 193.409 165.6ZM192.273 158.752L188.865 160.576L188.865 159.488L192.273 157.488V158.752Z" fill="black"/>
<path d="M207.885 161.072C208.568 161.072 209.176 161.216 209.709 161.504C210.243 161.781 210.664 162.202 210.973 162.768C211.283 163.333 211.437 164.021 211.437 164.832L211.437 170H209.997L209.997 165.04C209.997 164.165 209.779 163.498 209.341 163.04C208.915 162.57 208.333 162.336 207.597 162.336C206.84 162.336 206.237 162.581 205.789 163.072C205.341 163.552 205.117 164.25 205.117 165.168L205.117 170H203.677L203.677 165.04C203.677 164.165 203.459 163.498 203.021 163.04C202.595 162.57 202.013 162.336 201.277 162.336C200.52 162.336 199.917 162.581 199.469 163.072C199.021 163.552 198.797 164.25 198.797 165.168L198.797 170H197.341L197.341 161.232H198.797V162.496C199.085 162.037 199.469 161.685 199.949 161.44C200.44 161.194 200.979 161.072 201.565 161.072C202.301 161.072 202.952 161.237 203.517 161.568C204.083 161.898 204.504 162.384 204.781 163.024C205.027 162.405 205.432 161.925 205.997 161.584C206.563 161.242 207.192 161.072 207.885 161.072Z" fill="black"/>
<path d="M213.282 165.584C213.282 164.688 213.463 163.904 213.826 163.232C214.188 162.549 214.684 162.021 215.314 161.648C215.954 161.274 216.663 161.088 217.442 161.088C218.21 161.088 218.876 161.253 219.442 161.584C220.007 161.914 220.428 162.33 220.706 162.832V161.232H222.178L222.178 170H220.706V168.368C220.418 168.88 219.986 169.306 219.41 169.648C218.844 169.978 218.183 170.144 217.426 170.144C216.647 170.144 215.943 169.952 215.314 169.568C214.684 169.184 214.188 168.645 213.826 167.952C213.463 167.258 213.282 166.469 213.282 165.584ZM220.706 165.6C220.706 164.938 220.572 164.362 220.306 163.872C220.039 163.381 219.676 163.008 219.218 162.752C218.77 162.485 218.274 162.352 217.73 162.352C217.186 162.352 216.69 162.48 216.242 162.736C215.794 162.992 215.436 163.365 215.17 163.856C214.903 164.346 214.77 164.922 214.77 165.584C214.77 166.256 214.903 166.842 215.17 167.344C215.436 167.834 215.794 168.213 216.242 168.48C216.69 168.736 217.186 168.864 217.73 168.864C218.274 168.864 218.77 168.736 219.218 168.48C219.676 168.213 220.039 167.834 220.306 167.344C220.572 166.842 220.706 166.261 220.706 165.6Z" fill="black"/>
<path d="M226.094 162.656C226.35 162.154 226.713 161.765 227.182 161.488C227.662 161.21 228.244 161.072 228.926 161.072V162.576H228.542C226.91 162.576 226.094 163.461 226.094 165.232L226.094 170H224.638L224.638 161.232H226.094V162.656Z" fill="black"/>
<path d="M230.063 165.584C230.063 164.688 230.244 163.904 230.607 163.232C230.97 162.549 231.466 162.021 232.095 161.648C232.735 161.274 233.444 161.088 234.223 161.088C234.991 161.088 235.658 161.253 236.223 161.584C236.788 161.914 237.21 162.33 237.487 162.832V161.232H238.959V170H237.487V168.368C237.199 168.88 236.767 169.306 236.191 169.648C235.626 169.978 234.964 170.144 234.207 170.144C233.428 170.144 232.724 169.952 232.095 169.568C231.466 169.184 230.97 168.645 230.607 167.952C230.244 167.258 230.063 166.469 230.063 165.584ZM237.487 165.6C237.487 164.938 237.354 164.362 237.087 163.872C236.82 163.381 236.458 163.008 235.999 162.752C235.551 162.485 235.055 162.352 234.511 162.352C233.967 162.352 233.471 162.48 233.023 162.736C232.575 162.992 232.218 163.365 231.951 163.856C231.684 164.346 231.551 164.922 231.551 165.584C231.551 166.256 231.684 166.842 231.951 167.344C232.218 167.834 232.575 168.213 233.023 168.48C233.471 168.736 233.967 168.864 234.511 168.864C235.055 168.864 235.551 168.736 235.999 168.48C236.458 168.213 236.82 167.834 237.087 167.344C237.354 166.842 237.487 166.261 237.487 165.6Z" fill="black"/>
<path d="M244.523 170.144C243.851 170.144 243.249 170.032 242.715 169.808C242.182 169.573 241.761 169.253 241.451 168.848C241.142 168.432 240.971 167.957 240.939 167.424H242.443C242.486 167.861 242.689 168.218 243.051 168.496C243.425 168.773 243.91 168.912 244.507 168.912C245.062 168.912 245.499 168.789 245.819 168.544C246.139 168.298 246.299 167.989 246.299 167.616C246.299 167.232 246.129 166.949 245.787 166.768C245.446 166.576 244.918 166.389 244.203 166.208C243.553 166.037 243.019 165.866 242.603 165.696C242.198 165.514 241.846 165.253 241.547 164.912C241.259 164.56 241.115 164.101 241.115 163.536C241.115 163.088 241.249 162.677 241.515 162.304C241.782 161.93 242.161 161.637 242.651 161.424C243.142 161.2 243.702 161.088 244.331 161.088C245.302 161.088 246.086 161.333 246.683 161.824C247.281 162.314 247.601 162.986 247.643 163.84H246.187C246.155 163.381 245.969 163.013 245.627 162.736C245.297 162.458 244.849 162.32 244.283 162.32C243.761 162.32 243.345 162.432 243.035 162.656C242.726 162.88 242.571 163.173 242.571 163.536C242.571 163.824 242.662 164.064 242.843 164.256C243.035 164.437 243.27 164.586 243.547 164.704C243.835 164.81 244.23 164.933 244.731 165.072C245.361 165.242 245.873 165.413 246.267 165.584C246.662 165.744 246.998 165.989 247.275 166.32C247.563 166.65 247.713 167.082 247.723 167.616C247.723 168.096 247.59 168.528 247.323 168.912C247.057 169.296 246.678 169.6 246.187 169.824C245.707 170.037 245.153 170.144 244.523 170.144Z" fill="black"/>
<rect x="139" y="186" width="114" height="34" rx="17" fill="#67742A"/>
<rect x="139" y="186" width="114" height="34" rx="17" fill="black" fill-opacity="0.2"/>
<path d="M154.642 196.917C155.89 196.917 156.98 197.159 157.913 197.642C158.857 198.114 159.582 198.8 160.088 199.699C160.605 200.587 160.864 201.627 160.864 202.819C160.864 204.01 160.605 205.044 160.088 205.921C159.582 206.798 158.857 207.472 157.913 207.944C156.98 208.405 155.89 208.636 154.642 208.636H150.814L150.814 196.917H154.642ZM154.642 207.068C156.013 207.068 157.064 206.697 157.795 205.955C158.525 205.213 158.891 204.168 158.891 202.819C158.891 201.459 158.525 200.396 157.795 199.632C157.064 198.868 156.013 198.485 154.642 198.485H152.737L152.737 207.068H154.642Z" fill="white"/>
<path d="M164.691 196.917L164.691 208.636H162.769L162.769 196.917H164.691Z" fill="white"/>
<path d="M171.075 208.754C170.289 208.754 169.58 208.619 168.951 208.349C168.321 208.068 167.827 207.675 167.467 207.169C167.108 206.663 166.928 206.073 166.928 205.398H168.985C169.03 205.904 169.226 206.32 169.575 206.646C169.935 206.972 170.435 207.135 171.075 207.135C171.739 207.135 172.256 206.978 172.627 206.663C172.998 206.337 173.183 205.921 173.183 205.415C173.183 205.022 173.065 204.701 172.829 204.454C172.604 204.207 172.318 204.016 171.969 203.881C171.632 203.746 171.16 203.6 170.553 203.443C169.788 203.24 169.165 203.038 168.681 202.836C168.209 202.622 167.804 202.296 167.467 201.858C167.13 201.419 166.961 200.835 166.961 200.104C166.961 199.43 167.13 198.84 167.467 198.334C167.804 197.828 168.277 197.44 168.884 197.17C169.491 196.901 170.193 196.766 170.991 196.766C172.126 196.766 173.054 197.052 173.773 197.626C174.504 198.188 174.908 198.963 174.987 199.952H172.863C172.829 199.525 172.627 199.16 172.256 198.856C171.885 198.553 171.396 198.401 170.789 198.401C170.238 198.401 169.788 198.542 169.44 198.823C169.091 199.104 168.917 199.508 168.917 200.037C168.917 200.396 169.024 200.694 169.238 200.93C169.462 201.155 169.743 201.335 170.081 201.47C170.418 201.605 170.879 201.751 171.463 201.908C172.239 202.122 172.868 202.335 173.352 202.549C173.846 202.762 174.262 203.094 174.599 203.544C174.948 203.982 175.122 204.572 175.122 205.314C175.122 205.91 174.959 206.472 174.633 207C174.318 207.528 173.852 207.956 173.234 208.282C172.627 208.596 171.907 208.754 171.075 208.754Z" fill="white"/>
<path d="M185.584 200.408C185.584 201.003 185.444 201.565 185.163 202.094C184.882 202.622 184.432 203.055 183.814 203.392C183.196 203.718 182.403 203.881 181.437 203.881H179.312L179.312 208.636H177.39L177.39 196.917H181.437C182.336 196.917 183.095 197.075 183.713 197.389C184.342 197.693 184.809 198.109 185.112 198.637C185.427 199.165 185.584 199.756 185.584 200.408ZM181.437 202.313C182.167 202.313 182.713 202.15 183.072 201.824C183.432 201.487 183.612 201.015 183.612 200.408C183.612 199.126 182.887 198.485 181.437 198.485H179.312V202.313H181.437Z" fill="white"/>
<path d="M192.763 208.754C191.672 208.754 190.666 208.501 189.745 207.995C188.834 207.478 188.109 206.764 187.569 205.854C187.041 204.932 186.777 203.898 186.777 202.751C186.777 201.605 187.041 200.576 187.569 199.666C188.109 198.755 188.834 198.047 189.745 197.541C190.666 197.024 191.672 196.766 192.763 196.766C193.864 196.766 194.87 197.024 195.781 197.541C196.702 198.047 197.427 198.755 197.956 199.666C198.484 200.576 198.748 201.605 198.748 202.751C198.748 203.898 198.484 204.932 197.956 205.854C197.427 206.764 196.702 207.478 195.781 207.995C194.87 208.501 193.864 208.754 192.763 208.754ZM192.763 207.084C193.538 207.084 194.23 206.91 194.836 206.562C195.443 206.202 195.916 205.696 196.253 205.044C196.601 204.381 196.776 203.617 196.776 202.751C196.776 201.886 196.601 201.127 196.253 200.475C195.916 199.823 195.443 199.323 194.836 198.974C194.23 198.626 193.538 198.452 192.763 198.452C191.987 198.452 191.296 198.626 190.689 198.974C190.082 199.323 189.604 199.823 189.256 200.475C188.918 201.127 188.75 201.886 188.75 202.751C188.75 203.617 188.918 204.381 189.256 205.044C189.604 205.696 190.082 206.202 190.689 206.562C191.296 206.91 191.987 207.084 192.763 207.084Z" fill="white"/>
<path d="M210.267 208.636H208.345L202.562 199.885L202.562 208.636H200.64L200.64 196.901H202.562L208.345 205.634V196.901L210.267 196.901L210.267 208.636Z" fill="white"/>
<path d="M214.714 196.917L214.714 208.636H212.791L212.791 196.917H214.714Z" fill="white"/>
<path d="M223.509 202.616C224.139 202.729 224.673 203.06 225.111 203.611C225.55 204.162 225.769 204.786 225.769 205.483C225.769 206.078 225.611 206.618 225.297 207.101C224.993 207.573 224.549 207.95 223.965 208.231C223.38 208.501 222.7 208.636 221.924 208.636H217.237V196.917H221.705C222.503 196.917 223.189 197.052 223.762 197.322C224.336 197.592 224.768 197.957 225.061 198.418C225.353 198.868 225.499 199.373 225.499 199.935C225.499 200.61 225.319 201.172 224.959 201.622C224.6 202.071 224.116 202.403 223.509 202.616ZM219.159 201.841H221.537C222.166 201.841 222.655 201.7 223.004 201.419C223.363 201.127 223.543 200.711 223.543 200.172C223.543 199.643 223.363 199.233 223.004 198.941C222.655 198.637 222.166 198.485 221.537 198.485H219.159V201.841ZM221.756 207.068C222.408 207.068 222.919 206.91 223.29 206.596C223.661 206.281 223.847 205.842 223.847 205.28C223.847 204.707 223.65 204.252 223.256 203.915C222.863 203.577 222.34 203.409 221.688 203.409H219.159V207.068H221.756Z" fill="white"/>
<path d="M229.78 207.084H233.742V208.636H227.857V196.917H229.78V207.084Z" fill="white"/>
<path d="M237.272 198.469V201.908H241.318V203.476H237.272V207.068L241.824 207.068V208.636L235.349 208.636V196.901H241.824V198.469H237.272Z" fill="white"/>
</svg>
