<svg width="392" height="330" viewBox="0 0 392 330" fill="none" xmlns="http://www.w3.org/2000/svg">
<path d="M173.509 119.424C173.653 115.968 175.909 114.072 179.485 114.072C183.181 114.072 185.173 116.184 185.173 118.824C185.173 121.128 183.733 122.352 182.533 122.76V122.856C184.285 123.432 185.485 124.776 185.485 127.08C185.485 130.032 183.373 132.144 179.701 132.144C176.053 132.144 173.413 130.416 173.293 126.456L177.277 126.456C177.301 127.824 178.045 128.736 179.557 128.736C180.829 128.736 181.525 127.92 181.525 126.768C181.525 125.208 180.589 124.584 178.453 124.584H177.685V121.248H178.453C179.845 121.248 181.189 120.912 181.189 119.328C181.189 118.152 180.493 117.504 179.389 117.504C178.069 117.504 177.589 118.464 177.517 119.424L173.509 119.424Z" fill="black"/>
<path d="M187.896 123C187.896 117.864 189.648 114.12 194.64 114.12C199.632 114.12 201.384 117.864 201.384 123C201.384 128.184 199.632 131.928 194.64 131.928C189.648 131.928 187.896 128.184 187.896 123ZM197.352 123C197.352 120.312 197.064 117.96 194.64 117.96C192.216 117.96 191.928 120.312 191.928 123C191.928 125.784 192.216 128.088 194.64 128.088C197.064 128.088 197.352 125.784 197.352 123Z" fill="black"/>
<path d="M211.713 132V128.88H203.649L203.649 125.568L211.233 114.72H215.817V125.328L217.785 125.328L217.785 128.88H215.817V132L211.713 132ZM207.969 125.328L212.001 125.328V119.232L207.969 125.328Z" fill="black"/>
<path d="M116.974 139.928L116.974 151L115.518 151V142.744L111.838 151H110.814L107.118 142.728L107.118 151H105.662L105.662 139.928H107.23L111.326 149.08L115.422 139.928H116.974Z" fill="black"/>
<path d="M123.267 151.144C122.446 151.144 121.699 150.958 121.027 150.584C120.366 150.211 119.843 149.683 119.459 149C119.086 148.307 118.899 147.507 118.899 146.6C118.899 145.704 119.091 144.915 119.475 144.232C119.87 143.539 120.403 143.011 121.075 142.648C121.747 142.275 122.499 142.088 123.331 142.088C124.163 142.088 124.915 142.275 125.587 142.648C126.259 143.011 126.787 143.534 127.171 144.216C127.566 144.899 127.763 145.694 127.763 146.6C127.763 147.507 127.56 148.307 127.155 149C126.76 149.683 126.222 150.211 125.539 150.584C124.856 150.958 124.099 151.144 123.267 151.144ZM123.267 149.864C123.79 149.864 124.28 149.742 124.739 149.496C125.198 149.251 125.566 148.883 125.843 148.392C126.131 147.902 126.275 147.304 126.275 146.6C126.275 145.896 126.136 145.299 125.859 144.808C125.582 144.318 125.219 143.955 124.771 143.72C124.323 143.475 123.838 143.352 123.315 143.352C122.782 143.352 122.291 143.475 121.843 143.72C121.406 143.955 121.054 144.318 120.787 144.808C120.52 145.299 120.387 145.896 120.387 146.6C120.387 147.315 120.515 147.918 120.771 148.408C121.038 148.899 121.39 149.267 121.827 149.512C122.264 149.747 122.744 149.864 123.267 149.864Z" fill="black"/>
<path d="M129.133 146.584C129.133 145.688 129.315 144.904 129.677 144.232C130.04 143.55 130.536 143.022 131.165 142.648C131.805 142.275 132.52 142.088 133.309 142.088C133.992 142.088 134.627 142.248 135.213 142.568C135.8 142.878 136.248 143.288 136.557 143.8V139.16H138.029V151H136.557V149.352C136.269 149.875 135.843 150.307 135.277 150.648C134.712 150.979 134.051 151.144 133.293 151.144C132.515 151.144 131.805 150.952 131.165 150.568C130.536 150.184 130.04 149.646 129.677 148.952C129.315 148.259 129.133 147.47 129.133 146.584ZM136.557 146.6C136.557 145.939 136.424 145.363 136.157 144.872C135.891 144.382 135.528 144.008 135.069 143.752C134.621 143.486 134.125 143.352 133.581 143.352C133.037 143.352 132.541 143.48 132.093 143.736C131.645 143.992 131.288 144.366 131.021 144.856C130.755 145.347 130.621 145.923 130.621 146.584C130.621 147.256 130.755 147.843 131.021 148.344C131.288 148.835 131.645 149.214 132.093 149.48C132.541 149.736 133.037 149.864 133.581 149.864C134.125 149.864 134.621 149.736 135.069 149.48C135.528 149.214 135.891 148.835 136.157 148.344C136.424 147.843 136.557 147.262 136.557 146.6Z" fill="black"/>
<path d="M148.49 146.28C148.49 146.558 148.474 146.851 148.442 147.16H141.434C141.487 148.024 141.78 148.702 142.314 149.192C142.858 149.672 143.514 149.912 144.282 149.912C144.911 149.912 145.434 149.768 145.85 149.48C146.276 149.182 146.575 148.787 146.746 148.296H148.314C148.079 149.139 147.61 149.827 146.906 150.36C146.202 150.883 145.327 151.144 144.282 151.144C143.45 151.144 142.703 150.958 142.042 150.584C141.391 150.211 140.879 149.683 140.506 149C140.132 148.307 139.946 147.507 139.946 146.6C139.946 145.694 140.127 144.899 140.49 144.216C140.852 143.534 141.359 143.011 142.01 142.648C142.671 142.275 143.428 142.088 144.282 142.088C145.114 142.088 145.85 142.27 146.49 142.632C147.13 142.995 147.62 143.496 147.962 144.136C148.314 144.766 148.49 145.48 148.49 146.28ZM146.986 145.976C146.986 145.422 146.863 144.947 146.618 144.552C146.372 144.147 146.036 143.843 145.61 143.64C145.194 143.427 144.73 143.32 144.218 143.32C143.482 143.32 142.852 143.555 142.33 144.024C141.818 144.494 141.524 145.144 141.45 145.976H146.986Z" fill="black"/>
<path d="M151.868 139.16V151H150.412V139.16H151.868Z" fill="black"/>
<path d="M158.173 151.144C157.352 151.144 156.605 150.958 155.933 150.584C155.272 150.211 154.749 149.683 154.365 149C153.992 148.307 153.805 147.507 153.805 146.6C153.805 145.704 153.997 144.915 154.381 144.232C154.776 143.539 155.309 143.011 155.981 142.648C156.653 142.275 157.405 142.088 158.237 142.088C159.069 142.088 159.821 142.275 160.493 142.648C161.165 143.011 161.693 143.534 162.077 144.216C162.472 144.899 162.669 145.694 162.669 146.6C162.669 147.507 162.466 148.307 162.061 149C161.666 149.683 161.128 150.211 160.445 150.584C159.762 150.958 159.005 151.144 158.173 151.144ZM158.173 149.864C158.696 149.864 159.186 149.742 159.645 149.496C160.104 149.251 160.472 148.883 160.749 148.392C161.037 147.902 161.181 147.304 161.181 146.6C161.181 145.896 161.042 145.299 160.765 144.808C160.488 144.318 160.125 143.955 159.677 143.72C159.229 143.475 158.744 143.352 158.221 143.352C157.688 143.352 157.197 143.475 156.749 143.72C156.312 143.955 155.96 144.318 155.693 144.808C155.426 145.299 155.293 145.896 155.293 146.6C155.293 147.315 155.421 147.918 155.677 148.408C155.944 148.899 156.296 149.267 156.733 149.512C157.17 149.747 157.65 149.864 158.173 149.864Z" fill="black"/>
<path d="M170.305 149.816H174.209V151H168.849V139.848H170.305V149.816Z" fill="black"/>
<path d="M179.579 151.144C178.758 151.144 178.011 150.958 177.339 150.584C176.678 150.211 176.155 149.683 175.771 149C175.398 148.307 175.211 147.507 175.211 146.6C175.211 145.704 175.403 144.915 175.787 144.232C176.182 143.539 176.715 143.011 177.387 142.648C178.059 142.275 178.811 142.088 179.643 142.088C180.475 142.088 181.227 142.275 181.899 142.648C182.571 143.011 183.099 143.534 183.483 144.216C183.878 144.899 184.075 145.694 184.075 146.6C184.075 147.507 183.873 148.307 183.467 149C183.073 149.683 182.534 150.211 181.851 150.584C181.169 150.958 180.411 151.144 179.579 151.144ZM179.579 149.864C180.102 149.864 180.593 149.742 181.051 149.496C181.51 149.251 181.878 148.883 182.155 148.392C182.443 147.902 182.587 147.304 182.587 146.6C182.587 145.896 182.449 145.299 182.171 144.808C181.894 144.318 181.531 143.955 181.083 143.72C180.635 143.475 180.15 143.352 179.627 143.352C179.094 143.352 178.603 143.475 178.155 143.72C177.718 143.955 177.366 144.318 177.099 144.808C176.833 145.299 176.699 145.896 176.699 146.6C176.699 147.315 176.827 147.918 177.083 148.408C177.35 148.899 177.702 149.267 178.139 149.512C178.577 149.747 179.057 149.864 179.579 149.864Z" fill="black"/>
<path d="M187.766 143.432V148.6C187.766 149.027 187.856 149.331 188.038 149.512C188.219 149.683 188.534 149.768 188.982 149.768H190.054V151H188.742C187.931 151 187.323 150.814 186.918 150.44C186.512 150.067 186.31 149.454 186.31 148.6V143.432H185.174V142.232H186.31V140.024H187.766V142.232H190.054V143.432H187.766Z" fill="black"/>
<path d="M199.594 142.232V151H198.138V149.704C197.861 150.152 197.471 150.504 196.97 150.76C196.479 151.006 195.935 151.128 195.338 151.128C194.655 151.128 194.042 150.99 193.498 150.712C192.954 150.424 192.522 149.998 192.202 149.432C191.893 148.867 191.738 148.179 191.738 147.368V142.232H193.178V147.176C193.178 148.04 193.397 148.707 193.834 149.176C194.271 149.635 194.869 149.864 195.626 149.864C196.405 149.864 197.018 149.624 197.466 149.144C197.914 148.664 198.138 147.966 198.138 147.048V142.232H199.594Z" fill="black"/>
<path d="M205.156 151.144C204.484 151.144 203.882 151.032 203.348 150.808C202.815 150.574 202.394 150.254 202.084 149.848C201.775 149.432 201.604 148.958 201.572 148.424H203.076C203.119 148.862 203.322 149.219 203.684 149.496C204.058 149.774 204.543 149.912 205.14 149.912C205.695 149.912 206.132 149.79 206.452 149.544C206.772 149.299 206.932 148.99 206.932 148.616C206.932 148.232 206.762 147.95 206.42 147.768C206.079 147.576 205.551 147.39 204.836 147.208C204.186 147.038 203.652 146.867 203.236 146.696C202.831 146.515 202.479 146.254 202.18 145.912C201.892 145.56 201.748 145.102 201.748 144.536C201.748 144.088 201.882 143.678 202.148 143.304C202.415 142.931 202.794 142.638 203.284 142.424C203.775 142.2 204.335 142.088 204.964 142.088C205.935 142.088 206.719 142.334 207.316 142.824C207.914 143.315 208.234 143.987 208.276 144.84H206.82C206.788 144.382 206.602 144.014 206.26 143.736C205.93 143.459 205.482 143.32 204.916 143.32C204.394 143.32 203.978 143.432 203.668 143.656C203.359 143.88 203.204 144.174 203.204 144.536C203.204 144.824 203.295 145.064 203.476 145.256C203.668 145.438 203.903 145.587 204.18 145.704C204.468 145.811 204.863 145.934 205.364 146.072C205.994 146.243 206.506 146.414 206.9 146.584C207.295 146.744 207.631 146.99 207.908 147.32C208.196 147.651 208.346 148.083 208.356 148.616C208.356 149.096 208.223 149.528 207.956 149.912C207.69 150.296 207.311 150.6 206.82 150.824C206.34 151.038 205.786 151.144 205.156 151.144Z" fill="black"/>
<path d="M218.421 153.976C217.397 152.974 216.597 151.699 216.021 150.152C215.456 148.606 215.173 146.936 215.173 145.144C215.173 143.31 215.472 141.598 216.069 140.008C216.677 138.408 217.541 137.091 218.661 136.056H220.181V136.2C218.987 137.32 218.085 138.67 217.477 140.248C216.88 141.816 216.581 143.448 216.581 145.144C216.581 146.798 216.864 148.376 217.429 149.88C218.005 151.384 218.843 152.702 219.941 153.832V153.976H218.421Z" fill="black"/>
<path d="M221.319 140.76V139.432H224.327V151H222.855V140.76H221.319Z" fill="black"/>
<path d="M226.652 149.832C228.007 148.744 229.068 147.854 229.836 147.16C230.604 146.456 231.249 145.726 231.772 144.968C232.305 144.2 232.572 143.448 232.572 142.712C232.572 142.019 232.401 141.475 232.06 141.08C231.729 140.675 231.191 140.472 230.444 140.472C229.719 140.472 229.153 140.702 228.748 141.16C228.353 141.608 228.14 142.211 228.108 142.968H226.7C226.743 141.774 227.105 140.851 227.788 140.2C228.471 139.55 229.351 139.224 230.428 139.224C231.527 139.224 232.396 139.528 233.036 140.136C233.687 140.744 234.012 141.582 234.012 142.648C234.012 143.534 233.745 144.398 233.212 145.24C232.689 146.072 232.092 146.808 231.42 147.448C230.748 148.078 229.889 148.814 228.844 149.656H234.348V150.872L226.652 150.872V149.832Z" fill="black"/>
<path d="M236.031 145.096C236.031 143.262 236.33 141.832 236.927 140.808C237.524 139.774 238.57 139.256 240.063 139.256C241.546 139.256 242.586 139.774 243.183 140.808C243.78 141.832 244.079 143.262 244.079 145.096C244.079 146.963 243.78 148.414 243.183 149.448C242.586 150.483 241.546 151 240.063 151C238.57 151 237.524 150.483 236.927 149.448C236.33 148.414 236.031 146.963 236.031 145.096ZM242.639 145.096C242.639 144.168 242.575 143.384 242.447 142.744C242.33 142.094 242.079 141.571 241.695 141.176C241.322 140.782 240.778 140.584 240.063 140.584C239.338 140.584 238.783 140.782 238.399 141.176C238.026 141.571 237.775 142.094 237.647 142.744C237.53 143.384 237.471 144.168 237.471 145.096C237.471 146.056 237.53 146.862 237.647 147.512C237.775 148.163 238.026 148.686 238.399 149.08C238.783 149.475 239.338 149.672 240.063 149.672C240.778 149.672 241.322 149.475 241.695 149.08C242.079 148.686 242.33 148.163 242.447 147.512C242.575 146.862 242.639 146.056 242.639 145.096Z" fill="black"/>
<path d="M261.128 142.072C261.81 142.072 262.418 142.216 262.952 142.504C263.485 142.782 263.906 143.203 264.215 143.768C264.525 144.334 264.68 145.022 264.68 145.832V151H263.24V146.04C263.24 145.166 263.021 144.499 262.583 144.04C262.157 143.571 261.576 143.336 260.84 143.336C260.082 143.336 259.479 143.582 259.031 144.072C258.583 144.552 258.359 145.251 258.359 146.168V151H256.919V146.04C256.919 145.166 256.701 144.499 256.264 144.04C255.837 143.571 255.256 143.336 254.52 143.336C253.762 143.336 253.16 143.582 252.712 144.072C252.264 144.552 252.04 145.251 252.04 146.168V151H250.583V142.232H252.04V143.496C252.328 143.038 252.711 142.686 253.191 142.44C253.682 142.195 254.221 142.072 254.807 142.072C255.543 142.072 256.194 142.238 256.76 142.568C257.325 142.899 257.746 143.384 258.023 144.024C258.269 143.406 258.674 142.926 259.24 142.584C259.805 142.243 260.434 142.072 261.128 142.072Z" fill="black"/>
<path d="M266.652 149.832C268.007 148.744 269.068 147.854 269.836 147.16C270.604 146.456 271.249 145.726 271.772 144.968C272.305 144.2 272.572 143.448 272.572 142.712C272.572 142.019 272.401 141.475 272.06 141.08C271.729 140.675 271.191 140.472 270.444 140.472C269.719 140.472 269.153 140.702 268.748 141.16C268.353 141.608 268.14 142.211 268.108 142.968H266.7C266.743 141.774 267.105 140.851 267.788 140.2C268.471 139.55 269.351 139.224 270.428 139.224C271.527 139.224 272.396 139.528 273.036 140.136C273.687 140.744 274.012 141.582 274.012 142.648C274.012 143.534 273.745 144.398 273.212 145.24C272.689 146.072 272.092 146.808 271.42 147.448C270.748 148.078 269.889 148.814 268.844 149.656H274.348V150.872H266.652V149.832Z" fill="black"/>
<path d="M275.807 153.976V153.832C276.906 152.702 277.738 151.384 278.303 149.88C278.879 148.376 279.167 146.798 279.167 145.144C279.167 143.448 278.863 141.816 278.255 140.248C277.658 138.67 276.762 137.32 275.567 136.2V136.056H277.087C278.207 137.091 279.066 138.408 279.663 140.008C280.271 141.598 280.575 143.31 280.575 145.144C280.575 146.936 280.287 148.606 279.711 150.152C279.146 151.699 278.351 152.974 277.327 153.976H275.807Z" fill="black"/>
<path d="M143.269 168.832C144.624 167.744 145.685 166.854 146.453 166.16C147.221 165.456 147.866 164.726 148.389 163.968C148.922 163.2 149.189 162.448 149.189 161.712C149.189 161.019 149.018 160.475 148.677 160.08C148.346 159.675 147.808 159.472 147.061 159.472C146.336 159.472 145.77 159.702 145.365 160.16C144.97 160.608 144.757 161.211 144.725 161.968H143.317C143.36 160.774 143.722 159.851 144.405 159.2C145.088 158.55 145.968 158.224 147.045 158.224C148.144 158.224 149.013 158.528 149.653 159.136C150.304 159.744 150.629 160.582 150.629 161.648C150.629 162.534 150.362 163.398 149.829 164.24C149.306 165.072 148.709 165.808 148.037 166.448C147.365 167.078 146.506 167.814 145.461 168.656L150.965 168.656V169.872L143.269 169.872V168.832Z" fill="black"/>
<path d="M163.026 170L160.37 165.44H158.61L158.61 170H157.154L157.154 158.848H160.754C161.596 158.848 162.306 158.992 162.882 159.28C163.468 159.568 163.906 159.958 164.194 160.448C164.482 160.939 164.626 161.499 164.626 162.128C164.626 162.896 164.402 163.574 163.954 164.16C163.516 164.747 162.855 165.136 161.97 165.328L164.77 170H163.026ZM158.61 164.272H160.754C161.543 164.272 162.135 164.08 162.53 163.696C162.924 163.302 163.122 162.779 163.122 162.128C163.122 161.467 162.924 160.955 162.53 160.592C162.146 160.23 161.554 160.048 160.754 160.048H158.61V164.272Z" fill="black"/>
<path d="M174.888 165.28C174.888 165.558 174.872 165.851 174.84 166.16H167.832C167.886 167.024 168.179 167.702 168.712 168.192C169.256 168.672 169.912 168.912 170.68 168.912C171.31 168.912 171.832 168.768 172.248 168.48C172.675 168.182 172.974 167.787 173.144 167.296H174.712C174.478 168.139 174.008 168.827 173.304 169.36C172.6 169.883 171.726 170.144 170.68 170.144C169.848 170.144 169.102 169.958 168.44 169.584C167.79 169.211 167.278 168.683 166.904 168C166.531 167.307 166.344 166.507 166.344 165.6C166.344 164.694 166.526 163.899 166.888 163.216C167.251 162.534 167.758 162.011 168.408 161.648C169.07 161.275 169.827 161.088 170.68 161.088C171.512 161.088 172.248 161.27 172.888 161.632C173.528 161.995 174.019 162.496 174.36 163.136C174.712 163.766 174.888 164.48 174.888 165.28ZM173.384 164.976C173.384 164.422 173.262 163.947 173.016 163.552C172.771 163.147 172.435 162.843 172.008 162.64C171.592 162.427 171.128 162.32 170.616 162.32C169.88 162.32 169.251 162.555 168.728 163.024C168.216 163.494 167.923 164.144 167.848 164.976H173.384Z" fill="black"/>
<path d="M176.266 165.6C176.266 164.694 176.447 163.904 176.81 163.232C177.173 162.55 177.674 162.022 178.314 161.648C178.965 161.275 179.706 161.088 180.538 161.088C181.615 161.088 182.501 161.35 183.194 161.872C183.898 162.395 184.362 163.12 184.586 164.048H183.018C182.869 163.515 182.575 163.094 182.138 162.784C181.711 162.475 181.178 162.32 180.538 162.32C179.706 162.32 179.034 162.608 178.522 163.184C178.01 163.75 177.754 164.555 177.754 165.6C177.754 166.656 178.01 167.472 178.522 168.048C179.034 168.624 179.706 168.912 180.538 168.912C181.178 168.912 181.711 168.763 182.138 168.464C182.565 168.166 182.858 167.739 183.018 167.184H184.586C184.351 168.08 183.882 168.8 183.178 169.344C182.474 169.878 181.594 170.144 180.538 170.144C179.706 170.144 178.965 169.958 178.314 169.584C177.674 169.211 177.173 168.683 176.81 168C176.447 167.318 176.266 166.518 176.266 165.6Z" fill="black"/>
<path d="M185.985 165.584C185.985 164.688 186.166 163.904 186.529 163.232C186.891 162.55 187.387 162.022 188.017 161.648C188.657 161.275 189.366 161.088 190.145 161.088C190.913 161.088 191.579 161.254 192.145 161.584C192.71 161.915 193.131 162.331 193.409 162.832V161.232L194.881 161.232L194.881 170L193.409 170V168.368C193.121 168.88 192.689 169.307 192.113 169.648C191.547 169.979 190.886 170.144 190.129 170.144C189.35 170.144 188.646 169.952 188.017 169.568C187.387 169.184 186.891 168.646 186.529 167.952C186.166 167.259 185.985 166.47 185.985 165.584ZM193.409 165.6C193.409 164.939 193.275 164.363 193.009 163.872C192.742 163.382 192.379 163.008 191.921 162.752C191.473 162.486 190.977 162.352 190.433 162.352C189.889 162.352 189.393 162.48 188.945 162.736C188.497 162.992 188.139 163.366 187.873 163.856C187.606 164.347 187.473 164.923 187.473 165.584C187.473 166.256 187.606 166.843 187.873 167.344C188.139 167.835 188.497 168.214 188.945 168.48C189.393 168.736 189.889 168.864 190.433 168.864C190.977 168.864 191.473 168.736 191.921 168.48C192.379 168.214 192.742 167.835 193.009 167.344C193.275 166.843 193.409 166.262 193.409 165.6ZM192.273 158.752L188.865 160.576L188.865 159.488L192.273 157.488V158.752Z" fill="black"/>
<path d="M207.885 161.072C208.568 161.072 209.176 161.216 209.709 161.504C210.243 161.782 210.664 162.203 210.973 162.768C211.283 163.334 211.437 164.022 211.437 164.832L211.437 170H209.997L209.997 165.04C209.997 164.166 209.779 163.499 209.341 163.04C208.915 162.571 208.333 162.336 207.597 162.336C206.84 162.336 206.237 162.582 205.789 163.072C205.341 163.552 205.117 164.251 205.117 165.168L205.117 170H203.677L203.677 165.04C203.677 164.166 203.459 163.499 203.021 163.04C202.595 162.571 202.013 162.336 201.277 162.336C200.52 162.336 199.917 162.582 199.469 163.072C199.021 163.552 198.797 164.251 198.797 165.168L198.797 170H197.341L197.341 161.232H198.797V162.496C199.085 162.038 199.469 161.686 199.949 161.44C200.44 161.195 200.979 161.072 201.565 161.072C202.301 161.072 202.952 161.238 203.517 161.568C204.083 161.899 204.504 162.384 204.781 163.024C205.027 162.406 205.432 161.926 205.997 161.584C206.563 161.243 207.192 161.072 207.885 161.072Z" fill="black"/>
<path d="M213.282 165.584C213.282 164.688 213.463 163.904 213.826 163.232C214.188 162.55 214.684 162.022 215.314 161.648C215.954 161.275 216.663 161.088 217.442 161.088C218.21 161.088 218.876 161.254 219.442 161.584C220.007 161.915 220.428 162.331 220.706 162.832V161.232H222.178L222.178 170H220.706V168.368C220.418 168.88 219.986 169.307 219.41 169.648C218.844 169.979 218.183 170.144 217.426 170.144C216.647 170.144 215.943 169.952 215.314 169.568C214.684 169.184 214.188 168.646 213.826 167.952C213.463 167.259 213.282 166.47 213.282 165.584ZM220.706 165.6C220.706 164.939 220.572 164.363 220.306 163.872C220.039 163.382 219.676 163.008 219.218 162.752C218.77 162.486 218.274 162.352 217.73 162.352C217.186 162.352 216.69 162.48 216.242 162.736C215.794 162.992 215.436 163.366 215.17 163.856C214.903 164.347 214.77 164.923 214.77 165.584C214.77 166.256 214.903 166.843 215.17 167.344C215.436 167.835 215.794 168.214 216.242 168.48C216.69 168.736 217.186 168.864 217.73 168.864C218.274 168.864 218.77 168.736 219.218 168.48C219.676 168.214 220.039 167.835 220.306 167.344C220.572 166.843 220.706 166.262 220.706 165.6Z" fill="black"/>
<path d="M226.094 162.656C226.35 162.155 226.713 161.766 227.182 161.488C227.662 161.211 228.244 161.072 228.926 161.072V162.576H228.542C226.91 162.576 226.094 163.462 226.094 165.232L226.094 170H224.638L224.638 161.232H226.094V162.656Z" fill="black"/>
<path d="M230.063 165.584C230.063 164.688 230.244 163.904 230.607 163.232C230.97 162.55 231.466 162.022 232.095 161.648C232.735 161.275 233.444 161.088 234.223 161.088C234.991 161.088 235.658 161.254 236.223 161.584C236.788 161.915 237.21 162.331 237.487 162.832V161.232H238.959V170H237.487V168.368C237.199 168.88 236.767 169.307 236.191 169.648C235.626 169.979 234.964 170.144 234.207 170.144C233.428 170.144 232.724 169.952 232.095 169.568C231.466 169.184 230.97 168.646 230.607 167.952C230.244 167.259 230.063 166.47 230.063 165.584ZM237.487 165.6C237.487 164.939 237.354 164.363 237.087 163.872C236.82 163.382 236.458 163.008 235.999 162.752C235.551 162.486 235.055 162.352 234.511 162.352C233.967 162.352 233.471 162.48 233.023 162.736C232.575 162.992 232.218 163.366 231.951 163.856C231.684 164.347 231.551 164.923 231.551 165.584C231.551 166.256 231.684 166.843 231.951 167.344C232.218 167.835 232.575 168.214 233.023 168.48C233.471 168.736 233.967 168.864 234.511 168.864C235.055 168.864 235.551 168.736 235.999 168.48C236.458 168.214 236.82 167.835 237.087 167.344C237.354 166.843 237.487 166.262 237.487 165.6Z" fill="black"/>
<path d="M244.523 170.144C243.851 170.144 243.249 170.032 242.715 169.808C242.182 169.574 241.761 169.254 241.451 168.848C241.142 168.432 240.971 167.958 240.939 167.424H242.443C242.486 167.862 242.689 168.219 243.051 168.496C243.425 168.774 243.91 168.912 244.507 168.912C245.062 168.912 245.499 168.79 245.819 168.544C246.139 168.299 246.299 167.99 246.299 167.616C246.299 167.232 246.129 166.95 245.787 166.768C245.446 166.576 244.918 166.39 244.203 166.208C243.553 166.038 243.019 165.867 242.603 165.696C242.198 165.515 241.846 165.254 241.547 164.912C241.259 164.56 241.115 164.102 241.115 163.536C241.115 163.088 241.249 162.678 241.515 162.304C241.782 161.931 242.161 161.638 242.651 161.424C243.142 161.2 243.702 161.088 244.331 161.088C245.302 161.088 246.086 161.334 246.683 161.824C247.281 162.315 247.601 162.987 247.643 163.84H246.187C246.155 163.382 245.969 163.014 245.627 162.736C245.297 162.459 244.849 162.32 244.283 162.32C243.761 162.32 243.345 162.432 243.035 162.656C242.726 162.88 242.571 163.174 242.571 163.536C242.571 163.824 242.662 164.064 242.843 164.256C243.035 164.438 243.27 164.587 243.547 164.704C243.835 164.811 244.23 164.934 244.731 165.072C245.361 165.243 245.873 165.414 246.267 165.584C246.662 165.744 246.998 165.99 247.275 166.32C247.563 166.651 247.713 167.083 247.723 167.616C247.723 168.096 247.59 168.528 247.323 168.912C247.057 169.296 246.678 169.6 246.187 169.824C245.707 170.038 245.153 170.144 244.523 170.144Z" fill="black"/>
<rect x="139" y="186" width="114" height="34" rx="17" fill="#67742A"/>
<rect x="139" y="186" width="114" height="34" rx="17" fill="black" fill-opacity="0.2"/>
<path d="M154.642 196.917C155.89 196.917 156.98 197.159 157.913 197.642C158.857 198.114 159.582 198.8 160.088 199.699C160.605 200.587 160.864 201.627 160.864 202.819C160.864 204.01 160.605 205.044 160.088 205.921C159.582 206.798 158.857 207.472 157.913 207.944C156.98 208.405 155.89 208.636 154.642 208.636H150.814L150.814 196.917H154.642ZM154.642 207.068C156.013 207.068 157.064 206.697 157.795 205.955C158.525 205.213 158.891 204.168 158.891 202.819C158.891 201.459 158.525 200.396 157.795 199.632C157.064 198.868 156.013 198.485 154.642 198.485H152.737L152.737 207.068H154.642Z" fill="white"/>
<path d="M164.691 196.917L164.691 208.636H162.769L162.769 196.917H164.691Z" fill="white"/>
<path d="M171.075 208.754C170.289 208.754 169.58 208.619 168.951 208.349C168.321 208.068 167.827 207.675 167.467 207.169C167.108 206.663 166.928 206.073 166.928 205.398H168.985C169.03 205.904 169.226 206.32 169.575 206.646C169.935 206.972 170.435 207.135 171.075 207.135C171.739 207.135 172.256 206.978 172.627 206.663C172.998 206.337 173.183 205.921 173.183 205.415C173.183 205.022 173.065 204.701 172.829 204.454C172.604 204.207 172.318 204.016 171.969 203.881C171.632 203.746 171.16 203.6 170.553 203.443C169.788 203.24 169.165 203.038 168.681 202.836C168.209 202.622 167.804 202.296 167.467 201.858C167.13 201.419 166.961 200.835 166.961 200.104C166.961 199.43 167.13 198.84 167.467 198.334C167.804 197.828 168.277 197.44 168.884 197.17C169.491 196.901 170.193 196.766 170.991 196.766C172.126 196.766 173.054 197.052 173.773 197.626C174.504 198.188 174.908 198.963 174.987 199.952H172.863C172.829 199.525 172.627 199.16 172.256 198.856C171.885 198.553 171.396 198.401 170.789 198.401C170.238 198.401 169.788 198.542 169.44 198.823C169.091 199.104 168.917 199.508 168.917 200.037C168.917 200.396 169.024 200.694 169.238 200.93C169.462 201.155 169.743 201.335 170.081 201.47C170.418 201.605 170.879 201.751 171.463 201.908C172.239 202.122 172.868 202.335 173.352 202.549C173.846 202.762 174.262 203.094 174.599 203.544C174.948 203.982 175.122 204.572 175.122 205.314C175.122 205.91 174.959 206.472 174.633 207C174.318 207.528 173.852 207.956 173.234 208.282C172.627 208.596 171.907 208.754 171.075 208.754Z" fill="white"/>
<path d="M185.584 200.408C185.584 201.003 185.444 201.565 185.163 202.094C184.882 202.622 184.432 203.055 183.814 203.392C183.196 203.718 182.403 203.881 181.437 203.881H179.312L179.312 208.636H177.39L177.39 196.917H181.437C182.336 196.917 183.095 197.075 183.713 197.389C184.342 197.693 184.809 198.109 185.112 198.637C185.427 199.165 185.584 199.756 185.584 200.408ZM181.437 202.313C182.167 202.313 182.713 202.15 183.072 201.824C183.432 201.487 183.612 201.015 183.612 200.408C183.612 199.126 182.887 198.485 181.437 198.485H179.312V202.313H181.437Z" fill="white"/>
<path d="M192.763 208.754C191.672 208.754 190.666 208.501 189.745 207.995C188.834 207.478 188.109 206.764 187.569 205.854C187.041 204.932 186.777 203.898 186.777 202.751C186.777 201.605 187.041 200.576 187.569 199.666C188.109 198.755 188.834 198.047 189.745 197.541C190.666 197.024 191.672 196.766 192.763 196.766C193.864 196.766 194.87 197.024 195.781 197.541C196.702 198.047 197.427 198.755 197.956 199.666C198.484 200.576 198.748 201.605 198.748 202.751C198.748 203.898 198.484 204.932 197.956 205.854C197.427 206.764 196.702 207.478 195.781 207.995C194.87 208.501 193.864 208.754 192.763 208.754ZM192.763 207.084C193.538 207.084 194.23 206.91 194.836 206.562C195.443 206.202 195.916 205.696 196.253 205.044C196.601 204.381 196.776 203.617 196.776 202.751C196.776 201.886 196.601 201.127 196.253 200.475C195.916 199.823 195.443 199.323 194.836 198.974C194.23 198.626 193.538 198.452 192.763 198.452C191.987 198.452 191.296 198.626 190.689 198.974C190.082 199.323 189.604 199.823 189.256 200.475C188.918 201.127 188.75 201.886 188.75 202.751C188.75 203.617 188.918 204.381 189.256 205.044C189.604 205.696 190.082 206.202 190.689 206.562C191.296 206.91 191.987 207.084 192.763 207.084Z" fill="white"/>
<path d="M210.267 208.636H208.345L202.562 199.885L202.562 208.636H200.64L200.64 196.901H202.562L208.345 205.634V196.901L210.267 196.901L210.267 208.636Z" fill="white"/>
<path d="M214.714 196.917L214.714 208.636H212.791L212.791 196.917H214.714Z" fill="white"/>
<path d="M223.509 202.616C224.139 202.729 224.673 203.06 225.111 203.611C225.55 204.162 225.769 204.786 225.769 205.483C225.769 206.078 225.611 206.618 225.297 207.101C224.993 207.573 224.549 207.95 223.965 208.231C223.38 208.501 222.7 208.636 221.924 208.636H217.237V196.917H221.705C222.503 196.917 223.189 197.052 223.762 197.322C224.336 197.592 224.768 197.957 225.061 198.418C225.353 198.868 225.499 199.373 225.499 199.935C225.499 200.61 225.319 201.172 224.959 201.622C224.6 202.071 224.116 202.403 223.509 202.616ZM219.159 201.841H221.537C222.166 201.841 222.655 201.7 223.004 201.419C223.363 201.127 223.543 200.711 223.543 200.172C223.543 199.643 223.363 199.233 223.004 198.941C222.655 198.637 222.166 198.485 221.537 198.485H219.159V201.841ZM221.756 207.068C222.408 207.068 222.919 206.91 223.29 206.596C223.661 206.281 223.847 205.842 223.847 205.28C223.847 204.707 223.65 204.252 223.256 203.915C222.863 203.577 222.34 203.409 221.688 203.409H219.159V207.068H221.756Z" fill="white"/>
<path d="M229.78 207.084H233.742V208.636H227.857V196.917H229.78V207.084Z" fill="white"/>
<path d="M237.272 198.469V201.908H241.318V203.476H237.272V207.068L241.824 207.068V208.636L235.349 208.636V196.901H241.824V198.469H237.272Z" fill="white"/>
</svg>
