<svg width="392" height="224" viewBox="0 0 392 224" fill="none" xmlns="http://www.w3.org/2000/svg">
<path d="M181.672 78.0001L181.672 64.2961L179.296 64.2961V60.4801L185.944 60.4801L185.944 78.0001L181.672 78.0001Z" fill="black"/>
<path d="M188.752 69.0001C188.752 63.8641 190.504 60.1201 195.496 60.1201C200.488 60.1201 202.24 63.8641 202.24 69.0001C202.24 74.1841 200.488 77.9281 195.496 77.9281C190.504 77.9281 188.752 74.1841 188.752 69.0001ZM198.208 69.0001C198.208 66.3121 197.92 63.9601 195.496 63.9601C193.072 63.9601 192.784 66.3121 192.784 69.0001C192.784 71.7841 193.072 74.0881 195.496 74.0881C197.92 74.0881 198.208 71.7841 198.208 69.0001Z" fill="black"/>
<path d="M206.352 78.0001L206.352 64.2961L203.976 64.2961V60.4801L210.624 60.4801L210.624 78.0001H206.352Z" fill="black"/>
<path d="M121.653 85.9281L121.653 97.0001L120.197 97.0001V88.7441L116.517 97.0001H115.493L111.797 88.7281L111.797 97.0001H110.341L110.341 85.9281H111.909L116.005 95.0801L120.101 85.9281H121.653Z" fill="black"/>
<path d="M127.947 97.1441C127.125 97.1441 126.379 96.9575 125.707 96.5841C125.045 96.2108 124.523 95.6828 124.139 95.0001C123.765 94.3068 123.579 93.5068 123.579 92.6001C123.579 91.7041 123.771 90.9148 124.155 90.2321C124.549 89.5388 125.083 89.0108 125.755 88.6481C126.427 88.2748 127.179 88.0881 128.011 88.0881C128.843 88.0881 129.595 88.2748 130.267 88.6481C130.939 89.0108 131.467 89.5335 131.851 90.2161C132.245 90.8988 132.443 91.6934 132.443 92.6001C132.443 93.5068 132.24 94.3068 131.835 95.0001C131.44 95.6828 130.901 96.2108 130.219 96.5841C129.536 96.9575 128.779 97.1441 127.947 97.1441ZM127.947 95.8641C128.469 95.8641 128.96 95.7414 129.419 95.4961C129.877 95.2508 130.245 94.8828 130.523 94.3921C130.811 93.9014 130.955 93.3041 130.955 92.6001C130.955 91.8961 130.816 91.2988 130.539 90.8081C130.261 90.3175 129.899 89.9548 129.451 89.7201C129.003 89.4748 128.517 89.3521 127.995 89.3521C127.461 89.3521 126.971 89.4748 126.523 89.7201C126.085 89.9548 125.733 90.3175 125.467 90.8081C125.2 91.2988 125.067 91.8961 125.067 92.6001C125.067 93.3148 125.195 93.9175 125.451 94.4081C125.717 94.8988 126.069 95.2668 126.507 95.5121C126.944 95.7468 127.424 95.8641 127.947 95.8641Z" fill="black"/>
<path d="M133.813 92.5841C133.813 91.6881 133.994 90.9041 134.357 90.2321C134.72 89.5494 135.216 89.0215 135.845 88.6481C136.485 88.2748 137.2 88.0881 137.989 88.0881C138.672 88.0881 139.306 88.2481 139.893 88.5681C140.48 88.8775 140.928 89.2881 141.237 89.8001V85.1601H142.709V97.0001H141.237V95.3521C140.949 95.8748 140.522 96.3068 139.957 96.6481C139.392 96.9788 138.73 97.1441 137.973 97.1441C137.194 97.1441 136.485 96.9521 135.845 96.5681C135.216 96.1841 134.72 95.6455 134.357 94.9521C133.994 94.2588 133.813 93.4695 133.813 92.5841ZM141.237 92.6001C141.237 91.9388 141.104 91.3628 140.837 90.8721C140.57 90.3815 140.208 90.0081 139.749 89.7521C139.301 89.4855 138.805 89.3521 138.261 89.3521C137.717 89.3521 137.221 89.4801 136.773 89.7361C136.325 89.9921 135.968 90.3655 135.701 90.8561C135.434 91.3468 135.301 91.9228 135.301 92.5841C135.301 93.2561 135.434 93.8428 135.701 94.3441C135.968 94.8348 136.325 95.2135 136.773 95.4801C137.221 95.7361 137.717 95.8641 138.261 95.8641C138.805 95.8641 139.301 95.7361 139.749 95.4801C140.208 95.2135 140.57 94.8348 140.837 94.3441C141.104 93.8428 141.237 93.2614 141.237 92.6001Z" fill="black"/>
<path d="M153.169 92.2801C153.169 92.5575 153.153 92.8508 153.121 93.1601L146.113 93.1601C146.167 94.0241 146.46 94.7015 146.993 95.1921C147.537 95.6721 148.193 95.9121 148.961 95.9121C149.591 95.9121 150.113 95.7681 150.529 95.4801C150.956 95.1815 151.255 94.7868 151.425 94.2961H152.993C152.759 95.1388 152.289 95.8268 151.585 96.3601C150.881 96.8828 150.007 97.1441 148.961 97.1441C148.129 97.1441 147.383 96.9575 146.721 96.5841C146.071 96.2108 145.559 95.6828 145.185 95.0001C144.812 94.3068 144.625 93.5068 144.625 92.6001C144.625 91.6934 144.807 90.8988 145.169 90.2161C145.532 89.5335 146.039 89.0108 146.689 88.6481C147.351 88.2748 148.108 88.0881 148.961 88.0881C149.793 88.0881 150.529 88.2695 151.169 88.6321C151.809 88.9948 152.3 89.4961 152.641 90.1361C152.993 90.7655 153.169 91.4801 153.169 92.2801ZM151.665 91.9761C151.665 91.4214 151.543 90.9468 151.297 90.5521C151.052 90.1468 150.716 89.8428 150.289 89.6401C149.873 89.4268 149.409 89.3201 148.897 89.3201C148.161 89.3201 147.532 89.5548 147.009 90.0241C146.497 90.4934 146.204 91.1441 146.129 91.9761L151.665 91.9761Z" fill="black"/>
<path d="M156.547 85.1601V97.0001H155.091V85.1601H156.547Z" fill="black"/>
<path d="M162.853 97.1441C162.031 97.1441 161.285 96.9575 160.613 96.5841C159.951 96.2108 159.429 95.6828 159.045 95.0001C158.671 94.3068 158.485 93.5068 158.485 92.6001C158.485 91.7041 158.677 90.9148 159.061 90.2321C159.455 89.5388 159.989 89.0108 160.661 88.6481C161.333 88.2748 162.085 88.0881 162.917 88.0881C163.749 88.0881 164.501 88.2748 165.173 88.6481C165.845 89.0108 166.373 89.5335 166.757 90.2161C167.151 90.8988 167.349 91.6934 167.349 92.6001C167.349 93.5068 167.146 94.3068 166.741 95.0001C166.346 95.6828 165.807 96.2108 165.125 96.5841C164.442 96.9575 163.685 97.1441 162.853 97.1441ZM162.853 95.8641C163.375 95.8641 163.866 95.7414 164.325 95.4961C164.783 95.2508 165.151 94.8828 165.429 94.3921C165.717 93.9014 165.861 93.3041 165.861 92.6001C165.861 91.8961 165.722 91.2988 165.445 90.8081C165.167 90.3175 164.805 89.9548 164.357 89.7201C163.909 89.4748 163.423 89.3521 162.901 89.3521C162.367 89.3521 161.877 89.4748 161.429 89.7201C160.991 89.9548 160.639 90.3175 160.373 90.8081C160.106 91.2988 159.973 91.8961 159.973 92.6001C159.973 93.3148 160.101 93.9175 160.357 94.4081C160.623 94.8988 160.975 95.2668 161.413 95.5121C161.85 95.7468 162.33 95.8641 162.853 95.8641Z" fill="black"/>
<path d="M180.121 94.5201H175.257L174.361 97.0001H172.825L176.857 85.9121H178.537L182.553 97.0001H181.017L180.121 94.5201ZM179.705 93.3361L177.689 87.7041L175.673 93.3361H179.705Z" fill="black"/>
<path d="M192.086 88.2321V97.0001H190.63V95.7041C190.353 96.1521 189.963 96.5041 189.462 96.7601C188.971 97.0054 188.427 97.1281 187.83 97.1281C187.147 97.1281 186.534 96.9895 185.99 96.7121C185.446 96.4241 185.014 95.9975 184.694 95.4321C184.385 94.8668 184.23 94.1788 184.23 93.3681V88.2321H185.67V93.1761C185.67 94.0401 185.889 94.7068 186.326 95.1761C186.763 95.6348 187.361 95.8641 188.118 95.8641C188.897 95.8641 189.51 95.6241 189.958 95.1441C190.406 94.6641 190.63 93.9655 190.63 93.0481V88.2321H192.086Z" fill="black"/>
<path d="M196 89.6561C196.256 89.1548 196.619 88.7655 197.088 88.4881C197.568 88.2108 198.15 88.0721 198.832 88.0721V89.5761H198.448C196.816 89.5761 196 90.4614 196 92.2321V97.0001H194.544V88.2321H196V89.6561Z" fill="black"/>
<path d="M199.969 92.5841C199.969 91.6881 200.151 90.9041 200.513 90.2321C200.876 89.5494 201.372 89.0215 202.001 88.6481C202.641 88.2748 203.351 88.0881 204.129 88.0881C204.897 88.0881 205.564 88.2535 206.129 88.5841C206.695 88.9148 207.116 89.3308 207.393 89.8321V88.2321H208.865V97.0001H207.393V95.3681C207.105 95.8801 206.673 96.3068 206.097 96.6481C205.532 96.9788 204.871 97.1441 204.113 97.1441C203.335 97.1441 202.631 96.9521 202.001 96.5681C201.372 96.1841 200.876 95.6455 200.513 94.9521C200.151 94.2588 199.969 93.4695 199.969 92.5841ZM207.393 92.6001C207.393 91.9388 207.26 91.3628 206.993 90.8721C206.727 90.3815 206.364 90.0081 205.905 89.7521C205.457 89.4855 204.961 89.3521 204.417 89.3521C203.873 89.3521 203.377 89.4801 202.929 89.7361C202.481 89.9921 202.124 90.3655 201.857 90.8561C201.591 91.3468 201.457 91.9228 201.457 92.5841C201.457 93.2561 201.591 93.8428 201.857 94.3441C202.124 94.8348 202.481 95.2135 202.929 95.4801C203.377 95.7361 203.873 95.8641 204.417 95.8641C204.961 95.8641 205.457 95.7361 205.905 95.4801C206.364 95.2135 206.727 94.8348 206.993 94.3441C207.26 93.8428 207.393 93.2614 207.393 92.6001Z" fill="black"/>
<path d="M219.335 99.9761C218.311 98.9735 217.511 97.6988 216.935 96.1521C216.37 94.6055 216.087 92.9361 216.087 91.1441C216.087 89.3095 216.386 87.5975 216.983 86.0081C217.591 84.4081 218.455 83.0908 219.575 82.0561H221.095V82.2001C219.901 83.3201 218.999 84.6695 218.391 86.2481C217.794 87.8161 217.495 89.4481 217.495 91.1441C217.495 92.7975 217.778 94.3761 218.343 95.8801C218.919 97.3841 219.757 98.7015 220.855 99.8321V99.9761L219.335 99.9761Z" fill="black"/>
<path d="M229.737 86.5681L225.289 97.0001H223.817L228.329 86.7121H222.153V85.4641H229.737V86.5681Z" fill="black"/>
<path d="M238.727 86.6961L233.111 86.6961V90.3441C233.357 90.0028 233.719 89.7255 234.199 89.5121C234.679 89.2881 235.197 89.1761 235.751 89.1761C236.637 89.1761 237.357 89.3628 237.911 89.7361C238.466 90.0988 238.861 90.5735 239.095 91.1601C239.341 91.7361 239.463 92.3495 239.463 93.0001C239.463 93.7681 239.319 94.4561 239.031 95.0641C238.743 95.6721 238.301 96.1521 237.703 96.5041C237.117 96.8561 236.386 97.0321 235.511 97.0321C234.391 97.0321 233.485 96.7441 232.791 96.1681C232.098 95.5921 231.677 94.8241 231.527 93.8641L232.951 93.8641C233.09 94.4721 233.383 94.9468 233.831 95.2881C234.279 95.6294 234.845 95.8001 235.527 95.8001C236.37 95.8001 237.005 95.5495 237.431 95.0481C237.858 94.5361 238.071 93.8641 238.071 93.0321C238.071 92.2001 237.858 91.5601 237.431 91.1121C237.005 90.6535 236.375 90.4241 235.543 90.4241C234.978 90.4241 234.482 90.5628 234.055 90.8401C233.639 91.1068 233.335 91.4748 233.143 91.9441H231.767V85.4161L238.727 85.4161V86.6961Z" fill="black"/>
<path d="M256.448 88.0721C257.13 88.0721 257.738 88.2161 258.272 88.5041C258.805 88.7814 259.226 89.2028 259.536 89.7681C259.845 90.3334 260 91.0215 260 91.8321V97.0001H258.56V92.0401C258.56 91.1655 258.341 90.4988 257.904 90.0401C257.477 89.5708 256.896 89.3361 256.16 89.3361C255.402 89.3361 254.8 89.5815 254.352 90.0721C253.904 90.5521 253.68 91.2508 253.68 92.1681V97.0001L252.24 97.0001V92.0401C252.24 91.1655 252.021 90.4988 251.584 90.0401C251.157 89.5708 250.576 89.3361 249.84 89.3361C249.082 89.3361 248.48 89.5815 248.032 90.0721C247.584 90.5521 247.36 91.2508 247.36 92.1681V97.0001H245.904V88.2321H247.36V89.4961C247.648 89.0374 248.032 88.6855 248.512 88.4401C249.002 88.1948 249.541 88.0721 250.128 88.0721C250.864 88.0721 251.514 88.2375 252.08 88.5681C252.645 88.8988 253.066 89.3841 253.344 90.0241C253.589 89.4054 253.994 88.9255 254.56 88.5841C255.125 88.2428 255.754 88.0721 256.448 88.0721Z" fill="black"/>
<path d="M261.972 95.8321C263.327 94.7441 264.388 93.8535 265.156 93.1601C265.924 92.4561 266.57 91.7254 267.092 90.9681C267.626 90.2001 267.892 89.4481 267.892 88.7121C267.892 88.0188 267.722 87.4748 267.38 87.0801C267.05 86.6748 266.511 86.4721 265.764 86.4721C265.039 86.4721 264.474 86.7015 264.068 87.1601C263.674 87.6081 263.46 88.2108 263.428 88.9681H262.02C262.063 87.7735 262.426 86.8508 263.108 86.2001C263.791 85.5495 264.671 85.2241 265.748 85.2241C266.847 85.2241 267.716 85.5281 268.356 86.1361C269.007 86.7441 269.332 87.5815 269.332 88.6481C269.332 89.5335 269.066 90.3974 268.532 91.2401C268.01 92.0721 267.412 92.8081 266.74 93.4481C266.068 94.0774 265.21 94.8134 264.164 95.6561L269.668 95.6561V96.8721L261.972 96.8721V95.8321Z" fill="black"/>
<path d="M271.127 99.9761V99.8321C272.226 98.7015 273.058 97.3841 273.623 95.8801C274.199 94.3761 274.487 92.7975 274.487 91.1441C274.487 89.4481 274.183 87.8161 273.575 86.2481C272.978 84.6695 272.082 83.3201 270.887 82.2001V82.0561H272.407C273.527 83.0908 274.386 84.4081 274.983 86.0081C275.591 87.5975 275.895 89.3095 275.895 91.1441C275.895 92.9361 275.607 94.6055 275.031 96.1521C274.466 97.6988 273.671 98.9735 272.647 99.9761H271.127Z" fill="black"/>
<path d="M149.28 105.76V104.432L152.288 104.432V116H150.816V105.76L149.28 105.76Z" fill="black"/>
<path d="M165.166 116L162.51 111.44H160.75V116H159.294V104.848H162.894C163.737 104.848 164.446 104.992 165.022 105.28C165.609 105.568 166.046 105.957 166.334 106.448C166.622 106.939 166.766 107.499 166.766 108.128C166.766 108.896 166.542 109.573 166.094 110.16C165.657 110.747 164.996 111.136 164.11 111.328L166.91 116L165.166 116ZM160.75 110.272H162.894C163.684 110.272 164.276 110.08 164.67 109.696C165.065 109.301 165.262 108.779 165.262 108.128C165.262 107.467 165.065 106.955 164.67 106.592C164.286 106.229 163.694 106.048 162.894 106.048H160.75V110.272Z" fill="black"/>
<path d="M177.029 111.28C177.029 111.557 177.013 111.851 176.981 112.16L169.973 112.16C170.026 113.024 170.319 113.701 170.853 114.192C171.397 114.672 172.053 114.912 172.821 114.912C173.45 114.912 173.973 114.768 174.389 114.48C174.815 114.181 175.114 113.787 175.285 113.296H176.853C176.618 114.139 176.149 114.827 175.445 115.36C174.741 115.883 173.866 116.144 172.821 116.144C171.989 116.144 171.242 115.957 170.581 115.584C169.93 115.211 169.418 114.683 169.045 114C168.671 113.307 168.485 112.507 168.485 111.6C168.485 110.693 168.666 109.899 169.029 109.216C169.391 108.533 169.898 108.011 170.549 107.648C171.21 107.275 171.967 107.088 172.821 107.088C173.653 107.088 174.389 107.269 175.029 107.632C175.669 107.995 176.159 108.496 176.501 109.136C176.853 109.765 177.029 110.48 177.029 111.28ZM175.525 110.976C175.525 110.421 175.402 109.947 175.157 109.552C174.911 109.147 174.575 108.843 174.149 108.64C173.733 108.427 173.269 108.32 172.757 108.32C172.021 108.32 171.391 108.555 170.869 109.024C170.357 109.493 170.063 110.144 169.989 110.976L175.525 110.976Z" fill="black"/>
<path d="M178.407 111.6C178.407 110.693 178.588 109.904 178.951 109.232C179.313 108.549 179.815 108.021 180.455 107.648C181.105 107.275 181.847 107.088 182.679 107.088C183.756 107.088 184.641 107.349 185.335 107.872C186.039 108.395 186.503 109.12 186.727 110.048H185.159C185.009 109.515 184.716 109.093 184.279 108.784C183.852 108.475 183.319 108.32 182.679 108.32C181.847 108.32 181.175 108.608 180.663 109.184C180.151 109.749 179.895 110.555 179.895 111.6C179.895 112.656 180.151 113.472 180.663 114.048C181.175 114.624 181.847 114.912 182.679 114.912C183.319 114.912 183.852 114.763 184.279 114.464C184.705 114.165 184.999 113.739 185.159 113.184H186.727C186.492 114.08 186.023 114.8 185.319 115.344C184.615 115.877 183.735 116.144 182.679 116.144C181.847 116.144 181.105 115.957 180.455 115.584C179.815 115.211 179.313 114.683 178.951 114C178.588 113.317 178.407 112.517 178.407 111.6Z" fill="black"/>
<path d="M188.125 111.584C188.125 110.688 188.307 109.904 188.669 109.232C189.032 108.549 189.528 108.021 190.157 107.648C190.797 107.275 191.507 107.088 192.285 107.088C193.053 107.088 193.72 107.253 194.285 107.584C194.851 107.915 195.272 108.331 195.549 108.832V107.232H197.021L197.021 116H195.549V114.368C195.261 114.88 194.829 115.307 194.253 115.648C193.688 115.979 193.027 116.144 192.269 116.144C191.491 116.144 190.787 115.952 190.157 115.568C189.528 115.184 189.032 114.645 188.669 113.952C188.307 113.259 188.125 112.469 188.125 111.584ZM195.549 111.6C195.549 110.939 195.416 110.363 195.149 109.872C194.883 109.381 194.52 109.008 194.061 108.752C193.613 108.485 193.117 108.352 192.573 108.352C192.029 108.352 191.533 108.48 191.085 108.736C190.637 108.992 190.28 109.365 190.013 109.856C189.747 110.347 189.613 110.923 189.613 111.584C189.613 112.256 189.747 112.843 190.013 113.344C190.28 113.835 190.637 114.213 191.085 114.48C191.533 114.736 192.029 114.864 192.573 114.864C193.117 114.864 193.613 114.736 194.061 114.48C194.52 114.213 194.883 113.835 195.149 113.344C195.416 112.843 195.549 112.261 195.549 111.6ZM194.413 104.752L191.005 106.576L191.005 105.488L194.413 103.488V104.752Z" fill="black"/>
<path d="M210.026 107.072C210.709 107.072 211.317 107.216 211.85 107.504C212.383 107.781 212.805 108.203 213.114 108.768C213.423 109.333 213.578 110.021 213.578 110.832L213.578 116H212.138L212.138 111.04C212.138 110.165 211.919 109.499 211.482 109.04C211.055 108.571 210.474 108.336 209.738 108.336C208.981 108.336 208.378 108.581 207.93 109.072C207.482 109.552 207.258 110.251 207.258 111.168L207.258 116H205.818L205.818 111.04C205.818 110.165 205.599 109.499 205.162 109.04C204.735 108.571 204.154 108.336 203.418 108.336C202.661 108.336 202.058 108.581 201.61 109.072C201.162 109.552 200.938 110.251 200.938 111.168L200.938 116H199.482L199.482 107.232H200.938V108.496C201.226 108.037 201.61 107.685 202.09 107.44C202.581 107.195 203.119 107.072 203.706 107.072C204.442 107.072 205.093 107.237 205.658 107.568C206.223 107.899 206.645 108.384 206.922 109.024C207.167 108.405 207.573 107.925 208.138 107.584C208.703 107.243 209.333 107.072 210.026 107.072Z" fill="black"/>
<path d="M215.422 111.584C215.422 110.688 215.604 109.904 215.966 109.232C216.329 108.549 216.825 108.021 217.454 107.648C218.094 107.275 218.804 107.088 219.582 107.088C220.35 107.088 221.017 107.253 221.582 107.584C222.148 107.915 222.569 108.331 222.846 108.832V107.232H224.318L224.318 116H222.846V114.368C222.558 114.88 222.126 115.307 221.55 115.648C220.985 115.979 220.324 116.144 219.566 116.144C218.788 116.144 218.084 115.952 217.454 115.568C216.825 115.184 216.329 114.645 215.966 113.952C215.604 113.259 215.422 112.469 215.422 111.584ZM222.846 111.6C222.846 110.939 222.713 110.363 222.446 109.872C222.18 109.381 221.817 109.008 221.358 108.752C220.91 108.485 220.414 108.352 219.87 108.352C219.326 108.352 218.83 108.48 218.382 108.736C217.934 108.992 217.577 109.365 217.31 109.856C217.044 110.347 216.91 110.923 216.91 111.584C216.91 112.256 217.044 112.843 217.31 113.344C217.577 113.835 217.934 114.213 218.382 114.48C218.83 114.736 219.326 114.864 219.87 114.864C220.414 114.864 220.91 114.736 221.358 114.48C221.817 114.213 222.18 113.835 222.446 113.344C222.713 112.843 222.846 112.261 222.846 111.6Z" fill="black"/>
<path d="M228.235 108.656C228.491 108.155 228.853 107.765 229.323 107.488C229.803 107.211 230.384 107.072 231.067 107.072V108.576H230.683C229.051 108.576 228.235 109.461 228.235 111.232L228.235 116H226.779L226.779 107.232H228.235V108.656Z" fill="black"/>
<path d="M232.204 111.584C232.204 110.688 232.385 109.904 232.748 109.232C233.11 108.549 233.606 108.021 234.236 107.648C234.876 107.275 235.585 107.088 236.364 107.088C237.132 107.088 237.798 107.253 238.364 107.584C238.929 107.915 239.35 108.331 239.628 108.832V107.232H241.1V116H239.628V114.368C239.34 114.88 238.908 115.307 238.332 115.648C237.766 115.979 237.105 116.144 236.348 116.144C235.569 116.144 234.865 115.952 234.236 115.568C233.606 115.184 233.11 114.645 232.748 113.952C232.385 113.259 232.204 112.469 232.204 111.584ZM239.628 111.6C239.628 110.939 239.494 110.363 239.228 109.872C238.961 109.381 238.598 109.008 238.14 108.752C237.692 108.485 237.196 108.352 236.652 108.352C236.108 108.352 235.612 108.48 235.164 108.736C234.716 108.992 234.358 109.365 234.092 109.856C233.825 110.347 233.692 110.923 233.692 111.584C233.692 112.256 233.825 112.843 234.092 113.344C234.358 113.835 234.716 114.213 235.164 114.48C235.612 114.736 236.108 114.864 236.652 114.864C237.196 114.864 237.692 114.736 238.14 114.48C238.598 114.213 238.961 113.835 239.228 113.344C239.494 112.843 239.628 112.261 239.628 111.6Z" fill="black"/>
<rect x="139" y="132" width="114" height="34" rx="17" fill="#67742A"/>
<rect x="139" y="132" width="114" height="34" rx="17" fill="black" fill-opacity="0.2"/>
<path d="M154.642 142.917C155.889 142.917 156.98 143.159 157.913 143.642C158.857 144.114 159.582 144.8 160.088 145.699C160.605 146.587 160.863 147.627 160.863 148.819C160.863 150.01 160.605 151.044 160.088 151.921C159.582 152.798 158.857 153.472 157.913 153.944C156.98 154.405 155.889 154.636 154.642 154.636H150.814L150.814 142.917H154.642ZM154.642 153.068C156.013 153.068 157.064 152.697 157.795 151.955C158.525 151.213 158.891 150.168 158.891 148.819C158.891 147.459 158.525 146.396 157.795 145.632C157.064 144.868 156.013 144.485 154.642 144.485H152.736L152.736 153.068H154.642Z" fill="white"/>
<path d="M164.69 142.917L164.69 154.636H162.768L162.768 142.917H164.69Z" fill="white"/>
<path d="M171.075 154.754C170.288 154.754 169.58 154.619 168.951 154.349C168.321 154.068 167.827 153.675 167.467 153.169C167.107 152.663 166.927 152.073 166.927 151.398H168.984C169.029 151.904 169.226 152.32 169.575 152.646C169.934 152.972 170.434 153.135 171.075 153.135C171.738 153.135 172.255 152.978 172.626 152.663C172.997 152.337 173.183 151.921 173.183 151.415C173.183 151.022 173.065 150.701 172.829 150.454C172.604 150.207 172.317 150.016 171.969 149.881C171.632 149.746 171.159 149.6 170.553 149.443C169.788 149.24 169.164 149.038 168.681 148.836C168.209 148.622 167.804 148.296 167.467 147.858C167.13 147.419 166.961 146.835 166.961 146.104C166.961 145.43 167.13 144.84 167.467 144.334C167.804 143.828 168.276 143.44 168.883 143.17C169.49 142.901 170.193 142.766 170.991 142.766C172.126 142.766 173.054 143.052 173.773 143.626C174.504 144.188 174.908 144.963 174.987 145.952H172.862C172.829 145.525 172.626 145.16 172.255 144.856C171.885 144.553 171.396 144.401 170.789 144.401C170.238 144.401 169.788 144.542 169.44 144.823C169.091 145.104 168.917 145.508 168.917 146.037C168.917 146.396 169.024 146.694 169.237 146.93C169.462 147.155 169.743 147.335 170.08 147.47C170.418 147.605 170.878 147.751 171.463 147.908C172.239 148.122 172.868 148.335 173.351 148.549C173.846 148.762 174.262 149.094 174.599 149.544C174.948 149.982 175.122 150.572 175.122 151.314C175.122 151.91 174.959 152.472 174.633 153C174.318 153.528 173.852 153.956 173.233 154.282C172.626 154.596 171.907 154.754 171.075 154.754Z" fill="white"/>
<path d="M185.584 146.408C185.584 147.003 185.444 147.565 185.163 148.094C184.882 148.622 184.432 149.055 183.814 149.392C183.196 149.718 182.403 149.881 181.436 149.881H179.312L179.312 154.636H177.39L177.39 142.917H181.436C182.336 142.917 183.094 143.075 183.713 143.389C184.342 143.693 184.809 144.109 185.112 144.637C185.427 145.165 185.584 145.756 185.584 146.408ZM181.436 148.313C182.167 148.313 182.712 148.15 183.072 147.824C183.432 147.487 183.612 147.015 183.612 146.408C183.612 145.126 182.887 144.485 181.436 144.485H179.312V148.313H181.436Z" fill="white"/>
<path d="M192.762 154.754C191.672 154.754 190.666 154.501 189.744 153.995C188.834 153.478 188.109 152.764 187.569 151.854C187.041 150.932 186.777 149.898 186.777 148.751C186.777 147.605 187.041 146.576 187.569 145.666C188.109 144.755 188.834 144.047 189.744 143.541C190.666 143.024 191.672 142.766 192.762 142.766C193.864 142.766 194.87 143.024 195.78 143.541C196.702 144.047 197.427 144.755 197.956 145.666C198.484 146.576 198.748 147.605 198.748 148.751C198.748 149.898 198.484 150.932 197.956 151.854C197.427 152.764 196.702 153.478 195.78 153.995C194.87 154.501 193.864 154.754 192.762 154.754ZM192.762 153.084C193.538 153.084 194.229 152.91 194.836 152.562C195.443 152.202 195.915 151.696 196.253 151.044C196.601 150.381 196.775 149.617 196.775 148.751C196.775 147.886 196.601 147.127 196.253 146.475C195.915 145.823 195.443 145.323 194.836 144.974C194.229 144.626 193.538 144.452 192.762 144.452C191.987 144.452 191.295 144.626 190.688 144.974C190.081 145.323 189.604 145.823 189.255 146.475C188.918 147.127 188.749 147.886 188.749 148.751C188.749 149.617 188.918 150.381 189.255 151.044C189.604 151.696 190.081 152.202 190.688 152.562C191.295 152.91 191.987 153.084 192.762 153.084Z" fill="white"/>
<path d="M210.267 154.636H208.345L202.562 145.885L202.562 154.636H200.639L200.639 142.901H202.562L208.345 151.634V142.901L210.267 142.901L210.267 154.636Z" fill="white"/>
<path d="M214.713 142.917L214.713 154.636H212.791L212.791 142.917H214.713Z" fill="white"/>
<path d="M223.509 148.616C224.139 148.729 224.673 149.06 225.111 149.611C225.549 150.162 225.768 150.786 225.768 151.483C225.768 152.078 225.611 152.618 225.296 153.101C224.993 153.573 224.549 153.95 223.964 154.231C223.38 154.501 222.7 154.636 221.924 154.636H217.237V142.917H221.705C222.503 142.917 223.189 143.052 223.762 143.322C224.335 143.592 224.768 143.957 225.06 144.418C225.353 144.868 225.499 145.373 225.499 145.935C225.499 146.61 225.319 147.172 224.959 147.622C224.599 148.071 224.116 148.403 223.509 148.616ZM219.159 147.841H221.536C222.166 147.841 222.655 147.7 223.003 147.419C223.363 147.127 223.543 146.711 223.543 146.172C223.543 145.643 223.363 145.233 223.003 144.941C222.655 144.637 222.166 144.485 221.536 144.485H219.159V147.841ZM221.756 153.068C222.408 153.068 222.919 152.91 223.29 152.596C223.661 152.281 223.846 151.842 223.846 151.28C223.846 150.707 223.65 150.252 223.256 149.915C222.863 149.577 222.34 149.409 221.688 149.409H219.159V153.068H221.756Z" fill="white"/>
<path d="M229.779 153.084H233.742V154.636H227.857V142.917H229.779V153.084Z" fill="white"/>
<path d="M237.271 144.469V147.908H241.318V149.476H237.271V153.068L241.824 153.068V154.636L235.349 154.636V142.901H241.824V144.469H237.271Z" fill="white"/>
</svg>
